/* XPM */
static char *_1_resized[] = {
/* columns rows colors chars-per-pixel */
"64 64 210 2 ",
"   c #010000",
".  c #0B0503",
"X  c #0E0906",
"o  c #0D0A08",
"O  c #120704",
"+  c #130A06",
"@  c #1A0C07",
"#  c #150D09",
"$  c #1B0E09",
"%  c #16100C",
"&  c #1D110C",
"*  c #1E1611",
"=  c #171411",
"-  c #200F08",
";  c #240F07",
":  c #23130D",
">  c #2A150D",
",  c #2D180F",
"<  c #27180F",
"1  c #31170E",
"2  c #32190F",
"3  c #241611",
"4  c #2A1710",
"5  c #251912",
"6  c #2C1B13",
"7  c #2F1E18",
"8  c #341C13",
"9  c #3A1E13",
"0  c #321F18",
"q  c #2D2117",
"w  c #352116",
"e  c #3C2116",
"r  c #34221A",
"t  c #3C241A",
"y  c #3C291D",
"u  c #3A2922",
"i  c #411E12",
"p  c #432216",
"a  c #432519",
"s  c #4A2619",
"d  c #44291C",
"f  c #4B2A1C",
"g  c #512C1D",
"h  c #592F1D",
"j  c #53311F",
"k  c #5A311E",
"l  c #61331E",
"z  c #652E1C",
"x  c #442B21",
"c  c #4C2E21",
"v  c #5A2F20",
"b  c #502F22",
"n  c #4D3223",
"m  c #4B3429",
"M  c #463326",
"N  c #543223",
"B  c #5B3423",
"V  c #5C3926",
"C  c #543A2B",
"Z  c #5C3C2A",
"A  c #553729",
"S  c #5C3E30",
"D  c #633524",
"F  c #643926",
"G  c #6B3C27",
"H  c #643B2A",
"J  c #6B3D2A",
"K  c #653625",
"L  c #703C26",
"P  c #733F2A",
"I  c #5B402D",
"U  c #5E4533",
"Y  c #63422D",
"T  c #6B412D",
"R  c #74422D",
"E  c #7B442D",
"W  c #77482E",
"Q  c #7B482E",
"!  c #644534",
"~  c #6B4431",
"^  c #6E4935",
"/  c #6A4A3A",
"(  c #724632",
")  c #7B4731",
"_  c #744B34",
"`  c #7C4B34",
"'  c #7B4E3A",
"]  c #744938",
"[  c #7A513B",
"{  c #78523A",
"}  c #5D4A41",
"|  c #7C5643",
" . c #785B4B",
".. c #85452C",
"X. c #85482E",
"o. c #834B33",
"O. c #8B4D34",
"+. c #964F34",
"@. c #994E31",
"#. c #875236",
"$. c #8C5235",
"%. c #84533A",
"&. c #8B5439",
"*. c #85583D",
"=. c #8A5A3F",
"-. c #935334",
";. c #94543A",
":. c #945B3D",
">. c #9A5B3D",
",. c #995437",
"<. c #A45B3B",
"1. c #B35E3C",
"2. c #98603F",
"3. c #8A5A41",
"4. c #855B45",
"5. c #945D42",
"6. c #9C5F41",
"7. c #A35F41",
"8. c #83604D",
"9. c #8B634B",
"0. c #936143",
"q. c #9D6344",
"w. c #94664C",
"e. c #9E6B4F",
"r. c #8C6A56",
"t. c #8B695A",
"y. c #9B6E55",
"u. c #936D59",
"i. c #8F705D",
"p. c #9C735B",
"a. c #93725E",
"s. c #A36243",
"d. c #A96344",
"f. c #AB6846",
"g. c #A36A4B",
"h. c #A96C4C",
"j. c #A2674B",
"k. c #B46745",
"l. c #B16D4B",
"z. c #BC6E4A",
"x. c #B86A45",
"c. c #AA704C",
"v. c #BD724D",
"b. c #A86F52",
"n. c #A67355",
"m. c #AB7354",
"M. c #A8785B",
"N. c #B17252",
"B. c #B37955",
"V. c #BE7954",
"C. c #B67D5A",
"Z. c #BC7957",
"A. c #8C6F62",
"S. c #9B7966",
"D. c #A77D63",
"F. c #B87F60",
"G. c #C36E49",
"H. c #CB6E44",
"J. c #C3724C",
"K. c #C8744D",
"L. c #C2784F",
"P. c #C47651",
"I. c #C47A54",
"U. c #CC7E55",
"Y. c #C67F59",
"T. c #C97B55",
"R. c #D37C53",
"E. c #D87C51",
"W. c #D77546",
"Q. c #998272",
"!. c #AC826A",
"~. c #AF8366",
"^. c #BC8566",
"/. c #B58C73",
"(. c #BD947A",
"). c #BA9177",
"_. c #A48671",
"`. c #C8835E",
"'. c #DC8254",
"]. c #D2855B",
"[. c #DA8A5C",
"{. c #D88A5C",
"}. c #E38B58",
"|. c #C58964",
" X c #C48C6B",
".X c #CA8C67",
"XX c #D48C64",
"oX c #DC9165",
"OX c #DE9569",
"+X c #D6966C",
"@X c #CC9372",
"#X c #C79777",
"$X c #D49670",
"%X c #D19C7B",
"&X c #E89E6C",
"*X c #E29665",
"=X c #E09E74",
"-X c #DAA37D",
";X c #E8A778",
":X c #B49582",
">X c #C69D82",
",X c #D4A586",
"<X c #C8A189",
"1X c #E1A881",
"2X c #EAB78E",
"3X c #EFC091",
"4X c #F3C899",
"5X c #F9D6AA",
"6X c #F1CCA9",
"7X c #FEF6D8",
/* pixels */
"                                                                                                                                ",
"                                                                                                                                ",
"                                                                                                                                ",
"                                                        .                                                                       ",
"                                                .     . 3                                                                       ",
"                                                6 .   . e         # X                                                           ",
"                                                8 $   : p       5 j   # X .                                                     ",
"                                      . +       : $   8 j     * ~ ; = d u #                                                     ",
"                                        a d   . @ t   : s .   c F   C 8 V .   % .                                               ",
"                                . . .   r _ .   + B X @ g & @ B 9 : B : 8   & a   . .                                           ",
"                    .   . .       . X   X k 9 $ . p @ @ h . . h : s , e . r j . o 3   . .                                       ",
"                    . @ :   . . . @ k t . g 9 e w : n t Y   + s @ 8 < > 3 #.,   C   q 5   6 #                                   ",
"                      @ a a . . # + > l > p 2 . w 2 f { _ * > 8 & V *.& f e   A ,   H . , ,                                     ",
"                          : 2 . . @ @ > 2 9 B % . 2 O T W V t # q q.-.j Q t N Y   f @ # @ # : .                                 ",
"              .             + $ & @   @ - 1 g s . & O , &.H / # e c.F #.R w -.t { 9 # @ U T : % &   .                           ",
"          . . : e 2 .         O 2 f y . @ : 8 8 & & d d #.Z 3.S | ~.Y w.2 _ *.{ 8 @ $ Z ` X , w                                 ",
"                . $ @ .   .   .   : B : @ 3 9 3 4 - J q.0.G H t.9.D.*.S.( 5.q.c ; x %.;.- 8 9 # : # . . . .   . .               ",
"                      . .       X 8 _ 9 & # 0 t 6 3 t P D.^.A  .).y.w./.] y.' 9 K o.5.9 8 a t c 3 . + : + . @ # .               ",
"                  .     @ N n @ . # p h 9 0 r 3 $ 0 b ' J D.(. .>X!.[ t.i.4.b G P G t A D b x # # & + .   . # .     . .         ",
"                      + 6 : t f > # $ 8 0 f { 8.M 0 c ` /.A.p.D.p.).( S._.} a.H v ( ] ] B t & 4 t 3 . X .       . .             ",
"                    . 8 N g F H x & $ 4 8 a N 0.C.S g %./ >X:X(.p.M.{ D. .S.} P O.;.B v b * 7 t & # .     . + : 6 : .           ",
"          . X + + . .     8 J _ _ _ t : 5 3 6 0 f &.x 3./ H M.D.M.p.w.9./ c K A o.D H J 3 7 t $ # # . . # + . .                 ",
"        . @ : , 8 2 : # . . X $ 0 d W _ N c 7 3 0 c ( J %.u u.) o.' %.( S L N H J o.O.] J c & & 3 # . . . .                     ",
"                    @ : & X 3 0 7 6 6 N ( T A x x x 0 J ) A y.n.' ' o.H | y.P o.w.6.K ( P x 3 3 5 # . o .     +                 ",
"                . . 6 g B Q G d a r q u T *.4.0.{ T m 8.D.p.:X#X( ( 3.b. X>Xm.7.6.P ) J A r 0 t c f 9 4 $ . @ $                 ",
"          . : $ @ @ + @ & 6 4 8 a a f ~ ` o.o.#.c.|.9.C t.D.(.,X4.4.j.<X,X6.j.7.P O.7.5.o.J A v s t 3 # $ > : : , & o           ",
"        . . @ . . # : @ : t Y I m m r 6 r u f H G *.B.a.t./. X%Xn.F.@X2X6XM.7.7.;.;.7.6.o.) K f t a 9 9 s s i 9 8 6 6 &         ",
"                . # # @ 6 e F W ` 3.{ A 5 u r x ' ' ~.m.O.C.|.%XN.F.,X2X6X@X7.I.l.l.7.7.3.P K c b g B g v e : # . .     .       ",
"                . . . # .     . w % t o.W _ C d ) q.0.q.>.m. X|.$X.X%X1X1X$XJ.T.J.J.7.6.O.X.E E E B s a B F C y # . .           ",
"        . @ , e 9 9 p 2 : @ # X w V t f Y =.%.~ J o.B.L.k.g.:.C.|.@X|.$XY.$XXXR.R.G.7.;.>.d.<.O.X.O.>.F 6 @ : 6 @               ",
"  . # $ # + : $ $ + # $ O # . # % ; e a d { B.2.q.m.].OXXXh.m.h.7.Z.Y.XXU.R.OXE.G.7.x.G.R.K.7.o.P K B e & X X                   ",
"  # : . . . .   : p $     $ n ~ Y Y j B ^ 2.2.2.q.C.`.OX5XV.<.f.N.Y.R.=X1XoXOXH.K.R.R.E.k.O.D a 0 t 6 # + & & @ @ # .   .       ",
"  . + . . . .   . > . . @ , , .   @ 8 B Q f.:.B P ..6.v.%XF.>.+.h.7.5.T.4X4X4X2X&X'.'.K.>.#.%.' #.%.^ 0 & @ + X @ 5 5 o         ",
"    . + .   .         . . . : M A 8 9 f g B W :.6.z.k.l.B.%Xl.K.7.6.6.J.2X5X7X4XXXU.k.;.X.J B H H b n t &             .     .   ",
"    . + .     . . @ O . . > f f 8 9 p s g B G o.h.XXY.;.) o.q.1XP.7.G.R.OX*X2X&XW.K.l.:.4.~ H c a s f 9 r 6 %                   ",
"      .   . , , @ . . 6 8 & O .   . . 9 *.o.E D ;.=XXX+.3.3.o.b.Y.O.7.K.T.U.[.*X}.*XL.#.( J v t 3 & & : %   o X                 ",
"        . & +       # 3 O   . O . . $ > 9 s 2 f &.v.k.E 3.%.v v q.#.f.I.Y.I.XX;X[.}.}.T.6.) H J c 3 & $ > , % X .               ",
"      . . .     . & 8 2 , > > : $ $ @ @ . . $ 8 1 K v g x i G J v ) 6.E 6.+.x.].G.G.E.'.s.%.~ 9 x 3 + + X @ & : X               ",
"                + & & 6 6 w 9 : @ @ O . @ 6 g 9 f > - $ @ v K O 9 X.o.i &.@.<.H.1.x.x.<.o.J Z n : $ . . . . O - : & X           ",
"                . o % o O : O . O . . y Y D i > O O $ 6 x 9 $ @ s ..E s z E ..<...O.O.,.) H g c c 4 4 - .     . & 3 q &         ",
"            .   .   . 5 , @ . . .   X 6 > O O @ @ O @ r n : $ $ i i b b s b P @.P P O.7.o.a t 8 f & @ : d y .       X o .       ",
"                  & 8 : O . .     X : 1 O @ p : . . # 3 c 8 v 4 - 8 - : 0 3 a ..L ) x ] %.D 0 4 $ # @     * 5 o                 ",
"                : 6 +           . $ $ . & V w . . . @ 8 4 i s & 8 x K b 4 3 3 v v ( x 0 c K t 8 8 4 > .       # .         .     ",
"              . # @ .         . $ @ . $ , +   O @ . @ , 8 9 9 $ 9 D P v 9 3 4 0 a B Z 4 4 6 8 @ > p > . .     . .               ",
"              X # .         . @ . . # @     + $ . . @ 6 4 9 0 4 v P b i b 4 4 0 6 c b a # # # # # # $ : .     . % o   .         ",
"            o             X +   . : +   . + > . . - + : # 8 $ 8 K K x 9 B 6 0 6 0 6 8 r 4 $ # X . . . @ %         #             ",
"            o           . #   X : .     . > O O : $ . @ $ a . 8 i 4 c 0 0 3 $ 3 # X $ > $ 8 O   . . . . % X         .           ",
"                        . . X & .     . 2 @ @ @ 8 O # O : : . 8 0 - 7 - + O . + @ . . O : O 3 .         # &                     ",
"        .               . . %         8 @ @ . $ @ $ $ : . . . 1 > & + .   . . . @ . .   + 2 # o           # .                   ",
"                      X X + .       : # X # . : O O $ O .   $ - # & O   . . .   + @       $ e           .                       ",
"                      .   +       # :   X   $ @ :   - . @ + . @ X # @ .   . .   . $   . .   : 3                                 ",
"                    .   X .       # .     . . & X . @ . - @ . : . X : . . .   . . 2 X   .   . & .                               ",
"                                X +     . + . #   & @   O @ O +   . & @ .   .     : 6   .       .                               ",
"                                  .     & o . .   > +     . . .     + .   . +     . 3   #   .                                   ",
"                                            . . . 8 .         . .   .     . @       X   . . @   .                               ",
"                                          . .   . @ .   .     .           X o .             X X   .                             ",
"                                      .         . .     @     * X         . .                 .                                 ",
"                                          .             %     o X         . .                                                   ",
"                                                        .       .                                                               ",
"                                                      .     .                                                                   ",
"                                                                                                                                ",
"                                                                                                                                ",
"                                                                                                                                ",
"                                                                                                                                "
};
