/* XPM */
static char *_4_resized[] = {
/* columns rows colors chars-per-pixel */
"64 64 207 2 ",
"   c #010100",
".  c #090705",
"X  c #0B0907",
"o  c #0D0B09",
"O  c #070708",
"+  c #130B07",
"@  c #120E0A",
"#  c #190F08",
"$  c #1B0E06",
"%  c #15110E",
"&  c #1A130D",
"*  c #1F180F",
"=  c #161411",
"-  c #1A1612",
";  c #1D1915",
":  c #1E1C19",
">  c #21150D",
",  c #26180F",
"<  c #211710",
"1  c #231A14",
"2  c #2A1D14",
"3  c #231E1A",
"4  c #281F18",
"5  c #311E12",
"6  c #2D2017",
"7  c #26211C",
"8  c #2C231C",
"9  c #322217",
"0  c #3A2416",
"q  c #32251B",
"w  c #39271A",
"e  c #35281E",
"r  c #3B2A1D",
"t  c #262420",
"y  c #2B2621",
"u  c #2D2923",
"i  c #2C2C2B",
"p  c #342C24",
"a  c #3C2D23",
"s  c #322E2A",
"d  c #322720",
"f  c #3E3125",
"g  c #36312B",
"h  c #3C332B",
"j  c #373027",
"k  c #3B3732",
"l  c #3D3935",
"z  c #412C1E",
"x  c #4A2F1D",
"c  c #47301F",
"v  c #402D21",
"b  c #443224",
"n  c #4B3525",
"m  c #43352A",
"M  c #493729",
"N  c #44382D",
"B  c #4C3A2C",
"V  c #4F3827",
"C  c #533522",
"Z  c #543926",
"A  c #5B3A25",
"S  c #523C2B",
"D  c #5A3E2A",
"F  c #583722",
"G  c #443B33",
"H  c #4B3E32",
"J  c #513F30",
"K  c #5B412D",
"L  c #4B4136",
"P  c #554234",
"I  c #5B4433",
"U  c #5E4835",
"Y  c #52463B",
"T  c #56493C",
"R  c #5C4A3B",
"E  c #574837",
"W  c #63442E",
"Q  c #6C452B",
"!  c #614732",
"~  c #644935",
"^  c #6B4D36",
"/  c #634D3A",
"(  c #6C4F39",
")  c #67513E",
"_  c #6C523C",
"`  c #73543C",
"'  c #795539",
"]  c #4A4540",
"[  c #474746",
"{  c #544B42",
"}  c #5D4E41",
"|  c #5D534A",
" . c #645345",
".. c #6C5542",
"X. c #6D5845",
"o. c #635548",
"O. c #63584D",
"+. c #6C5B4B",
"@. c #695648",
"#. c #705741",
"$. c #735A45",
"%. c #7A5C44",
"&. c #745E4B",
"*. c #795E48",
"=. c #675C50",
"-. c #625750",
";. c #7D6146",
":. c #75604D",
">. c #7A624C",
",. c #6D645B",
"<. c #736252",
"1. c #796553",
"2. c #7D6854",
"3. c #7E6D60",
"4. c #815637",
"5. c #825F42",
"6. c #836043",
"7. c #83654B",
"8. c #8A664A",
"9. c #8B6A4E",
"0. c #936B4A",
"q. c #95714F",
"w. c #856C56",
"e. c #8B6D53",
"r. c #846E5A",
"t. c #806752",
"y. c #926F54",
"u. c #8A7159",
"i. c #8B7058",
"p. c #937154",
"a. c #9A7554",
"s. c #93755A",
"d. c #96795E",
"f. c #9D7A5D",
"g. c #997659",
"h. c #A47E5C",
"j. c #837363",
"k. c #8C7562",
"l. c #8B7969",
"z. c #947B64",
"x. c #9A7E63",
"c. c #927E69",
"v. c #9A8067",
"b. c #9C826B",
"n. c #97826C",
"m. c #958473",
"M. c #A38264",
"N. c #AD8865",
"B. c #A5876B",
"V. c #AC8B6D",
"C. c #A98667",
"Z. c #B38F6D",
"A. c #B08760",
"S. c #BB936D",
"D. c #A28A72",
"F. c #AC8D72",
"G. c #AE9174",
"H. c #AC937B",
"J. c #B59270",
"K. c #BC9976",
"L. c #B6997D",
"P. c #BB9B7B",
"I. c #B79677",
"U. c #C7986B",
"Y. c #C6A17B",
"T. c #D1A67D",
"R. c #AE9984",
"E. c #B59E86",
"W. c #BB9D80",
"Q. c #BCA084",
"!. c #BEA891",
"~. c #C5A483",
"^. c #CFAD8D",
"/. c #C9AB86",
"(. c #D4AD85",
"). c #DBB68F",
"_. c #D8B086",
"`. c #CEAF91",
"'. c #C6AD96",
"]. c #C8B29B",
"[. c #DEBA93",
"{. c #D6B99B",
"}. c #DCBD9C",
"|. c #D5B493",
" X c #CEB9A4",
".X c #D9BFA5",
"XX c #DFC09F",
"oX c #DFC6A9",
"OX c #D9C1A9",
"+X c #DFC8B0",
"@X c #E5C6A4",
"#X c #E6C9AA",
"$X c #EACEAF",
"%X c #EBD0AF",
"&X c #E8CEB3",
"*X c #ECD2B2",
"=X c #E9D2BB",
"-X c #F3DABA",
";X c #EDDAC5",
":X c #ECDBCB",
">X c #F2DEC4",
",X c #F0DFCF",
"<X c #F9E8CE",
"1X c #F5E2C8",
"2X c #F3E3D1",
"3X c #FDEBD3",
"4X c #FFF1DC",
/* pixels */
"                                                                                                                                ",
"                                                                                                                                ",
"                                                                                                                                ",
"                                                                                                                                ",
"                                                          . .     O     +   .                                                   ",
"                                                    .   .   &     2 X 2 :.    .   O                                             ",
"                                                  X X   @ f   2 - b H @ %.@ . . .     X                                         ",
"                                            O O       o   1.N   ;.1 r + 2 B b + O O k .   .                                     ",
"                                                o     & I   n   C * X + , w.+.4   : T   . %                                     ",
"                                          . o     q n + 2 # . & r 9 & a 1 ! =.=   H P   b       .                               ",
"                                              . @   # b 6.0 , - 1 5 @ } q #.H . ; q   P /   6 &                                 ",
"                                        .     X . .   + D Q 0 K i q 2 N J 8.Y 2 d 6 b n   . & X .                               ",
"                                          . o     % .   = 7 Z K N j M m *.W.<. .q I >.X & 5 v &   X                             ",
"                                      .     % . 1 # t ] : u 8 B D } :.7.F.].x.2.#._ q D z 1           O                         ",
"                                            n 2.F 5 7 f g t m R } #.z.P.@X{.P.B.8.U n r 2 d 2 q                                 ",
"                              X     O .   .   - X   $ & 9 f B _ E.s.x.'.}.).(.I.x...2 a r.<.w <     O X                         ",
"                      X   O . .   X     . o o   + 3 @ + + d a b $.p.Z.~.T.).[.`.C.X.o.T d       . .                             ",
"                  X   X X   %       6 @     a b z >.n 2 f ,.-.o.i.D.P._.@X&X#XoX'.F.#.a 3 ] -.q 0 E E +                         ",
"              .       . o . @ > +   e.N . # n a .   o + 2 S V R z.D.E.&X>X:X=X^.K.G.c.1.} P 5 < 3   = X O .                     ",
"                    X < / - . ` S 2 8.=.= + r I + # 1 2 2 v P ( p.x. X,X:X=X&X}.`.B.( V 2 + X = u   7 . X o                     ",
"            X   S 2   E / $   ..> @.V d % 0 *.d & > + * w V >.b.Z.S.|..X:X>X-X-X{.x.&.<.N 3 2 1 e m - : = 3   .                 ",
"            o @ @ K >   > + # n I ~ V 5 I _ ( w &   < r x @.l.+.*.g.e.R. X&X<X-X).H.c.r.+.s 7 & w D ! 3 1 o ; X     .           ",
"            1 r     # >   < e b 2 } W 2 # & A ~ i S Z z 3 m 6 P s.8.t.r.z.`.*X#XK.B.l.,.S m i [ p & - @ X o h # .               ",
"      . o   e S 2 +   & + = G M 9 B x.d q r ' ; ; 2 # 1 9 2 u _ ! s.D.! y.F.L.~.c.*.J 4 m v # p ~ P o X o o e %       .         ",
"              2 W 8.F X * & * p J B k.J f D P o * - e 2 & 8 1 M a r.e.~ 8.$.j.$.1.T M 8 @ ..q w ( $.n @ @ & +     - .           ",
"            .   X b C F 2 r 0 b S ..r.$.R ..M q < N | + @   . 7 j { C J J N  .G w ] - = - q M H ~ U V a 1 < 8 . s ;             ",
"      .   . + +   .   $ n M c _ 1.( x.z.u.s.E q a 4 2 1 w T B - s 3 > 1 2 1 N j # u ; . 6 1 D &.( #.V S 6 - # % ; 7 o   o       ",
"        . . 0 z 5 2 B N % ) X.! r.%.h.h.V.e.E e y h 2 z v H q ; - X # X % & 1 4 2 1 - 7 - r D 5.a.C.Z.%.a 2 X   . 1 3 -         ",
"            . X # > / 7.~ <.w./ 7.y.M.Y.A.i.1.H H N 5 %   S   @ % @ % @ @ = @ < v D H a 1 e ` A.U.Y.K.9.` a < 1 X % 8 u         ",
"      .     .   X o # 0 D ! ! &.u.V.#X#X~.Q.D.&.M 5 4 - e a w b X X @ o @ < @ % 2 z M a e n ( N.[.$X{.J.a.! r 7 o X 3 ; - X     ",
"          &   2 2 # 2 D 4.' D / >.].3X*XoX~.G.j.{ f & 3 &   V w   X S O t -.s & M w 2 q 2 v ^ H.1X1XXXL.y.` b 6 % X . . ;       ",
"        . M I 5 + 2 C F V M ..C.M.'.2X1X|.L.k.+.T H l = O = - O = X < O : g G ; q < 2 Z e w C b.2X<X}.K.8.K p % o X . o o       ",
"          @ & u b 5 2 & = s m.C.i.x.R.!.G.i...o.,.h ] [ e b ; o ; 3 . = - X O = j * X I B c ^ ` G.oX/.G.;.r 6 %     o 7 7 X     ",
"    . . .     b 6       4 @.5.5.b...U &.n.1.:.M L d + @ % 7 o ;   4 3 = t   2 N : o % 7 B V Z V I u.v.;.^ e % * = @   @ ;       ",
"          . o       2 ( S %.` >.*.P f E  .j.Y H 2 ; 2 -   @ o g @ p s ; o O s   8 8 @ @ * 1 2 r c r E M a r * X o 8 o           ",
"                . w 2 w z n P / n b 6 N h R } p d . @ 6 b o X ; = t - X   g - - T o X % o % < 2 r 6 6 p & *     O % O   . O     ",
"        .       / w . r & X p e.6 ; % , h # h : u q o . 6 o = y < m d   @ Y = = * N j %   o X 6 6 % % ; & . . O   3 7   O       ",
"      .       . %   X   . X - v + . X + p & o @   1 w X 7 - @ p 4 t.G ; d # & - o ; N 8 g X % h 6 X X X j . ; O - o o           ",
"      . O       .         . * 2 @ &   % & * @ @ o   q r 6 - # m ~ x.Y H a C a X X -   - g - o h >   ;   G h . G O y             ",
"          o     O . X . #   / q # X   X X 1 #   .   . & > b Z K 8.F.t.1.^ #.a ; 8 8 8 8 - o   ; &   8 @ % L   j -   =           ",
"          .     O .   p e   f + &   . X X 9 * % - % o - n ! 0.5.0.h.x.g.y.P f d s - a T y O : @ 3   % ;   u h   o   .           ",
"        .   .   O     2     . S %       . 1 2 G g 3 = = 6 ` *.*.q.U.I.Z.f.e.I 1 ;   % o u u ; X ;   X o .   p .   .     O       ",
"            O     . o   .   o r   % 2     <  .3   . @ > q ^ ( $.W.>X*X.XZ.8.P 8 7 p g : = y O O .   .                           ",
"                O   X       o .   e b   .   &       @ 6 v S #.e..X4X>X@XI.z.+.{ k % L k s g % O   .                             ",
"                    X .   . . o . X . .       % : - - 1 9 #.F.e.E.>X;X}.F.k.m.Y G @   = ; : u         X                         ",
"                                            X g o     & v ! ! _ x.z.B.x.w.E p L 8 . .   u = % %                                 ",
"                                            X   . - g # - 2 >.E #.D *.$...} -   = = ; 3 o ; O                                   ",
"                                              % 1 ; u . . & S 8 a M Y V B a p . . X o s | :                                     ",
"                                              . u 7 o   # 8 -   o r 1 1 % o 7 8   .   ; O.j .                                   ",
"                                              # u s       h =   @ ;   o X   O & O   ;   L f                                     ",
"                                                @ @   @   3 ;   . %   . o   . 8 - 7 y 7   ;                                     ",
"                                                    = :   3 y   X ; .     o X h ; h { >                                         ",
"                                                    7 &   . & . X 7     . X   u 8   8                                           ",
"                                          .         . .     = :   k     - @ X X @                                               ",
"                                                            % u   ; @   u i : %                                                 ",
"                                                              #     %   7 h o t                                                 ",
"                                              .                     1 X .                                                       ",
"                                                              .     y 7                                                         ",
"                                                  .                 X o                                                         ",
"                                                                .           .                                                   ",
"                                                              .                                                                 ",
"                                                                                                                                ",
"                                                                                                                                ",
"                                                                                                                                "
};
