/* XPM */
static char *_6_resized[] = {
/* columns rows colors chars-per-pixel */
"64 64 187 2 ",
"   c #010101",
".  c #0A0605",
"X  c #0D0806",
"o  c #060608",
"O  c #090708",
"+  c #07080A",
"@  c #0C0A0A",
"#  c #110A07",
"$  c #130D0B",
"%  c #180F0B",
"&  c #15100E",
"*  c #1B120D",
"=  c #110F10",
"-  c #151212",
";  c #1B1412",
":  c #1E1815",
">  c #1D1A19",
",  c #22140E",
"<  c #221612",
"1  c #231A15",
"2  c #2B1C14",
"3  c #251D19",
"4  c #2A1E1A",
"5  c #331F15",
"6  c #301F18",
"7  c #2E2017",
"8  c #25201D",
"9  c #2C221C",
"0  c #342016",
"q  c #3A2115",
"w  c #33241D",
"e  c #3A261C",
"r  c #33281F",
"t  c #3C291E",
"y  c #2D2622",
"u  c #2C2A28",
"i  c #262320",
"p  c #332621",
"a  c #352923",
"s  c #3C2C24",
"d  c #362C29",
"f  c #3E2F2A",
"g  c #3D3027",
"h  c #37322E",
"j  c #3B312B",
"k  c #402719",
"l  c #432B1F",
"z  c #4A2D1E",
"x  c #422E24",
"c  c #443126",
"v  c #4A3225",
"b  c #44332A",
"n  c #4B362B",
"m  c #46382E",
"M  c #4C392D",
"N  c #513425",
"B  c #563927",
"V  c #50372B",
"C  c #533B2D",
"Z  c #5B3E2C",
"A  c #403630",
"S  c #4E3D32",
"D  c #453B3C",
"F  c #533E32",
"G  c #5B3F31",
"H  c #663F2B",
"J  c #5D402F",
"K  c #554135",
"L  c #5B4334",
"P  c #5D4639",
"I  c #5E483B",
"U  c #67412E",
"Y  c #6B422E",
"T  c #72442B",
"R  c #79482C",
"E  c #624534",
"W  c #6A4633",
"Q  c #644836",
"!  c #6C4A36",
"~  c #634738",
"^  c #644A3A",
"/  c #6B4D3A",
"(  c #794F35",
")  c #714F3A",
"_  c #724B33",
"`  c #6D513E",
"'  c #73523D",
"]  c #7C553C",
"[  c #624E41",
"{  c #675041",
"}  c #6B5241",
"|  c #6C5648",
" . c #735642",
".. c #7A5741",
"X. c #7C5A44",
"o. c #755C4A",
"O. c #7B5E4A",
"+. c #6E5C52",
"@. c #7C614C",
"#. c #7A6352",
"$. c #84563A",
"%. c #855536",
"&. c #935F3B",
"*. c #835E44",
"=. c #8C5F41",
"-. c #856046",
";. c #886146",
":. c #84644C",
">. c #8A654B",
",. c #8C694F",
"<. c #91674A",
"1. c #946A4D",
"2. c #9A6E4F",
"3. c #9B704F",
"4. c #836651",
"5. c #886751",
"6. c #866954",
"7. c #8D6B53",
"8. c #8C6F59",
"9. c #946D52",
"0. c #8D705B",
"q. c #947056",
"w. c #9C7255",
"e. c #93735B",
"r. c #9B7559",
"t. c #9C795D",
"y. c #A37555",
"u. c #A37758",
"i. c #A47B5C",
"p. c #AA7F5E",
"a. c #9C7D64",
"s. c #947C69",
"d. c #A47F61",
"f. c #A87F60",
"g. c #AE805C",
"h. c #BB865E",
"j. c #9F8066",
"k. c #978575",
"l. c #A58164",
"z. c #AB8364",
"x. c #A5846A",
"c. c #AB866A",
"v. c #AE886B",
"b. c #B38764",
"n. c #B48865",
"m. c #B08769",
"M. c #B48C6B",
"N. c #BC8D69",
"B. c #BB8B64",
"V. c #B9906F",
"C. c #AD8C72",
"Z. c #B38E70",
"A. c #AF9279",
"S. c #B69173",
"D. c #BC9473",
"F. c #B89679",
"G. c #BD9A7B",
"H. c #B59479",
"J. c #C8946A",
"K. c #C49874",
"L. c #C49C7B",
"P. c #C89D76",
"I. c #BF9D80",
"U. c #BCA084",
"Y. c #C09F82",
"T. c #C3A284",
"R. c #CBA583",
"E. c #CFA987",
"W. c #CBA788",
"Q. c #CEAC8C",
"!. c #C4A88C",
"~. c #D8A980",
"^. c #D2AF8E",
"/. c #D6B08C",
"(. c #CFAF90",
"). c #D2AF91",
"_. c #D3B192",
"`. c #D9B693",
"'. c #D7B799",
"]. c #DDBE9E",
"[. c #DEBA97",
"{. c #E6B887",
"}. c #DFC4A9",
"|. c #E7C7A7",
" X c #E8CAAA",
".X c #EACFB3",
"XX c #E8D5BF",
/* pixels */
"                                                                                                                                ",
"                                                                                                                                ",
"                                                        - =           o @                                                       ",
"                                              o @     o 3 d @     -   > = -                                                     ",
"                                                8 @ o > 1 t $   o 9   9 @ > @ =     - -                                         ",
"                                      = -   o @ * w   3 2 k $   @ * & b @ - 3 O   y h                                           ",
"                          +             1 o   3 r <   $ < q #   X @ < * % ; ;   % M .     o @                                   ",
"                        o : 1     - $     $ > . : , .   * q X - -   * % % * o   2 %     y j @ o o                               ",
"                            a 1     =     o m 1   % $ o % e . : $ o $ % - % > = *     % v . - 3     @ .                         ",
"                    @ > @     : O   . o o   9 s   O $ i * 2 O * @ o @ @ 9 9 3 O : -   < . . %   - h > o                         ",
"                      o 9 .   o o   o   o o @ 6 = @ O < ; e 2 y @ + o @ 0 < < - d + @ $ . O 3 w K h                             ",
"                      o > f : 1 o o   o   o @ = - - O % ; < 1 w > - o = % % o p @   $ o O 1 5 z <           > &                 ",
"                          @ < % o O o = 1 o < 3 4 4 9 3 4 - % 2 4 - o @ $ @ : 1 + = = 3 w , 2 $         . 7 =                   ",
"              @ > @     @     % o @ O o 3 - 1 F V S I M 9 : - - 3 @ @ - @ @ < 3 3 s V v 2 % ; o .     o .                       ",
"          > : X @ 1 * - : - o   @   o o $ s p b ^ { o.M w C : 1 4 = - d - 4 3 s ~ E ..^ x 3 = o       . > -                     ",
"            @ $ .   O 6 6 O o o o @ o + @ : [ | E / G p a M s w x p 1 y - 4 a V :.*.9.6.L 4 $ s 9   9 K : . 3 > o               ",
"                        $ @ o   o 8 : @ - s F { ..=.1 s v x c w b 4 s 4 y a d ~ r.<.y.6.c y n M @ $ e $   , X                   ",
"        o 8 a * o   @ o   @ o o o y w ; 1 p M K G W 4 x E w c n b s V b x f n H 9.9.f.u.L v 6 = X * .   .     X 8 :             ",
"          - 3 w * . & * @ $ @ O o + 4 w 3 1 f b x < a V E C ' / H  .{ V F S S { *.p.h.y. .a 1 % - X   o   . % , s 9 o           ",
"                o   o o o o O = O O o ; x 0 1 w v V C / *.;.t.>.J.w. .O.~ ~ H  .>.N.B.2.4.v 3 < * X   o                         ",
"              o   o o ; g < = @ = @ + + < < 3 6 w N / ) p.M.f.f.J.p.f.9.*.u.w.{ } >.] ( V x n a % o o   ; $ # 7 @               ",
"                      o s g.B 7 6 = = 4 w % 1 4 6 x ..d.R.Y.Z.u.1.L.R.f.M.m.8.X.../ ! C x p % $ X o o % 4 X . .                 ",
"        o - 9 w 0 t 1 ; < / *.U v < = 3 s 2 ; x G ..<.V.].E.K.u.2.p.Y.K.W.Y.m.O.F G n n p 4 : $ @ @ O o         . X             ",
"      3 9 % X @ * &.%.q J J ' T G 9 ; ; 3 6 p p G G *.S.'.K.f.f.u.2.Y.Y.).Q.m. .) ~ n n p : - : - 3 : X o     . & 1 .           ",
"    u K c 0 2 % . v z , < z _ y.*.N 4 s C n p p s x *.r.f.d.-.>.7.w.V.]..X'.f.*.P L L c y 3 3 f K P K s g 1   .     X , : : .   ",
"  . @             o $ X < J ] M ' W F / E a s p 4 G ' G -... .*.-.f.)..X).Y.Z.-.' / Q 1 1 1 M 6.x.8.8.@.K s 1 1 1 X X .   & &   ",
"        > 9 < , 6 %   o & e J J o.x.5.d.i.X.K y 4 3 Z W H H *.1.<.*.f.Z.f.f.7.*.:.d...n p S K s.C.a.A.a.@.s & o     # * &       ",
"      o @ X $ $ % $ O O X < g 4.e.I.H.T.G.,.C s w 4 H $.*.H V  .*.5.9.9.s.:.! } >.q.} n d P e.e.C.j.x.a.` s 9 ; o   . X &       ",
"                . $ O   O : c :.F.!.(.(.F.e./ c a V H H H H H -.w.f.i.f.a...! ~ E v v F x c O.d.r.w.q.t.@.c & @ o       X X     ",
"        @ 9 5 ; % X X 4 0 s / z.(.}.XX XG.M.7.b 9 v x H V } =.K.p.u.Y.f.2.) V G a 3 a C ^ ^ O.t.9.g.3.5.I a & @                 ",
"    X * b t X     : 9 2 4 r C ;.{.|.|._.x.5.' ` P } x H H *.J.~.N.N.i.} G p p S 2 ; - : 3 F 5.O.] -.X.@.P w 1 @   X # % $       ",
"o 3 : X         $ - . i K M t Z v.T.n.C.k.o.^ ^ } N v s } { ..w.f.f.t. .! G b 4 3 - @ $ % 4 r c  .@.F L s r 8 ; .   . 2 , : &   ",
"@       o ; < = +   @ > @ o = p G } *.} s.b F b 2 - F 5.,.} V [ i.w.~ G G G G p b y < 4 4 < < c a s x V p $ X = @     $     X @ ",
"  o o o > = o @ - @ @ @ X - 4 p n V G  .| b 9 1 1 1 x } 9.[ n b H 1.b F }  .} x 4 9 2 < 3 9 $ 4 6 v v 4 % X                     ",
"o     @ @ O @ 3 $ o o o 8 y 1 y : - p v e ; ; - - ; ; p x 9 b x x V f } f.E.7.G 3 $ O o O X - 2 5 %.%.B 4 X             X * $   ",
"  o 1 * X o o     o   = =   + @ + ; a < a ; @ - } 1 = x 4 G 7.V > 3 1 H S.].f.G : - $ X @ O O $ # , 5 6 y ; # < 1 @ . #     - @ ",
"o 8 =     . . O O o o o   o + @ = : x ; O = @ O w $ @ 3 9 e.Y...4 1 < x G } [ G g 1 - % @ o   o . X X . + @ . $ & ; o % 3 .     ",
"=       - < % @   O o   @ @ @ - - y 9 - $ - @ @ @ @ O O < [ { x 4 : < 6 V f a } ` x w 3 - % X     .   q q                       ",
"o     @ : o $ $ $ O @ $ % @ $ : 4 A V b a y 3 ; @ O = @ = p < = - 4 k w x w x n  .Q L v w 1 ; ; .   O 5 2   . .     .           ",
"            # $ . = w < z 2 @ 4 F #.6.4.| F b < @ x x + + : @ $ 2 v H H e a n } @.q./ L P 1 @ @ 1 @           . # @   *         ",
"        o 1 X   o p y O $ ; ; p [ d.Y.f.q.~ s y - x 5 % = = + 4 x l H %.=.N V :.d.r.2.~ w c : @ O , 0 5 #         : @ o :       ",
"        : O   o p 3 .   o < w L a.I.E.L.m.8.[ b e a < 9 ; $ + 3 x x G B $.G *.e.I.K.n.=.n e p $ X # 5 < X 1 o       @     @     ",
"      o       & % .   o o 1 b ^ 4.F.`./.Y.C.w.G K C n w p 8 - 9 3 s S F F ~ ~ 8.L.L.f.>.C 6 4 3 O .       $ ; . .               ",
"            # . O o     X - 4 s { r.I.F.Y.I.d.:./ G P s b 1 3 i 4 4 p F b G K P 8.A.d.*.) 3 $ $ $   .       X % * :             ",
"        o : * 1     . X @ v w n V #.Y.H.I.8.[ [ E ' E c s p 3 1 ; ; < w x [ } P @.d.a.G } s $ .   .     .         $ .           ",
"        ; @ >     @ *   @ 6 p p y G } 6.8. .G W Z ) C x a p y 3 1 < % % b 6.6.| P 6.4.n 6 3 # .   # #           . &             ",
"      o o @     @ 1     $ = ; @ 3 3 f G  .o.S x x e ^ K w - 4 4 p p ; * b s.Y.0.S S b x 6 % # . .   * $     #     X :           ",
"                =     = * X O O ; < 3 v F ~ s y V n M s 4 ; ; A [ [ b < p f.'.q.b 9 2 2 6 4 . X   # . : .   . 1     o @         ",
"                    . 8   . # X > X : 0 : 1 4 f s 4 y : : $ * E x.8.v # * 6.H.F < % , , , %   . #   * @ :     .                 ",
"                    8 . X 1 X @ X @ p - = : = : < % 1 $ . . 1 v :.7.E ; . M +.6 < % % 2 2 .     1 1 o = o @                     ",
"                  : @ & 1 <   o   @ & o @ %   . O % - . . $ * 9 c b 0 % . 4 D 2 < % % , 2 #     o 8   o                         ",
"                X @ - @ w         #     .   o .   O .       - 1 9 & * % . - f $ % % # , , # .     @ .                           ",
"                X o o 9 :       X &   $     .   .       . .   * # * . # X % d ,   . . % , . % #     $ .                         ",
"                      8         *   . $     .     .     * #   .   # . . . % 3 1   .   , 2 X X <       : o                       ",
"                    $ o                   # .   .   . . # .               % < # .   . . 7 *   .       o ;                       ",
"                                        * *         % *       . . . .     # ; X *   . % . ; o           @ o                     ",
"                                        e *   . X   < #       # # X $   X % * # , .   .   o X             o                     ",
"                                      . t @   & .   # %       % . . &   . * . *                                                 ",
"                                        ; .   %     X &       *     &     *   =                                                 ",
"                                        @           & %       ;     @ *     X o                                                 ",
"                                                    * $       ;       $     *       %                                           ",
"                                                    * .       $ .           & @     :                                           ",
"                                                    X o       % X           . @     = .                                         ",
"                                                              X               +       o                                         "
};
