/* XPM */
static char *_8_resized[] = {
/* columns rows colors chars-per-pixel */
"64 64 215 2 ",
"   c #000000",
".  c #0A0206",
"X  c #0C0409",
"o  c #0B0509",
"O  c #120107",
"+  c #13050B",
"@  c #1B050D",
"#  c #13090D",
"$  c #1A080E",
"%  c #1E0007",
"&  c #160911",
"*  c #1C0A12",
"=  c #170710",
"-  c #1E1014",
";  c #23040D",
":  c #2B040E",
">  c #31040F",
",  c #3C010C",
"<  c #230710",
"1  c #2B0611",
"2  c #230B13",
"3  c #2B0A14",
"4  c #2C0F18",
"5  c #330611",
"6  c #3C0512",
"7  c #330A15",
"8  c #3B0916",
"9  c #330E19",
"0  c #3B0D19",
"q  c #261119",
"w  c #2C121A",
"e  c #281117",
"r  c #34121C",
"t  c #3B131E",
"y  c #351521",
"u  c #3D1421",
"i  c #3E1A24",
"p  c #49020E",
"a  c #41030E",
"s  c #430614",
"d  c #4D0513",
"f  c #430917",
"g  c #4C0817",
"h  c #430C1A",
"j  c #4B0C1B",
"k  c #530716",
"l  c #5C0515",
"z  c #5E0719",
"x  c #530C1C",
"c  c #5A0B1D",
"v  c #500718",
"b  c #43111D",
"n  c #4D111E",
"m  c #52101F",
"M  c #640415",
"N  c #6D051A",
"B  c #640B1D",
"V  c #6A0A1C",
"C  c #65071A",
"Z  c #720A1E",
"A  c #77061D",
"S  c #64101F",
"D  c #560E20",
"F  c #5B0E21",
"G  c #431420",
"H  c #4A1321",
"J  c #4B1A25",
"K  c #491C29",
"L  c #541323",
"P  c #5B1324",
"I  c #511925",
"U  c #541628",
"Y  c #5B1628",
"T  c #551B2B",
"R  c #5C1B2B",
"E  c #5B1927",
"W  c #5C1F30",
"Q  c #630E21",
"!  c #6C0E21",
"~  c #730E23",
"^  c #7B0C23",
"/  c #7A0720",
"(  c #631324",
")  c #6A1225",
"_  c #631628",
"`  c #691629",
"'  c #621B2C",
"]  c #6B1A2C",
"[  c #621827",
"{  c #731226",
"}  c #7C1126",
"|  c #741429",
" . c #7B142B",
".. c #721B2E",
"X. c #7D1A2E",
"o. c #661F31",
"O. c #6B1E32",
"+. c #741D31",
"@. c #7C1E32",
"#. c #472730",
"$. c #5D2231",
"%. c #6D2334",
"&. c #6F2639",
"*. c #752234",
"=. c #7B2135",
"-. c #7F2539",
";. c #7C293E",
":. c #77273A",
">. c #762F40",
",. c #85041E",
"<. c #830B24",
"1. c #8C0A26",
"2. c #8C0D28",
"3. c #980D29",
"4. c #82142B",
"5. c #8A142C",
"6. c #83192E",
"7. c #95122C",
"8. c #8E1630",
"9. c #841D33",
"0. c #8A1D33",
"q. c #9B1430",
"w. c #941A33",
"e. c #9C1C36",
"r. c #9A1E38",
"t. c #A0102E",
"y. c #A8102F",
"u. c #A21532",
"i. c #AA1534",
"p. c #A21C36",
"a. c #AB1837",
"s. c #AC1D3A",
"d. c #A61E3A",
"f. c #B31D3B",
"g. c #B21737",
"h. c #A10728",
"j. c #842136",
"k. c #8B2137",
"l. c #85253B",
"z. c #8B243A",
"x. c #85283C",
"c. c #8A293D",
"v. c #94243B",
"b. c #9B243C",
"n. c #95293E",
"m. c #99293E",
"M. c #942036",
"N. c #AD233F",
"B. c #A0273F",
"V. c #B2213F",
"C. c #852D42",
"Z. c #8D2C42",
"A. c #942C43",
"S. c #9C2C44",
"D. c #9A3046",
"F. c #9C344A",
"G. c #98394C",
"H. c #A92540",
"J. c #A32C43",
"K. c #AC2F48",
"L. c #B62441",
"P. c #B22A46",
"I. c #BA2B47",
"U. c #A53046",
"Y. c #A4344A",
"T. c #AD324B",
"R. c #AD394F",
"E. c #B3334B",
"W. c #B5384F",
"Q. c #A43C52",
"!. c #AD3C53",
"~. c #B33C53",
"^. c #BB3A52",
"/. c #B43751",
"(. c #C32948",
"). c #C6314D",
"_. c #CC3653",
"`. c #CB3B56",
"'. c #C33A54",
"]. c #D13350",
"[. c #AD4157",
"{. c #B44156",
"}. c #BC455B",
"|. c #B64258",
" X c #BF4C63",
".X c #B45264",
"XX c #C2445D",
"oX c #C6445B",
"OX c #DC445D",
"+X c #C44C62",
"@X c #C94B62",
"#X c #DA4964",
"$X c #CC5166",
"%X c #CC5469",
"&X c #CB5A6D",
"*X c #C55466",
"=X c #D3536B",
"-X c #D35A6E",
";X c #D9546B",
":X c #CD5C71",
">X c #D35E72",
",X c #DF5F75",
"<X c #E44F6A",
"1X c #E24B64",
"2X c #E35F75",
"3X c #DB6779",
"4X c #D56476",
"5X c #E2667C",
"6X c #E37B8B",
"7X c #E57486",
"8X c #EB818E",
"9X c #F38896",
"0X c #EE94A0",
"qX c #F194A0",
"wX c #F9A9B7",
/* pixels */
"                                                                                                                                ",
"                                                                                                                                ",
"                                                                                                                                ",
"                                                                                                                                ",
"                                                                                                                                ",
"                                                                                                                                ",
"                                                                                                                                ",
"                                                            o o o o                                                             ",
"                                              o         ; 1 X X o X o o o o =                                                   ",
"                                          o     o o o   . ..< < < * + X X = R o       o                                         ",
"                                          @ 8 X o o o     X < 8 v h @ b 3 X o o   2 &                                           ",
"                                  # *   o X +.=   o = + X * < | `.! 1 r * * 4 = o < = = o .                                     ",
"                                  o # o o   + $ = 3 9 < + * @ P +XF < 3 F H r * & = 0 < o o O + .                               ",
"                              . o     y =   & * 4 U x 8 @ = + @ F j = O.z.4 X = 4 n _ 3 @ ; J.l .                               ",
"                        *     . + X o & = o @ w t  .)._ X * * * o.H 1 4 < * = & h 8.@.h 3 9 %.; - $                             ",
"                      o o   . o < 1 @ X - X + r n ~ XX$.+ 4 u u 9 1 y 1 w 2 2 & F <Xp.D r 4 . X $ 2                             ",
"                      o o o X < ) b.5 . & * @ w h b 8 u b R H U U &.U =.u y u 4 G !. .T u 3 + + +   o .                         ",
"                  # .   . # $ 3 4.oX< . + 2 3 b r h ( *.H U 0 o.l.-.W &.K &.U W %.H l.+.9 = 2 l.;   * +                         ",
"                    o   + 2 2 b a > & 4 3 7 U | x F _.~.9.R U l.|.O.Z.O.O.|.C.' W T ( m 9 4 3 0 @ .         . .                 ",
"                        o @ b =.m.; * r 4 n j.`.Y.s =.A.@.-.Y.Y.l.O.A.C.@.F.;.O.O.' b 9 r 3 X X r @       4 b                   ",
"                    # + X K U d.=X3 % 4 t 0 ..K.x.Y Y Y.n.l.@X}.l.=.C.S.Q.;.A.l.+.0.P h < @ < = 2 =   o X &                     ",
"                    * o X < I ` 5 2 ; 1 b t [ Y.[.x.-.z.S.Y.Y.v.Y.Y.Y.F.G.C./.T.D D 7 1 ; 1 < @ . + = + .   #                   ",
"              o #   . * @ = 1 3 r 2 r 9 4 R j.}.:Xc.j.6.oX2XJ.k.+X=X|.XX[.|.A.O.H 0 1 < 0 o.3 3 9 G T < . o * # o               ",
"                o o o = $ @ @ : 8 G H I b =.m.XX-XD.X.X.J.^.M.j./././.7X=X/.C.Y x b.0.3 3 5 8 H ..( 7 = X o   X .               ",
"                  X = < 1 @ < 1 8 5 3 P ] j.5.$X4XJ.z. .b.B.6.6./.XX+X$X~.Z.l.9.{ 0.F 5 8 0 3 + !  .7 < X                       ",
"                  o ; b.O.= < @ f F P L  .| ) w.=X$Xn.6.K.k.k.k.d.7X$X+XXXZ.l.z.j.m 5 L ] 0 1 h 0 8 5 @ . .                     ",
"                  . ; { t 3 9 3 1 H :.0 j P ) Y.%X%X6.P ) 6.T.M.8.XX7X+X!.Q.S.S...j E ] n x x c 8 u L g : . @ 8 .               ",
"              3 4 w r 2 @ @ 9 F j 7 9 Y ] x ( j.n.4.{ c { 0.B.U./.XX=XT.B.A.r.N.j.6.K.j.Y x c H G 0 1 h 3 @ r n                 ",
"              . + + * 4 3 9 b h f 9 5 h ..! B v.X.| B v w.m.R.*X+XR.B.Y.Q.S./.H.Z &X;Xk.U j f 8 1 @ ; < < @     X               ",
"            # .   . = 7 ( ] 3 0 P 5 5 j ` Q z 9...{ V N q.oX4X0X:X+XU.J.XX%X}.A.B 0.0.m P 6 5 s 6 7 3 < < . X . #               ",
"            .   o + 3 8 ` W J o.+.D h +.A.j...k ~ } / 2.g.7XqX8X>X/.b.T.%X,X*Xv.S V ) n x s s j j v x t 0 + . .                 ",
"                  o + 1 7 t b A.v.Y @.S.4X&Xk.( V A <.<.t.=X5X_.'.r.w.H.-X7X|.r.V V ^ ) c f f x d T.P.s ; +                     ",
"                  X u 3 9 9 0 U P P ..^.9X6X0.~ / A <.t.s.V.V.V.V.s.2.2.H.^.'.0.4.B.w.} 4.` _ ( , k.M.b < < [ ;                 ",
"                  o @ + = * 2 b _ _ 0.K.~.{.| C / <.i.(.i.s.a.a.q.2.1.L.'.3.8.! Z Z } V ) ) ( j.L c ) 3 3 @ 5 ;                 ",
"              . X + X & X * 3 H ] O.Y ] 9.@.Q B 5.s.<X`.h.a.g.f.a.t.<.u.oX7.C k Z { M.J.D.9...' h x 5.< . .                     ",
"          h t o # # & X o = 7 H 9.Q F s F | <.w.H._.1X].y.y.3.f.#X(.<.l Z k.} l , p Z Z | [ ] x 6 x g @ # + O .                 ",
"          ; . + & o # o . h $.t D x 6 c ` c 5.H.V.].#X<XL.g.i.f.;XI.,.d M V S l d M B m m [ S 1 7 6 x ; O 0 n -                 ",
"                - #     . 8 ; @ 0 6 c v 6 6  .L.u.L.#Xg.a.i.t.t.u.2.M a M 3.p a B ) m m [ t 8 b r w E h ; U.X..                 ",
"                    * + X . @ b ; , x ; : k ^ r.8.5.s.f.u.q.1.<.,.w.V a d <.l p z c S E m h n 0 2 $ - $ O f h .                 ",
"                    = + . + u + . % ; ; ; Q 8.4.~ { 8.s.i.3./ N M B V k B C m V M.B d 8 5 > j f 3 ; @ . . O # .                 ",
"                2     X D Z.% . + O 5 : ; 0 x } ) F ~ } p.d.N N p , , , [ v.l.=.0.w.6.7 ; f > @ @ m n o # L 7 . X               ",
"                +     @ ( 0.+ o . ; 3 : > n g x x j D { ~ r.~ ~ a > s 6 =.:X+XD.` c S 8 2 @ O O . O @ O . % O   #               ",
"                    o & 3 : @ . < 4 : B Z.f 5 0 ) 5 n D F O.g g , 5 m I A.4XwX4Xj.b 5 3 2 2 #   .     . *                       ",
"                  - &   + * o O r @ 6 u.W.8 < f 8 1 8 s j ` 8 s c d O.*.*.Z.4X.X=.P 3 O X $ q q .   .   o                       ",
"                          &   s c @ h ` v 8 8 3 = < 5 s 6 s 6 s T.S P %.[ ( ;.;.%...1 # . . . 2 #.$ . .                         ",
"                      .     . @ 1 t 0 0 3 3 3 1 3 1 8 D 8 5 > s { c g ( P n I $.J ; ; < $ . 2 $ e i [.x + .                     ",
"                    o   . 4 . o + 3 @ r < < = @ t 7 3 5 0 1 @ : > > m *.( j 0 J i 2 . O $ $ O X . > m.h                         ",
"                            . o + 1 = * 3 + * y r 8 @ 1 H o.; 1 7 0 n F.G.3 < b *.I 0 @ # # #     3 : @ X                       ",
"                              + . . . = U x.L 0 3 0 < 1 H H 3 7 7 3 r E E 4 3 7 m *.W.: + O o w $ X . . #                       ",
"                            o &     . w E I.L 5 7 ..3 3 T 9 3 1 7 5 4 < t t < $ $ 0 m r X     @ O                               ",
"                                    $ & 4 x 0 3 D 8 < 2 W 0 3 @ :.[ 2 $ 2 q # @ $ e $ $ $         # .                           ",
"                                  o & * $ m 3 ; h + & y 3 < 9 9 M.=.$ 2 + $ * # O $ 2 o O X       o                             ",
"                                      w .   & #   # = q = o 4 0 5 1 # r e $ 2 n m . b $   # *                                   ",
"                                            o o o o q o o o + u $ X o $ o b b b 8 . . o   o e                                   ",
"                                                  o + o   o o 5 X   o       X X             #                                   ",
"                                                o X @ +   & o X     . - o o o                                                   ",
"                                                          # .               o                                                   ",
"                                                              #                                                                 ",
"                                                                                                                                ",
"                                                                                                                                ",
"                                                                                                                                ",
"                                                                                                                                ",
"                                                                                                                                ",
"                                                                                                                                "
};
