/* XPM */
static char *_2_resized[] = {
/* columns rows colors chars-per-pixel */
"64 64 250 2 ",
"   c #000001",
".  c #0B0405",
"X  c #03050A",
"o  c #0A060A",
"O  c #04080E",
"+  c #0C0A0D",
"@  c #0B0807",
"#  c #13070A",
"$  c #140A0C",
"%  c #1B0A0B",
"&  c #160606",
"*  c #040A13",
"=  c #0C0A13",
"-  c #090F1A",
";  c #090813",
":  c #130C12",
">  c #1B0C12",
",  c #150D19",
"<  c #0B121D",
"1  c #091417",
"2  c #12131C",
"3  c #1A1417",
"4  c #18110F",
"5  c #230C0B",
"6  c #2A0C0C",
"7  c #250A07",
"8  c #370E0C",
"9  c #25120D",
"0  c #39140E",
"q  c #240D14",
"w  c #2A0E18",
"e  c #350F15",
"r  c #231513",
"t  c #25131D",
"y  c #2C131B",
"u  c #2B1819",
"i  c #321414",
"p  c #3B1513",
"a  c #36171B",
"s  c #38231B",
"d  c #0C1523",
"f  c #091824",
"g  c #111624",
"h  c #141926",
"j  c #141B2B",
"k  c #1C1D2C",
"l  c #1A1622",
"z  c #171E31",
"x  c #1F0F20",
"c  c #221422",
"v  c #2C1622",
"b  c #2B1A23",
"n  c #281B29",
"m  c #361A27",
"M  c #281E34",
"N  c #3A1E31",
"B  c #172527",
"V  c #0E2637",
"C  c #152335",
"Z  c #18283B",
"A  c #132D2C",
"S  c #28262A",
"D  c #372528",
"F  c #272737",
"G  c #372637",
"H  c #263A38",
"J  c #3A352E",
"K  c #14201F",
"L  c #45110E",
"P  c #481816",
"I  c #571A15",
"U  c #681D14",
"Y  c #56241D",
"T  c #4B221C",
"R  c #682418",
"E  c #772519",
"W  c #441C2B",
"Q  c #471B26",
"!  c #521D28",
"~  c #491C33",
"^  c #531E35",
"/  c #6E1C33",
"(  c #442224",
")  c #48272A",
"_  c #582728",
"`  c #4C312D",
"'  c #573529",
"]  c #4A2233",
"[  c #462839",
"{  c #542433",
"}  c #5C2B3C",
"|  c #582739",
" . c #483537",
".. c #573433",
"X. c #652828",
"o. c #762827",
"O. c #673528",
"+. c #7A3427",
"@. c #672937",
"#. c #742B37",
"$. c #683637",
"%. c #7A3939",
"&. c #3A433B",
"*. c #594935",
"=. c #784528",
"-. c #744739",
";. c #79563A",
":. c #6C4635",
">. c #163543",
",. c #1B3651",
"<. c #382B43",
"1. c #253649",
"2. c #373647",
"3. c #293A52",
"4. c #333350",
"5. c #363F60",
"6. c #492B45",
"7. c #5B2943",
"8. c #463848",
"9. c #553448",
"0. c #4E3B56",
"q. c #652D42",
"w. c #673547",
"e. c #743646",
"r. c #70354F",
"t. c #1B4451",
"y. c #394345",
"u. c #27425B",
"i. c #3B4456",
"p. c #184967",
"a. c #274965",
"s. c #374767",
"d. c #38586C",
"f. c #375A78",
"g. c #2B5073",
"h. c #306975",
"j. c #504D52",
"k. c #6E494B",
"l. c #706754",
"z. c #465775",
"x. c #4E4F69",
"c. c #556979",
"v. c #506D74",
"b. c #6D6C6E",
"n. c #665D69",
"m. c #931E0E",
"M. c #952B17",
"N. c #9A341A",
"B. c #87301A",
"V. c #A82B15",
"C. c #A8381B",
"Z. c #B62C17",
"A. c #892C27",
"S. c #873627",
"D. c #993528",
"F. c #853837",
"G. c #983739",
"H. c #892A32",
"J. c #A63827",
"K. c #A53738",
"L. c #B73736",
"P. c #B4332A",
"I. c #901E26",
"U. c #D6381B",
"Y. c #C52F16",
"T. c #CD3A30",
"R. c #E23F30",
"E. c #964827",
"W. c #834836",
"Q. c #904E36",
"!. c #AF4B30",
"~. c #BB6636",
"^. c #B9451C",
"/. c #D3451C",
"(. c #C74437",
"). c #D34F32",
"_. c #E65330",
"`. c #D76536",
"'. c #D26E33",
"]. c #EA7436",
"[. c #EE4A1F",
"{. c #853844",
"}. c #963844",
"|. c #8C304D",
" X c #B0374B",
".X c #C83951",
"XX c #854548",
"oX c #914E50",
"OX c #A94648",
"+X c #B24C4C",
"@X c #91694A",
"#X c #AD6D4F",
"$X c #9C546F",
"%X c #AE5A69",
"&X c #916F6C",
"*X c #A56367",
"=X c #B56D71",
"-X c #D54B57",
";X c #CE4D50",
":X c #E85A52",
">X c #D56C46",
",X c #E96C4D",
"<X c #D25765",
"1X c #D26E6E",
"2X c #ED7876",
"3X c #EB6D6B",
"4X c #E95C69",
"5X c #958670",
"6X c #B48975",
"7X c #A78351",
"8X c #D88D50",
"9X c #ED964B",
"0X c #E7955A",
"qX c #EF9052",
"wX c #F0AB59",
"eX c #CD9571",
"rX c #F48465",
"tX c #EE8F73",
"yX c #F4AB64",
"uX c #F2B875",
"iX c #F0AE6D",
"pX c #D8AB76",
"aX c #F6C77A",
"sX c #3D5D85",
"dX c #39668A",
"fX c #536888",
"gX c #507592",
"hX c #6C718A",
"jX c #547AA3",
"kX c #475E82",
"lX c #92758B",
"zX c #B5718B",
"xX c #D17481",
"cX c #F07882",
"vX c #4D8491",
"bX c #74878F",
"nX c #7687A8",
"mX c #8C8891",
"MX c #B29293",
"NX c #8C93AE",
"BX c #AB99AC",
"VX c #F38884",
"CX c #F19194",
"ZX c #F3AF95",
"AX c #D2AEAE",
"SX c #F8B2AD",
"DX c #D49D94",
"FX c #F6CB8C",
"GX c #F8C5A4",
"HX c #FACCC2",
/* pixels */
"                                                                                                                                ",
"                                                                                                                                ",
"                                                                                X                                               ",
"                                                                                                                                ",
"                                                                          X   X X X X X     X                                   ",
"                                  X   X X                               X   X * * X     X X                                     ",
"                                      X   X                       X O     1 1 X X X   X   X X                                   ",
"                          X   X X   X   X   X         o 9     = 1 1 *.f Z l.&.2.H f *   X     X     X                           ",
"                      X   X   X X X X     X X * K       & 9   1 t.t.l.h.v.v.d.j.j.*.1 @     X   X                               ",
"                        X X X *   d X O * X   X K &.1 X 4 9 h >.h.vXv.vXbXvXp.t.j.A 1 @ O X O                                   ",
"                    X O X < - f O C ; j g q > O   1 A 1 r T B >.h.vXbXbXMXbXh.v.H 1 1 r s &.K     X                             ",
"                * X O d < z z >.* 1.< B 2 B D P r O X K * s *.h.bX5X6XpXMXbXkXi.>.A J s H 1   X X                               ",
"                * z - d >.z 1.a.Z 1.f 2.2.i.S S T ' &.K 1 S @Xl.5XpXuXFXeX6X5Xf.p.j.Q.&.O @ r 4                                 ",
"                  - 3.z 1.1.3.z.fXz.i.s.d.2.b Z * s =.*.B D *.5X5X8XyXyXeXpX7Xj.j.k.n.y.K u $ + o X O                           ",
"              O O   - 3.1.1.x.d.hXlX&X&X5Xl.j.F u 9 T Y ( )  .Q.7X8XwX0XaX0X*X*X*Xn.j.2 4 2 u r q + X                           ",
"            - d C Z - ; 1.j.x.x.z.zXzX$X*X*X5X@X:...o.R P o.G.!.~.0XiXrXiX>X=X=X=XoXF.( u u 3 1 X O X                           ",
"            X * d z Z j M n.x.|.$XzXMX2X<X<XOX-.=.` S b Q I F.G.#XrXDXrX3XrX2X1XOX%.@.W 3 H H 3 4 + o X                         ",
"        O * < * O - - g 9.|.$X+X<X<XVXVX:X>X#XQ.;.*.` J S ] @.XXG.+XtXtXVXSXVX-XOX{.@.S K S s s s D 3 X O O                     ",
"        O O - z z C j h d n w.|.4XtXZXZXCXiX,X`.!.@X;.:.k.r.$.%.%.OXZXSXSXZXVX4X<X{.a s s s Y O.T j.1.Z g.V                     ",
"          * * - d < h h F [ 9.}.;XtXZXGXZX,X:X+XW.:.' ` 0.9.w.@.$.1XSXHXSXSXZXVX3XG._ T s s b 2.z.f.d.h.g.<                     ",
"            * j j j d l N { |.<X4X,XrXGXGXrX,X).W.Y _ w.} q.e.{ F.OXcXCXVXSXGXCX4X+X{ b t u G 2.h.dXf.gXu.p.V -                 ",
"          X d d h j j j - ~ e. X:X-X,XtXtXrX:X!.Q.O.$...m N m | @.H.xXcXCXSXSXcX-X}.e.) b S j.c.j.3.u.u.g.,.V f X               ",
"        X * * - d h h 2 M G @.H.I.R.:X).,X(.`.#XQ.W.' ) } @.#./ @.|. X3X2X3X4X:XJ.' ( ( b l C 2.j.k.b.s.p.p.>.<                 ",
"              X < h g h c 3 a Q J..XV.(.P.(.~.W.l.$.X.#.oX;X}.|. X.XT.-XR.).(.L.D.;.*.P Y Y F ,.a.a.gXg.a.a.1.< X               ",
"              O g g g < , g , W #.! o.A.M.Q.X.O.) O.$.%.;X+X X<X<X-X.XT.P.J.+XG.X.B.;.*.i ' :.2.z ,.p.a.u.t.F =                 ",
"            O * * g h g z g l M b D W _ _ W Q ( X._ $.#.}. X+X-X<X-X;XL.L.+.W.W...Y =.' u l ` -.8.,.,.1.1.Z f X                 ",
"            O   ; < j g z g z z k n b G D D m X.} k.r.e.|.<X-XcX4X-X XG.!.-.o.X._ _ +.' a y t J  .z F H b h X                   ",
"          X     O X h < j g x z k l n N n n $...k.0.x.b.lXzXxXcX4X-X+XG.%.:.S.o.X.X.+.@X' y u b g S ` b 1 $ . . . & &           ",
"            X X   * ; d g d d Z z k M <.M @.[ 9.x.z.hXNXlXzXAXAX<X+XG.G.%.$.+.S.O.+.A.~.;.O.T i a R u 3 w % # & . .             ",
"                X = O d - c z <.M M M <.] } 4.0.f.jXNXnXNXBXAXxX1X=XoXW.S.S.S.!.E.!.C.E.S.E.T 0 Y e P Y i 5 @                   ",
"          X   X X ; t c * ^ 6.F r.6.<.M e.6.3.g.sXfXfXhXBXMXMXMXmXb.l.oXE.).~.8X].].'.N.M.C.E P L I S.+.I i .     .   . &       ",
"            X o r : ; x x M 7.<.r.7.N M 7.4.3.g.dXjXjXzXMXDX1XlXb.&X@X~.'.9X9X9XyX0X].'.'.C.U P I T p L a r 5 & & . .           ",
"        X   X X X > q : g M ~ N ^ q.M ~ 7.0.1.4.s.f.hXMXAXAXMXNXb.&X7X8X8X0XaXaXFXaXwX0X`.!.U I 0 9 i s J J s @ @ & 7           ",
"                    X w ^ 7.|.7.~ r.r.q.7.9.0.5.sXjXnXhXvXNXhXb.n.5X@XeX8XaXwXwXFXFXuX0XqX`.E L P T 9 4 @ .   .   . . .         ",
"              X ; w w > w q.|.oXr.oXr.^ 6.9.0.5.s.s.sXx.c.vXc.z.v.b.@X0XwXwXwXwXFXaXuXiX'.D.E E X.! P 0 P s 9 . .   % % & &     ",
"            . % q # ; > m ^ e.oXMX*Xq.~ <.<.4.0.5.g.sXf.kXsXc. .n.5X@X'.9XwX9XaXFXZXuXqX].J.E I 8 7 5 9 9 s 0                   ",
"          X X . # % # # v ~ | $.1X#X7.w.G M G 4.5.x.x.5.s.s.z.[ *.l.=.E.~.'.].9X0X0X0X'.).C.B.+.=.O.0 % & 9 9 @   .             ",
"              # % o o # W ^ W $.ZX6Xe.G v N G <.6.0.0.0.8.5.2.8.R ;.R R B.'.].'.].].].'./.V.M.B.+.+.Y i     @ . .   . 7 .       ",
"            # # # w ^ ^ Q e | | k.k.{ @.] N { 7.6.<.0.0.G <.G ` Y T T U B./.^.~._.`._.U.U.Z.T.P.P.!.S._ u $   @ .               ",
"          o 5 % % L w X . , a y { ] c W 7.n N r.7.0.r.6.N S u Q P L B.N.m.N.m.C./.[.U.U.Y.U.R.).;X;XG.b 4 s +     . . .         ",
"          & # . % . X 5 q q y ^ @.c a v ^ q.7.r.e.w.w.6.N t q ! 0 =.E.Z._.,XY.Z.Z.U.Z.m.U.T.L.K.G.OXO.p $ o +     . . . .       ",
"          . . 5   o 8 7 # W t | |.e.#.! Q {.r.q.7.| e...m v > ^ Y =.D._.rXrX].[.[.U.V.U B.(.B.R T m J 3 i 9 X o                 ",
"            %   # P 5 o ; y , / {..X.X.XH.{ {.{.} { | $.Q a > ^ / E ).:X:X,X:X_.).(.M.I L R p 8 a % D y.= u >                   ",
"          X     5 % & X o , # Q #.G. XK.G.@.@.F.} m ! q.N 3 > @.#.I A.D.G..XR.T.T.T.J.U 0 p 5 % P ` m G 3 o $ o o X   %         ",
"              #   # X   o > o q i o.A./ F.X.! ~ | m { @.N v , ^ |.6 P / A.A.A.A.H.A.J.M.L p 5 w t ) 8.c v c ; o , , ; .         ",
"            X   X     X . > X 5 > ! _ a X._ m Q W ~ @.N | v # q.|.8 e L I L L I L I U B.I 6 q a b v j.8.6.[ c ; , , ; X         ",
"                      X X # X o ; i y t a a Q a v v / N ^ c X ^ |.e 5 L L 6 7 8 7 L L L 8 # > t t 3 c J n G c ; O X X .         ",
"                  X       o X X O : : : : 3 > m v x ~ N ^ n X / |.6 7 Q 6 6 & % o % 8 # % o o > > = , , , l l , X   X           ",
"                      X   o   X X X > o O : o 3 n v m W ~ m X /  Xw q Q # 8 #   . . 6 . @ o   o o X o ; = O ; o X   X           ",
"                      X   X   X X X % X X o X O v N m ^ W ~ X #..Xw w w   7 .   @ @ &   . o       o X X   . X .                 ",
"                        X   X   X   X X X X     > W m / ! / * F..X, P q   #   X . & X   X         X o X   # @                   ",
"                      X   X   X   X   X X X X X # m ! / @./ X {..X; a #   X X . . . &   . .         . X   .                     ",
"                    X       X     X X   X X   X o w ! / $.#.O XX X* m X         X . .     .       . &                           ",
"                          X   X X     X     X X   : P X.$.$.= W. X- v   . .     . .     . .                                     ",
"                          X   X   X X   X   X   X X y _ $...4 k.OXo 4   X # X   .         .         .                           ",
"                                  X   X   X   X   X + D .._ 3 ..XXo =   .                   .       .                           ",
"                                    X X   X X     X O 3 ` ) 4 ` %.X @     X     &   .                                           ",
"                                X       X     X X     + s s 1 ` '     X         .                                               ",
"                                            X       X   4 u + s s                                                               ",
"                                                X       + r @ u r                                                               ",
"                                                        X $ @ 4 $                                                               ",
"                                                    X     @   + @                                                               ",
"                                                              @                                                                 ",
"                                                                                                                                "
};
