/* XPM */
static char *_4_resized[] = {
/* columns rows colors chars-per-pixel */
"64 64 250 2 ",
"   c #010001",
".  c #0B0404",
"X  c #0D0906",
"o  c #050609",
"O  c #0B0709",
"+  c #0C0A0B",
"@  c #050809",
"#  c #140404",
"$  c #1B0404",
"%  c #120A07",
"&  c #1D0A07",
"*  c #130D0A",
"=  c #1B0C0A",
"-  c #120708",
";  c #16110D",
":  c #1C120D",
">  c #1E1007",
",  c #0E0D11",
"<  c #110E11",
"1  c #1B0E10",
"2  c #131213",
"3  c #1C1412",
"4  c #161519",
"5  c #1A161B",
"6  c #1C1B1C",
"7  c #1A1917",
"8  c #0E1111",
"9  c #230403",
"0  c #220905",
"q  c #230D0A",
"w  c #2B0E0A",
"e  c #2B0605",
"r  c #350A07",
"t  c #23130D",
"y  c #2C120B",
"u  c #2A1A0E",
"i  c #3C1A0D",
"p  c #38150C",
"a  c #280F11",
"s  c #221513",
"d  c #2B1612",
"f  c #241A15",
"g  c #2C1B14",
"h  c #241D1A",
"j  c #2B1C1A",
"k  c #21171C",
"l  c #341B14",
"z  c #321C1B",
"x  c #391814",
"c  c #1E211D",
"v  c #2C221B",
"b  c #28231C",
"n  c #32241B",
"m  c #3B231C",
"M  c #382618",
"N  c #1E1B20",
"B  c #241D21",
"V  c #2B1D23",
"C  c #371D24",
"Z  c #1C2322",
"A  c #232424",
"S  c #2B2423",
"D  c #2C2C2B",
"F  c #282928",
"G  c #342322",
"H  c #352A23",
"J  c #3C2B23",
"K  c #3C2B2C",
"L  c #362729",
"P  c #28302C",
"I  c #393329",
"U  c #2C3935",
"Y  c #383935",
"T  c #3B2D30",
"R  c #480908",
"E  c #550D08",
"W  c #45160C",
"Q  c #54170D",
"!  c #461915",
"~  c #561B14",
"^  c #660405",
"/  c #681C18",
"(  c #761918",
")  c #720F0D",
"_  c #43231B",
"`  c #492517",
"'  c #542B1C",
"]  c #5A2918",
"[  c #56311C",
"{  c #4C2C18",
"}  c #652517",
"|  c #762718",
" . c #7B361B",
".. c #62341D",
"X. c #401F24",
"o. c #751F21",
"O. c #452C23",
"+. c #492825",
"@. c #562A25",
"#. c #47342A",
"$. c #593429",
"%. c #452C35",
"&. c #463937",
"*. c #573A37",
"=. c #632D26",
"-. c #772A27",
";. c #673727",
":. c #773A27",
">. c #6C3B37",
",. c #7A3D37",
"<. c #3A4035",
"1. c #464638",
"2. c #574436",
"3. c #594732",
"4. c #75432B",
"5. c #674638",
"6. c #774736",
"7. c #7A533B",
"8. c #6A4833",
"9. c #5E3E43",
"0. c #3C4944",
"q. c #474945",
"w. c #584745",
"e. c #5A584A",
"r. c #525550",
"t. c #694A47",
"y. c #65574A",
"u. c #795848",
"i. c #635B56",
"p. c #76514A",
"a. c #6A6555",
"s. c #776957",
"d. c #7A725B",
"f. c #71614A",
"g. c #787565",
"h. c #6D6D62",
"j. c #645B66",
"k. c #891A17",
"l. c #901513",
"z. c #B01D17",
"x. c #8D2B1C",
"c. c #B52814",
"v. c #8A2A24",
"b. c #863828",
"n. c #993626",
"m. c #943031",
"M. c #A82A24",
"N. c #A53729",
"B. c #B6372C",
"V. c #B6352C",
"C. c #CD1E17",
"Z. c #CC331C",
"A. c #CF3327",
"S. c #E43B1E",
"D. c #88462A",
"F. c #98482A",
"G. c #874D39",
"H. c #8B5C3A",
"J. c #975938",
"K. c #944E32",
"L. c #A55738",
"P. c #BA5838",
"I. c #AF4B2E",
"U. c #9A633B",
"Y. c #A66439",
"T. c #B86638",
"R. c #B66E37",
"E. c #9A4A1F",
"W. c #D3553B",
"Q. c #CC4C30",
"!. c #EC5327",
"~. c #C77538",
"^. c #D97B38",
"/. c #CD7033",
"(. c #EE793A",
"). c #D64B1E",
"_. c #865846",
"`. c #975A44",
"'. c #874C44",
"]. c #AD5942",
"[. c #B75C45",
"{. c #BF4D42",
"}. c #81644B",
"|. c #976446",
" X c #8A6B54",
".X c #976954",
"XX c #9F7259",
"oX c #89735A",
"OX c #A46947",
"+X c #B8674B",
"@X c #B87544",
"#X c #A97657",
"$X c #B57756",
"%X c #AA734F",
"&X c #857B64",
"*X c #977B62",
"=X c #D45942",
"-X c #C87545",
";X c #D97A56",
":X c #CD714E",
">X c #E77854",
",X c #EE734A",
"<X c #768173",
"1X c #E0883C",
"2X c #BA8553",
"3X c #B28052",
"4X c #8E8A74",
"5X c #B59770",
"6X c #AC8E6F",
"7X c #96825F",
"8X c #C88549",
"9X c #D8884A",
"0X c #CB8556",
"qX c #CA935A",
"wX c #D89A58",
"eX c #DB8E50",
"rX c #E69647",
"tX c #E29651",
"yX c #E28A4B",
"uX c #DFA15E",
"iX c #E9A65A",
"pX c #F2B75E",
"aX c #C78764",
"sX c #C89666",
"dX c #D5946C",
"fX c #EA9966",
"gX c #D9A566",
"hX c #DAA779",
"jX c #D6AE75",
"kX c #E7A963",
"lX c #E7B46C",
"zX c #F4B867",
"xX c #E7B674",
"cX c #ECAA74",
"vX c #F4C476",
"bX c #F7CC7E",
"nX c #8D9A86",
"mX c #ADAD8F",
"MX c #A3AC95",
"NX c #D7AE87",
"BX c #EAB386",
"VX c #F9BA87",
"CX c #CFC29D",
"ZX c #F8D38A",
"AX c #F5D595",
"SX c #F0C88F",
"DX c #EDD0A5",
"FX c #FBE2AE",
"GX c #CACEB0",
"HX c #F9EBD0",
/* pixels */
"                                                                                                                                ",
"                                                                                                                                ",
"                                                                                                                                ",
"                                .         .                                                                                     ",
"                                            % . . +     .                             .                                         ",
"                              .   % ;   @   u ; M `       o .                 .   o   7 *     o   .                             ",
"                                X ; :     @ l t i Q   @ u                   o   8 . 2 X +   + f                                 ",
"                        X % M u % > t   . . r 0 $   & 0 X @           + ; + X   ; X 3 .     X *   7                             ",
"                      . ` r y ` & $ p $ r # 9 $ . > 0 . u u .           : +     . . y l   O *   X g   .                         ",
"                    % % { { # & e u p r E 9 0 . . e . e % .       o         ; +   .   *   * = o t   ; .                         ",
"                    % l . Q Q . $ w p Q ^ r $ . $ . $ .   . .   .     + . *   O . o .   * - . # .   .   + ;                     ",
"                  o   Q r 9 E 9 # $ 9 Q R ^ R 9 9 $ # w i # %   X =       * . * O O * j a - . o 9 r   . f   .                   ",
"                  . $ w M W 9 9 # w Q x.n.z.| } R 9 9 W r W q % - . .     w l #.L < &.w.j < 1 < ! ) - #   . > .                 ",
"                  > u i W ..W p W W 2XsXI.^ ~  .k.R e e r E Q y #       3 G K &.s.q.*.&.V L V < < 5 C o   .                     ",
"                  . # $ r w r ~ K...%XDX$X( E x.k.] Q Q Q / ~ 0 $ . . X 6 D F y.XX*X%X_.i.w.B %.@.k O #           .             ",
"                > n i r # p ] Q U.gXE.sXjX| / ~.D.M.) E E E R ! i - . X S S H #XaXhX*X#Xu.Y T >.K @.X.O   . % .   .             ",
"                . . % = r ` ] }  .lXqX4.jXU.Y.iXI.).c.^ ^ l.r e y = * * A Y e.+XhXDX6X5Xs.r.r.9.%.%.! a a *                     ",
"                . + * q w ` ` ] | R.pX2XqXqXwX8XQ.!.!.C.S.z.E e e q . + S q.a.oX.XsXmXnXg.mX&Xt.&.T V a * .                     ",
"                t { { M W } ' 4.D.R.rX1XlXSXvX-X).c.).Z.C.c.E W q %   ; L H *.w._.&XmXnXMXnX&Xp.*.T z a q a                     ",
"              o > ; t [  .F.%XU. .D.~.qXxXFXxX-X/.I.x.l.^ ^ R p d w & * x F 2.f.&XMXmXGXMXnX4Xg.w.T V a * + .   - .             ",
"                  % [ [ ` [ W ..3X2XqXlXjXSXgXR.^.E.x.P.( r e 9 & w q s n H Y 1.i.4XGXGXCXnX<Xh.e.%.V 5 O         .             ",
"                @ : ; : ] W 3.qXwXU.8X8X2XSXtX).I.I.T.T.( e e x q . t m b I &.1.y.4XMXGXMX4Xg.a.1.%.G , O o   o o .             ",
"                @ X M ....` ..4. .R.R.D.H.gX1X!.c.n.F.| } } r 9 & - = k b b <.3.7Xd.<XmXg.g.i.e.D B N , O O +   O .             ",
"                X { M % % i W ..U.U.[ Y.D.0XkXZ.l.Z.k.Q ` u _ w 0 q d m H P 3.5.a.e.a.s.d.y.a.q.&.D 4 4 , O * o   o             ",
"                . * . * [ ] ` H.{ p ..Y.E.3XgXD.| x./ ) ] ! z x w * j #.#.#.2.oXf.f.<X7X7X4Xs. Xs.D N 5 2 < , < , , o           ",
"                  + = O.[ q t 0 > y ` [ ' 3.H.[ :.~ Q :.I.n.b.+.w x $.$.7.5._.5Xu.y.5XqXjX7XoXf.G N 5 4 4 5 N , , , o           ",
"                o   f n - = = 0 # u 0 y M $.;.` @.} v.P.;X,XI.@.! =.;.$.H.H.U.jX7.s.xX3X X Xu.#.%.J S h 4 4 4 4 4 , o           ",
"              o   @ X X + * y 0 & 0 > p i ' ;.@.x ] b.L.eX>XL.6.$.$.:.G.OXJ.U.gXH.3X8X$XlXiXY.J.|.2.K B 5 4 < 4 , @ o           ",
"                @ @ 4 h 6 h m z { l - q = d :.:.J @.G.].+X-XL.;.4.4.4.I.~.9XgXgX8XR.R.wXAXvXkXT.4.*.2.}.w.B 6 , o .             ",
"                6 b 6 6 j @.$.+.O._ d t = 3 +.@.L *.].J.].L.D.=.8.6.K.8XkXgXxXvXlXeXeXlXZXiX@X6.6.|.u.oXy.F 4 O   @             ",
"            + 6 4 I I j k.A.N.v.=.@.y m k 1 G G K 2.t.>.5.,.;.>.7.7.|.iXzXxXSXAXAXZXvXZXFXzX-X|.p..X6XnXg.&.5 , o               ",
"          ; @ 2 h ; n ' x.z.V.=XN.! ! #.1 1 k S L &.&.*.$.=.$.$.5.6.D.8XeXiXkXAXZXvXzXvXAXZXtXY.6.p.h.i.q.A 5 2 *               ",
"          + ; X 3 j J x @.+.-.A.m.v.-.-.a k C C K t.t.t.p.>.,.,.>.J.L.Y./.^.eXzXiXpXpXpX1X1XvX~.Y.3Xs.a.Y + , 2                 ",
"          X   . ; 1 3 d =.@.~ ~ p / o.l.! X.%.C C %.9.9.t.>.'..X$XdX:XI./.1XuXrX1XvXzXpXiXpXwXOX7.7.d.h.q.b , 2 +               ",
"          ; 7 ; 2 j d z ! ] x x w d z G a 1 < k B L Y %.%.9._.p.6.:X=X;XrX^.wX9X^.zXpXrXzXbXU._ H.oXa.U D F A A + o             ",
"            X : v j G d p p p d = - d C +.k N 5 V C %.9.9.'._.>.b.K.[.;X-XF.Y.8X^.zXkX/.0XqX7.e.8.8.Y <.D 6 A +       .         ",
"          ; ; ; h f d d =.~ . # j 1 = _ C V 1 N L V T 9.9.+X`.,.G.`.'.F.L.:.6.U.P.(.(./.4.3.d.<.e.Y U <.P P Z + 6 + o +         ",
"        X c ; ; . * ; % d p g 3 7 G j s V C %.C %.%.C C %.m.m.t.'.`.4.:. ...n ..b.E.I. .8.1.<.<Xd.e.0.0.0.P 6 4 +     o         ",
"            + f * + * j & $ z n S L +.s a %.j.9.>.@.C C X.! =.'..X6.` ' b.[ l D./.| { 3.M 1.Z r.<Xa.r.0.<.Z U P . @ +           ",
"        . : 3 : ; t ; : - * : 3 v z d J X.%.,.m.m.k.( o.-.>.-.>.`.G.` M M z #.;.4.[ u <.M I <.U f.1.U U Z Z Z     @ +           ",
"        ;   2 b h * * 3 3 s s d = 3 x G $.@.m.V.A.C.A.z.{.;XV.v.b.n.:.C k f G S ;.[ #.I 3.<.r.U 1.<.U 0.P F A P 4 o             ",
"          + 2 * o j f . 3 s * 1 3 O G x ! o.M.V.M.V.A.{.{.NX;XV.I.-.=._ j V 4 N =.` c 1.1.1.U P P A P P 8 A A A 4 2             ",
"          o o   7 K + + f s * = k - s =.@.m.B.V.m.M.N.dX:X;XdXA.:X>.=.+.+.$.K L c 4 A Y P I 7 6 4 8 8 D , A 4     8 @           ",
"              + 6 < * < 7 t / s 3 + 1 +.-.v.N.B.].+X:X;X>X:X;X;X+Xb.;.$.*.$.S D Z 4 Z c c 7 8 8 6 4 @ Z 4 .     + .             ",
"              +   o , 5 5 O p 3 < o a -.{.=XA.[.NXNX$X:X+X[.dXBX;XA.,.>.i.i.s h H b 6 b A 8 @   @ 2 2 A 2   o   + 4             ",
"              . o @ , , 2 o   + ,   a l.l.V.=X[.dXDXNX$XXXaXBXBX>X=XJ.$.t.j.s t 3 h 7 + 8 8 + 2 @ + A   6 8   c                 ",
"                  @ o   < +   o *   o e =.].=X;XBXHXHXXX`.aXBXBX,XW.[.p.d z G n J #.I 7   + 6   @ o + 8 o 2     .               ",
"              o o   o   , o     O   k +.p.[.>XfXSXDXNXXX%X;XVXVX=XM.J.@.! = l v * v 7 X + + 4 +   6   +   o 6 + +               ",
"                                  X t f m } B.>XcXhX6XdX$XaXSXFX;Xb.@.#.[ M > #.#..   + + o 8 +   2 2   . @                     ",
"                                o   7 b #.$.! | =X:X:X'.5.`.$XdX`.2.j f : v @   b v . 8 4   4   o +       6 +                   ",
"                                  : ; v y.3 % m _ =.G.G m 8.2.8.%.h 3 * t * H @   ;   6 o   + 6     o       .                   ",
"                                    ; M X   #.H d J ' ! d _ O.6.G 2   6 #.O.n n   o .         + .   + +                         ",
"                                    g   X J n f n t M v u & l _ =.N k = S b M b %                                               ",
"                                  X X X b g   v b : #.t u % v l =.h 2 J   7 ; M ;   .                                           ",
"                                  X   ; > @   I b M I X t . { f   j   v c . ; X ;                                               ",
"                                      X .   % n b f b : n X n b   h   X n   %   .                                               ",
"                                            t b * : f v v ; t t   f ; @ ; *                                                     ",
"                                            ; :   > c f v ; * ;   f + *   ;                                                     ",
"                                            .   * * f X : + X ;   ; + ;   *                                                     ",
"                                                X X ;   * X   X   X   *                                                         ",
"                                                  X X   *     .       .                                                         ",
"                                                  X     X     .                                                                 ",
"                                                                                                                                ",
"                                                                                                                                "
};
