/* XPM */
static char *_5_resized[] = {
/* columns rows colors chars-per-pixel */
"64 64 214 2 ",
"   c #010000",
".  c #0B0403",
"X  c #0E0806",
"o  c #0F0A08",
"O  c #120604",
"+  c #1A0603",
"@  c #150906",
"#  c #1B0A06",
"$  c #150D09",
"%  c #1B0D09",
"&  c #16100D",
"*  c #1C110C",
"=  c #210502",
"-  c #220B06",
";  c #2B0B05",
":  c #230E09",
">  c #2A0F08",
",  c #330E06",
"<  c #310F08",
"1  c #3A0D05",
"2  c #24120C",
"3  c #2B130C",
"4  c #2F180D",
"5  c #33140C",
"6  c #3B150C",
"7  c #35180F",
"8  c #3B190E",
"9  c #3A1207",
"0  c #241611",
"q  c #2B1710",
"w  c #261912",
"e  c #2D1A12",
"r  c #341B12",
"t  c #3B1C12",
"y  c #311710",
"u  c #3C2116",
"i  c #34231A",
"p  c #3C241A",
"a  c #312017",
"s  c #3B2820",
"d  c #400E03",
"f  c #42160B",
"g  c #4A160A",
"h  c #431A0E",
"j  c #4B1B0D",
"k  c #481206",
"l  c #541C0D",
"z  c #5A1C0C",
"x  c #5A1708",
"c  c #441D11",
"v  c #4B1E11",
"b  c #531F11",
"n  c #5A1F10",
"m  c #631E0B",
"M  c #5B200E",
"N  c #442215",
"B  c #4C2214",
"V  c #44261A",
"C  c #4C2619",
"Z  c #45291B",
"A  c #4C2A1C",
"S  c #532414",
"D  c #5B2514",
"F  c #5B2917",
"G  c #522718",
"H  c #542A1B",
"J  c #5C2C1B",
"K  c #542917",
"L  c #5E301E",
"P  c #56311E",
"I  c #62210E",
"U  c #6B230E",
"Y  c #78260D",
"T  c #632512",
"R  c #6B2611",
"E  c #642A16",
"W  c #6B2B15",
"Q  c #632D19",
"!  c #6C2E19",
"~  c #732C14",
"^  c #7A2D13",
"/  c #742F18",
"(  c #63321D",
")  c #6C331D",
"_  c #7C3115",
"`  c #73341B",
"'  c #7A351A",
"]  c #76391F",
"[  c #7E3A1E",
"{  c #492E22",
"}  c #462F22",
"|  c #4D3123",
" . c #493427",
".. c #533425",
"X. c #5C3423",
"o. c #5A3826",
"O. c #503629",
"+. c #543A2A",
"@. c #5C3B2B",
"#. c #643522",
"$. c #6B3621",
"%. c #653825",
"&. c #6B3A25",
"*. c #663B28",
"=. c #743720",
"-. c #733B24",
";. c #7B3D23",
":. c #733F28",
">. c #5F402E",
",. c #5E4635",
"<. c #6C412D",
"1. c #64422F",
"2. c #7D4226",
"3. c #75442C",
"4. c #7D442A",
"5. c #7E492E",
"6. c #744027",
"7. c #644533",
"8. c #6C4532",
"9. c #744631",
"0. c #754933",
"q. c #7B4B33",
"w. c #79513A",
"e. c #73513B",
"r. c #7D5741",
"t. c #775341",
"y. c #802D11",
"u. c #8B3414",
"i. c #833619",
"p. c #833B1D",
"a. c #8B3C1D",
"s. c #843517",
"d. c #923C19",
"f. c #A23E14",
"g. c #843E22",
"h. c #93411E",
"j. c #A4421A",
"k. c #A8491F",
"l. c #844225",
"z. c #8B4223",
"x. c #844529",
"c. c #8A472A",
"v. c #83492D",
"b. c #8B4A2B",
"n. c #934523",
"m. c #9B4722",
"M. c #944A27",
"N. c #934D2D",
"B. c #9D4C28",
"V. c #994925",
"C. c #9D532E",
"Z. c #824D33",
"A. c #8C4E31",
"S. c #944F30",
"D. c #8C5234",
"F. c #865439",
"G. c #8C5639",
"H. c #8D5A3D",
"J. c #86543A",
"K. c #935434",
"L. c #9A5432",
"P. c #9C5B37",
"I. c #9D5C39",
"U. c #935937",
"Y. c #A54D24",
"T. c #A55026",
"R. c #A3532D",
"E. c #AB562B",
"W. c #AF592C",
"Q. c #B75829",
"!. c #A35630",
"~. c #A45A35",
"^. c #AC5C32",
"/. c #A05F3C",
"(. c #B35D30",
"). c #9E603D",
"_. c #BC602E",
"`. c #A5633C",
"'. c #AD643A",
"]. c #AD6236",
"[. c #BC6434",
"{. c #B96A3C",
"}. c #B9703F",
"|. c #C66A37",
" X c #955E41",
".X c #895B41",
"XX c #8E6448",
"oX c #996847",
"OX c #986F52",
"+X c #9D7152",
"@X c #A46A45",
"#X c #AB6B45",
"$X c #A56D49",
"%X c #A96E4C",
"&X c #A36441",
"*X c #B26D45",
"=X c #B96F46",
"-X c #AA724D",
";X c #AA7148",
":X c #B4744B",
">X c #BB744A",
",X c #BC7549",
"<X c #A47657",
"1X c #B67C53",
"2X c #C37749",
"3X c #D27D43",
"4X c #BC815B",
"5X c #B68363",
"6X c #C88757",
"7X c #D28E5C",
"8X c #D8874E",
"9X c #E98D4B",
"0X c #DDB899",
"qX c #EACEB1",
/* pixels */
"                                                                                                                                ",
"                                                            . X             . o   .                                             ",
"                                                  . O         O .           . .   *         .                                   ",
"                                              -     @       . 3 # X . * X . 4 . & %   o . $                                     ",
"                                      .       % #   O .     O 7 r . X 2 q 2 t e Z @ o & . . . &                                 ",
"                          . .                 . :   O . . o . : r X X # % 4 2 r 4 e 2 . @ * 2 2 o                               ",
"                            O .                 -   # #   . $ 2 7 $ # : O 2 : 2 # % . X * 2 * . * e *                           ",
"                              : @       . $ X . % . % 4 w 2 . 4 r 2 % 2 % 3 7 % { @ . O @ @ * 2 r q .                           ",
"                        + @ . O : . 2 r . * e O 2 2   # $ >.q t 7 # 4 2 8 7 # C %.O 0 @ # 2 u p * * .                           ",
"                        . # # . @ 2 % A Z $ y $ . %.i # 4 7.e C t @ P A : 5 % N 3 * : u 2 7 V u O                               ",
"                            O O # % w 3 q.O.% % $ S XXq y r.o.Q F 4 r 6.G 8 3 t : C 7 3 7 N P ..a $ * $                         ",
"                    O . . % % @ % * w e S -XV # * > *X,.3 w.p 7 3 4 c P v : N 7 0.K : > 3 5 u P ..+.Z .                         ",
"                      $ : o % 0 $ * * 4 8 P.w.+ % : '.$XO r r V B 8 B 5 8 5 B <.$X5 4 u > 3 7 3 o.:Xc                           ",
"                    . O 0 : $ 2 7 # @ * 7 K 5.7 2 2 -.].@ V 5.C 7 L F 3 K N 8 @Xl.# > 7 7 u % } '.! Z e X       .               ",
"                    . t H O.5 q t t # @ 3 8 K V 8 0 N B.C X.Q H.C J ] F B 8 7 N.M K t > 5 5 A ).z.-.A r o &  .V 2   .           ",
"            .     . . . t Z.r.: # B K 5 5 B c t 2 h G D F 3 6 $Xu S @XB V N 5 v 5 t N 3 N N Z.R.' ;.H q +.G.H O o * & .         ",
"                  o # O   5 c.OX0 - Q 0.c T Q b c 7 #.H v t 8 #X8 B A.= oX;.> 3 > O 3 6 6 X.:Xg.J B t oX=XM @ 2 O               ",
"            . .     . * : * 6 c.oX: > x.%XM.W F D t D %XB - B I.h 3.#.> '.W #.l.h v 5 7 H @X(.E r { oX~.T 4 % @   . .           ",
"        . # O . O # % 2 t c { C D Q > b (.6X&.b c c k :X<Xf S K.N ).h B z.8 U.Y.h F F j A.z.~ S *.#Xn.j 2 3 O . . @ O .         ",
"          . # # X > y 2 * 5 D A.8.C v c ` W.U.b Q c 9 z.6Xf F 4.B v.5 ) E K ' l j S S E E T S Q b.$.c C # . O O . . . .         ",
"          . . O 3 > % 3 t 3 6 T g.9.B V v ~ ` J ;.P.c D ^.D S F 5 j B F J l.S 5 h K ) D S v v $.B J H O + e @       O & $       ",
"          O # : : ; 6 : 3 v V c =.A.Q b -.Q R E L.|.I.9 E ! 6 h B C K 6 *X[.g 5 B F v v t 6 f c q.l.*.<.q.o.C a 3 u } e w o     ",
"          O O O - # + 3 v J :.q.g.*X1X#.! &X-.j ' m.T.S 1 T 6 f U.( h c Y._ 5 : ;.E c N 5 f c.#X|.g.v.K.f t t 3 3 2 . .         ",
"      . . . O : r O.s # ; v n F ) g.2X-Xb T A.S d M M M.4.z E ( =.N j ) F g $.=X[.D C t f p.9X2XV.p.T - 2 - O . . . . . #       ",
"          . . : t H 9..X{ ; h b b b p.R.=.D y.2XJ.g g ^ 3X' ' 4.S -.S |.a.B R.j.~ Z./.n b s.f.u.U M 5 # @ # # + @ - @ X # @     ",
"    . .   . .   . - V H L H 5 5 S v g R g.%XG.Y.~.' g.g.Y d.V.4.g l.T p.x T z D L._.d.l z m l g j S : O + - # @ @ # O . X X     ",
"  . . . O # @ O : c L o.c ; 6 n A.-X XQ l Y ^.M.U R d.3XN.Y ~ T 6.c.M E ;.f F 2XQ.m R 6 g g.L.b , 7 5 ; + : ; > 2 3 #           ",
"          . O O @ 5 D Z..X0.#.n ` ^.>X4.n z g n x z y.f.(.n.x l z.h.U [.|.R m.|.|.R ! m.!.B.^ z 5 < 5 < 5 6 5 5 h X.9.O.a O     ",
"  . . .   . O # : 6 h j I g.$.j b y.[.1XD.D n ;.v.~ !.~.n l g.=.g D T U x T T s.k.E.a.u.h.p.) C < ; + = - : 2 > - # # # % 2 .   ",
". . . . O # # ; 6 c v H H 8 f 6 j n s.E.d./ y.U _ / d.M.R :.a.g.z L.b g j k 1 l d.Q.B.~ y.a.T.(.p.P *.6.2.6.%.L 2 . . .         ",
"        . . . . : c b L *.J v c 6 g E i.R g.g.c.=.n b f T d.d.L./.g.n x f.p.K.D 1 k d D T F k z I E ) ~ W D h 8 5 +             ",
". . . O # - - : : # @ 5 6 v &.Z.:.E ~ !.:X*XS. Xb.2X:Xg.g./ c.0XqXS.~ ;.~ _.9Xg.6 6 9 6 Q c.( 5 6 5 8 t f v v 8 8 A O.i .       ",
". . . : < - : : * : 3 r 8 v h , v J -.z.~ T ! l ' g.z.c.g.` n.1X1X!.'.(.! U g.b v D h ; b Z.H < > = + - - # - 3 3 c C p r %     ",
"  + : % + # % 3 0 3 q t t < > X.q.q.P :.H.&X;./ b Q {.u.D ! ` x.) U 8X=.; l x.%.d T !.~.d.]. X&.F *.{ > O O @ O . .       $ O   ",
"O %   . .   @ % - - e y : : t C 5 , C 9.L.` v W S u.R.*Xg.v #.:.D v i.c > 6 R g.c f m n.=.p.!.2X4.W `.<Xt.4 : 5 : @ @ o         ",
"    . O : > 5 > 2 2 > # % : > > < 7 H D T F E E G -.&X=X! v F %.f h L.> 5 < &.;.g D 6 1 f c T Y.'.#.c G #.*.3 . # @ @ @ . .     ",
". O O + # # : O 2 q % O : r 7 t $.Z.5.;.2.F j B L E #X:Xj 8 6 b $., /.x.@ h z ! 8 b S 6 < 5 5 , j [ N..X{ 5 B %   . @ . . X     ",
"  . O . # : # : 3 O . % 3 3 t Q ;.x.D.v.) K F T =.! 1XF G 6 c b q.v ~ 6X} = ! Q v 7 C G j 5 > O O + 9 T c.9.V ..i o . . . . .   ",
"    . . . . . . . . # : : 7 Q G.@X%X3.S ( =.=.`.[ p.z.K.v 3 8.j 9.G d 2X<X> 5 c.$XN - r v E c O . . O # 7 %.1.r q p 2 . .       ",
"        . .     . @ $ $ > #..XA.( 8 f ! l.z.:X~.' ! 1X6., G $.g E v 6 z.7XG < j 6X%X%.c > h b.e.- O O   . O : Z r   2 @         ",
"            O # # # : 3 J &.c : > y C Q c.`.C.R D :.@Xv c D v 6 h v 6 Q ,XF 8 c ' {.F.3.7 < g #X+Xr 4 4   O O   2 2   . .       ",
"        . O - % # % : : 0 > 3 5 3 y v v =.,X] D v -.F c D ( c < c S S S ' h h B j ` v.J H > 3 ; C.F.+ ..7.O . X   O @   .       ",
"      . . . O : % % @ @ : * 2 y q r c G @Xl.D B Q F 5 t v G 8 > 6 J ) v M N c h 8 h F j 7 5 7 : 3 4.|   V @.* O .   . .         ",
"    . . . O + # O # % 0 # % r t y : y H.( j C c F B 7 5 { G - : t C K.J h C C c t c 5 ( X.# t % # # 3.|   2 Z # . . . . O       ",
"      . . . . # : 3 : @ 0 t 2 % t 2 ( #.5 t t B 6.3 r t t V - 3 t H >XZ.5 c K B 8 K S j U.o.> 3 2 2 # A e o O 3 . . . . o .     ",
"        . . . - - @ X w e : q y t N F 8 7 8 c G.%.t + r N 5 - > 5 B 2X-Xf B Q F v J Q S b J.i   2 4 % # 3 o   X O     . .       ",
"        . . # O . . % . % r 4 $ e C 7 t 7 8 3.J.t t 4 3 4 r # : 6 g P.&Xv f g.z.! ] E S S D L O . 2 . O @ O .   o . .           ",
"          O .     .   : t $   q N r c t 7 L H.C t e t 2 + 3 : - 5 f 4.K.J c ) ) ) l.] Q S N B 7 O 0 % . . . .   . .   .         ",
"                . . > r . . 2 r u 4 B r t $.) 8 4 t u % % 3 - - 3 8 ( ' D.N C J H #.G D G G V r O % w . . . . .   X   .         ",
"                . - O   . - : q q 5 B 4 c B K 5 2 3 3 : : 3 % 3 c h B B H.u B ( G B C t t P X.t %   o . . .   .   . .           ",
"              . . .   . + : : : O N 8 2 S A v 3 + @ 3 2 3 2 y 3 8 7 8 < Z.A t H N N r e y p { o.+..   . . X   . .   .           ",
"                .   . . @ - O O 2 8 # < q.2 8 3 @ O 3 @ 5 3 # + u 7 : % L N 7 u u 7 % % q * s * XX}     . o     .               ",
"                    . O O . O O 5 : . 3.u O 7 > @ + % . 5 - O O ..u @ # 7 N 4 q 4 e @ & * * e o Z 7..   . .                     ",
"                    . . . . . + - . Z V . + - # # # O O 3 : + O ..p . O % A 4 2 2 2 $ O * o 0 & o | %   . . .                   ",
"                            . O   2 7 . O O O @ % O O # > : % . } p   @ $ +.r @ * @ o . i . % & . # 4     .                     ",
"                      .   . .   . 3   . O + . @ - . O = O 2 #   p e . @ @ | i   o . .   i $   w o                               ",
"                                . .   O . .   O #   O # . 2 %   A 2 o $ $ p e   . . .   & & . $ %                               ",
"                                      . . .   . O . # O . 2 . . p @ o o 0 e %     X $   . o                                     ",
"                                              . . . O   O %   . > . o . & @ X   . $ &     .                                     ",
"                                              O   .     + .   $ @   . . X . .   $ & &                                           ",
"                                                  .   . # .   O .   . . .       & o .                                           ",
"                                                      . O     @ .   .           . .                                             ",
"                                                              .         .       .                                               ",
"                                                                                                                                "
};
