/* XPM */
static char *_1_resized[] = {
/* columns rows colors chars-per-pixel */
"64 64 240 2 ",
"   c #000001",
".  c #0B0304",
"X  c #040609",
"o  c #0A0609",
"O  c #05090C",
"+  c #0B0A0C",
"@  c #130303",
"#  c #1B0404",
"$  c #120708",
"%  c #1B0709",
"&  c #140A0B",
"*  c #1B0B0B",
"=  c #180906",
"-  c #1A120E",
";  c #0B0E12",
":  c #040D14",
">  c #120D11",
",  c #1C0E11",
"<  c #0C1319",
"1  c #131214",
"2  c #1B1213",
"3  c #13161B",
"4  c #15191E",
"5  c #1D1B1C",
"6  c #1F1814",
"7  c #230404",
"8  c #2C0404",
"9  c #230905",
"0  c #2B0905",
"q  c #230C0C",
"w  c #2C0C0C",
"e  c #250708",
"r  c #340505",
"t  c #3B0405",
"y  c #320A05",
"u  c #340C0C",
"i  c #3C0B0B",
"p  c #390907",
"a  c #25100E",
"s  c #2B110E",
"d  c #38120D",
"f  c #250E11",
"g  c #2B0E11",
"h  c #390E10",
"j  c #231213",
"k  c #2C1212",
"l  c #28191B",
"z  c #341412",
"x  c #3B1412",
"c  c #3A1914",
"v  c #341A1A",
"b  c #3C1B1C",
"n  c #381617",
"m  c #2B221D",
"M  c #3A211C",
"N  c #0D1B26",
"B  c #1A1C23",
"V  c #141C24",
"C  c #251D25",
"Z  c #1B252B",
"A  c #192935",
"S  c #0F2736",
"D  c #242223",
"F  c #2A2529",
"G  c #2B2A2B",
"H  c #282326",
"J  c #3B2423",
"K  c #332C2C",
"L  c #382828",
"P  c #282B35",
"I  c #392934",
"U  c #353437",
"Y  c #25333E",
"T  c #4C0C0C",
"R  c #480707",
"E  c #530C09",
"W  c #5B0C0C",
"Q  c #540907",
"!  c #43120D",
"~  c #4B130C",
"^  c #58120D",
"/  c #441413",
"(  c #4C1412",
")  c #431B16",
"_  c #4A1B16",
"`  c #441C1A",
"'  c #4A1B19",
"]  c #521512",
"[  c #5C1511",
"{  c #541E1A",
"}  c #5A1B17",
"|  c #400E11",
" . c #6A0C0C",
".. c #630C0C",
"X. c #7A0A0B",
"o. c #66120E",
"O. c #671A16",
"+. c #761B14",
"@. c #79160F",
"#. c #4D231C",
"$. c #452318",
"%. c #54241D",
"&. c #5C221B",
"*. c #5A2819",
"=. c #64231C",
"-. c #68261A",
";. c #7A2C1E",
":. c #74261A",
">. c #71331C",
",. c #4B2423",
"<. c #4A2A24",
"1. c #472A29",
"2. c #5C2C24",
"3. c #572A25",
"4. c #4A332B",
"5. c #5C322D",
"6. c #563429",
"7. c #433334",
"8. c #473935",
"9. c #573B36",
"0. c #532D34",
"q. c #6B2B22",
"w. c #652A24",
"e. c #772C22",
"r. c #69362B",
"t. c #783628",
"y. c #663B34",
"u. c #763D31",
"i. c #59453A",
"p. c #474235",
"a. c #68463A",
"s. c #77473A",
"d. c #75533C",
"f. c #383A48",
"g. c #183848",
"h. c #4C3942",
"j. c #2E4347",
"k. c #384747",
"l. c #355056",
"z. c #4A4848",
"x. c #5A4844",
"c. c #484956",
"v. c #465655",
"b. c #585954",
"n. c #595345",
"m. c #684945",
"M. c #675548",
"N. c #765548",
"B. c #795B51",
"V. c #6E534B",
"C. c #59635A",
"Z. c #6A655A",
"A. c #786558",
"S. c #7B735C",
"D. c #65604C",
"F. c #53586C",
"G. c #5C6965",
"H. c #6B6663",
"J. c #7B6A65",
"K. c #79796B",
"L. c #777A77",
"P. c #6E7A73",
"I. c #861F13",
"U. c #8C1610",
"Y. c #86281B",
"T. c #962819",
"R. c #96361E",
"E. c #8E311C",
"W. c #A4301C",
"Q. c #B6371E",
"!. c #823C2C",
"~. c #8C3D2C",
"^. c #863625",
"/. c #973826",
"(. c #892E24",
"). c #A73C24",
"_. c #B73C22",
"`. c #C73B1F",
"'. c #95482D",
"]. c #8C4333",
"[. c #834C3B",
"{. c #874637",
"}. c #944734",
"|. c #924F30",
" X c #A64726",
".X c #B94A2A",
"XX c #A44936",
"oX c #B54C32",
"OX c #AA563B",
"+X c #BB5B36",
"@X c #BD542D",
"#X c #BF6037",
"$X c #D9481F",
"%X c #C84B2B",
"&X c #C9532C",
"*X c #D8532A",
"=X c #C85A35",
"-X c #D45C35",
";X c #CD4A2B",
":X c #C76339",
">X c #D8693C",
",X c #D2703B",
"<X c #E4723A",
"1X c #E2562E",
"2X c #875746",
"3X c #9A5746",
"4X c #815F55",
"5X c #B45B43",
"6X c #A85144",
"7X c #896657",
"8X c #986956",
"9X c #88745C",
"0X c #8D684B",
"qX c #A9644B",
"wX c #AA6755",
"eX c #B56F4D",
"rX c #886C61",
"tX c #937967",
"yX c #89716D",
"uX c #A47864",
"iX c #D87948",
"pX c #CB7349",
"aX c #7B826A",
"sX c #728278",
"dX c #81857B",
"fX c #9B846A",
"gX c #A8886C",
"hX c #AA8874",
"jX c #DC8A56",
"kX c #DD945E",
"lX c #D68552",
"zX c #E58E55",
"xX c #C58D65",
"cX c #FBCC69",
"vX c #567486",
"bX c #827187",
"nX c #5F8E9E",
"mX c #7D9B8F",
"MX c #859395",
"NX c #919B9A",
/* pixels */
"                                                                                                                                ",
"                                                                                                                                ",
"                                                                          .                                                     ",
"                                                  .   1         @   + X   7   .                                                 ",
"                                                @ @ @ . = @     9 o   . . r   #     . .                                         ",
"                                          @       9 9 . # # .   7 &   @ @ t . 7   @ @ #                                         ",
"                                      X O # # .   # 7 # @ # @ . # @ X 0 @ r * 7   # 8 @         @                               ",
"                                    . .     0 9 @ o # 8 . 7 7 # @ # . r # 8 # @ o 7 p   .   . 7 @   @ @                         ",
"                              # @     7 @   9 y 9 & . q @ 7 t # @ # @ 7 % # @ . . R 7 @ .   8 7   7 7 @                         ",
"                        X     # ! y     0 a . r 7 y   @ 7 @ R 7 . r # 7 # @ @ . # r @ 7   8 t   @ r #     #                     ",
"                      X O       . ! ~     p @ . r 0 9   8 # R 7   t r R t @ . . 8 # 7 p r t . . 7 #     0 7                     ",
"                          $ s @   . R ^   . Q @ # 7 R @ 0 t Q r 8 R ..8 # . 7 % 7 @ p E 8 # . # @     R p .                     ",
"                              9 y 9 9 E E   8 Q w ~ o.^ ( ....Q Q Q 7 8 8 r e # 7 % T 8 % $ # $ , # Q r                         ",
"              X X           o   . 0 9 9 R ^ @ r Y.T.Y.).I.@.r X.U.r R ....E 7 # % 8 t % $ f # $ [  .r                           ",
"              X .       @ 9 s y s . # 0 9 p } '.R.Q.*X@XT._.U.U...t X. . .t % e * p e & $ R q O.W e & .     . @ . X             ",
"            O       . X   * q d ! i 9 * 9 &.Y. X X&X:X+X.X*X`.W.U.@.X...| $ e g ( t f & W i o...w * * . o q 0 . . o   X         ",
"          . @ . .     o & + + & x ( [ +.>. XeXoX.X&X-X@X_.;X_.Q.U.:.T.+.| % e h W i f ]  .W T h w k l g ( u                     ",
"        X 1 @ 7 h u w * q z x k a n z ~ W.@X:XlX=X&X-X&X%X%XW.(. X_.T. .E i u ( O., h  .T / h | u h ] o.u $ . @ @ .             ",
"            X     * h ( / u x _ / ] / d OXiX:X:XpX=X%X>X=X%X).oXXX@.O.O...( h U.0.n ..h J ,.g f h W ( u h u p 0 # .             ",
"      O     X ; o & q z _ _ u s a d ( O..XlXkXlXiX&X%X=X=X%X*X_.Y.o.5.x w z.] O.2.+.| h b ( { ( / / x h T r e 7 # @             ",
"      ;   O X X 1 + + & & ) _ ^ ^ u d >.#XlXzXlXpX*X*X;X;X`.`.T.=.} ' O.,.9.w.Y.T.n z z b 0.w.=.' ( h g h $ o X       ;         ",
"            X + & j z a s x / { ( ! ~ :.R.&X>XzXjXiX>X1X<X$XQ./.t.:.e.O./ i 2.Y.O./ b v 8.h.,.` g f g g b g . o                 ",
"    O       o o 2 k w ' { (.=.g z k a =.E.R.>XlXiX>X;XiX<X$XQ.).uX6X^.O.h u e.u./ / n ' w.} { b g | R h u e % X   o             ",
"      X ;   o + & 2 2 ` q./.e._ z M n *.;.R.%X*XiXiX*X`.oXW./.^.{.^.=.) z n 9.8.1.,.0.4Xy.( / ` J C $ $ > $ o     X     + X     ",
"            X + + * k ` ` 3.^.e.z x z *.~.).oXoX=X:X:X=X5X5X X}.,.=.:.w.[ =.3.u n 6.A.a.y.O.(.O.n u w g h u u 0 7 # .           ",
"    X     X + o + & * 2 j ` ,.' s z ' r.6X).Y.oXoX/.5X5X^.OXXX/.2.w.w.2.=._ / n v ' ) 0.0.1.y.J 2 , & * % 7 7 # . . .     X X   ",
"      O     X & & & * a c / ! } ] / t.XXwXwX~.qX6X/.5X/.].~.&.2.u.' e.;./ * v 3.,.#.9.u.t./.w.O.] n * + X X o @ & X   o         ",
"    X ;   + X o O v { c _ _ _ x h w.6X6XwXuX8X2X{.N.}.q.3.y./ ` w.z 5.w.i l 3Xy.m.6.i.4.w.q.e.:.( E i 0 z #         X     O     ",
"      X   O   + q _ ) z f , q c / O.N.rXA.A.J.N.N.A.N.m.*.{ ].` k n <.y.s.3XwXs.a.6.[.-.-.w.]._ u w ] ( w 9 q &     o           ",
"      O     + # * & o & w x / x l F G U Z.B.N.2XB.J.B.4X2Xu.r.<.b y.1.5.{.2Xs.}.V.9X2Xt.a.2X%.k b ) k d ! 0 $ . X   X           ",
"      X     X X X . $ q u w & & k 9.H.yXZ.B.7XuXJ.J.tXrXN.y.4.0.4.9.I 8.7.m.0.{.a.A.2Xa.gX6.c >.z u & X X # # . O X X o         ",
"        O   X o X o X & ; o q z w 7.H.L.A.tX8XuXA.J.8XtXu.0.K I 4.h.y.C 7.s.s.a.N.A.n.fX0X#.r.<.$.m 2 o X X   X     X   X       ",
"        O X X   X X X $ e w w f * U C.H.Z.D.2Xd.7XtXtXN.a.3.,.L I B.9.F 4.r.s.N.a.8.i.9Xd.d.D.0Xs.$.  . X X     ;       O       ",
"                X o q e w q & f z L b.sXK.d.8XfX3XN.hXhX3X{.y.,.L 7.C F 9.x.8.N.V.y.B.fX9XC.4.m a d ! +   X X     X X           ",
"            O X % q % q * + e h , o L d.d.M fXlXqXwXqXeX{.r.3.r.,.l H B F c.D.s.[.9X0Xi.k.j.l.S.9Xa.6.] >   O X o X X           ",
"              * & & % X X f h X + i d $.<.a.gX|.eXqX[.r.|.s.}.2.3.<.u.a.V.9.7.N.qXa.M.C.C.mXMXMXdXA.4.m w X     X               ",
"            .     o X : % q X $ x e C L - 0Xt. X=X X].s.!.!.w.,.{.3.OXqXtXgXd.1.[.i.9XS.i.v.v.vXl.V V ; O & O                   ",
"                    X f % O $ e %   l & *.>.>.#X XR.:.'.].e.2.{.r.b N.7XG.v.A.5.4.M 4.d.gXNXsXsXv.Z < O O     X X               ",
"                    @ %   . $ . . . + 2 d 6 - *. X X,XzXoXq.y.2X1.L n.J.C.j.C.wXL p.p.p.i.aXsXv.A Z 4 O O X                     ",
"                  . o     . . . $ & . w s M >.R. X*XcXcX*X2Xu.[.4.L i.M.v.l.aXi.m D.p.i.C.aXn.z.K O O O                         ",
"                  .     o . $ * - a s ! M *.>.^.'..X<X<X:X|.!.4XM L U 4.h.v.C.aXK j.Z.G MXnXC.m 3 ; O                           ",
"                      o * . = - q z _ a s >.>.*.;.^.).).XX~.3X4X1.K K 8.h.z.l.P.d.g.sXp.G.K.Z m >   X X X                       ",
"                      + = = & * q c c z #.z 6 *.:.>.e.e.q.r.8Xm.,.x.8.L I b.f.b.D.k.Y S.Z p.m   X                               ",
"                    . . $ & - 9 - d c z - - #.$.' w.=.=._ J y.z.C b.0.i.h.c.h.h.aXi.N j.F : 1 X X X o                           ",
"                    . . . . - = s _ |.d $ a - a ' { n ` b f b c.A m.I m.h.h.bXh.z.p.: A N O   X X X                             ",
"                    . o $ = = d $.#.'.c = . . - n ` , b h C C I P 0.I f.P h.J.Z < 4 S N O 1 + + & X                             ",
"                    . $ a = a c d $.d = & & $ . o f h l f B vXc.C ,.F B C 0.f.: + m N ; ; 1 1 Z G 5 1 X                         ",
"                      + & = s s d #.M & @ $ o $ o : n C C I c.f.C I 3 ; C F Z O ; 3 N o ; > 6 m K G l + X                       ",
"                    . o @ = * a z c c = & . o . .   j n f.F.h.f.B C ; < g F Z O ; O O + + & - j M l - &                         ",
"                        . . & = = a z . $ . o     X o h.bXNXc.N 1 3 ; B C f.V   O X + 1 > + + - M M - > + O X                   ",
"                            . . . * - . . .       X X F.bXMXf.Z 3 3 ; j > B O   O O X + + + > + i.<.+ + X .                     ",
"                          . . .   $ $ . .             S vXk.V G > B > , X o X   X O X + + + + & - - & + + X                     ",
"                                  . .                 O A Z B G 3 1 D +   .     O X   O 1 O o X & > X + +                       ",
"                                  .             X < X   X V 5 F C 5 5 X       X         o X . X + O   X                         ",
"                                  o           O Y S   ; N 3 G F 5 6 +         O O           X   o X                             ",
"                                  o           V A < 3 A H X 1 C 2 1 +                           O .                             ",
"                                                X X 4 4 ;   . 2 6 +                             . .                             ",
"                                                      X       - & .                             X X                             ",
"                                                              . .                                                               ",
"                                                                                                                                ",
"                                                                                                                                ",
"                                                                                                                                ",
"                                                                                                                                ",
"                                                                                                                                "
};
