/* XPM */
static char *_0_resized[] = {
/* columns rows colors chars-per-pixel */
"64 64 232 2 ",
"   c #010000",
".  c #0B0201",
"X  c #0D0906",
"o  c #0C0B0B",
"O  c #060708",
"+  c #130402",
"@  c #1B0503",
"#  c #150905",
"$  c #1C0906",
"%  c #120D0A",
"&  c #1C0C09",
"*  c #1C120C",
"=  c #11100E",
"-  c #0F1010",
";  c #131212",
":  c #1B1514",
">  c #230504",
",  c #2B0504",
"<  c #240906",
"1  c #2B0A06",
"2  c #240C09",
"3  c #2C0D09",
"4  c #320504",
"5  c #3A0605",
"6  c #330A07",
"7  c #3C0A06",
"8  c #330D09",
"9  c #3B0E0A",
"0  c #23110D",
"q  c #2B120D",
"w  c #27190C",
"e  c #34130C",
"r  c #3C130C",
"t  c #37180F",
"y  c #261812",
"u  c #2B1A13",
"i  c #241714",
"p  c #321711",
"a  c #3A1611",
"s  c #351C14",
"d  c #3A1A12",
"f  c #381E1A",
"g  c #2C211A",
"h  c #39241B",
"j  c #3D2115",
"k  c #420705",
"l  c #430906",
"z  c #490906",
"x  c #430D0A",
"c  c #4B0D0A",
"v  c #4D0605",
"b  c #540D0A",
"n  c #5C0E0A",
"m  c #550706",
"M  c #43130D",
"N  c #4B130D",
"B  c #43180E",
"V  c #4E180F",
"C  c #53130D",
"Z  c #5B140D",
"A  c #55190E",
"S  c #5B180F",
"D  c #4C1710",
"F  c #441B12",
"G  c #4C1C13",
"H  c #421914",
"J  c #531611",
"K  c #5B1511",
"L  c #531B12",
"P  c #5C1B13",
"I  c #640D0B",
"U  c #6B0D0B",
"Y  c #7B0C0B",
"T  c #730B09",
"R  c #64130D",
"E  c #6A140D",
"W  c #6C190F",
"Q  c #63190E",
"!  c #7B130E",
"~  c #72190F",
"^  c #71140E",
"/  c #641611",
"(  c #631B13",
")  c #6B1C14",
"_  c #6A1511",
"`  c #751412",
"'  c #7B1612",
"]  c #731B13",
"[  c #7D1C13",
"{  c #4C2819",
"}  c #552115",
"|  c #5A2215",
" . c #54251A",
".. c #5D251B",
"X. c #5E291D",
"o. c #53291B",
"O. c #4D311F",
"+. c #632115",
"@. c #6B2216",
"#. c #65241A",
"$. c #6B251A",
"%. c #652A1D",
"&. c #6C2B1D",
"*. c #732216",
"=. c #7C2215",
"-. c #74241A",
";. c #7B251A",
":. c #752B1C",
">. c #7B291B",
",. c #7B311F",
"<. c #62301E",
"1. c #5C2F22",
"2. c #642E23",
"3. c #6B2A20",
"4. c #7D2D22",
"5. c #702F21",
"6. c #6A3325",
"7. c #723323",
"8. c #7D3423",
"9. c #733C2C",
"0. c #7A3A28",
"q. c #773F32",
"w. c #7A4536",
"e. c #7F412C",
"r. c #850B0B",
"t. c #960D0D",
"y. c #88130E",
"u. c #841B13",
"i. c #8C1C15",
"p. c #8A1A16",
"a. c #921713",
"s. c #9A1D19",
"d. c #971B13",
"f. c #B21A17",
"g. c #A01E1B",
"h. c #8C2415",
"j. c #84231A",
"k. c #8A251C",
"l. c #832A1A",
"z. c #8C2C1C",
"x. c #842416",
"c. c #932319",
"v. c #932A1B",
"b. c #9C2A1D",
"n. c #972415",
"m. c #88321E",
"M. c #95331F",
"N. c #9C321E",
"B. c #A6281A",
"V. c #AC321D",
"C. c #A1301D",
"Z. c #BA331E",
"A. c #852A21",
"S. c #952C21",
"D. c #833422",
"F. c #893222",
"G. c #843C29",
"H. c #8C3D2A",
"J. c #873826",
"K. c #943422",
"L. c #9C3522",
"P. c #9B352A",
"I. c #953D2C",
"U. c #9A3928",
"Y. c #A42C23",
"T. c #AA2921",
"R. c #A33422",
"E. c #A43A24",
"W. c #AA3A27",
"Q. c #B33D24",
"!. c #B93A28",
"~. c #B1342C",
"^. c #CF1D15",
"/. c #8B432B",
"(. c #84472E",
"). c #9F452D",
"_. c #844533",
"`. c #8A4A36",
"'. c #9C4A32",
"]. c #964735",
"[. c #8B513D",
"{. c #94523B",
"}. c #985338",
"|. c #B9482A",
" X c #A14C33",
".X c #A44534",
"XX c #B74B37",
"oX c #AB593C",
"OX c #A7563A",
"+X c #BA5638",
"@X c #A64028",
"#X c #C64A2A",
"$X c #CA5B35",
"%X c #CA5534",
"&X c #D45A34",
"*X c #DC683A",
"=X c #C0613C",
"-X c #EA703F",
";X c #995A45",
":X c #A35C42",
">X c #AD5A41",
",X c #B85841",
"<X c #9B614A",
"1X c #A8664B",
"2X c #B96A44",
"3X c #BB704D",
"4X c #B67857",
"5X c #AC7054",
"6X c #CC5B44",
"7X c #D25940",
"8X c #C96948",
"9X c #CA7B4E",
"0X c #C7754B",
"qX c #D6764E",
"wX c #C67955",
"eX c #D67C53",
"rX c #CB6C49",
"tX c #E47946",
"yX c #BF805C",
"uX c #BD8666",
"iX c #DA935D",
"pX c #CB8A5F",
"aX c #E38552",
"sX c #CA8B64",
"dX c #D6976B",
"fX c #D79D75",
"gX c #CE8F65",
"hX c #E69F6F",
"jX c #DCA474",
"kX c #E3A36E",
"lX c #E4B07C",
"zX c #E7B885",
/* pixels */
"                                                                                                                                ",
"                                                                                                                                ",
"                                                                                                                                ",
"                                                                                                                                ",
"                                            +     . . . + +                                                                     ",
"                                            , ,     , @   .   > +                       X                                       ",
"                                        , +   , + . + 4 +   @ > . @                     .               .                       ",
"                                O % @ 4 > 4 . # 3 $ . > +   + . .   . + .                   X                                   ",
"                              o o   . + .   . & > 5 + .     @ > .   . @ @       .                                               ",
"                      O o     O o > . . 4 5 3 8 < < G 9 5   +   . .   . @ >                       .   #                         ",
"                        O   O   o , , , z ] v ] [ / ] / c > . . + + @ +   . .           +       # +   +       .   O             ",
"                #       %   O . c 6 + < & L A.s.s.u.u.' b b . O + @ , , . +     .       .   .   O   . # .   . # .               ",
"            O -       # .   . e 9 p 3 8 3./ A.~.P.S.g.y.S.c 8 4 +   .   .           .   . . .           X   . $ .               ",
"              & i o   : O # + * % & a _ ' c.P.~.%X6XT.g.` _ _ c > .   . @ > , @     #       + . X   +   . .             .       ",
"        O % o + 0     o & @ % q 9 @ e ` Y p.~.!.rXeX,Xp.K J 4 , 5 1 + . + + @ >   .     .   .   # @ +         $ q X             ",
"        o O   X 0 ; + . . o < J K 5 D p.Y p.f.!.6X7X,XA...c D D 7 @ @ > .     . + + > . . # . . X # X +     . +                 ",
"      .   X o X 3 3 # < < t 1 w c b ) Y Y ] P.!.6X,X>X].k.Y n 5 > + . @ , $ +   . . @ & & + & < $ + @ @ >     X   . $           ",
"    X .   B $       3 3 > q r @ I n ' s.t.s.P.XX,XP.I.3.$.` K I J @ . . @ 9 c 2 < @ @ @ @ a 2 3 3 . + . 2 . . + O . .   .       ",
"      X   X 0   # r   > 9 w r 9 x _ ) ;.k.r.f.Y.Y.P.P.] I / 5 < k k , + . , v C 6 @ @ 8 6 > 6 ( D j.H @ 8 < .     +     .       ",
"          . X + r B @ . A C 6 C A ( P ) ' f.t._ A.k.t.p.Y.j.c l 9 x , 2 H G 5 4 L 9 8 7 l 4.P ) m s.J R #.p +         + X       ",
"    o           . * e 9 r b x @.n.d.L.V.s.a.U U I _ _ 4.*.[ C z N 3 9 N ..8.P $.;.( b 9 ] P.` c ' p.v ! S.#.@ @ .     X         ",
". . ; X $ + + 3 A x 1 e | Q Z A =.Z.!.!.T.k.p.` _ ) 9 8 M L a 4 1 c >.) J.4.8.).G.-.) N 3./ n K ` c.y.s.] D 2 . + . $ +         ",
"  X .   $ + o o . # j 9 7 V @.x.n.V.!.Z.W.C.~.S.k.;./ 9 7 8 @ > x C $.-.4.{.;X;XH.-.[ ) P b 9 z T.~.Z K b 9 @ . @         . X   ",
"      o     X < @ X < r c N A ~ h.n.K.V.#X$X=X>XH.4.( b c 4 > + r ( P L 0.5XsX1X;X3.;.5.) n x 6 A.c.n C z M 8 1 .   + .         ",
"  + i ;   +   . . + 1 9 9 9 S Q K ) :.B.#X$X2XsX4X(.( N 5 k > 6 r ( -.$.`.uXjXfX;X5.( ) P 8 _ P / ` I ! z 3 8 > + + .           ",
"                . & 3 3 6 1 r V N D #.:.U. X4XsXyX}.( L > 4 @ 8 a , P 2.w.;XsXfX1X&.#.9 6 ( U Y d.[ I u./ 3 e > .   . +         ",
"  % O   $ < @     & 1 @ $ M N q a A B #.:.G.;X5X1Xe.P } > @ # $ p N  .L 1.;XuX5X_.9.#.8 M c u.^.f.f.! 7 b 8 . + .   # + .       ",
"  o       $ #     . . @ < 6 $ 8 N x 3 F D $.5.7.2.X.} e @ @ + < 1 8 N ..1.;X;X;X/.=.N r p + K B.n.S.9 > @ 1 + . . .     #       ",
"      . $   + + . # . @ + . d M 6 3 $ p L ) H L B 1 r 3 @ @ @ > 6 B L M 2.2.G._.;.! +.> < 2 , C ( #.> > @ . @ + + .             ",
"      %   .       . . . . # #.r s $ < d G s L 8 P e 1 + @ > > 6 9 N P R a 9 G L 1 N C e < 6 7 J C *.> # + + + +   +             ",
"    o ; X +     : % . . . q A 3 L . F > 0 p 2 @ q q > < 1 1 1 8 M H V V 9 r 2 J 9 e 6 4 J D N R R m > 8 1 , , + .               ",
"        :   X .     2 j . e B D +.0 r { F h $ $ @ q 1 1 1 8 r M L @.L ( 8 1 1 H > @ e D ) -.-.` E C > n c @ L e @ X             ",
"            1         B > o.,.J.m.| N @.> # q > 3 8 3 5 9 9 V P L +.@.V 8 M Q 9 , , 3 +.A./.I.A.) 8 r n E 5 M 1 +   X           ",
"          O :     y h O.8 o.m.z.*.N } ,.> X.e @ d 6 8 9 N S Z @.#.#.,.+.x 9 A Q W 7 V F ;.wXwXW.4.) u._ E n . . +   @           ",
"            g s   O <.,.B M ,.'.@.6.m.Q c M.B } F 7 N N ~ h.l.:.J.+XL.*.N M W Q h.I b $.I.8X8XP.5.K J b c > @ , 1   .       #   ",
"          O ;   F r 8 R x o.(.oX(././.@.m.h.=.N F N N C x.V.M.K.E.-XM.S ~ Z.n.b Z R z *.R.!.,XI.-./ D c l @ 4 c z N X           ",
"          % &   * :.c B { 6.(.2X2X X/.).8.L._ R *.S ( ] :.m.L.U.|.&Xm.*.V.Z.x.^ I Z ~ ] S.W.4...] -.D 6 1 > 5 , @ . X & &       ",
"          O s 8.Z 9 n.<.e.}.}.0X9X5X XoX1X#.d.B.z.] z.v.m.F.E.%X$X*X|./.Z.h.~ W E R [ z.W.+X{.( 4.#.8 9 9 > , # @ , z * O       ",
"          % 2 9 7 n N.N.).}.3XiXlXyXpX3X`.D.d.C.F.*.V.V.m.E.XX*X-XtX*X|.@Xh.~ R Z Q [ m.OX0XwX;XD.&...5 8 > 4 7 v T 1           ",
"          u 6.%.} /.C.P `.pX9XjXlXdXzX2X'.m.x.l.W J.@XC.M.R.%XtX-XaXaXaX+XN.h.W S ( :.D.'.wXiX1X5.2.J N 9 > , z R I 2           ",
"            s G V 6./.].{.OX9XjXiXdXkX3Xm.&.D z ) F..XOXU.C.$XtX=XaXdXaX$XR.n.=.~ W @.$.`.4X3X:X{. .8 9 @ @ @ > @               ",
"        % $ < 1.0.5.%.L e.1XOXpXjXiXaX0X{.#.9 7 ( [ ).wXK.v.b.V.*X*XpX*X+X|.b.~ Q A Q 6.[.5X4X1X9.e 8 x 8 @ > , c l @ # +       ",
"        % .   $ d L -.H.[.{.:X4XjXpXoX;X7.E N 9 $.c.P.>XOX|.#X&X-X|.+XoXU.x.) J S N L %.w._.[.7.%.e N Z M > @ > z T R e s O     ",
"        O u 3 7 &.0.|  .A w.<X}.<X1X`.0.2.L ..N ) i.j. X,X#X#X&X|.M.C.z.=.] A N L L N F 1...%...r A N x A r @ +                 ",
"          u { G %.7.9 r ( 2.8./.8.`.`.#.l.r + -.S.y.a.v.|.|.|.Q.m.x.h.[ ~ Z 9 x C C 8 M 1 D l.V e M A B C S @ , , @ # #         ",
"            p B } X.8 a 1.%...G.D.<.X.C 9 8. ., Z R ! C.|.|.N.x.*.~ ] ^ R C b N x < 4 8 < < 1 r r 6 Z 9 > 8 + . $ + 2 y X       ",
"        X & 0   + 7 3 a s G r 6.{.F 9 G P e F X.M c ] E.#XR.>.*.*.h.h.u.R W Z Z 6 9 c $ $ > . 2 M 9 z S 9 7 , @ +           .   ",
"        % #   0 | 8 2 2 @ 3 N 3 9.B M t t P + q r N M S >.) K -.=.W.C.p.a.n b c 8 ( C + 8 3 + 6 1 9 N B r 1 1 k N # .           ",
"    .         s O.< 3 . > e G $ | B S 9   F r @ 1 e 3 8 c J x ] j.,X,Xs.r.I c x J P D < 1 $ + V r 1 N $ . . .   F :.+ O         ",
"        #   y     r % 2 + M > e q r A r + . 3 s $ H , 8 J J c b A.XX~.g.' b b N 7 V r M @ $ # P z.S d r $ $ 1 x X + # q $ O     ",
"            o X F   O & 1 F + < < 1 9 r 8 . X + @ @ < , 8 M K Y ` P.~.` ` _ I J c 6 x 3 + + + r >.| V e $ $.e # %     d L       ",
"              h g   . $ q 0 1 @ 1   M d j < . + @ $ < 2 1 < c ` Y s.a.U b c b M a > $ + + @ + + $ 0 + X   2 #           .       ",
"        +   # +     X * @ = & , %   0 &   + . + + @ @ $ 3 N c c U r.I b c 9 9 1 $ $ @ + . $ q $ .       .                       ",
"            3 B       y 0   # | V #   . +   . . . . @ + 2 2 3 b 8 / c c 9 3 2 < $ + + + + + # X   .     e e                     ",
"                      * O   O * <             . . . + @ @ @ $ 8 3 1 q 8 < 2 > @ + + + @ . .       e #   q e     O               ",
"                                              . @   . + @ @ @ # & 2 & & @ < > + + + { t @                                       ",
"                                                  $ . . . + + @ # @ @ + @ > # . . + B L q           .                           ",
"                                                  w .   . . + + . o + . # . . . . + . $ X                                       ",
"                      X                           X X     . . . . . . . . .   .   X               .                             ",
"                                                    .             .                                       X                     ",
"                                                      . .                           # 3                                         ",
"                                                      X .                                                                       ",
"                                                                                                                                ",
"                                                                                                                                "
};
