/* XPM */
static char *_7_resized[] = {
/* columns rows colors chars-per-pixel */
"64 64 251 2 ",
"   c #010101",
".  c #0A0404",
"X  c #0B0807",
"o  c #03050A",
"O  c #0A070A",
"+  c #040A0B",
"@  c #0B0B0B",
"#  c #040807",
"$  c #130504",
"%  c #1A0504",
"&  c #130A06",
"*  c #1C0B06",
"=  c #130C0B",
"-  c #1B0C0A",
";  c #160609",
":  c #0B100F",
">  c #14110E",
",  c #1D110B",
"<  c #1E1207",
"1  c #030511",
"2  c #040C12",
"3  c #0C0D12",
"4  c #080D19",
"5  c #130E12",
"6  c #190E13",
"7  c #051214",
"8  c #0C1314",
"9  c #0A141B",
"0  c #08191D",
"q  c #131214",
"w  c #1C1313",
"e  c #15151B",
"r  c #1B151B",
"t  c #13191C",
"y  c #1C1A1D",
"u  c #1C1916",
"i  c #230504",
"p  c #230906",
"a  c #2B0B05",
"s  c #240C0A",
"d  c #2B0D0B",
"f  c #2B0605",
"g  c #330906",
"h  c #340D0B",
"j  c #3A0907",
"k  c #23130A",
"l  c #2C130B",
"z  c #2C190C",
"x  c #281106",
"c  c #34140C",
"v  c #3B130D",
"b  c #331D0C",
"n  c #3B1B0C",
"m  c #331104",
"M  c #260D11",
"N  c #221313",
"B  c #2B1413",
"V  c #2D1A15",
"C  c #22151B",
"Z  c #231A1B",
"A  c #2C1B1B",
"S  c #221A14",
"D  c #3B1413",
"F  c #341C15",
"G  c #3A1C13",
"H  c #331C1D",
"J  c #371719",
"K  c #39220C",
"L  c #2B221B",
"P  c #3C2313",
"I  c #35231B",
"U  c #392519",
"Y  c #0A1B22",
"T  c #1D1B22",
"R  c #151A24",
"E  c #241D24",
"W  c #2C1D25",
"Q  c #2E1E28",
"!  c #391C22",
"~  c #0A252B",
"^  c #182529",
"/  c #0E2A34",
"(  c #192B34",
")  c #153339",
"_  c #252224",
"`  c #2D2324",
"'  c #24222A",
"]  c #2D2429",
"[  c #2C2A2C",
"{  c #282A28",
"}  c #332224",
"|  c #3B2323",
" . c #332229",
".. c #332B2B",
"X. c #3A2C2D",
"o. c #392B24",
"O. c #3B332A",
"+. c #232C35",
"@. c #2B2F33",
"#. c #372D33",
"$. c #273639",
"%. c #323333",
"&. c #393638",
"*. c #20302F",
"=. c #4B0C0B",
"-. c #460B09",
";. c #540C0C",
":. c #580A08",
">. c #43130C",
",. c #441C0D",
"<. c #4A1B0E",
"1. c #4A1409",
"2. c #56150D",
"3. c #480E12",
"4. c #441C1A",
"5. c #4A1C1B",
"6. c #471715",
"7. c #531D13",
"8. c #571817",
"9. c #530F15",
"0. c #640A08",
"q. c #66130D",
"w. c #74140E",
"e. c #681815",
"r. c #741914",
"t. c #48240D",
"y. c #55230C",
"u. c #4C2314",
"i. c #44231B",
"p. c #462918",
"a. c #5B2313",
"s. c #572717",
"d. c #58331B",
"f. c #632B14",
"g. c #662716",
"h. c #752914",
"j. c #69341B",
"k. c #75381B",
"l. c #461D23",
"z. c #5A1D24",
"x. c #651F21",
"c. c #422B2B",
"v. c #472726",
"b. c #542224",
"n. c #562829",
"m. c #4C3224",
"M. c #483627",
"N. c #583629",
"B. c #462932",
"V. c #483736",
"C. c #543B35",
"Z. c #573737",
"A. c #512B35",
"S. c #682629",
"D. c #673928",
"F. c #733C24",
"G. c #672932",
"H. c #623936",
"J. c #792C2F",
"K. c #3E433D",
"L. c #464339",
"P. c #594539",
"I. c #6B4427",
"U. c #674539",
"Y. c #784735",
"T. c #76492D",
"R. c #67421C",
"E. c #133B45",
"W. c #223A43",
"Q. c #343D41",
"!. c #563D43",
"~. c #164650",
"^. c #2A4649",
"/. c #36494A",
"(. c #294C52",
"). c #364D52",
"_. c #36565B",
"`. c #285257",
"'. c #135062",
"]. c #275D68",
"[. c #3A666C",
"{. c #2F6C77",
"}. c #444242",
"|. c #4B4849",
" X c #564847",
".X c #494B51",
"XX c #485658",
"oX c #585350",
"OX c #614F45",
"+X c #754946",
"@X c #68564C",
"#X c #72645A",
"$X c #6C665D",
"%X c #525F62",
"&X c #44737C",
"*X c #516A6C",
"=X c #686464",
"-X c #796863",
";X c #7A7165",
":X c #93381B",
">X c #A13E1D",
",X c #8E2B2C",
"<X c #94481D",
"1X c #954928",
"2X c #9E5524",
"3X c #9B5537",
"4X c #864C30",
"5X c #A95935",
"6X c #BC592C",
"7X c #B7683D",
"8X c #AC613D",
"9X c #A04F1D",
"0X c #CC6137",
"qX c #995A42",
"wX c #855950",
"eX c #9A6D59",
"rX c #8D6855",
"tX c #A56A4B",
"yX c #B4734D",
"uX c #A97559",
"iX c #BC7457",
"pX c #B46A4F",
"aX c #896B68",
"sX c #867667",
"dX c #93746A",
"fX c #867775",
"gX c #937A77",
"hX c #906E6D",
"jX c #A67166",
"kX c #CA7551",
"lX c #998776",
"zX c #B18774",
"xX c #D58153",
"cX c #C48668",
"vX c #DC8966",
"bX c #D48E6F",
"nX c #E2895E",
"mX c #2A7786",
"MX c #547D84",
"NX c #AB9091",
"BX c #B99DA1",
"VX c #BBA6A6",
"CX c #B2ACB8",
"ZX c #A0969A",
"AX c #D89C86",
"SX c #C89891",
"DX c #CFA497",
"FX c #CAADAA",
"GX c #CFC1BA",
"HX c #D4CBD0",
"JX c #E7D4CA",
/* pixels */
"                                                                                                                                ",
"                                                                                                                                ",
"                                                                                                                                ",
"                                                    .                       #                                                   ",
"                                            < . k < < &                 #           .                                           ",
"                                        & . z k n k < z b < .               . .                                                 ",
"                                    . k < < < z x * b x b G k .   o       . f i % % p                                           ",
"                          #     # .   X z < < x z c z x z k < &         % $ f j % -.f .                     #                   ",
"                          o         . < < k k k z k z z b b < :     . $ j g % j g j % % *                                       ",
"              O #   o     $     . * X * z < k L z k z z z K z < .   % $ p a h j a a g f $                                       ",
"                  ; $ D s $ * h $ D & k < k K o.P.o.P b K z z z .   . % j 1. XP.i.g %       .         #         O               ",
"              ;   p % s 7.$ v 6.v a b t.P z V P.lXrXP K k < < < .   . i =.7.sXgXa.=.f % f .         O +       # #               ",
"          #   . ; d b n s.v a.>.1.2.h.e.y.K K O.rXP.L.K K < z S X . . % i d g.S.2.-.-.i .   o o     .   # o = @                 ",
"          O . $ . d v >.,.,.=.1.:.w.w.r.g.t.K K O.U P t.P K K < #   # - l s 8.e.c >.d * #   o 2   $ ;   = . #           #       ",
"            . d u.s c h p >.1.-.:.:.q.2.2.<.t.K K M.P K P K K X o o 1 3 6 3 R G q V F   o 3 . o ; $ d   s g     @ @     #       ",
"          .     - l d n c n <.=.:.:.2.:.r.g.K K U L K P P M.u X + o 4 y q ^ $.*.@.~ 0 o o 1 3.  D c p s u.s - $ =               ",
"      O   %   ; * $ - l F c.v.7.:.q.;.=.2.8.<.i.I.I e M.}.).`.~ u 7 1 o.C.+.{ m.M._ ^ e 2 4 2 D X u.<.t.1.y.,.n l M   o O       ",
"            . & s d s.7.i.OXaXH.q.:.0.:.;.j g l I ^.W.*.)._.^.^.I U L L U , I d.XXM.i.e R C e + c y.<.f.h.h.a.n & p s #         ",
"          X s D l F ,.v 4.P.hXF.h.w.w.q.;.=.9.; 2 '.~.(.{.{.].{.Y ; d.T.U.|.P.d.@XV.c.E R 4.m.y u G l a.g.h.h.7.h.>.f       #   ",
"      #     $ . $ l D S.u.v.H.J.r.h.q.e.9.3.9.s O E.) W.].mXmXmXY 7 S P.yXcX#X4XeXoX%.] c.%.{ | ..` I p.D.<X:X>Xh.v d ; =       ",
"    o @   O - M d s G s.5.6.s.S.r.9.;.9.S.c.6 O @ ( ( +.^.(.[.W.1 / X.P.tXzXeXeXcXsX.X@.R 7 + 3 y #.oXfXdX3X>X:X:Xc ; $ .   X   ",
"              ; M N J A 5.8.6.8.S.8.9.B M A.E 3 3 E N 5 y Z t   ~ / F I.uXVXBXzXcXuX@XX.^ > I m.U ...XVXFX3X1X1X8.i % % #       ",
"        o .   o r H A 3 b.5.C 5.z.v.A.! r e E E e e - . . . 9 3 ~ *.d.yXBXHXHXDXDXkXqXX.L u %.~.^ o. X-X-XY.qX1Xg.i i d = 8 #   ",
"        . O   # + O & = I C I N H %.z.! e R ' ' 3 = = & & w u z p.{ k.yXCXHXJXHXVXiXC.@.$.^ *.K.) H.C.L.V.p.F.a.c m $     O     ",
"              n x   q - p.+X4XF.J A |.V.Z ).( e = - , ; N , l c _ K.U.@XsXZXGXCX=X4X|.XXO.O.m.*.^.$.$._.*Xo.m X & t.K #         ",
"            o # t.u.M.j.5XnXvXnX5XH./._ ' _.R r A J k - u N N k S ..) O.U.&.%X$Xo.u.N./ 7 8 7 ~ '.].(.K.U p <.*   . l $   O     ",
"          @ . 3 , * K 9XkXAXAXAXnXF.V ` W.( y E 5.m.V...V G J V ..E ( P.8 0 { P.F N d.G ( ~ ~ ~.~.) X m & . c w ~ +   @         ",
"              3 I P ,.9XiXCXFXHXbX4Xs.s.c..X$.w ! H.P.|.V.v.| } /.[ +._ o t + q G 9 P p.m.*.~ ~ E.'.t & = = # o @ #   #         ",
"              # o + P R.yXNXFXFXtXF.n.U.N.&.W.C c.v.N.C.C.n.! +.+.#.( 1 1 T = 3 E _ > o.Z ..r q *.~ ) # o # # Y #   O           ",
"            @     @ L.4XF.I.dXuXu.A $.W._ Z !.%X.X}.}.O.V.Z.E +.E [ E Y ] ` X q @ , k - * A V w : # ~ /       1   o             ",
"        #   .   . L L U O.{ U.U.N.C.%.] ` oX-XNXNXlX%X/.Y !.#.e E !.q E Q w 5 w w w S S V z B w + ~ Y / 3   # +   #             ",
"              # @ O.o.L { |.}.A } C.X.V.&.@XzXzXlXlX;XK.q ] !.E e A 5 X Z w T X.@.Q.&...X. .F I q : 8 8 8 . 3   #               ",
"            # # : L.P.L.L..XV.k N C Z X. XrXuXlXsX;X$X=X@.O !.E 5 N 5 y A E W &.!..X).@.! !  .+.R 9 9 I Q ! W =         #       ",
"          .   # : L OXK.P.o.% = - * N v.&.=XlXlXlX#X=XoXE + W W 3 w 5 5 Z r ' #. .Q.!. . .] ' W.+.T y n.G.+Xb.M = 0 8           ",
"          # X # X > O.R.p.X * = d B W W #.%X$X#X;X#X X%.T e N W q = 3 5 N R +.E W Q #.Q T ' ( ( W.B.Z.hXNXaX+Xb.' ~ :   + . .   ",
"          . X & # : u K 8 < c = l s M ! Q !. XO.K.V.E E R q r C e 5 5 5 r E E e R Q E Q T ' ^ ^ ~ T +XZXgXgXeXn.e + + +         ",
"        # @ @ : > : # # O > ..` Z M s M n G q L { 8 ..C.N 2 C Z E r C r E Q r W 6  . .C e y 4 4 2 y D  XgXfX+XD 8 0 + + +   .   ",
"          X X & : : # :     + q w A V d x j.O H.k.` ` U.B.| | W Q e Q Q E W B.G.W !.B.C W 6 r Y + 8 ^ V.+XC.- F 7 7 7 7   @     ",
"          # @ # . # # : # u # @ q C B s . ,.y.P 1XT.B.C.Z.3XQ Q  .#.Q Q A.A.G.x.,X,Xl.z.J 9.h % 7 %.).P..XXX^   + 7 7 0 # X     ",
"        # X > q u 8 # # , A q r W ! l v d.t.k.2X7XxXyXrXU.Y.Z.N.J.A.Q Q B.+X,XJ.S.z.l.,X3.-.3.; ^ $./.XX).(./.  # + 7 + o       ",
"        # X = 8 8 8 : # # > ] S ` H 5.j.s.k.j.2.pXkXnXiXiXjXZ.n.+XC.Q Q Q A.x.G.G.z.x.e.;.j j d { /.&X[.].[.%X: # # + 7 # #     ",
"              > u > : # : q e X = c >.F.2Xh.9X2XpXkXvXkXpXkX5XpXtXv.! Q l.l.G.x.G.S.z.z.e.:.:.:.h %.XX[.{.&X*X8 7 + + #   X     ",
"          . > > : : : : # . # = s m a.h d <.a.6X0XjXDXAXiXiXkXG.v.W ! n.S.J.,XJ.Z.A. .l.;.0.w.f V %./.).*XMX$.# 7 7 # # .       ",
"            o . @ > @ = # > , - 6.v c D n t.<X0XpXNXBXSXDXvX5Xl.5.D.| z.,X,XS.!.hXhXV.D ;.0.=.j D m.$.$.^.^.#   + + :           ",
"              O @ . @ = 5 S , l c v y.y.a.7.1X0XkXBXNXBXCXcX7X4XJ B J 4.x.z.B.A.-XfXA.8.3.-.-.-.; % O + + + # #   +             ",
"                # = > > - u k l l * s l j.k.F.1XqXhXDXCXZXwX5Xm.i.s.j.z.l.J l.! A.H.! 9.0.=.i % d ; #     +   # #               ",
"                    . # # O & . s c y.<.a.j.k.e.F.4XeXaXgXA.T.f.v.= g.v.6.3.l.B J e.D ;.s w.q.j $ . #     #     .               ",
"                      .       . . * k ,.y.d.<Xh.g.j.N.F.s.C.m.F.N.N.o 3.e.i f D M 9.3.-.3.  -.% #       .     .                 ",
"                              % p p % - V D.1Xv f.4.M.H.N.P c P...H B s.} 8.h 9.- 9.3.$ q.%   .     .                           ",
"                  .             $ % & V n.N.N.u.u.J c.D.N.F t.- w 5 o   s c 5.J s f D 5 h d -                                   ",
"                              $ % . . B +Xc.F.4.N.C J N.K z * n ; c.- = u A D s = h 6 E 4 O 2                                   ",
"                            .     . . s J G i.z N.6 K k   p.K * . k = X = - H | + .   o o 1                                     ",
"                              . . . . . i p a p % . K = q S L . . y > . , y   X T ^ o 1 o                                       ",
"                                  $ $ % * % * d % . $ y q - - . . = = & . Z =     q 4                                           ",
"                                      $ $ $ $ $ $   O . w u = = = . X < o . w 5 @   o                                           ",
"                                      .           2 o   = - - O = . O = -   R q q 9   1                                         ",
"                                                      3 @ - o ; = . O O u @   @   2                                             ",
"                                                    o o @ 3   = =   X   = O     1   1                                           ",
"                                                      + 9 o o 9 @   X   @ R o     o                                             ",
"                                                      1 o   o o 3   # O   Y   o o                                               ",
"                                                          + o + o o   4 o 4 2                                                   ",
"                                                          o     o o o       o                                                   ",
"                                                                    o                                                           ",
"                                                                                                                                "
};
