/* XPM */
static char *_6_resized[] = {
/* columns rows colors chars-per-pixel */
"64 64 245 2 ",
"   c #000000",
".  c #0B0404",
"X  c #0A0807",
"o  c #04060A",
"O  c #0D050A",
"+  c #06090D",
"@  c #0B0A0B",
"#  c #110504",
"$  c #130906",
"%  c #1B0B07",
"&  c #12060B",
"*  c #140A0D",
"=  c #1B0C0A",
"-  c #1C110D",
";  c #14110E",
":  c #020712",
">  c #050914",
",  c #0B0D14",
"<  c #060C1B",
"1  c #0A0E1A",
"2  c #140C13",
"3  c #1C0C12",
"4  c #1A0E19",
"5  c #120F1B",
"6  c #0C111C",
"7  c #0D1015",
"8  c #141213",
"9  c #1C1412",
"0  c #13141C",
"q  c #1B151C",
"w  c #1D191F",
"e  c #1D1917",
"r  c #260D09",
"t  c #24120C",
"y  c #2B150E",
"u  c #27180A",
"i  c #220D15",
"p  c #230F18",
"a  c #280E16",
"s  c #231413",
"d  c #291412",
"f  c #231B15",
"g  c #2B1A14",
"h  c #23141C",
"j  c #2B121B",
"k  c #241C1A",
"l  c #2B1D1B",
"z  c #341D14",
"x  c #33151C",
"c  c #351C19",
"v  c #361D09",
"b  c #2C2119",
"n  c #31231C",
"m  c #3C251B",
"M  c #3A261A",
"N  c #0C1323",
"B  c #071227",
"V  c #121623",
"C  c #1B1721",
"Z  c #151925",
"A  c #1C1B24",
"S  c #141A2B",
"D  c #13182A",
"F  c #1B1E33",
"G  c #151D33",
"H  c #070F21",
"J  c #231C24",
"K  c #2A1D23",
"L  c #221E29",
"P  c #2A1722",
"I  c #361924",
"U  c #1B212B",
"Y  c #1D2639",
"T  c #232024",
"R  c #2C2223",
"E  c #24212B",
"W  c #2B242B",
"Q  c #2D292B",
"!  c #2E2A27",
"~  c #332524",
"^  c #3A2624",
"/  c #352924",
"(  c #3D2B24",
")  c #33242A",
"_  c #3B242A",
"`  c #332B2C",
"'  c #3C2C2B",
"]  c #3C332E",
"[  c #2C2632",
"{  c #2C2A34",
"}  c #2C2D3B",
"|  c #242736",
" . c #342C33",
".. c #3B2C33",
"X. c #352B36",
"o. c #2B333D",
"O. c #3C3233",
"+. c #34323B",
"@. c #3C333B",
"#. c #393536",
"$. c #4B1F1B",
"%. c #462819",
"&. c #57351C",
"*. c #562D17",
"=. c #6A361F",
"-. c #442C22",
";. c #432E2B",
":. c #482728",
">. c #423125",
",. c #44322B",
"<. c #4C342B",
"1. c #4B3427",
"2. c #5A3727",
"3. c #4C2C31",
"4. c #442E33",
"5. c #433334",
"6. c #4B3433",
"7. c #423A35",
"8. c #43343A",
"9. c #4A343B",
"0. c #433A3C",
"q. c #4B3C3A",
"w. c #4C3A34",
"e. c #543334",
"r. c #523A35",
"t. c #593A38",
"y. c #552C2B",
"u. c #653A28",
"i. c #7A382B",
"p. c #6C3E3A",
"a. c #663937",
"s. c #723E35",
"d. c #642F31",
"f. c #5B453B",
"g. c #58433A",
"h. c #4A423C",
"j. c #6B422E",
"k. c #76422C",
"l. c #684636",
"z. c #79463A",
"x. c #76513B",
"c. c #182C48",
"v. c #193253",
"b. c #272C43",
"n. c #293446",
"m. c #343443",
"M. c #393A47",
"N. c #2F3B56",
"B. c #443C43",
"V. c #493B44",
"C. c #553C43",
"Z. c #653D41",
"A. c #723D44",
"S. c #39434A",
"D. c #3C4454",
"F. c #39485B",
"G. c #324948",
"H. c #364D64",
"J. c #444045",
"K. c #4A4243",
"L. c #46424B",
"P. c #4C444B",
"I. c #4D484F",
"U. c #524243",
"Y. c #53464B",
"T. c #594745",
"R. c #494A57",
"E. c #554D54",
"W. c #4A515D",
"Q. c #575459",
"!. c #674846",
"~. c #7B4846",
"^. c #68564A",
"/. c #755849",
"(. c #644B55",
"). c #794C51",
"_. c #675658",
"`. c #775758",
"'. c #786357",
"]. c #726155",
"[. c #475968",
"{. c #565765",
"}. c #475E74",
"|. c #525469",
" X c #665A67",
".X c #775A64",
"XX c #496479",
"oX c #5A6875",
"OX c #6B6364",
"+X c #796568",
"@X c #79726D",
"#X c #746A75",
"$X c #647078",
"%X c #737175",
"&X c #686674",
"*X c #844938",
"=X c #845037",
"-X c #884C14",
";X c #9A5748",
":X c #875956",
">X c #8D4D4F",
",X c #886759",
"<X c #976559",
"1X c #AF6E59",
"2X c #875D65",
"3X c #9B5E66",
"4X c #8A6766",
"5X c #98646B",
"6X c #88756D",
"7X c #8A6B78",
"8X c #8C7C7A",
"9X c #897674",
"0X c #937D78",
"qX c #946F68",
"wX c #AB7273",
"eX c #A1555B",
"rX c #C0654F",
"tX c #95847B",
"yX c #A68978",
"uX c #567184",
"iX c #677585",
"pX c #787884",
"aX c #6B7389",
"sX c #8B7D85",
"dX c #9B7983",
"fX c #AF7B87",
"gX c #9A8A87",
"hX c #9D9394",
"jX c #9E948D",
"kX c #A88685",
"lX c #AA9587",
"zX c #A99A94",
"xX c #B09B89",
"cX c #B5A699",
"vX c #ACA19D",
"bX c #B0A6A2",
"nX c #CF968D",
"mX c #C8AC98",
"MX c #C3B4A7",
"NX c #CEBBAA",
"BX c #D6C0AB",
"VX c #DBC9B6",
"CX c #CFC3B6",
"ZX c #E3C9AD",
"AX c #EBD7C0",
/* pixels */
"                                                                                                                                ",
"                                                                                                                                ",
"                                                                                                                                ",
"                                                  + X                                                                           ",
"                                            o   @ o 6       o                                                                   ",
"                                          X ,   @   o   0 o 7                                                                   ",
"                                    o       o   > >     +   o       o b e $ #   # s >.o o                                       ",
"                                o o         , +   : o     > + o         k * $ . . X s Q g                                       ",
"                                o 6     > X   o o   1 o   o   @ = k *     k ] g - 8 @   = Q . .                                 ",
"                              o o o o   > : o 1 > o o o B   1 k q q 7.' ` y k r.l O.R & e o # #                                 ",
"                              o 6 o < o   > 6 o > 6 o   6 1 w o m.A ` <.T.e.;.^ ^ ~ b R n r . .                                 ",
"                            0   o N o D + 6 < : : : o V : , = , Z 5.R y.l e.;._ t.k  .q s % * . # .                             ",
"                        o       < 1 : + : o < < H : H H 6 h q q 0 E.V.;.J  .W ..4.J @.0.* Q 8 % %                               ",
"                            o o o o : : N : < H < N N < S I W L.M.[ 8.r.5.9.8.9.0.B.[ k #.^ s * r O                             ",
"              O   . O   O   o U > o 1 6 S < < B G Y < V < 4 L b.{ C.8.9.Z.4.9._ [ [ B. .A ' 9 * * 8                             ",
"            o .   O O O 3 3 O : > > 6 D : S D 1 G S S V A V.V.P W @.Y.(.(.9.P.V.L q B.8.6.q.~ R /     X X     X                 ",
"              O & .   O & p *   & O V D < 6 D D F D F D m.m.m.V.B.C.V.Z.V.4.V.9.) W W 5.B.`  .k e l e   X $   $   .             ",
"          O     & O & i a 2 j & o , , C V H D c.b.F D L ) [ [ [ X.Y.m.(.(.C.9._ W M.U.6.( - * - 9 = = . t % #     ;             ",
"      O     & * & i * a i 3 p 3   0 1 5 N F V V F b.| } X.X.[ X.[ V.m.@.4.3.I _ 4.8.U.q { <.-.0.( d y . y t $ . =   . . .       ",
"        . *   3 * a 3 3 4 4 3 3 4 C L 5 N V < F N.b.m.} [ F L P X.V.V.[ C.9.@. .@.@.K R K <.:.%.( u z g z % $ t - $ $ * .       ",
"      . O & i = # 3 a 4 4 4 3 , L j I J O < D F b.F [ L T T J A F 8.@.9.8.A L +.t.J A Q 4./ g <.1.t b g z y y * . % $ . X       ",
"    O * .   * i 3 & 3 * 3 P P [ P p 2 4 P m.m.F F { F [ A 0 P J @.L T.9.L E L ..) A B.W g ] R ( -.1.-.%.2.M M t M t # - .       ",
"      * & 3 . & 3 3 O 2 & 5 a 3 O p j ..`.9X7X4X{.Q.} E [ q 9 P P.#.@.L.{ @.Y.X. .@. .' T.l / / l.x.j.1.2.%.g d % z t $ . *     ",
"      O . & i i 3 3 3 a 2 O 3 & 3 3 k Y.6XkXvXbXhX+X X+.L 8 , 8 R V.B.L.K.L.E.@.Q.J. .#.,.' 7.] f.,X/.^./.( g b z t % #         ",
"    3 * O & & 3 x 3 j a P 2 * 2 j j t.9XyXxXMXCXbXhXsXL.L A 8 0 w T +.B.@.E E J.V.m.+.Y...w.,.l.f.'.,X/./.] n ,.t - r . = - $   ",
"    & * & i 3 j p p P I p a o i 2 3 q.4XtXmXZXZXNXzXsX8.U w E w E { +.{ } R.} M.+.F.I.{ r.t.) l.x././.^./.!.g.n %.M t y z %     ",
"      . O   i i j I p P 4 4 a 3 * s ~ 6XxXcXNXBXMXzX9XB.A A E E U.`.5.} m.M.b.R.c.| +.} O.' ' ;.` !.,X/.^.'.g.1.n m g t y .     ",
"    O & & & & O 3 I i P h 4 x 3 & 3 d.4X,XyX0XjXlX+XI.A S E T 9.:X2X.X9.M.D.b.M.F.b.b.c.0.^ n k / ] f./.].'.g.( m z % y %.$ .   ",
"    O 3   . 3 & i a 4 P P 4 p P * * x c !.4X.X,X4XY.q 1 A V 4.).,X).:X:X9.+.{ n.H.v.c.Y 8.;.l k / f.w.q.f.f.f.1.M n v z m       ",
"          2 & a i & I i p 4 & a j j & i E.8.I.q.[.#.h 5 5 0  .).`.qX:X<X!.r.V.N.v.c.Y G Q ` k ' / ~ / w.!.1.( -.z * = = y $     ",
"        &   O O & I p 2 I p & O x i . J n.Y o.W.G.G.S.4 h h K 9.`.wXwX^.K.T.I.N.N.v.n.{ T Z ) ;.f n f ( n n g u z t % $ . =     ",
"        . O & 2 3 3 & & j a i O x r 3 K E | M.W.C.S.I.:.I I K ..>X:X:XR.'._.P.Y.} c.n.{ T J l j.g f 9 -.g y M t y % % z         ",
"              ; 3 3 8 h s & ; X X . s E b.F.N.R. X(.Z.Z.3.) _ ) ;.f.V.P.qX`.K.h. .F E U e.*Xu.k.s.i.i.%.d t t t % t t . .       ",
"              ; * n - s l ; b e q s / o.b.V.|. XaXsX X2Xd.:.:.I _ w.T.K.h.g.U.U.r.' J ! =Xa.~.a.a.s.u.d.d d # = t % #           ",
"          @ ; ; 9 9 9 ; 8 ` 7.].^.!.8.n.F. X|.dXfXsXsXeXA.3.:._ _ ,.t.6.5.f.r.r.l.1.n ;.s.>X>Xw.!.T.a.i.a % t r r # .           ",
"          ; ; e 9 f f k b g.].tXgX@XQ.S.{..X2X7XfXdXdXdX2Xd.3._ _ _ ^ ;.6.6.g.w.u.:.%.1.k.=Xl.z.<X:Xs.i.*.% % # #               ",
"      @ X X f e f b k b h.@X@XcXmXyX@X$XsX2X2X3XdXdX3XdXsXd.C.(.].OX_.g.,.w.l.l.j.u.2.k.=X*X;X1X<X>Xy.a.$.#                     ",
"      X ; ; b f n M ] n #.].yXBXBXmXtX{.).5X.XdX2XfXfX.X.X>XA.sXzXzXgXOX!.,.2.l.=Xj.j.=X1X*X>Xs.u.;X;Xl     o                   ",
"      X ; e f ] / ] / f h.].yXyXxXyX@X/.A.(.2X3XnXnXfXfX7X2X0XlXMXCXcXgX4Xj.u.j.u.u.*.u.z.>X1Xs.l.s.p.p.& o                     ",
"      X X b n n b b b n Q.pX$X@X@X@XQ.R.3.3X).fX3XfXfX3X5X:X8XbXAXVXBXzXqX*X&.&.$.&.*.l z.1XeX3.~.A.e.s O o                     ",
"      X ; 8 b b g b b ( +.[.}.}.$XW.I.o.2.~.~.3X>X>X3XwX>XA.tXMXVXBXBXzXqXl.=.=.k.k.&.W 3.p.:.X.3.h K 2 , + o o                 ",
"        X @ 8 f n b g 0.W.W.H.XXH.}.H.n. .x A.eX>X~.>XeXZ.E.qX0XlXgXxX8X_.T.,Xx.1X/.T. X[ L L [ 0 V 0 0 O 1   o                 ",
"          ; ; e f - f +.M.oX}.XX[.}.H.G.U w $.d.*X!.).f._ h ..`.OXOX,XY.m. .Q. X9XsX#XV.C.V.C P J A 0 , o o o                   ",
"            X ; = 9 f M.XXXXuXiXoX$X[.G.S.2 e ,.] h.7.! P A A I .. .Q W  .{.E.+XpX#X.X|..X3X4.A E C A 5 0   @ o                 ",
"            X X # * 3 D.uX{.aXiXXXXXH.o.+.b T ! #.h.o.] ` W k > 0 1 , J _.+X%XhX8X0XsXsX&X(.K L C C 2 , @ o o                   ",
"              . . . . k {. XXX{.&X}.}.%X] ! 7.` ! #.h.f.0.` / 1 < > N 8 Y.#X$XhXmXmXgX9X.XV.L C 0 0 1 @ + o                     ",
"              . .   . * Q _.iXW.W.R._.Q ; w Q #.].].^.f.#.>.M 1 , : , 3.`._.dXfXdXgXgX.X2X!.P + , 2 + o   o                     ",
"              . . X * . * ` I.~ S.R.n b ! ] g.^.].^.T.Y.q.Q / 0 q 0 1 C ..A.4X4X.X7X X XZ.K , + o @ +   o o                     ",
"                . . # & . . * 9 * 9 . = n f.7.h.h.G.h.` ] ! T U 0 1 : > K e.!.~..X`._.9.:.@ o o + + o                           ",
"                    # $ # . 3 9 . .   u &.( ! l.] ] 7.l.h.` w + 1 1 0 @ : + I t.4.8.^ 8 o o o o o     o                         ",
"                      .   . & 8 X     v &.&.M &.( M 1.j.( w 7 7 6 : , ,   o Z 0 O *     o   o   o                               ",
"                            . @         % -X%.v M M &.M ] 7 +   , : o + > o , @ @                                               ",
"                              @           . %.$ &.&.u b + 0 o , N > > + o   o   o                                               ",
"                              X                 ; ; + @ o U 7 0 0 o o + o   o o                                                 ",
"                              o                 ; X X + 7 o.| 6 Z U > + o o   o                                                 ",
"                                                X X       U e 0 U 0 o                                                           ",
"                                                X .       , @ + X @                                                             ",
"                                                @ o       o @ X @ X           o                                                 ",
"                                                X           X o @ X                                                             ",
"                                                X           X o X o                                                             ",
"                                                o           o   o                                                               ",
"                                                                                                                                ",
"                                                                                                                                ",
"                                                                                                                                "
};
