/* XPM */
static char *result[] = {
/* columns rows colors chars-per-pixel */
"64 64 142 2 ",
"   c #030403",
".  c #060D03",
"X  c #090F05",
"o  c #071404",
"O  c #091506",
"+  c #0B1907",
"@  c #0C1609",
"#  c #0E1C09",
"$  c #121E0C",
"%  c #151D12",
"&  c #191E16",
"*  c #1A1E19",
"=  c #0E2309",
"-  c #13230C",
";  c #142B0C",
":  c #182D0F",
">  c #15320E",
",  c #172211",
"<  c #1B2416",
"1  c #172B10",
"2  c #1C2C12",
"3  c #1D241A",
"4  c #1F281C",
"5  c #1C3311",
"6  c #22260D",
"7  c #31270F",
"8  c #232611",
"9  c #292410",
"0  c #222C15",
"q  c #2E2912",
"w  c #20241F",
"e  c #2B271D",
"r  c #22291D",
"t  c #2D291C",
"y  c #302414",
"u  c #332B14",
"i  c #3B2D16",
"p  c #352B1B",
"a  c #3E2F18",
"s  c #213215",
"d  c #2D3514",
"f  c #23321C",
"g  c #2A341C",
"h  c #263A1A",
"j  c #2D3B1E",
"k  c #3E3014",
"l  c #3D301C",
"z  c #252524",
"x  c #292727",
"c  c #262925",
"v  c #2A2825",
"b  c #262628",
"n  c #282728",
"m  c #2D2D2D",
"M  c #352E23",
"N  c #382F23",
"B  c #312F2D",
"V  c #2E3325",
"C  c #2F312D",
"Z  c #363124",
"A  c #3A3326",
"S  c #373F26",
"D  c #393F26",
"F  c #31332C",
"G  c #3D352D",
"H  c #363C2C",
"J  c #393E2A",
"K  c #2E2F30",
"L  c #302F31",
"P  c #2F3031",
"I  c #333333",
"U  c #383430",
"Y  c #373B31",
"T  c #3A3D33",
"R  c #373639",
"E  c #383739",
"W  c #37383A",
"Q  c #3B3B3A",
"!  c #402F16",
"~  c #453215",
"^  c #44331B",
"/  c #49341B",
"(  c #4B391E",
")  c #473720",
"_  c #453C24",
"`  c #4C3920",
"'  c #40372F",
"]  c #433B2A",
"[  c #4A3C2C",
"{  c #503B25",
"}  c #403730",
"|  c #443C35",
" . c #1F4217",
".. c #214418",
"X. c #2F4121",
"o. c #364125",
"O. c #384027",
"+. c #354428",
"@. c #3E462A",
"#. c #37482A",
"$. c #3F482B",
"%. c #3D4133",
"&. c #3A4139",
"*. c #464027",
"=. c #484025",
"-. c #40472B",
";. c #4C452C",
":. c #41492C",
">. c #4D492F",
",. c #414537",
"<. c #454D32",
"1. c #424539",
"2. c #45493A",
"3. c #484B3F",
"4. c #475031",
"5. c #495134",
"6. c #4D5539",
"7. c #51563B",
"8. c #555C3E",
"9. c #615B3F",
"0. c #3F3D40",
"q. c #434342",
"w. c #565D42",
"e. c #595D42",
"r. c #525448",
"t. c #57594D",
"y. c #605840",
"u. c #566042",
"i. c #5C6346",
"p. c #5D6448",
"a. c #60654A",
"s. c #64694E",
"d. c #676B50",
"f. c #6D7356",
"g. c #727559",
"h. c #767A60",
"j. c #7F8365",
"k. c #7E8468",
"l. c #808566",
"z. c #828477",
"x. c #8D8F8A",
"c. c #91918B",
/* pixels */
"n z z < L I m I m P m L L m B u n N n P u m B l F B n K z n n > m z z < n K R R R m I z C m I u m ' I m u P I P F K K K z z n 5 ",
"m z z 3 K K S F m R I I m I K t z I n m i I A Z K m n m n t C > n z n 3 z P R H R 5 R m E C m t n P K F ~ m R m m m B K n z C > ",
"n z n n I H S O.F Y Y H L m P u t I n C A Q R ^ R R P m n p R 5 n z m z c I H S H  .R I R P I u t I I K ( Q R I I I R m m z P 5 ",
"n - n c m H S J R O.Y D I B I z u B z P &.%.&.^ / H R I z p n d n - m c L H O.O.S S S R I m I z u B m B T %.T Q Q Q Q K m z n d ",
"m z n < K S S Y Y S O.Q I m m u z N z m ] Y _ ^ ^ _ E K b z z > n z z < m ] O.Y O.O.O.Q Q L L u m } I K ' F O._ @._ R I z n z > ",
"n z n 3 K S S %.%.S $.O.I m P t z P n P ] ] _ / l *.H K n v B > n z n 3 I S S %.H %.-.J } K m t m K m B [ ] S ] $._ H I n e K > ",
"c z c n K S S $.$.D 2.O.I m I u t R n m | Q S *.#.&.H F n p I 5 n z m n m S S $.O.1.1.S R I K u e I I m 1.| S $.$.R H m K p R 5 ",
"n - n c K O.S $.$.S q.-.R K F z u B z B T T S $.O.O.E m z p n d c - F n K S S $.$.1.3.-.R B F z u m m B D T S $.-.%.Q K m u n d ",
"z 3 z z | $.S $.$.S <.-.E I a e n ( z I Q T J $.O.S Y K z a B d n , K z | $.O.-.-.q.5.$.R F a e n ` m K D T D -.$.Q T C z a B d ",
"n z n n Q $.S $.$.D <.$.Q m i z m { m m H %.T $.:.S R m n N ' / n n K m Q $.q.<.-.q.<.$.Q m ! z m { m B O.%.S -.$.Q R m n N } / ",
"I m z I Q 2.J :.-.D 4.$.Q F a z I ~ C I O.%.Q :.:.T W m m P m a I z m K Q <.3.<.$.:.<.$.Q I a z I ~ P L O.%.O.:.%.Q R I z K n ~ ",
"I 3 z m I F V V V V V V I n B m n A m r I R H H F H A 3 I F m u I 3 n n R F V V V V F V R n m m n A C f F F F H H H A 4 < K m a ",
"m z z m m - $ - - * - $ I n m m < F u - - - - - - - < 6 a n m u z z z n m - - - $ < $ - L n m m 3 I u - - - - - - $ < 6 u n K u ",
"z 3 z m - - - = - - - z I z K z - B u z - - - - - - z v z z z u z - m m - - - = - - - w L z I z - m p 3 - = - - - - b z z z z u ",
"B - z m z z < 3 < - - b N - n 3 - z F w - - - - - z u z z z z p I - m m z z < < < - - z Z - n 3 - z F 3 - - - z z w u z n n z u ",
"r $ & 3 * * $ - $ # # 3 6 - 3 3 $ $ 8 < # $ $ # $ - < 3 r 4 c , c # < 4 & * - % $ $ $ 3 8 - 3 3 - , 8 * $ $ $ $ $ $ * 3 4 r r & ",
"c z z , m C m m m m m m m m m q n p z m q m m l m C z m w z z ; z z z , z m I I P m m z m m C q n G P m u m P m m m n m c z z > ",
"n z n 3 P I O.F L E I I I P m t z I n L i I Z Z P P c K m e K > n z n 3 z K Q Y W 5 Q m Q L m t n I m C ~ C R m m C I L c b m > ",
"n z n n K Y O.O.m H Y H m m I u e R c F G Q E ~ R I m m n u I 5 n c n z c C Y O.H  .R F R m I u e I I K ( Q R I I I R C m z C 5 ",
"n - n c m H O.S R D Y S I m I z u m z m &.%.&.~ / Y Q I z p m d n - I z L J O.O.O.S S R I m I z u B m F T &.T Q Q Q R C m z n d ",
"n z n < K O.S Y Y D O.Q I K K u z N z L ] F _ / ~ _ R m z z z > n z z < C ] O.Y S O.O.Q Q B I u B U I K ' F O._ O._ R R z z z > ",
"n z n 3 m O.S %.%.S $.S I K m t b I n K [ ] _ / _ =.H L m v C 5 m z n 3 m S O.%.Y %.$.O.} m m t n I m B [ ] S _ :._ H I z v B > ",
"n c n n m S S $.$.S 1.O.I L K u e I n C | Q O.*.#.T Y m z 9 m ; w * n n m O.J $.O.,.,.S R I m u t R I K | Q J $.:.Y H m m a R 5 ",
"c - c n P J S $.$.O.3.-.R m P z u m z C Y &.O.$.S D F T ,.y.t.9.r.6.3.H C S S -.:.q.2.$.E F I b u B n F O.%.O.-.$.%.R K m p n d ",
"n < n z | :.D $.-.D <.-.R C a e n ` c K Q T S S h 6.i.f.l.x.x.k.x.c.j.f.p.6.h D @.1.4.$.W P k e z ( m K O.T D -.$.Q T F z a B d ",
"z n n n T $.S $.$.S <.$.W C ~ w m / c C H j O.5.6.i.a.i.f.z.h.i.h.z.g.p.p.p.6.5.@.V @.O.Q n i w I { L B S %.S :.$.Q R K n N } / ",
"I m c P Q 2.O.$.$.O.5.$.Q m q F 2.7.p.s.p.8.7.p.i.O.:.6.5.w.i.5.t.w.<.<.<.O.i.i.7.8.i.s.i.7.;.C r k K L O.%.O.:.%.Q W I z K m a ",
"I 3 n n R C V C V V v g %.X.O.:.7.u.8.w.d.d.p.p.s.e.w.:.-.O.$.S $.$.$.<.w.w.s.i.a.d.s.w.8.u.8.$.S o.S r F F F H H H A 3 3 m m i ",
"m z n n m - - - - < 0 $.<.j 2 ; - - - 0 X.o.4.5.w.7.8.5.6.s.:.#.-.d.6.6.8.7.8.5.<.X.X.2 ; - - ; 2 j <.$.s - - - $ - < 6 u n m u ",
"z 3 z C - - = - - 1 0 3 3 % 3 % O O # o = ; 5 Z S S $.5.e.i.p.g.i.i.e.5.@.S o.Z 5 ; = o # O @ , # & 8 < 0 ; - , - $ z z z z z u ",
"K - z m z z , < < - = z A , m 3 - w F & # # # 5 > 2 $ - 5 j 7.s.6.V 5 - $ 2 > s # # $ * M - n w - z F 3 = - - z z w u z n z z u ",
"c # , 3 * * % $ $ $ $ 3 8 - 3 * - $ 8 3 = # 0 s S :.,.s 0 - :.p.$.; s s :.:.o.0 0 # $ 3 6 - 3 * - , 8 * $ $ $ $ $ $ < 3 c r r & ",
"c z z , m C n m m m m n m m m q n M z m q + O.:.:.j g s : 5 :.e.:.5 5 f g j :.:.#.$ B z m m P q n G P m u m P m m m m m z z z > ",
"n z n w K I S H m Q I I K F m t z I c m i z $ # $ h 5 : # ; D 6.+.; = 1 5 h # # # - E m R m K u m P m C ~ P R C m m K F c z m > ",
"n z z n m Y S O.K H Q H K B I u e I n I A &.R o - - > ; s # . X . = 2 : : - $ o H  .R F R P P u e I I K ( Q R I I I R P m b C 5 ",
"n - n c K H J S R O.H S I K I z u m z B &.%.%.8 O O ; - ; ; o o o - 1 - : # O 0 O.S S R I m I z u F m m T %.T Q Q Q R C m z n d ",
"m z z < m D O.Y Y S O.Q I m m q z N z K ' H _ / 9 @ $ + + # # $ $ # @ @ # O 0 %.J O.D Q Q K I u B ' I K ' F O._ @._ R I z z z > ",
"n z n 3 K S S %.%.S $.S I K I t z I n K [ ] _ / _ o O @ # < 2 , , < # @ O o O.%.H ,.$.S } m m t m K m B [ ] S ] $._ Y I z v F > ",
"n z c n K D D $.-.S 1.O.I B F 7 t R n m | Q S _ J H # o O O # # # O o o @ H S $.O.1.,.S R I L u e I I m 1.| S $.$.Y H m F p I s ",
"c - n n K S S $.$.S 3.$.R m I z u m z P Y %.S $.D J I &   + o . O +   & m O.S -.-.q.2.-.E F F z u m m B D T S $.-.T Q m m p n d ",
"n < n z | $.S $.$.S :.$.R B a e c / z L Q T J :.O.D T I z s #.+.#.s m c | $.O.-.-.q.5.$.R m a e n ` m L J T S -.-.Q T m z a B d ",
"n z z m Q $.D $.$.S 5.:.Q m ! z m { m m H %.T $.$.J R m m N 6.f.6.v F n Q $.q.<.-.q.<.$.Q m ! z m { B m D T S $.$.Q R K n Z ' / ",
"I m c P Q 2.D :.:.@.4.#.Q F l z I ~ F L H %.,.-.-.O.E m m m H >.H z L I Q <.2.5.$.:.<.-.Q I a z I ~ m I O.%.D -.%.Q Q I z K m a ",
"I 3 n n R C V V V v F V R n B m n G m f F R F H H F A & I B K y I 3 z n R F V V V V V C R n m m n A F f F F H H H H A 3 < B m i ",
"n z n n m - - - - < $ $ L z F n 3 K u - - - - - - - < 6 ! x m u z z z n m - - - - * $ - I n K m 3 P u - - - - - - $ < 6 u n m u ",
"z 3 z K - - - - - - - z I z I z - B u w - - - - - - b z b w z u n - m C - - = - - - = z K z F z - m u w - = - - - - z z z z z u ",
"I - z m z z < < 3 - - z Z - n r - z F r - - - - - z u b n b z u L - m m z z < < < - - z N - m 3 - z I 3 - - - z z w u b z z z u ",
"c # * 3 % * $ $ $ $ # 3 8 - < & $ $ 8 * - $ $ - $ - < 3 r w r % c # < 4 * * $ % $ $ $ 3 6 - 3 * - , 8 * $ $ $ $ $ $ * 3 r c r < ",
"c 3 z , n F m m m m m m m m m q z M z m q m m a m m c m w z w > z z z , z m I I I m F z m m F q n G C m q m I m m m m m z z z > ",
"m z n 3 K I O.F P W I R m K F t z P n P i I A A P K n P m v B 5 n z n 3 n K Q H W 5 W n E K L t n I m C ~ C R m K C K I c z m > ",
"n z n n L Y S O.m H Y H K F L u t R n K A Q R ~ R I m P c p R 5 n c n z z C Y O.H  .R I R m L u t R I K ( Q R I I I R m m z C 5 ",
"n - n c K H S S E O.Y O.L m I z u m z C %.%.&.~ ( Y R C z p n d n - I z K J O.O.O.S S R I B I z u B m K T %.T Q Q Q R C m z n d ",
"m z n < C S S Y Y S O.Q I B K u z N b P ] Y _ ^ / _ W L z n z > n z z < m ] O.T S S S Q Q F I u m G I F ' I O._ @._ R I z z z > ",
"n z n 3 K O.S %.@.S $.S I m K t z I n m [ ] _ / D *.H m n v B > m z z 3 C S O.%.Y $.$.H } m m t n C m m [ _ S _ $._ Y I z v F > ",
"z z c n K S S $.$.H 1.S R B K u t I z I | Q S *.O.H H K n p I 5 c z m n m J D -.#.%.1.S R I F 7 t R I m | Q J $.$.Y H m F p I s ",
"n - n n K S S $.$.S 3.$.R m I z u B z m Y T S $.D J Q m z p n d c - P n K S S -.-.q.3.$.R K I z u B n I O.&.S -.-.T Q m m p n d ",
"n < z b | $.S $.$.S 5.:.R m l t n ( z L T Q J $.O.S Y m b i B d n < C z | -.O.:.$.q.4.$.R L a e n ` m m O.T S $.-.Q T m z a B d ",
"n z z m Q $.S $.$.S :.$.T L ! z K { m m T %.T $.:.J E L x N ' / n n P n Q $.q.<.$.q.4.$.Q m a z K ` I m S %.D :.$.Q R K n A ' / ",
"I n n F Q 2.O.$.-.O.5.$.Q B a z m ~ F I O.%.Q :.:.H E m L K K i K z m I Q 2.3.5.@.:.<.@.Q I a z F ~ I L O.%.O.:.%.Q Q I z K n ! ",
"R 3 z n R F V V V v F V I m m m m A m r F R H H H H A < I L B u I 3 z n R F V V V V C V R n B m m A P f F F Z H H H Z 4 < I m i ",
"m z z n m - $ - - 3 $ - I z m m < I u - - - - - - - < 6 a n m u z z b n m - - - - , - $ I z B m 3 K u - - - - - $ - 8 , u n m u ",
"z < z I - $ - - - - - z I z m z = B u w - - - - - - b z z w w u z - m m - - = - - , - z I z L z $ m u w - - - - - - z b z z z u ",
"L = b n z z < < < - - z Z - n 3 - z I 8 - - - - - z y z b z b u I - m m z z < < < - - z N - n 3 - z I 3 - - - w z w u b n z z u ",
"r $ & r & & $ $ $ # # & 6 - 3 3 # $ 8 & $ # # # # - < 3 r r r & r $ 3 3 & & $ $ $ # # * 6 - < < # $ 8 & # # # $ $ $ & 3 r r r & "
};
