/* XPM */
static char *result[] = {
/* columns rows colors chars-per-pixel */
"64 64 176 2 ",
"   c #070E04",
".  c #080F05",
"X  c #030403",
"o  c #071404",
"O  c #0A1506",
"+  c #0B1907",
"@  c #0C1609",
"#  c #0E1B09",
"$  c #121E0C",
"%  c #151D12",
"&  c #191E16",
"*  c #1A1D19",
"=  c #0E2309",
"-  c #13230B",
";  c #1C250D",
":  c #152A0C",
">  c #182D0F",
",  c #16320E",
"<  c #18330F",
"1  c #18390F",
"2  c #172211",
"3  c #1B2416",
"4  c #172B10",
"5  c #1C2C12",
"6  c #1D241A",
"7  c #1F281C",
"8  c #173410",
"9  c #1B3411",
"0  c #1B3B13",
"q  c #22270E",
"w  c #242612",
"e  c #292410",
"r  c #222C15",
"t  c #2E2912",
"y  c #20241F",
"u  c #2B271D",
"i  c #222B1D",
"p  c #2D291C",
"a  c #332B14",
"s  c #3B2D16",
"d  c #352B1B",
"f  c #3E2F18",
"g  c #302414",
"h  c #223115",
"j  c #2D3514",
"k  c #23311D",
"l  c #2A341C",
"z  c #263A1A",
"x  c #2D3B1E",
"c  c #3E3014",
"v  c #3D311B",
"b  c #252524",
"n  c #292727",
"m  c #262925",
"M  c #2A2825",
"N  c #262528",
"B  c #282728",
"V  c #2D2D2D",
"C  c #352E23",
"Z  c #382F23",
"A  c #312F2D",
"S  c #2E3325",
"D  c #2F312D",
"F  c #363124",
"G  c #3A3326",
"H  c #373F26",
"J  c #393F26",
"K  c #31332C",
"L  c #3D352D",
"P  c #363C2C",
"I  c #393E2A",
"U  c #2E2F30",
"Y  c #302F31",
"T  c #2F3031",
"R  c #333333",
"E  c #383430",
"W  c #373B31",
"Q  c #3A3D33",
"!  c #373639",
"~  c #383739",
"^  c #37383A",
"/  c #3B3B3A",
"(  c #402F16",
")  c #453215",
"_  c #44331B",
"`  c #49341B",
"'  c #4B391E",
"]  c #473720",
"[  c #453C24",
"{  c #4C3920",
"}  c #40372F",
"|  c #433B2A",
" . c #4A3C2C",
".. c #503B25",
"X. c #403730",
"o. c #443C35",
"O. c #1E4216",
"+. c #204216",
"@. c #224618",
"#. c #234B19",
"$. c #27521B",
"%. c #29551C",
"&. c #2B5C1F",
"*. c #2F4121",
"=. c #364125",
"-. c #384027",
";. c #3E462A",
":. c #3F482B",
">. c #2C5D21",
",. c #3D4133",
"<. c #3A4139",
"1. c #2E6223",
"2. c #2F6825",
"3. c #316424",
"4. c #336B27",
"5. c #316428",
"6. c #356E29",
"7. c #37732B",
"8. c #3B7B2D",
"9. c #38772B",
"0. c #464027",
"q. c #484025",
"w. c #40472B",
"e. c #41492C",
"r. c #4C452C",
"t. c #414537",
"y. c #454D32",
"u. c #424539",
"i. c #45493A",
"p. c #484B3F",
"a. c #475031",
"s. c #495134",
"d. c #4D5439",
"f. c #51563B",
"g. c #555C3E",
"h. c #615B3F",
"j. c #3F3D40",
"k. c #434342",
"l. c #565D42",
"z. c #595D42",
"x. c #525448",
"c. c #57594D",
"v. c #605840",
"b. c #566042",
"n. c #5C6346",
"m. c #5D6448",
"M. c #60654A",
"N. c #64694E",
"B. c #676B50",
"V. c #6E7356",
"C. c #727559",
"Z. c #767A60",
"A. c #3F822F",
"S. c #3D8432",
"D. c #408632",
"F. c #418C34",
"G. c #449237",
"H. c #459539",
"J. c #47983B",
"K. c #499E3D",
"L. c #4AA03E",
"P. c #4EA542",
"I. c #51AB45",
"U. c #54B147",
"Y. c #57B74B",
"T. c #57B84B",
"R. c #59BC4D",
"E. c #7E8468",
"W. c #7F8365",
"Q. c #5BC04F",
"!. c #60CF57",
"~. c #64D55A",
"^. c #808566",
"/. c #828477",
"(. c #8D8F8A",
"). c #91918B",
/* pixels */
"B b b 3 A R T U K U U Y V Y V a B C B V a V A _ U U b Y b b B 8 B b b 3 B U ! ! ! V R b A A R a V } R A a V R D A U U V B b B 8 ",
"V b b 6 U Y H K V ! R R Y V R p b D B U s ! G F T U b U M M K 8 B b B 6 B V ! P ^ 8 ! V ! U V p B T V U _ V ! V V V U K B b V , ",
"B b B B U W H -.R P W P R V V a p ! b R G / ! _ ! ! R V b d ! 9 B b V b b R W H P O.! R ! V R a p R R Y ' / ! R ! R ! V V b R 9 ",
"B - B m Y P H H ! H W J V A R b a A b V ,.,.,.v ' W ! A b d B j B - U m U J -.-.H H H ! R D R b a K V V ,.Q ,./ / / ! D V b B j ",
"V b B 3 V =.H W W =.-./ R R V t b F b U | W 0._ _ [ ! T b N b 8 B b b 3 A | -.W J J H / ~ R R t A X.R V } K -.| -.[ ! ! b b B , ",
"B b B 7 U H J ,.,.H ;.H R V Y p b R B U  .| [ ` v q.P U B M D , B b B 6 T H =.,.Q w.:.H X.V V p B U V R  .| H [ w.[ P R n u V 8 ",
"m b m B U H -.:.w.J u.J R V R a p R B V o./ H | ;.<.P D M d R 9 B b V B U H H w.-.t.t.-.! R V a p ! R V o./ -.:.w.Q P V R d R 9 ",
"B - b B U H H :.:.H p.w.! U K b a A b V Q Q H :.-.-.R T b d B j m - T M U H H :.w.k.i.;.! R R b a V B R -.,.H w.:.,.! R B d B j ",
"B 3 b b o.:.-.;.:.H a.w.~ V f u n ` B T Q / P w.-.H W U b f A j B 3 U b o.w.;.:.:.k.s.:.! V f u B { V U J / H :.:./ Q D b f A j ",
"B b B B / ;.H :.:.J y.;./ D ( b U ..V V Q ,.Q :.w.J ! U B Z } ` m B U B Q ;.k.y.:.k.y.:./ U ) b V ..A Y H ,.H :.:./ ! V B Z X.` ",
"R B B R / i.-.w.w.-.y.;./ K f b A ) R Y -.,.<.w.w.,.^ V Y U V f D b T R / i.i.s.;.y.s.;./ A f b R ) D Y -.,.J w.,./ ! R b U V f ",
"! 7 m M ! K S S S S K S R V V V V F V k K ! P J H K G 3 R A A a R 6 b B ! K S S V l S V ! B A V V F D k K K K J P P G 7 6 A V s ",
"B b m B V - $ - - 6 $ - R N U V 3 T a - - - - - - - 6 q f B V a b b b B V - - - - & $ - Y B Y V 3 U a - - - - - - $ 6 q a V V a ",
"b 6 b K - - - - - - - b R y U b - V a y - - - - - - b b b b b t B - V D - - = - - - - b Y b K y - V a b - - - - - - b b b y b a ",
"U - b V b b 3 3 3 - - b F - B 7 - b R w - - - - - b a b B b b a R - V B b b 3 3 2 - - b F - V y - b K 6 - - - b y y a b B b b a ",
"m # * 7 * * $ $ $ $ $ * q - 6 * $ $ w 6 # $ $ # $ - 6 6 i i y & m # 6 7 3 * $ % - $ $ 3 q - 6 * # ; w * $ $ $ $ $ $ & 6 m i y & ",
"m y b 2 V U V B V V V V V V V t M C b V t V V c V D b V 7 b m , B y b 2 b V R R R V V b V V K t V L T V t V T V V V B V b b b , ",
"B b B y K Y -.P Y ^ R R U K V p b T b R s R F F T T B T B M V 9 B b B 6 b U / P ! 8 / V ^ U U p B T V T ` V ! D D V R Y m b D , ",
"B b B B U W H -.V P W P U U R a u R b V L / ^ ` R R V Y M d R 9 B b V b B D Q =.W O.! A ! V K a u ! R D ' / ! R R R ! D A b T 9 ",
"B - m m V W H H ! J W -.Y A R b a A b R <.Q ,._ ' Q ~ V b d B j B - U m U J =.-.=.H H ! R A R b a A V U ,.Q ,./ / ^ ~ D B b B j ",
"B b B 3 Y J H W W H -./ R V V a b C b U | K [ _ ` ] ^ Y b N b , V b b 3 V 0.-.~ J H J / ~ A R a V } R U } K -.[ -.[ ! ! n B b 8 ",
"B b B 7 V -.H ,.,.-.;.H R U U p B R B V  .| [ ` J 0.P K V p R < V b B 6 U H H ,.Q :.;.H o.V V p B V V D  .| H | w.[ J R B p V 8 ",
"B b B B U J -.:.w.H u.-.! V U a u R b R o./ -.0.-.Q W U y e V , b * B N U -.-.w.-.u.u.H ! R K a p ! R U o./ -.:.:.Q P U T d R 9 ",
"m - b B U H H :.w.=.p.w.! V T b a V b D Q <.-.:.H J K Q u.v.c.v.x.d.i.P D H =.w.w.k.u.:.! U R b a K B A -.,.J w.:./ ^ V V d B j ",
"m 3 B b o.w.J :.:.H y.w.! V f u M { B U Q Q H H z d.m.V.E.(.(.E.(.(.W.V.m.d.z H ;.k.a.:./ D c u b { V Y =./ -.w.:./ Q D b f A j ",
"B b B B / :.H w.:.J s.:./ U ) y V _ m K P S -.d.s.m.m.m.V./.C.m.Z./.V.m.m.m.d.s.=.F ;.=.^ B s y Y ..K V -.,.-.w.;./ ! V B F } ` ",
"T V B T / i.=.;.:.-.y.:./ V t K u.f.m.N.m.g.f.m.n.-.w.d.s.l.n.s.z.l.s.d.w.-.n.m.f.g.n.N.m.f.r.K m c V R -.,.-.w.,./ ^ R b U V f ",
"R 7 B B ! S S S S S M l ,.*.=.w.g.b.g.l.B.B.m.m.N.b.z.w.;.;.;.=.,.;.:.w.l.l.N.n.M.B.N.l.g.b.g.:.x =.P i K K K P P P G 7 3 A V s ",
"V b b B V - - - - 6 r :.y.S 5 : - = - 5 =.*.a.s.g.f.l.d.s.N.:.-.w.N.d.d.z.f.g.s.y.=.*.5 : - - : r x y.:.r ; - - - - 6 q a B V a ",
"b 3 b V - - - - - 4 r 6 7 % 6 % O O # o = : 9 F H J ;.s.l.M.m.C.m.n.z.d.;.H =.F 8 : = o @ O @ % # 3 3 3 h : - - - $ b b b b b a ",
"U = b V b b 3 3 3 - = N G 2 V y - y K * # # = 9 , 5 $ - r x f.N.d.H 5 - $ 5 , h = # - * F - B y - b L 6 = - $ b b y a b b b b a ",
"m $ 3 6 * * $ 2 $ # - 3 q - 3 3 - $ e 6 - # r h H e.y.9 r = e.N.:.= r 9 y.e.=.h r # # 6 q - 6 6 - - w & # $ $ $ $ $ & 7 i m i & ",
"B y b 2 V D V V V V V V V V V t B C b V t + -.y.w.x l z 8 9 w.l.e.1 8 k l x e.e.-.$ R b V V R t B L T D t V T V V V B V b b b , ",
"V b M y V R -.K A ! R R U D T p b R b Y s 7 - # $ z < > $ : -.s.=.: - 4 < z $ $ $ = ^ V ~ V A p B T U D ` K ! V V D R U m b D , ",
"B b B B V W H -.V W W W U A A a u R B K G j.R o - - , : r #   .   # 9 : , - $ o P +.! T R D T a p ! R V ' ~ ! ! R R ! D A b D 9 ",
"B - b b R P H H ^ =.P H R T R b a V b V <.,.,.e o O : - : : O O O - 4 - : # O w -.H H ! R T R b a A V T ,.Q Q / / / ~ D V b B j ",
"B y B 3 U J =.W W J J ~ R V V a m C b U } R q.` e O $ + O $ + # O $ + @ $ + r Q J H J / ~ U R a V L R V | R =.[ -.[ ! R b B b 8 ",
"V b B 3 U H J ,.,.J :.-.R Y Y p b R B U  .[ [ _ [ O O + $ 2 S.%.1.2 # @ O . -.,.Q w.;.-.X.V V p B D V V  .| H | w.[ W R B u V 8 ",
"B b B B U H =.w.:.H u.=.R A A t u ! B V o./ -.0.-.K # o O O U.F.A.O o   @ H H w.-.t.t.J ^ R U a p ! R V o./ -.:.w.Q P V U d R 9 ",
"B = B B U -.J w.;.-.p.w.! A R b t A b T Q <.H w.-.J R * X # ~.R.P.+ X * V -.H :.w.k.i.w.! R K b a A B R -.,.H w.:.,./ V V d B j ",
"B 3 B b o.:.H w.:.H y.:.! Y s u M ' b V Q Q H :.;.H W R y h ~.Y.I.h B B o.w.;.;.w.k.a.w.^ A f u B { V U =./ =.w.:./ Q V b f A j ",
"B b b V / :.-.;.:.J s.:./ U f b V ..V D Q ,.,.:.;.J ! V V Z G.I.F.n R B / ;.k.y.w.k.s.;./ U ( b U ..A U -.,.J ;.:./ ! V B F X.` ",
"T V b T / i.-.w.:.-.y.;./ Y f b K ) Y R P <./ w.w.Q ^ V A U S.R.8.b D R / i.i.a.;.y.y.;./ K f b V ) K Y -.,.J w.,./ ^ R b U V ( ",
"R 7 B B ! K S S S S S S R V A V V Z V m P R P P J K F 3 R A 8.R.8.6 B B ! S K S S S S S ! B V V V G D k K K K J P P G 7 3 Y V s ",
"V b B B V - - - $ 3 - $ R b V V 3 R a - - - - 2 - - 6 q f B L.I.G.b b B V - - - $ 3 $ - R B V V 3 U a - - - - - - - 6 q a B V a ",
"b 3 b V - - - - - - - b R b Y b - V a 7 - - - - - - b b b b I.I.8.- V D - - = - - - - b U b R b - V a b - - - - - $ b b b b b a ",
"U - b V b b 3 3 3 - - N C - B 7 - b R 6 - - - - - b a b n b ~.T.I.- V V b b 3 3 3 - - b C - B 6 - b R 6 - - $ b b y a b b b b a ",
"m $ * 7 % * $ $ $ $ $ 3 q - 3 3 $ $ e 3 # $ $ $ $ - 6 6 y i !.R.I.# 3 6 * * $ 2 $ $ # 3 w - 6 6 $ - e & $ $ $ $ $ $ & 7 i m i & ",
"m b b - V D V V V V V B V V D t M C b V t V A v V V b V y b G.I.D.y b 2 b V R R R V V b V V K t B L T V t V D V V V V V b b b , ",
"B b B 7 V R H K D ~ R ! R V U p b T B U s R F F D U B D B M A.Q.S.b B 6 b U / P ^ 8 ^ V ^ Y V p V T V D ` U ! V D V U R m b V , ",
"B b b B U W H -.V P W P A U R a p ! B V G / ! ` R ! T V B d 7.T.7.b V b B D Q H P +.! K ! V R a u R R U ' / ! R R R ! V V b D 9 ",
"B - B b V Q H H ^ -.W J Y A R y a A b U ,.,.<.v ' P ! R b d 7.J.7.- T b U J -.-.J H H ! R A R b a K V V ,.Q ,./ / / ! D V b B j ",
"V b B 3 T =.J W W H -./ R U V d b C B U } W [ _ _ [ ! Y b N 7.G.7.b b 3 U | -.W J H H / E R R t A X.Y V | R -.[ -.[ ! R b b B , ",
"B b b 7 V H H ,.,.=.;.J R V V p b R B V  .| [ ` [ 0.P Y B u 7.F.7.b b 6 D H -.,.Q :.:.H o.V V p B U U K  .| H | w.[ W R n u V 8 ",
"B b b B R H H :.w.=.u.-.! U R a p R B K o./ H | -.W P U B d 7.A.7.b V B Y H -.w.-.t.u.H ! R A t p ! R V o./ H :.w.Q P K R d R 9 ",
"m - B B V H H :.;.J i.;.! V K b a V b V Q ,.H :.H H ^ D b d 7.F.7.- Y b U =.H w.w.k.k.:.! R K b a V B R -.,.H w.:.,.~ T B d B j ",
"b 6 b b o.:.H :.w.=.y.w.^ Y f u B { B V Q / J :.-.H Q V b f 7.F.7.3 V b o.w.;.;.:.k.a.:.~ D f u B ` V U -.Q -.w.:./ Q V b f A j ",
"B b n B / :.J :.:.J y.:./ V ( y U { V V Q ,.,.w.w.H ! U B F 7.A.7.B R B / ;.k.y.w.k.s.:./ V f b D ..Y V J ,.J w.:./ ! U B F } ` ",
"R V b R / u.J :.w.-.s.:./ R ( N R ) D R -.,.<.w.w.,.^ V K U 7.A.7.b V Y / i.i.s.;.e.s.-./ Y f B R ) U R -.,.-.w.,./ ^ R b Y V ( ",
"! 3 B V ! K S S S S S S R i K i B G V i K ! P P H K G 3 R T 7.A.7.6 B i ~ S S K S S D S ! i D i m G K k K K K P P P G 7 y k i j ",
"B - 6 k b - - - - - - - R - V : - U a - - - - - $ - 2 h v V 7.A.7.6 b : * - $ - - $ $ - R = D : , D a - - - - - - - % q r 1 , , ",
": : , O.: - - - - - - : 8 9 O.: 0 0 0 : - - - - #.- 9 3.%.- 7.A.7.7.7.6.5.$ - - - - : : ~ : 0 : 0 , j , : - - : - - > - O.0 0 0 ",
"$.#.%.$.0 , - : : : - , #.O.>.#.&.#.#.0 , : - : , S.9.7.8.2.7.9.S.K.G.7.L.>.- , : : 8 O.#.#.%.#.#.$.#.O.< : , < : < O.#.&.#.$.%.",
"4.7.4.&.#.0 0 0 0 0 0 #.1.4.4.6.4.4.&.#.0 0 0 0 &.4.3.S.F.F.J.F.L.K.P.S.S.H.0 0 0 0 0 #.&.4.6.4.4.7.2.O.0 0 0 O.0 0 #.%.4.1.4.4."
};
