/* XPM */
static char *result[] = {
/* columns rows colors chars-per-pixel */
"64 64 174 2 ",
"   c #030403",
".  c #070E04",
"X  c #090F05",
"o  c #071404",
"O  c #0A1506",
"+  c #0C1906",
"@  c #0C1609",
"#  c #0E1B09",
"$  c #121E0C",
"%  c #151D12",
"&  c #191E16",
"*  c #1A1E19",
"=  c #0E2309",
"-  c #13230C",
";  c #1C250D",
":  c #152A0C",
">  c #182D0F",
",  c #16320E",
"<  c #18330F",
"1  c #18390F",
"2  c #172211",
"3  c #1B2316",
"4  c #172B10",
"5  c #1C2C12",
"6  c #1D241A",
"7  c #1F281C",
"8  c #173410",
"9  c #1B3311",
"0  c #1B3B13",
"q  c #22270E",
"w  c #232E0F",
"e  c #242612",
"r  c #292410",
"t  c #222C15",
"y  c #2E2912",
"u  c #20241F",
"i  c #2B271D",
"p  c #222B1D",
"a  c #2D291C",
"s  c #302414",
"d  c #332B14",
"f  c #3B2D15",
"g  c #352B1B",
"h  c #3E2F18",
"j  c #223115",
"k  c #2D3514",
"l  c #203F13",
"z  c #23311D",
"x  c #2A341C",
"c  c #263A1A",
"v  c #2D3B1E",
"b  c #3E3014",
"n  c #3E321C",
"m  c #252524",
"M  c #262925",
"N  c #292825",
"B  c #262628",
"V  c #282728",
"C  c #272828",
"Z  c #2D2D2D",
"A  c #352E23",
"S  c #382F23",
"D  c #312F2D",
"F  c #2E3325",
"G  c #2F312D",
"H  c #363124",
"J  c #3B3326",
"K  c #373F26",
"L  c #393F26",
"P  c #31332C",
"I  c #3D352D",
"U  c #363C2C",
"Y  c #393E2A",
"T  c #2E2F30",
"R  c #302F31",
"E  c #2F3031",
"W  c #333333",
"Q  c #383430",
"!  c #373B31",
"~  c #3A3D33",
"^  c #373639",
"/  c #383739",
"(  c #37383A",
")  c #3B3B3A",
"_  c #402F16",
"`  c #453215",
"'  c #44331B",
"]  c #49341B",
"[  c #4B391E",
"{  c #473720",
"}  c #453C24",
"|  c #4C3920",
" . c #40372F",
".. c #433B2A",
"X. c #4A3C2C",
"o. c #503B25",
"O. c #403730",
"+. c #443C35",
"@. c #1E4216",
"#. c #214317",
"$. c #224618",
"%. c #234B19",
"&. c #27521B",
"*. c #29551D",
"=. c #2B5C1F",
"-. c #2F4121",
";. c #364125",
":. c #384027",
">. c #3E462A",
",. c #3F482B",
"<. c #2D5E23",
"1. c #3D4133",
"2. c #3A4139",
"3. c #2F6323",
"4. c #306424",
"5. c #336A27",
"6. c #346E29",
"7. c #37732B",
"8. c #38762D",
"9. c #3B7B2E",
"0. c #3B7C30",
"q. c #464027",
"w. c #484025",
"e. c #40472B",
"r. c #41492C",
"t. c #4C452C",
"y. c #414537",
"u. c #454D32",
"i. c #424539",
"p. c #45493A",
"a. c #484B3F",
"s. c #475031",
"d. c #495134",
"f. c #4D5439",
"g. c #51563B",
"h. c #555C3E",
"j. c #615B3F",
"k. c #3F3D40",
"l. c #434342",
"z. c #565D42",
"x. c #595D42",
"c. c #525448",
"v. c #57594D",
"b. c #605840",
"n. c #566042",
"m. c #5C6346",
"M. c #5D6448",
"N. c #60654A",
"B. c #64694E",
"V. c #676B50",
"C. c #6E7356",
"Z. c #727559",
"A. c #767A60",
"S. c #3E822F",
"D. c #3D8031",
"F. c #408935",
"G. c #448F38",
"H. c #439337",
"J. c #459539",
"K. c #47983B",
"L. c #499C3D",
"P. c #4BA13F",
"I. c #4EA542",
"U. c #4EAC44",
"Y. c #51AC46",
"T. c #54B349",
"R. c #55B94B",
"E. c #7F8365",
"W. c #7E8468",
"Q. c #60D158",
"!. c #808566",
"~. c #828477",
"^. c #8D8F8A",
"/. c #91918B",
/* pixels */
"C m m 3 D W E Z G E T R D T T d C A V W d Z D ' T T m R m m V 8 C m m 3 m Z ^ ^ ^ Z W m Z P W s Z O.W R d Z W P T T Z Z C m V < ",
"Z m m 6 Z W Y P Z ^ W W T D T a m W V Z f W H H T T m T Z i Z 8 C m B 6 C W ^ U ^ 9 ^ Z ^ T T d C E Z T ' Z ^ Z Z Z W Z C m Z , ",
"C m C C Z ! K ;.P ! ! U D D R d a W C Z J ) ^ ' ^ ^ W Z M g W j V m Z B B Z U L U #.^ P ^ W Z d a W ^ Z [ ) ^ W W W ^ Z D m W 9 ",
"C - V V R U K Y ^ ;.! L W Z W m d D m Z 2.1.1.' { ! ~ Z u g Z k C - D m P Y K >.K K K ^ W Z ^ u d P Z Z 1.~ 1.) ) ) ^ W C m C k ",
"Z u M 3 P K L ! ! K ;.) W Z Z d m A B W ..! } ' ' } ^ Z m B m , C m m 3 T ..;.! :.:.Y ) ) T W d D O.W Z ..W :.} >.} ^ W V B m , ",
"C m V u Z K K 1.1.K ,.Y W Z T a m W m E X...} ' } } U W C N D < C m M u T Y K 1.! 1.,.K +.Z Z a V T Z T X...;.q.e.} U W V i Z 8 ",
"V m V C R K L ,.,.K i.:.W Z W d a W m W +.) Y q.:.! U Z V g W 9 C m C C Z K L ,.:.i.i.L W W R d a ^ W D +.) Y :.,.( U R P g ^ < ",
"V - m V T K K ,.e.K a.,.^ Z W m d D m Z ! ~ K ,.K Y ( G m g C k V - W V T K K ,.,.i.a.e.^ D P m d Z Z Z :.1.Y ,.e.1.^ D Z g C k ",
"V 3 V m +.,.K ,.,.K s.,.^ P h i V [ m R ~ ) Y ,.:.K ! T m f D k V 2 D m +.e.>.,.,.l.u.e./ Z h i C [ Z W :.~ :.e.,.) ! P m h D k ",
"V m V C ) ,.Y ,.e.K s.>.) Z _ m R o.Z Z U 1.~ ,.e.Y ^ Z Z S  .] V V W C ~ ,.l.u.e.l.u.e.) Z _ m Z o.Z Z Y 1.:.e.,.) ^ Z V S O.] ",
"W C V P ) p.;.,.e.:.u.>.) W f m D ` W R >.2.+.,.e.1.( Z Z T Z f G m Z W ) p.p.d.,.u.d.,.) W h m W ` G R :.1.:.e.1.) ^ W m T Z h ",
"^ 6 V C W P F F F F P F W C D Z Z H Z z P W ! U K P J 3 W R D d W 6 V C ^ F P F F M F F ^ C Z Z Z H G z P P P U U U J 7 3 D Z f ",
"Z m m Z Z - $ - - 6 $ - W B R Z 3 W d - - - - - - - 3 q h C Z d m m m C Z - - $ - & - $ W m Z Z 6 R d - - - - - - $ 3 q d V Z d ",
"m 3 m Z - - - - - - - m W u Z m = Z d u - - - - - - m m m m m d B - Z Z - - - - - - - m W m P m - Z d u - - - - - - m m m m m d ",
"Z - m Z m m 3 3 3 - - m H - V 6 - m W e - - = - - m d m C m B d R - Z Z m m 3 3 3 - - m A - C u - m W 6 - - - m m m d m m m m d ",
"p $ & 6 * & % $ $ $ $ * q - 6 6 $ $ e & $ $ $ $ $ 2 3 6 6 p m 2 M # 3 p & * $ - $ $ - * q - u 3 $ ; e & + $ $ $ $ $ * 6 p p M & ",
"V m m 2 Z Z Z Z Z Z Z Z Z Z Z y M A m Z y Z Z b Z G m Z u m m , m m m 3 m Z W W W Z W m Z Z W y C I T Z y Z W Z Z Z C Z M m m , ",
"C m V u G W ;.P R ^ W W T G D a m E m W f W J H E E C E C a G 8 C m m 6 m T ) ! ^ 9 ^ C ^ T T d C W Z Z ' T ^ Z G Z T P C m Z , ",
"V m V V T U :.:.D U ! U T Z W d i W V Z I ) ^ ' W W T T C g W j C m C B M G ! ;.U @.( P ^ Z R d i ^ ^ Z [ ) ^ W W W ^ Z R m P 9 ",
"V - M M T U K Y ^ K ! :.W Z W m d D m D 2.~ 1.' [ ! ^ G m g C k C - P m R Y :.:.;.K Y ^ W Z W m d D Z G 1.~ 1.) ) ) ^ G Z m C k ",
"C m m 6 Z K K ! ! L L ) W R Z d m A m Z ..W w.' ] [ ( E m m m , Z m m 3 G ..:.! Y Y L ) ~ Z W d Z  .W D ..W ;.} >.} ^ W m m V , ",
"C m C 6 R L K 1.1.K >.K W Z T a B W V W X...} ] J w.:.E Z N D < Z m V 6 Z K :.1.! ,.,.Y +.Z Z i C Z Z Z X...:.q.e.} U W V i Z , ",
"C m M C Z L L ,.,.K i.K W Z T d i W m Z +.) ;.q.,.! U Z m s Z : m * B m T Y Y r.:.1.1.:.^ W W d a ^ W R +.) Y :.,.( U T G g W j ",
"V - V C E K K ,.,.K a.,.^ W R m d Z m W ! 1.;.,.;.L W ~ ~ j.v.x.c.f.a.U F K K r.r.l.a.,.^ T P m d D C P :.1.Y ,.,.1./ W C g C k ",
"V 3 V m +.e.L ,.e.K u.e.( G b i V [ m T ) ) K L j f.N.C.E.^.^.W.^.^.E.C.m.f.c L ,.l.s.e.~ T b i B | Z D :.~ :.,.,.~ ! D m h D k ",
"V m V C ~ >.L ,.,.Y u.,.) E ' u Z [ M P U v L d.f.N.m.m.C.~.A.m.A.~.C.M.M.M.f.d.:.F ,.;.^ C f u W | W Z Y 1.;.e.,.) ^ Z C H O.] ",
"W Z V P ) p.;.,.e.:.d.,.) M y P i.g.M.B.N.h.g.m.n.>.r.f.d.z.m.d.x.c.d.f.r.:.m.M.g.h.M.B.M.f.t.P p f Z W :.1.:.e.y.) ) W m T Z _ ",
"W 6 C C ^ G F F F M F x 1.;.;.e.h.n.h.z.B.V.N.m.B.n.h.r.,.>.,.;.e.>.e.r.x.x.B.m.N.V.B.x.x.x.h.,.K ;.U p P P P U P U H p 6 D Z f ",
"Z m m C Z - - - - 3 p e.s.v 5 : - = - 5 ;.-.u.f.h.g.h.f.f.B.r.:.e.B.f.f.x.g.h.f.s.-.-.5 : = - : 5 x s.,.t ; - - - - 3 q d C Z d ",
"m 3 m P - - - - - 4 t 6 u $ 6 % O O $ O = : 9 v L L ,.d.x.m.M.Z.m.N.h.f.:.;.;.H < : = o @ @ + % # 3 e 3 t : - - - - m m m m m d ",
"R = m Z m m 3 3 3 - = m J 2 Z u - u P * # + # j < 5 $ - 5 v f.B.g.v 5 - $ 5 , 9 # # - * H - B u - B P 6 = - $ m m u d m B B m d ",
"M $ & 6 * * $ % - $ $ & q - 3 * $ - e * = $ t j K r.r.j j - u.M.r.= p 9 u.r.K j t # $ 6 e - 6 3 $ ; e * $ $ $ $ $ $ & u u p p & ",
"V u m 2 Z Z Z C Z Z Z Z Z Z Z y M A m Z y # :.u.u.$.x j 9 8 ,.x.r.0 9 j x v r.r.:.$ P m Z Z W r C I E Z d C W Z Z Z C Z M m m , ",
"C m V u G W Y U D ^ W W Z W Z a m E m W f u $ + $ c 9 5 # : K f.;.: - > 9 c + $ # - ( Z ( Z T d C W Z E ' T ^ Z Z G D W V m G , ",
"C m V C Z ! K K T U ! U G R T d i W B T J i.W o $ $ , : 5 # . X . # 5 : : - - o U @.^ W ^ G E d i W W R [ ) ^ W W W ^ Z D m G 9 ",
"C - B M T U K Y ^ :.! K W Z W m d D m T 2.~ 1.e O + : - 5 : o . . : > - : + O p :.K K ^ W Z ^ u d P Z Z 1.1.! ) ) ) ( G C m C k ",
"Z u m 3 W K K U ! K :.) W T Z d V A m W ..W } [ r O - O O + # 0 8 + O + - + t ~ U :.:.) ~ R W d D O.W Z ..W ;.} :.} ^ ^ V B m 8 ",
"Z m V u Z Y K 1.1.L >.Y W P R a m E B Z X...} ] } . O + + O 7.I.K.5.+ @ O X :.1.U 1.e.:.+.Z Z a C R Z T X...Y } r.} U W V i Z 8 ",
"V m V V Z :.K ,.,.L i.;.W Z Z d a W V Z +.) :.q.:.P + o O 9 J.T.Q.9.o . @ K Y ,.:.i.i.K ^ R R d a ^ W D +.) Y ,.e.! U Z G g W j ",
"M - V m T K L ,.,.K a.,.^ D W m d Z m W ! 1.:.r.:.Y W *   :.J.L.J.5.  * Z ;.K ,.,.i.a.e.^ R P m d D C R :.1.;.,.r.1.( Z Z g C k ",
"m 3 V m +.e.L ,.,.K s.e.^ G _ i V [ m D ~ ) :.r.>.Y ! W m K S.H.9.4.Z V +.e.>.,.e.l.d.,./ Z h i V | Z R L ~ L e.,.) ! W m f D k ",
"V V V C ) e.K ,.,.Y u.e.) R f m Z o.Z Z ! 1.~ ,.,.:.^ Z C K 7.H.9.6.P C ) >.i.p.,.l.u.,.) Z _ m Z o.Z T L 1.L e.,.) ^ Z V S O.] ",
"P C C R ) p.:.e.,.:.d.:.) W f m P ' R W U +.2.r.r.! ^ Z D L 7.H.7.3.R R ) p.p.d.:.u.d.>.) W h m W ` G R :.1.L r.1.) ^ W m T Z f ",
"W 6 V Z ^ P F F F F F F ^ C D Z C J D p U W U U U F J 3 W K 7.H.7.4.V C ^ P F F F x H N ^ C Z Z Z H G z P P P U U U J 7 3 R D f ",
"Z m V C Z - - - - * - $ W m Z Z 6 T d - - - - - - - 3 q b ;.6.H.7.4.m V Z - - - - 3 $ - R V Z Z 3 W d - - - - - - $ 3 q d C Z d ",
"m 6 m Z - - = - - - - m W m W m - P d u - - - - - - m m m ;.7.J.6.3.Z D - - - - - 2 = m R m P m - Z d u - - - - - - m V m m m d ",
"R - m Z m m 3 3 3 - - B A - C 6 - m W 6 - - - - - m d m B @ 7.P.F.6.V Z m m 3 3 3 - - B H - C u - m W 6 = - - m m u d m m m m d ",
"p $ & 6 & * $ $ $ $ $ 3 q - 3 3 $ $ e * $ - # $ $ 2 3 6 p : J.L.U.6.6 u & & $ $ - # = 6 e - 6 6 # ; e * $ $ $ $ $ $ * 6 p M p & ",
"M m m 2 Z Z Z C Z Z Z Z Z Z G y m A m Z y Z D h Z Z M Z m :.J.J.J.3.m 3 m Z W ^ W Z P m Z Z P y C I E Z y Z P Z Z Z C Z M m m , ",
"C m V 6 T W ;.U R ^ W W Z E Z a m W m R f W J H E T V T C L S.H.S.4.m 6 m Z ) U ^ 9 ^ C ^ T T a C W T G ' T ^ Z Z Z T P C m Z , ",
"V m B V T ! K K Z U ~ U Z D W d a ^ C Z J ) ^ ' W ^ Z W B K 7.H.9.6.C B M G ! ;.! @.( P ^ D D d i W W Z [ ) ( W ^ W ^ Z D u W < ",
"C - V M D U K Y ^ :.! Y W Z W m d D m T 1.1.1.n [ ! ^ Z m ;.7.H.7.<.P m R Y :.:.;.K Y ( W Z W m d P Z R 1.~ 1.) ) ) ^ G V m Z k ",
"C m M 3 P K L ! ! ;.;.) W Z Z g m A m Z ..! } ' ' } ^ Z m Y 7.H.7.3.m 3 Z } :.( Y Y :.) ~ T R a D  .W Z ..W :.} >.} ^ W V B V , ",
"C m V 6 T K ;.1.1.K >.Y W Z G a m W C W X...} ] ' q.! G C ;.5.H.7.3.V 6 T K :.1.! e.,.K +.Z Z g V T Z R X...:.q.,.} ! W V i Z , ",
"C m V V Z ;.L e.e.L i.L W T W d a W m W +.) Y q.>.2.U E C K 8.H.7.3.Z m T K L ,.:.y.y.K ^ W Z d a ^ W T +.) Y :.,.! U Z W g W j ",
"V - V V T Y K ,.,.K a.,.^ Z P m d Z m Z ! ~ ;.,.:.;.W E m d 7.H.7.3.W V T K K e.r.l.p.,.^ P W m d D C D :.1.K ,.e.~ ) R C d C k ",
"V 3 V m +.,.Y ,.,.K u.e./ P h i V [ m T ~ ) Y e.:.K ! Z m V 7.H.7.3.D m +.e.:.e.,.l.u.,.^ T h i C [ Z T ;.) K ,.e.) ! W m f D k ",
"V m V C ) ,.K ,.,.L u.,.) Z f m T o.C W ! 1.~ e.r.Y ^ T Z C 7.H.7.3.R C ) e.l.u.e.l.d.,.) D b m Z o.T D :.1.L r.,.) ^ Z m H O.] ",
"W Z m D ) p.L ,.e.:.d.>.) R _ m W ` G W >.1.) r.e.1.^ T Z Z 7.H.7.4.Z W ) u.a.d.>.r.u.,.) E b m W ` T R :.1.:.r.1.) ) W M E Z _ ",
"W 3 V Z W P F F F F F F ^ p P p C J Z p P W U U Y P J 3 P M 7.J.7.=.C p W P P F F F F F W M R p M J P z P P P U U U J 7 6 z M y ",
"C - 3 z m # - - - - - - W = Z : - T y - - - - 2 $ - ; w n - 7.L.7.%.m : u $ - $ - $ $ - E : G : , G d - - - - - - - ; q j 1 , , ",
"5 : , @.: - - - - - - : 9 9 @.: 0 0 0 : - - = + $.: - 4.#.0 7.I.9.L.*.0.0 #.$ - - - : : ^ : 1 : 0 , k , : - - : - - : - @.0 0 0 ",
"&.%.*.&.0 , - : : , - , $.%.<.%.=.%.%.0 , - 4 7.8.Y.6.L.F.0.0.Y.J.I.8.0.6.9.<.: : : , @.%.%.&.%.%.&.&.@., : , 9 : : @.%.=.%.&.&.",
"5.7.5.=.%.0 0 0 0 0 0 %.3.5.5.5.5.5.<.%.0 3.K.T.S.T.R.R.Y.I.T.T.I.G.I.Y.I.Y.U.3.0 0 0 %.<.5.7.5.5.6.3.@.0 0 0 @.0 0 %.*.5.3.5.5."
};
