/* XPM */
static char *result[] = {
/* columns rows colors chars-per-pixel */
"64 64 175 2 ",
"   c #030302",
".  c #070E04",
"X  c #090F05",
"o  c #071404",
"O  c #0A1406",
"+  c #0B1907",
"@  c #0C1609",
"#  c #0E1B09",
"$  c #121E0C",
"%  c #151D12",
"&  c #191E16",
"*  c #1A1D19",
"=  c #0E2309",
"-  c #13230B",
";  c #1C250D",
":  c #152A0C",
">  c #182C0F",
",  c #16320E",
"<  c #18330F",
"1  c #18390F",
"2  c #172211",
"3  c #1B2316",
"4  c #172B10",
"5  c #1C2C12",
"6  c #1D241A",
"7  c #1F281C",
"8  c #173410",
"9  c #1B3411",
"0  c #1B3B13",
"q  c #22270E",
"w  c #242612",
"e  c #292410",
"r  c #222C15",
"t  c #2E2912",
"y  c #20241F",
"u  c #2B271D",
"i  c #222B1D",
"p  c #2D291C",
"a  c #302414",
"s  c #332B14",
"d  c #3B2D15",
"f  c #352B1B",
"g  c #3E2F18",
"h  c #223115",
"j  c #2D3514",
"k  c #23311D",
"l  c #2A341C",
"z  c #263A1A",
"x  c #2D3B1E",
"c  c #3E3014",
"v  c #3D301C",
"b  c #252524",
"n  c #262925",
"m  c #292825",
"M  c #262628",
"N  c #282728",
"B  c #272828",
"V  c #2D2D2D",
"C  c #352E23",
"Z  c #382F23",
"A  c #312F2D",
"S  c #2E3325",
"D  c #2F312D",
"F  c #363124",
"G  c #3B3326",
"H  c #373F26",
"J  c #393F27",
"K  c #31332C",
"L  c #3D352D",
"P  c #363C2C",
"I  c #393E2A",
"U  c #2E2F30",
"Y  c #302F31",
"T  c #2F3031",
"R  c #333333",
"E  c #383430",
"W  c #373B31",
"Q  c #3A3D33",
"!  c #373639",
"~  c #383739",
"^  c #37383A",
"/  c #3B3B3A",
"(  c #402F16",
")  c #453215",
"_  c #44331B",
"`  c #49341B",
"'  c #4B391E",
"]  c #473720",
"[  c #453C24",
"{  c #4C3920",
"}  c #40372F",
"|  c #433B2A",
" . c #4A3C2C",
".. c #503B25",
"X. c #403730",
"o. c #443C35",
"O. c #1E4216",
"+. c #204416",
"@. c #224618",
"#. c #234B19",
"$. c #27521C",
"%. c #28561D",
"&. c #2B5B1F",
"*. c #2F4121",
"=. c #364125",
"-. c #384027",
";. c #3E462A",
":. c #3F482B",
">. c #2A5320",
",. c #2C5D21",
"<. c #3D4133",
"1. c #3A4139",
"2. c #2F6323",
"3. c #316424",
"4. c #336A27",
"5. c #346D28",
"6. c #37732B",
"7. c #39752D",
"8. c #377C2E",
"9. c #3B7C2E",
"0. c #464027",
"q. c #484025",
"w. c #40472B",
"e. c #41492C",
"r. c #4C452C",
"t. c #414537",
"y. c #454D32",
"u. c #424539",
"i. c #45493A",
"p. c #484B3F",
"a. c #475031",
"s. c #495134",
"d. c #4D5439",
"f. c #51563B",
"g. c #555C3E",
"h. c #615B3F",
"j. c #4D763D",
"k. c #3F3D40",
"l. c #434342",
"z. c #565D42",
"x. c #595D42",
"c. c #525448",
"v. c #57594D",
"b. c #605840",
"n. c #566042",
"m. c #5C6346",
"M. c #5D6448",
"N. c #60654A",
"B. c #64694E",
"V. c #676B50",
"C. c #6E7356",
"Z. c #727559",
"A. c #767A60",
"S. c #3F832F",
"D. c #3E8532",
"F. c #3F8832",
"G. c #408734",
"H. c #428B35",
"J. c #439337",
"K. c #459439",
"L. c #46993A",
"P. c #4A9C3D",
"I. c #4BA13F",
"U. c #4EA542",
"Y. c #4FA943",
"T. c #50AA44",
"R. c #53B047",
"E. c #58BF4F",
"W. c #7E8468",
"Q. c #7F8365",
"!. c #60D058",
"~. c #808566",
"^. c #828477",
"/. c #8D8F8A",
"(. c #91918B",
/* pixels */
"B b b 3 V R R V R V V Y A V R s B Z b U s V A ] U U b Y b M B 8 B b b 2 N V / ! ! V R b R V R s V } R V s D R V R V U U N b N 9 ",
"V b b 6 U U H K D ! R R U Y V p b R N D d R F F U V N V B u A 8 B b N y N A ! P ! 9 / B / V V p B T V Y _ V ! V V V U K b b V , ",
"B b B B A W H =.D W W P A A T s u ! b T G / ~ _ ! R Y V n f ! 9 B b V b B V W H P O.! K ! V R s u R ! V ' / ! R ! R ! V A b T 9 ",
"B - N N U P J I ! H W J R V R b s A b A 1.<.<._ ' W ! R b f B j B - Y b A I -.-.H H H ! R V R b s K V V Q <.Q / / / ! D V b B j ",
"V y n 3 K H J W W =.-./ R U V s b F b U | W [ _ ` [ ! T b M M , B b b 6 U 0.I W I I J / Q U R s A } R V | R =.[ -.[ ! R b N N , ",
"B b N y V H H <.<.H ;.I R V T u b R N U  .| [ ` v 0.P T B u V 8 V b b 6 Y H H <.W :.;.J o.V V p B Y V V  .| -.[ e.[ W R b m V , ",
"N b N B Y H J :.w.H u.-.R U R s p R b R o./ H 0.;.<.P V B f R 9 N b B B V H H :.-.u.t.I ! Y U s u ! R A o./ -.:.w.Q P V U d R 9 ",
"N - b N U H H :.;.J p.;.! V K b s V b V W Q -.:.=.-.! T b f B j b - R n T H H :.w.l.i.:.~ Y K b s A V V -.<.I ;.:.<./ V V f B j ",
"N 3 N b o.;.I :.w.=.a.w.~ U g u N ` M R Q Q J ;.-.H W V b d A j n 3 V b o.:.;.;.:.l.a.e.! A g u B { V Y -./ -.w.:./ W R b d A j ",
"N b N B / ;.H :.;.J y.:./ U ( b U ..V V W <./ w.w.I ~ U V Z X.` N M R B / :.l.y.;.l.y.:./ V ( b V ..V V =.<.-.w.:./ ! V N Z X.` ",
"R B N K / i.J :.w.-.a.:./ R d b V ) Y Y I <.1.w.e.W ~ U A U V d A b V R / i.i.a.-.y.s.;./ R _ b R ) V R -.<.-.w.<./ ! R b U V d ",
"! 6 b V R K S S S S S S R B A V V G A k K ! P P P P F 3 R Y A s R 6 N B ! S F K S S S S ! B V B V F K k K K K P P P G 7 3 Y A d ",
"V b b B V - - - - * - - R b V V 3 R s - - - - - - - 3 q g V N s b b b B V - - $ - 3 $ - R M V V 6 Y s - - - - - $ - 3 q s B V s ",
"b 3 b K - - - - - - - b R b U b = V s y - - - - - - b b y b b s M - V D 4 - = - - 2 - b U b R b - V s y = - - - ; - b b b b b s ",
"U - b V b b 3 3 3 - - b F - B y ; b K 6 - - - - - y a b N N b s R - V V b b 2 3 3 - - b F - V 6 = b R y - - - b b 6 s b b b b s ",
"i $ * 6 * * $ $ $ $ $ * q - 6 3 $ $ w & $ - $ # $ ; 3 y y i i % i # 6 6 * * $ % $ $ # 3 q - 6 & $ ; w & $ $ # $ % $ * 6 i n i & ",
"N b b 2 V V V B V V V V V V V t b C b V t V V c B D b V y b b , n b b 2 b B R ! R V K b V V K t B L D V s B R V V V V V y b b , ",
"B b B y K R I P Y ~ K R Y T U f b T M R d R F G R D B Y B u K , B b b y B K ! W ! 9 ~ B ~ Y A u B R V U _ U ! V V D Y R N b D , ",
"N b b B V W H -.V W Q P V Y R s u R n V | / ! _ ^ R V R B f ! h B b B b N D W =.W O.^ K ! V U s u ! R Y ' / ! R R R ! V A b D 9 ",
"N - B n V P H I ! H W J R V R y s A b Y / W <._ ] W ! V b f B j B - Y n A I =.-.=.H I ! R U R b s A V A <.<.W / / / ^ D B b B j ",
"B b N 3 Y =.H W W -.-.Q R U V s b C b U | R 0._ ` ' ! U b b b , V b b 3 T 0.I W I I J / Q U R s V } R V } R =.[ ;.[ ! R N b N , ",
"B b n y A I H <.<.-.:.H R A U p M R N K  .| [ ` J 0.P D V m U 8 V b b y V I H <.W :.;.H o.V V p N D V U  .[ I [ :.[ P R N u V , ",
"B b b B D J H :.e.-.u.=.! V V s u R M U o./ =.0.;.W W V b e U : y * N b V -.I :.-.u.t.H ! R V s u R R K o./ I :.;.^ P U A f ! < ",
"N - M B U H H w.w.-.l.:.! V Y b s V b D W <.=.:.H J K <.o.b.v.x.c.d.p.P S H H e.e.l.i.;.! D R b s A V V -.<.-.:.w.Q / A V f B j ",
"N 3 N b o.w.-.w.:.H a.w.^ D v u N { b U Q / H H h d.N.C.W././.W./.(.~.C.m.d.z J ;.l.a.w./ V ) u n ` V V =./ -.w.w.Q W R b g A j ",
"N b N B / :.H ;.w.H a.;./ T ) y V ` B K P S -.d.d.N.m.m.Z.W.A.M.A.^.C.N.M.M.d.s.=.F ;.=./ B d y R ..R V -.<.-.w.:./ ! U b F X.` ",
"R V N K / i.=.;.w.-.a.:.^ B t K u.f.M.B.m.g.f.m.m.-.e.s.s.z.m.a.x.z.s.d.y.-.x.M.f.g.m.B.m.d.r.K i d V R -.<.-.w.<./ / R b U V d ",
"R 6 B B ! D S S S m S l <.=.=.e.g.n.g.z.V.V.N.m.B.m.g.e.;.;.;.H t.;.-.e.z.x.B.m.N.V.B.z.z.z.g.:.H =.I i K K K K P P G 6 6 A A d ",
"V b b B V - - - - 3 r :.y.S 5 : - = - r @.=.a.d.g.f.g.d.d.B.e.;.e.B.d.d.g.f.g.d.a.=.@.5 - = - : 5 l a.:.r ; 4 - - - 3 q s B V s ",
"b 3 b V - - - - - 4 r 6 6 % 3 & + + $ o # : 9 x J =.;.s.x.m.M.Z.m.m.x.s.-.-.=.F < : - + $ O + % # 3 w 3 r : - - - $ b b b b b s ",
"Y - b V b b 3 3 3 - = b G 4 V 6 - y K * - # = h , 5 $ - 5 x f.V.d.H 9 - $ > , h # # $ & F = N y - N R 6 = - $ y b b s b M M b s ",
"n # 3 6 * & % - - $ $ 3 w - 3 * $ $ w * $ # r r H e.e.h h - e.M.:.= r h y.e.H h r # $ 6 q ; y 3 $ $ r & $ $ $ $ $ $ 3 6 y i i & ",
"b b b 2 V D V V V V V V V V V t M C b B t + -.y.e.x l h 9 , e.z.e.8 9 h l H :.e.;.# T b V V K t V L T V t V R V V V V V b b b : ",
"B b N y V R =.K Y ~ R R V R V p b R B R d n # # $ z 9 , # : =.d.=.: # 4 9 z # # - = ^ V ^ V K p M U V U _ U ! V D V Y K n b D , ",
"N b N B D W I =.V P W P A T U s u R N A J / R o - - , : r # X X X # 9 : : - - o G O.! R R T T s u R R U ' / ! R R R ! V V b T 9 ",
"N - M n V P H I ! -.W H R V R b s A b A 1.Q <.w o @ : - 4 : O X o - 5 - : # O r =.H H ! R T R b s K V V <.Q <./ / / ! D V b B j ",
"V b b 3 V J -.P W H -./ R U V s b C b T | R 0.` e + $ + + O # 9 8 # # O = O i / -.-.I / ~ Y R t A X.R V | R =.[ -.[ ! ! b b N , ",
"B b N 6 D I I <.<.J ;.H R K Y p b R B V  .| [ ` [ O O + # 9 ,.P.K.4.$.@ O O -.;.W w.;.-.o.V U p V U V A  .| =.[ e.[ P R N u D , ",
"n b N N V -.=.w.:.I u.-.R V A s u ! B A o./ =.0.-.G @ o o $.H.!.U.9.O o @ H I :.-.u.t.J ! R U s u R R V o./ I ;.w.W P V R f R 9 ",
"n - N n T H J :.;.H p.:.! V R b s A b U W 1.-.:.-.I R *   H J.U.D.4.  & V -.H ;.w.l.i.;.! A K b s V V A -.<.I ;.w.<.~ R B f B j ",
"N 3 B b o.:.I ;.:.I a.:.^ V g u n ` b A Q / -.e.-.I W R b H G.J.6.3.V b o.w.-.w.:.l.s.:.! V g u N { V A -./ H :.w./ W R b d A j ",
"N b B B o.;.H :.;.I y.;./ K d b V ..V V W <.<.;.:.P ~ V V H 6.J.6.4.R B Q ;.l.s.w.l.y.:./ V ) b V ..U V =.<.H w.;./ ! V B Z X.` ",
"R V b R / i.-.w.:.-.a.;./ Y g b R ) K R W <./ w.w.;.~ V V J 6.K.6.2.V R / i.i.s.;.y.s.-./ R g b R ) V R -.<.-.w.<./ / T b U V ( ",
"R 6 M B ! K S S S l F K R V A V B L V i K R P I P K F 3 K I 6.P.6.3.N B ! K S S S l K D ! B A V V F R h K K K P P P G 7 6 A V d ",
"V b M B V - - - - 3 $ $ Y b V V 6 U s - - - - - - - 3 q g =.6.T.6.2.b N V - - - $ 3 - $ R b V V 3 Y s - - - - $ - $ 3 q s B V s ",
"b 3 b U - - - - = - - b R b K b - K s y - - - - - - b b b H 6.Y.5.2.V V - - - - - - - b R b T b - V s y - = - ; - - b b b b b s ",
"U - b V b b 3 3 3 - - N C - V 6 - b K y - - - - - b f b b O &.P.9.4.V V b b 3 3 3 - - b Z - B 6 ; b R 6 - - - b b y s b M M b s ",
"n # * 3 & * $ - $ $ $ * r - 3 * - # w & $ $ - - $ - 3 6 i 4 H.E.I.4.6 y & & - $ $ $ $ & q - 6 6 $ $ r * $ $ $ $ $ $ * 6 i i i & ",
"n b b - B T V V V V V V V V V t M C b B s V A g V V n V b -.J.T.F.2.b 2 b V R ! R V V b V V K t B L V V t V R V V V B V b b n , ",
"B b N 6 A R =.P U ! R R A U K u b R b R d R F F T U M U B H S.J.6.3.b 6 b A ~ W ^ 9 ! V ~ U U p B R U K _ U ! V V V R Y N b V , ",
"B b N B U W H -.V P W P A V R s p R N U G / ! _ R ! D U b H 6.J.6.4.V b n D W =.P O.! K ! V A s u R R V ' / ! R R R ^ U V b D < ",
"B - B N V I H I ! J W I R V R b s A b D 1.<.<._ ' W ! A b I 6.K.6.2.U n A I -.-.=.H I ! R D R b s A V Y <.Q <./ / / W V V b V j ",
"V b M 3 K I H W W H =./ R V V f b C M T | W [ _ _ [ ! U b H 6.P.6.2.M 3 T 0.I W I I J / ~ A R s A } R V | R =.[ ;.[ ! R b b b , ",
"N b N 6 V H -.<.<.-.;.-.R V D p b R B V | | [ ` [ 0.P R B H 6.Y.6.2.M 6 V H H <.W :.;.I o.V V p B U V A  .| =.[ :.[ P R N p V , ",
"N b n N U J =.:.w.=.u.-.! V T s p R M U o./ I 0.-.W P V B J 6.R.6.2.V M U H =.:.;.u.<.-.! R T s u ! R Y o./ I ;.:.^ P V D f R h ",
"b - N n U H I ;.;.J p.w.R V R b s A b A I / H :.=.I ^ D b s 6.R.6.2.R n U J H ;.;.l.i.:.! K R b s A B K -.<.I ;.;.<./ V V f B j ",
"N 6 N b o.:.-.;.w.=.a.;.Q U g u B ' b Y Q / I ;.-.H W Y b N 6.U.6.2.A b o.w.-.e.w.l.s.:.^ D ( u N { V A -./ -.w.w./ W K b g A j ",
"b b b B / ;.I :.;.I a.;./ U ( y V ..V V W <.<.w.w.I ! U B N 6.I.6.2.Y B / ;.l.y.w.l.a.w./ A d b V ..U V =.<.=.w.;./ ! V N Z X.` ",
"R V N K / i.-.w.w.-.a.;./ R g b Y ) T R ;.<./ e.w.;.^ V Y V 6.D.6.2.U R Q i.p.a.-.e.y.;./ Y g b R ) V R -.<.-.w.<./ / R M R V ( ",
"! 3 N V R K S S S S K S ! i A i V F A i K R P P P K G 3 R b 6.6.6.,.M i ! K S K S S K S ! i D i n F D i P K K P P P G 7 6 0 n t ",
"B - 3 k b # - - - - - - R - V : - V s - - - - - $ - 2 r _ - 5.8.6.@.b : * # - - - - $ - R = D : , D s - - - 2 $ - - ; ; r 0 , , ",
": : , @.: - - - - - - : 8 9 O.: 0 0 0 : - - - - #.: > 4.0 O.L.2.&.0 ,.9.>.z - - - - : : ^ : 0 , 0 , j < : - - : - - : - 0 0 O.0 ",
"$.#.%.$.0 , - : : , - , #.@.&.#.&.#.#.0 , : - : , O.%.%.2.H.P.D.&.8.H.L.T.J.- , : : , O.#.#.%.O.#.$.$.O., : , 9 : , O.#.,.O.$.$.",
"4.6.4.&.#.0 0 0 0 0 0 #.2.4.4.4.5.4.,.#.0 0 0 9 &.3.4.H.T.H.L.Y.U.j.U.L.G.L.0 0 0 0 0 #.&.4.5.4.4.5.4.O.0 0 0 +.0 0 #.%.5.2.4.4."
};
