/* XPM */
static char *result[] = {
/* columns rows colors chars-per-pixel */
"64 64 95 2 ",
"   c #15120D",
".  c #1A160E",
"X  c #151513",
"o  c #191713",
"O  c #1C1A15",
"+  c #1D1C1A",
"@  c #271A0F",
"#  c #2A1D0F",
"$  c #241E14",
"%  c #2B1E13",
"&  c #221E19",
"*  c #1F2017",
"=  c #28220F",
"-  c #252216",
";  c #2B2416",
":  c #2E2916",
">  c #25231B",
",  c #2B251B",
"<  c #27291D",
"1  c #2C2A1C",
"2  c #312615",
"3  c #322B16",
"4  c #392D17",
"5  c #31271A",
"6  c #322C1C",
"7  c #3A2D1C",
"8  c #2F301C",
"9  c #3D3017",
"0  c #34301D",
"q  c #3D311C",
"w  c #252522",
"e  c #292722",
"r  c #272921",
"t  c #2C2B23",
"y  c #2D2C29",
"u  c #322D23",
"i  c #392E21",
"p  c #312E29",
"a  c #343123",
"s  c #3D3223",
"d  c #34322B",
"f  c #3A362C",
"g  c #363630",
"h  c #402C19",
"j  c #43331C",
"k  c #49361E",
"l  c #4C391F",
"z  c #503B1F",
"x  c #433523",
"c  c #493721",
"v  c #473924",
"b  c #4D3A23",
"n  c #423729",
"m  c #453A2B",
"M  c #4C3C2A",
"N  c #523E24",
"B  c #583F23",
"V  c #523E29",
"C  c #473C32",
"Z  c #4B3F32",
"A  c #4E402D",
"S  c #554126",
"D  c #5A4326",
"F  c #55422B",
"G  c #5B452B",
"H  c #5E482D",
"J  c #4E4032",
"K  c #534332",
"L  c #5B4631",
"P  c #564934",
"I  c #5D4933",
"U  c #5D4A38",
"Y  c #614527",
"T  c #654827",
"R  c #61462A",
"E  c #63492D",
"W  c #6A4B2C",
"Q  c #704D2D",
"!  c #634C33",
"~  c #694E32",
"^  c #634E39",
"/  c #684F38",
"(  c #655036",
")  c #6C5134",
"_  c #66513A",
"`  c #6A533B",
"'  c #735234",
"]  c #74553B",
"[  c #765B3E",
"{  c #6C5640",
"}  c #715740",
"|  c #735B44",
" . c #785E45",
".. c #7A614A",
"X. c #835D3E",
/* pixels */
"- 8 t 1 e w r r 1 t 1 1 t 1 t 1 , e t < 1 r 1 1 r r r 1 r e y > O t 1 r r t 1 8 a t u 0 a u 1 1 0 0 1 0 u e t a a t 1 u t t r - ",
"> d y < 1 r 6 t t t 1 u 6 u t r u u t 1 1 t 1 r t t 6 a 6 d y , > g y 1 1 7 a k V c M b l q q 4 j q q q b j 7 k A b b N j f p 1 ",
"- + o r 1 , , > > w ; , 3 e w t 6 e w e 1 , 1 - > w ; 1 4 o + ; > + o $ $ - > 6 i 5 7 4 3 ; 2 ; 2 , 3 : 5 ; % 5 6 6 u 5 ; O + 2 ",
"< 1 6 $ $ + o & > O $ + $ & - % & + & $ $ + o > > O & ; $ r 6 ; > r 1 ; i 5 + 1 t $ $ w 0 > 6 7 7 6 6 6 , ; & e 1 + 7 7 $ 0 4 : ",
": 4 6 - 7 6 > d p 5 7 i i x v v x i x c x i > d p ; x V ; 6 0 ; > 1 6 ; ~ D 7 f g u M x F c b D L S F S S j 5 f f t V ! 1 0 j 1 ",
"1 3 0 ; v i > f g > h x N N G E N B N ! G b > f f > N { > 0 t , > t 7 ; ! c > f p w i M I b V E ~ H D H F 6 > f p w i _ 6 0 j 2 ",
"< 4 q - m > e d p e 3 c N k N R F V N Y Y 7 , d y e s { ; 0 7 ; > t 7 ; ~ 7 > e & w 6 N ! F K ^ _ E R F S 5 , e w w u ^ 1 q 9 6 ",
"< 3 0 - m > @ o o + 5 N b V B V N N N G V 5 @ O o + i / > 6 : ; w t 6 ; ! k $ o o $ s B G D L ! ) W E R D 3 o o o o 7 _ : 0 9 ; ",
"1 7 t ; M i O o o $ b l N B N F N B b V F k $ o O ; M _ ; 0 6 > w e 1 , ! ! i o o s V V ! N B ! ] ! ! G D j 4 o o 7 N ^ , 0 0 1 ",
"< a 1 ; n q i o + m V z z D b N N N k N N N h @ % D G ! , 1 1 > > y 1 > ! ! V x 7 G F b G b F ` ] E G G F c M 7 5 B G _ 5 u 6 1 ",
"w t r - m j 7 q c V N k z D V F b V V F V N b v N Q T I - t 1 > > t r > ^ ! D E B E G V H N F ~ W ~ G E L V S b l B Y _ 6 y u > ",
"r a u $ m v j x V V N k D F L G b N P L N V N N F _ ~ _ , t 7 > > t e ; ^ ~ D G L ~ Y G D D G G I ^ G F L V S l l B F { 1 y t > ",
"e u t $ M j j j N B B k V N G D N c N Y B P b S D ~ } ` , 1 t > - t t ; ! ~ F I L ! E E E R G L I I F S V N D b b S G ` , p t e ",
"< u t ; M c j k V V N v G G D Y V V N Y N F F F ^ ' X...; t t > > t 1 ; _ ) ~ ! L ! L G Y Y E ! E I G F V F S b M G G _ 2 6 6 , ",
"< p a - M b j V G V G M G G L Y N F G E S G G G ! W  ...; 8 0 - , t 8 ; ! ~ ~ H G L L G D Y W ~ ! ! E F S F F V F D D ` : a a : ",
"r u 6 $ M b h b U G V N L N E Y D N E E D D G D D R |  .> 0 6 - > u t 6 ` ` ) E L Y G Y B E E E ~ ) G F F I F M G F D ` , t 6 > ",
"1 u t $ M S s c L L F V F F ! D G G G ~ G D R G S D ` | > u 6 > > 1 t 2 ` ~ ) E ^ ! ! V B R R / ! H F b F ! L M F N ! _ ; 1 t < ",
"1 a 1 $ M b n b G F M N l S H ( G L I ! H S D R F B ! | ; 0 t * > t t ; / ` ) I { U L N F ~ ! ^ G H G V F G S b N b H ` , t t - ",
"w t t $ b b x b E V N N b F G ! H G H G H G D D z z I | > y t > , t 1 1 ^ ` ~ ~ Q V L V F ~ E ! P ! F A ! V N N N M N _ 6 p t < ",
"e u a ; m b j N ! N L G V V N D D G S S H H D T D V G ` 5 p u - , 1 6 5 ! ! ! ] } ! G L N ~ ! ~ D G F S ! V G F F V V ` 1 t e : ",
"e 6 3 > M v s M E N G F D S S S D G S S D D D G D N G ! , u 0 , > 1 a 1 ! ' W ! ] E G Y G ^ ~ ~ G B N S ( S G D D B L } 6 u 1 1 ",
"1 7 7 $ m m b k D N F N S S G S D F S S D S G G I G F I > u 6 , > 1 6 6 ^ / Q W Q R G E E ~ W V S S b F R S V N S S F ` 6 t t , ",
"6 7 0 > M M v c I D z N S S N D D S S S D S D F G E G ^ ; 6 6 > > t t , ! E ~ ~ E R R V Y R ! V P F v b ! G D l S S S ~ 6 a u 1 ",
"< 6 u > M k c V ~ D b b S M b B S b l l S S b z N b V L > u : > e 6 t , G R E V Y R G v V Y G N F F m b ) H N l b S V _ 1 6 6 e ",
"< 0 t > K M b L ^ G K N V N N b ; 8 t t 6 1 u t 1 1 t t 1 0 1 w > t t t y p u t 0 u a t 6 a u e b F b G ^ I L S F S S _ 1 < t r ",
"w 6 t > J M c F ! F G V N N F V t 0 1 1 , ; 1 1 1 1 1 1 1 < 6 w w y t r u u t t r 1 6 3 6 r t e b G b G _ F G F S b F _ 1 y t w ",
", u u & Z b k F ! F F F b N V V u 6 > u u u y u u u > 2 , < t > > y , 1 4 , t p u p u u 7 , , e k G V G _ G F F M N G _ 6 u t e ",
", u u O m l l Z F F G b N S N N t 1 u d e u p t e 7 ; 1 < 1 7 > > t ; r , , s t t 6 6 6 u u t > v H M G ! V G V b N G _ 6 6 t , ",
"< u u & v x b c E G V V V V N b 1 6 u , + t 6 w + 5 ; 6 ; , t > > t ; , 1 5 u O , 1 1 - $ 2 t > c E b F ! Y G V S A F I 6 : 6 < ",
"1 t t > b j b V ~ L G Z V V V V 1 t u 6 w t , , , u , , 6 , r w > t 1 1 < ; a < 6 2 6 ; 3 2 e e F ! F F ~ ! G V K A S I 6 < 6 r ",
"< y a > M c v m F G P Z K F N V t t y t t t , 1 4 4 > 6 ; , 6 > > r 1 2 ; , s 2 1 6 6 2 7 2 6 e V W G Y ~ I F K J N G U 0 1 t 1 ",
"t a 6 > M q j V S D Y V F D N N t u u u e t , 1 3 4 ; e 1 t 3 , > t 1 t r 1 d t 1 7 : 1 1 2 e 1 V ! Y G / I U G M b I ! 6 6 t > ",
"t u u > M j c F F V G M N S b B u u u 6 ; 1 1 , , 7 ; u 6 t 6 > w a , e r , s 1 1 1 1 , 6 2 6 1 F ! G G ~ ^ L K b V L I u t t , ",
"e a t > b x b b N F K b N N S c e u u 1 1 , < 1 e u ; 6 6 t t > > 1 1 1 , , s > ; t , 6 1 2 2 t N L D D L ^ L V N L L U , u 1 < ",
", t t $ m n k b N F F F G S F k , t t p 6 , t < w u ; t 7 t y > - 8 : 1 : 5 a r e 1 , 1 t e e t F E D G P ^ F V V V L { 2 0 6 < ",
": u u > M 7 q V B F H F G F H b : 6 u t & 2 1 e & e ; e w t a > - 3 1 3 2 , u > > r 6 w & 5 6 u U U F G D G E V V K L { 7 1 1 > ",
"< 3 8 > M n 4 b N G E L ! L F b 1 3 6 t , 6 1 1 w p ; e 1 r 6 > - 3 6 1 1 , d , 6 6 t w , 4 ; u G L V V G L G V S S I | 0 8 1 < ",
": 3 1 > M j q c N F G F ! D S b 1 3 , u u t y t u u , , ; 6 u > < t , < e - u u u y p u i e 1 u ! G L V V L N N F N D ` 6 1 t 1 ",
"6 7 0 > m 6 s M A S G F D D F M 7 6 6 , : : 1 1 1 1 6 6 1 6 6 , , t t 6 1 1 , t 1 w 1 1 , t t a ^ Y G G c V v b v b c _ 6 1 1 , ",
"< 6 6 ; K u x M S F G F F N V V > 1 1 t < 1 1 : < e > > r a : > > 1 t 1 , 1 r 1 1 r , w 1 1 1 , R G D ~ V E V G M b N I 1 1 y e ",
"< 6 t > G v h k b L D Y Y N N S 6 7 4 4 5 5 4 4 7 , 5 7 $ 6 1 > > 1 t * i 7 s 4 7 h h 3 2 2 1 h Y T G G D H D H D N D I 1 t t w ",
"r u y , F N j c V G N G N N G L G I F G V b k D E B V L - r t w w 1 t r I G ` ! ~ ! G V b b N D E R S F S F G G N N D E , t t w ",
"1 u t $ V v j b L P b b F N F G ~ ~ G E F N b Y T B S H > t t > ; 6 t 5 ! D ] ` ) H G F l S S Y E ~ F F l j F S b b I I , u r e ",
", u u - M b v x V L b c F L I G ~ ~ F E D V N Y D l G I ; u 7 - > u 1 , ^ G ! ! G I L V S F G W Y ) ~ ! l 7 G b S c F _ ; a 1 , ",
"< a u & C b M 4 V L L F G F D ! Q Q D D F F N F F l S I ; 1 t > - 1 t , _ G E ! G I G F F M F ( W ) ~ E N q F S c v F _ ; 8 6 < ",
"< t t > n 7 b 7 N U ! L L G D L ] E L N V K V G ! V N I ; 1 t w > t t , _ G G W R S N S S S L ` ) D D E N 9 b N k m F ! , 1 1 w ",
"1 y a - b 6 j b N E Q / G G V G ` G F D b b c F G b N P , 8 1 > < e 1 , U V D E G F S b H S U ` ) D H ! b 7 b N N F F I , 1 1 r ",
"t u 0 $ v 0 7 j c N ~ ' ` V N N ! ! G G z N b G W D S L 1 u 7 , w t 1 > ! b B G S G M c F v F E W D G H b c b j v M I L , 6 1 , ",
"e 1 6 $ x j 0 v M b G ! { G N z G I H P b N m ! E D D ! , y 6 > e t u , ! D G N F I M x D c V Y ! F S D V k b i v V V ! t u 1 , ",
"r 1 7 & n s s x N V F ! / L D N ( E ( H l N N H W W G ` , t 6 > , e 7 ; ! W Y G N F M b G b V G ~ H D H F v N x c N V _ 6 u 4 6 ",
"5 t t & n x q h N D G G E H ! H ) E H I V G F G E [ ! ` 2 6 6 > > u 7 > ~ W G G S F N N ! F L ^ ( H R F F b F c k l b ^ 6 u t , ",
"< u t > m j 7 7 b G B Y H ~ H F I G E H N N D F G ) D _ , 1 ; > > e t > ! E G K N F F N I D L ! ) ) W R G j G N b N b ^ , 6 t e ",
"> t t $ M n s u M L S T ( E F F I H H G b D S M S E F _ < 8 1 w > 1 y > ! ! F V c G F V E N S ! ' ( ! G G v S N l S N _ ; 6 1 w ",
"w t p $ m 7 q j l F I H ( H b F H D H G z D F F S W F ! > t t w > t t > ! ! F G N H S b G b F ` [ W G F F c F b l S F _ 1 6 6 w ",
"1 t t > m h 7 m C F E F ! L F F F D I S S G F K K G T ! > t 1 > , 6 t % ^ ^ Y L Z ! F F H N F ~ W W G G L V F M S S D ` 6 6 t w ",
", t t > m v s a d F L K L G N S F G ! b S F M d g b W ( ; a t > > 6 t > ^ ~ V u f I Y F D D G G H _ H S L V v a f M F { , 6 1 > ",
"< 1 t $ M q 6 d y t n K b N b l N N F b N b 6 u y t U { ; u 1 > > t u > ! L 6 p y t M E E R G L L ! K F S x 6 p y t M _ ; t t r ",
"< 6 t > M ; + + o w u G N b l z N F K b N 6 + + o > M .., 1 a w < 1 t < ` n + + o > i H Y Y E ~ ! G G F V 6 + + o > s _ 6 1 t e ",
"< 6 t > M 7 X , r O s M l c b b k F K b N b o 1 r & I ..< 0 1 < - 6 u : ! b O , t o j G G R W ~ ~ ! E F V x X , r o n ` 1 a 6 < ",
"r : 6 ; M b & t t w V M b M b b b B S S V L 1 r t , }  .; 1 u > > t < 1 ` ~ 5 1 t > F T B E E E ~ ) G F G F & 1 t > D ` , t r , ",
"r < 6 ; i u & > > r 0 s q q v q s s s x s x > > e e m M > t 1 > > 6 t 1 M n & w > , s s s s n b x n s s s s > < r > s M > u 1 , ",
"w a a u 6 t < 1 p a u t a 1 t 6 t e r u u y t t t y 1 u 6 d d > > a d t e y t 6 0 y t 0 a t y t t t t 1 6 t < 8 t y y 1 u p p r ",
"- e w ; ; 1 1 r r t ; 1 3 2 1 t , 1 6 r < t 1 t u w : 1 = r w - - r & > , w , e , p 1 1 t t , e 2 ; 1 6 ; 1 e , < t 6 r , w w > ",
"O .   > $ > > > > w ; ; = = - ; $ - - > - > ; - + > > > O   X + + o   & w > $ > & > ; & > > = > - ; - - $ , > > > , = > w X X O "
};
