/* XPM */
static char *result[] = {
/* columns rows colors chars-per-pixel */
"64 64 16 1 ",
"  c black",
". c #1A1A18",
"X c #3D241E",
"o c #342C28",
"O c #49383D",
"+ c #495254",
"@ c #5B6567",
"# c #801F2D",
"$ c #9E2F35",
"% c #B32423",
"& c #D32C00",
"* c #C7310E",
"= c #894948",
"- c #6D8084",
"; c #809EA5",
": c None",
/* pixels */
"@@@@+@@@@+%$$$.:::::::::::::::::::::::::::: %%%%@@@@@@@@@@@@@@@@",
"++++++++++$$$$.:::::::::::::::::::::::::::: %$$$++++++++++++++++",
"++++++++++$$$#.:::::::::::::::::::::::::::: %$$$++++++++++++++++",
"OOOOOO++++$$$$.:::::::::::::::::::::::::::: %$$$+++XXXXXXXXXXXXO",
"++++++++++$$$#.:::::::::::::::::::::::::::: %$$$++XO++++++++++++",
"+++++++@++$$$#.:::::::::::::::::::::::::::: %$$$++X+++++++++++++",
"+++++++@++$$$#.:::::::::::::::::::::::::::: %$$$++X+++++++++++++",
"@@@@@@@-@@%%%$o::::::::::::::::::::::::::::.&%%%@@O@@@@@@@@@@@@@",
"+++++++@++$$$#.:::::::::::::::::::::::::::: %$$$++X+++++++++++++",
"@@@@@@@-@@%%%$o::::::::::::::::::::::::::::.&%%%@@+@@@@@@@@@@@@@",
"@@@@@@@;@@%%%$.:::::::::::::::::::::::::::: &%%%@@+@@@@@@@@@@@@@",
"@@@@@@@-@@%%%$.:::::::::::::::::::::::::::: &%%%@@@@@@@@@@@@@@@@",
"@@@@@@@;@@%%%$o::::::::::::::::::::::::::::.&%%%@@@@---;-;;;;-@@",
"@@@@@@@;@@%%%$o::::::::::::::::::::::::::::.&%%%@@@@@@@@@@@@@@-@",
"@@@@@@@;@@%%%$o::::::::::::::::::::::::::::.&%%%@@@@@@@@@@@@@@@-",
"@@@@@@@;@@%%%$.::::::::::::::::::::::::::::.*%%%%%%%%%%%%%%%=@@@",
"@@@@@@@;@@%%%$o::::::::::::::::::::::::::::.&%%%%%%%%%%%%%%%%%@@",
"@@@@@@-;@@%%%%.::::::::::::::::::::::::::::.*%%%%%%%%%%%%%%%%%=@",
"-;;;;;;@@@%%%$o::::::::::::::::::::::::::::.********%*%*%%%%%%%@",
"@@@@@@@@@@%%%%o::::::::::::::::::::::::::::ooooooooo.o... $%%%%@",
"@@@@@@@@@@%%%%$oooooooo.o.o...:::::::::::::::::::::::::::: %%%%@",
"++++++@@@@%%%%%%%%%%%%%%%%%%#.:::::::::::::::::::::::::::: *%%%@",
"@@@@@@@@@@=%%%%%%%%%%%%%%%%%%.:::::::::::::::::::::::::::: &%%%@",
"@@@@@@@-@@@%%%%%%%%%%%%%%%%%$.:::::::::::::::::::::::::::: &%%%@",
"@@@@@@@@;@@@=%%%%%%%%%%%%%%%%.:::::::::::::::::::::::::::: &%%%@",
"@@@@@@@@@-@@@@@@@@@@@@@@@%%%$.:::::::::::::::::::::::::::: &%%%@",
"@@@@@@@@@@-@@@@@@@@@@@@@@%%%$.:::::::::::::::::::::::::::: &%%%@",
"@@@@@@@@@@@+OOOOOO+++@@@@%%%$.:::::::::::::::::::::::::::: &%%%@",
"@@@@@@@@@@@@@@@@@@@@@@@@@%%%$.:::::::::::::::::::::::::::: &%%%@",
"@@@@@@@@@@@@@@@@@@@@@@-@@%%%$.:::::::::::::::::::::::::::: *%%%@",
"@@@@@@@@@@@@@@@@@@@@@@-@@%%%$.::::::::::::::::::::::::::::.&%%%@",
"@@@@@@@@@@@@@@@@@@@@@@-@@%%%$.::::::::::::::::::::::::::::o*%%%@",
"@@@@@@@@@@@@@@@@@@@@@@-@@%%%$o::::::::::::::::::::::::::::.*%%%@",
"@@@@@@@@@@@@@@@@@@@@@@;@@%%%$.::::::::::::::::::::::::::::o*%%%@",
"@@@@@@@@@@@@@@@@@@@@@@;@@%%%$o::::::::::::::::::::::::::::.*%%%@",
"@@@@@@@@@@@@@@@@@@@@@-;@@%%%$.::::::::::::::::::::::::::::o*%%%@",
"@@@@;;;;;;;;;;;;;;;;;;@@@%%%%o::::::::::::::::::::::::::::o*%%%@",
"@@@;@@@@@@@@@@@@@@@@@@@@@%%%$.::::::::::::::::::::::::::::o*%%%@",
"@@;@@@@@@@@@@@@@@@@@@@@@@%%%%o::::::::::::::::::::::::::::o*%%%@",
"@;@@@=%%%%%%%%%%%%%%%%%%%%%%$.::::::::::::::::::::::::::::o%%%%@",
";@@@%%%%%%%%%%%%%%%%%%%%%%%%%o::::::::::::::::::::::::::::o*%%%@",
"@@@=%%%%%%%%%%%%%%%%%%%%%%%%%.::::::::::::::::::::::::::::o%%%%@",
"@@@%%%%%%%************%*%*%%#o::::::::::::::::::::::::::::o*%%%@",
"@@@%%%%$..oooooo.o.o.o.o.o.ooo::::::::::::::::::::::::::::o%%%%@",
"@@@%%%%.:::::::::::::::::::::::::::: .ooooo.o.o.o.o.o.oooo$%%%%@",
"@@@%%%%.:::::::::::::::::::::::::::: %%%%%%%%%%%%%%%%%%%%%%%%%%@",
"@@@%%%$.:::::::::::::::::::::::::::: %%%%%%%%%%%%%%%%%%%%%%%%%=@",
"-@@%%%%.:::::::::::::::::::::::::::: *%%%%%%%%%%%%%%%%%%%%%%%%@@",
"-@@%%%$.:::::::::::::::::::::::::::: %%%%%%%%%%%%%%%%%%%%%%%=@@@",
"-@@%%%$.:::::::::::::::::::::::::::: *%%%@@@@@@@@@@@@@@@@@@@@@@O",
";@@%%%$.:::::::::::::::::::::::::::: &%%%@@@@@@@@@@@@@@@@@@@@@+@",
";@@%%%$o::::::::::::::::::::::::::::.&%%%@@@OOOOOOOOOO+O++++++@@",
";@@%%%$.:::::::::::::::::::::::::::: &%%%@@O+@@@@@@@@@@@@@@@@@@@",
";@@%%%$o::::::::::::::::::::::::::::.*%%%@@O@@@@@@@@@@@@@@@@@@@@",
";@@%%%$.:::::::::::::::::::::::::::: &%%%@@O@@@@@@@@@@@@@@@@@@@@",
"-@@%%%#o::::::::::::::::::::::::::::.%%%%@@O@@@@@@@@@@@@@@@@@@@@",
";@@%%%$o::::::::::::::::::::::::::::.*%%%@@+@@@@@@@@@@@@@@@@@@@@",
";@@%%%#o::::::::::::::::::::::::::::.%%%%@@+@@@@@@@@@@@@@@@@@@@@",
";@@%%%#.::::::::::::::::::::::::::::.%%%%@@+@@@@@@@@@@@@@@@@@@@@",
";@@%%%#o::::::::::::::::::::::::::::.%%%%@@@@@@@@@@@@@@@@@@@@@@@",
"@@@%%%#.::::::::::::::::::::::::::::.%%%%@@@@------;;;;;-;-;;;;;",
"@@@%%%#o                            .%%%%@@@@@@@@@@@@@@@@@@@@@@@",
"@@@%%%#o                            o%%%%@@@@@@@@@@@@@@@@@@@@@@@",
"OOOXXX..::::::::::::::::::::::::::::..X....O.OOOOOOOOOOXOXOOXOXO"
};
