/* XPM */
static char * door02_xpm[] = {
"64 64 15 1",
" 	c None",
".	c #000000",
"+	c #B32423",
"@	c #5B6567",
"#	c #9E2F35",
"$	c #495254",
"%	c #1A1A18",
"&	c #D32C00",
"*	c #C7310E",
"=	c #342C28",
"-	c #801F2D",
";	c #49383D",
">	c #6D8084",
",	c #809EA5",
"'	c #3D241E",
"                                                         .++++@@",
"                                                         .+###$$",
"                                                         .+###$$",
"                                                         .+###$$",
"                                                         .+###$$",
"                                                         .+###$$",
"                                                         .+###$$",
"                                                         %&+++@@",
"                                                         .+###$$",
"                                                         %&+++@@",
"                                                         .&+++@@",
"                                                         .&+++@@",
"                                                         %&+++@@",
"                                                         %&+++@@",
"                                                         %&+++@@",
"                                                         %*+++++",
"                                                         %&+++++",
"                                                         %*+++++",
"                                                         %******",
"                                                         =======",
"======%=%=%%%                                                   ",
"+++++++++++-%                                                   ",
"++++++++++++%                                                   ",
"+++++++++++#%                                                   ",
"++++++++++++%                                                   ",
"@@@@@@@@+++#%                                                   ",
"@@@@@@@@+++#%                                                   ",
";$$$@@@@+++#%                                                   ",
"@@@@@@@@+++#%                                                   ",
"@@@@@>@@+++#%                                                   ",
"@@@@@>@@+++#%                                                   ",
"@@@@@>@@+++#%                                                   ",
"@@@@@>@@+++#=                                                   ",
"@@@@@,@@+++#%                                                   ",
"@@@@@,@@+++#=                                                   ",
"@@@@>,@@+++#%                                                   ",
",,,,,@@@++++=                                                   ",
"@@@@@@@@+++#%                                                   ",
"@@@@@@@@++++=                                                   ",
"+++++++++++#%                                                   ",
"++++++++++++=                                                   ",
"++++++++++++%                                                   ",
"*****+*+*++-=                                                   ",
"=%=%=%=%=%===                                                   ",
"                                                  .%=====%=%=%=%",
"                                                  .+++++++++++++",
"                                                  .+++++++++++++",
"                                                  .*++++++++++++",
"                                                  .+++++++++++++",
"                                                  .*+++@@@@@@@@@",
"                                                  .&+++@@@@@@@@@",
"                                                  %&+++@@@;;;;;;",
"                                                  .&+++@@;$@@@@@",
"                                                  %*+++@@;@@@@@@",
"                                                  .&+++@@;@@@@@@",
"                                                  %++++@@;@@@@@@",
"                                                  %*+++@@$@@@@@@",
"                                                  %++++@@$@@@@@@",
"                                                  %++++@@$@@@@@@",
"                                                  %++++@@@@@@@@@",
"                                                  %++++@@@@>>>>>",
"                                                  %++++@@@@@@@@@",
"                                                  =++++@@@@@@@@@",
"                                                  %%'%%%%;%;;;;;"};
