/* XPM */
static char *a13f12853f5145b4bdd4d275a7ad926aDgRRCOVzr6H181Bj[] = {
/* columns rows colors chars-per-pixel */
"64 64 236 2 ",
"   c #392512",
".  c #3E3023",
"X  c #5B0909",
"o  c #570809",
"O  c #640E0D",
"+  c #6A0F0E",
"@  c #610E07",
"#  c #6D120E",
"$  c #6B170E",
"%  c #73160E",
"&  c #76190C",
"*  c #7B1B0D",
"=  c #721907",
"-  c #6D1112",
";  c #691412",
":  c #731413",
">  c #781713",
",  c #771912",
"<  c #7C1A14",
"1  c #7D1A19",
"2  c #791718",
"3  c #4E2A11",
"4  c #682802",
"5  c #732F13",
"6  c #523D28",
"7  c #493A2D",
"8  c #7A4419",
"9  c #6F4119",
"0  c #584128",
"q  c #5E4734",
"w  c #62442B",
"e  c #6D4829",
"r  c #644528",
"t  c #744D2B",
"y  c #7A4D29",
"u  c #774A25",
"i  c #7D522D",
"p  c #755334",
"a  c #674E38",
"s  c #725C47",
"d  c #6C5744",
"f  c #78644B",
"g  c #801E0E",
"h  c #8B1C0E",
"j  c #821F13",
"k  c #821E1B",
"l  c #8D1C15",
"z  c #85220D",
"x  c #8A250D",
"c  c #8D290B",
"v  c #8A2806",
"b  c #952F04",
"n  c #91230C",
"m  c #942D0C",
"M  c #9A2D0B",
"N  c #982705",
"B  c #963005",
"V  c #9C3404",
"C  c #97300C",
"Z  c #9B330B",
"A  c #9A3C09",
"S  c #852112",
"D  c #8B2513",
"F  c #8F2813",
"G  c #89231B",
"H  c #862019",
"J  c #922B13",
"K  c #972D17",
"L  c #9C3210",
"P  c #933113",
"I  c #853A07",
"U  c #A52A06",
"Y  c #B52A02",
"T  c #A13604",
"R  c #AC3200",
"E  c #A43A03",
"W  c #AA3D03",
"Q  c #A3350C",
"!  c #A43A0A",
"~  c #AA3D0B",
"^  c #AA370D",
"/  c #B33703",
"(  c #B33B02",
")  c #BC3D03",
"_  c #B93704",
"`  c #A13611",
"'  c #A83C11",
"]  c #953226",
"[  c #C33A05",
"{  c #9C4B0F",
"}  c #894918",
"|  c #974D15",
" . c #9A521A",
".. c #AD4102",
"X. c #AD420A",
"o. c #A94B0C",
"O. c #B34503",
"+. c #BB4503",
"@. c #B74903",
"#. c #BC4B03",
"$. c #B3450A",
"%. c #B8460A",
"&. c #B5490B",
"*. c #BB4B0A",
"=. c #BC540B",
"-. c #A74D11",
";. c #B34512",
":. c #B94D17",
">. c #A75518",
",. c #B75817",
"<. c #B6601E",
"1. c #894D23",
"2. c #88542A",
"3. c #975A28",
"4. c #885D38",
"5. c #935D33",
"6. c #A45C24",
"7. c #A85B25",
"8. c #87603E",
"9. c #996133",
"0. c #AA632B",
"q. c #BB6423",
"w. c #B56629",
"e. c #A56836",
"r. c #B76F38",
"t. c #BB7237",
"y. c #C34305",
"u. c #C14E04",
"i. c #CA4907",
"p. c #CC4509",
"a. c #C34E09",
"s. c #CC4C09",
"d. c #C54308",
"f. c #D24D0B",
"g. c #C45205",
"h. c #CA5506",
"j. c #CE5807",
"k. c #C5530A",
"l. c #CB5509",
"z. c #CE5909",
"x. c #C5590E",
"c. c #D15A07",
"v. c #D2550B",
"b. c #DC540D",
"n. c #D35D0A",
"m. c #D95D0C",
"M. c #C35212",
"N. c #C45D13",
"B. c #CC5A11",
"V. c #C75A14",
"C. c #D55D10",
"Z. c #DE5C13",
"A. c #D45817",
"S. c #D34E19",
"D. c #E75D15",
"F. c #E05F0F",
"G. c #D6600C",
"H. c #DC630D",
"J. c #CB6419",
"K. c #C7641A",
"L. c #D56313",
"P. c #DC6512",
"I. c #DD6914",
"U. c #D46C1D",
"Y. c #DB6B1C",
"T. c #D66619",
"R. c #D8711E",
"E. c #E1660F",
"W. c #E3680F",
"Q. c #E26611",
"!. c #E46A12",
"~. c #EA6E13",
"^. c #E46E1A",
"/. c #EB6916",
"(. c #F06D19",
"). c #ED7115",
"_. c #E5711B",
"`. c #EC741B",
"'. c #ED791D",
"]. c #E37417",
"[. c #F27316",
"{. c #F37619",
"}. c #F4791C",
"|. c #FA7C1C",
" X c #F87717",
".X c #CB6C24",
"XX c #C36A27",
"oX c #DD6D23",
"OX c #D5762A",
"+X c #D67B34",
"@X c #C47A3D",
"#X c #E47321",
"$X c #ED7A22",
"%X c #E87924",
"&X c #F47C22",
"*X c #F97E22",
"=X c #896646",
"-X c #886D55",
";X c #8B735B",
":X c #9B7956",
">X c #90694A",
",X c #A16A44",
"<X c #A7744B",
"1X c #B67642",
"2X c #8E7761",
"3X c #CC7F47",
"4X c #ED822A",
"5X c #F58125",
"6X c #FC8224",
"7X c #F4832B",
"8X c #FB852A",
"9X c #FC8A2C",
"0X c #F98A2A",
"qX c #F6952B",
"wX c #FD8C33",
"eX c #F98A35",
"rX c #FD9235",
"tX c #FC9B33",
"yX c #FE933A",
"uX c #FE9A3C",
"iX c #F29736",
"pX c #EC9131",
"aX c #FEA43D",
"sX c #FDA639",
"dX c #FFB33F",
"fX c #FCC23E",
"gX c #A48A6D",
"hX c #AC896A",
"jX c #CE8349",
"kX c #FF9D42",
"lX c #FF9740",
"zX c #FFA641",
"xX c #FFAD45",
"cX c #FEB743",
"vX c #FBC744",
"bX c #B79D84",
/* pixels */
"*.Q X.H.m.k.~ Q W ....x M ..c 1 * + : : < c z Z #.h.B...h.!.n.~.H.! x 1 G X.#.Q U S.A...Z < $.[ Y }.{.{.{. X{.9X`.!.n.!.[.E.P.8X",
"J x &.l.T *.%.*.%.J x < j ..O.Z Z * 2 : < c S l n.~.M.V #.G.P.}.m.N b : < *.g.v.H.'.T.B W S k.m.i.7X&X*X8X~.).*XH.c.u.m.!.~.}.wX",
"; C l.*.x X.W &.Z 1 : - < ! ~ ~ ..S - > S D G n h.`.z.T E z.).$X+.E O.x < X.h.H.!.i.l.! W Z %.`.!.$X~.wXwX^.~.`.h.n.h.z.G.!.}.}.",
"v k.h.~ S X.Z W V V m * 2 D V $.! : : c W T Z V #.G.h.T W #.H.m.l.n.k.~ J ! #.#.*.~ m F , V g.7XP.H.P.*X6X{.H.G.u.l.n.m.H.Q.}.!.",
"l.W X.m Z b 2 z B D D 1 : j V l.Q * D < D ~ @.k.l.#.g.@.u.h.z.n.H.E.#.B ! #.m.%.X.@.V ! Z ..l.7X^.!.).).}.}.m.m.j.m.!.H.H.{.}.[.",
"l.@.' m ! * S * b z < 2 : x V %.! Z Z k S U u.n.h.h.u.O.@.H.H.H.H.j.@.B %.^.^.W W X.* ..O.#.H.^.}.).6X}.[.~.m.m.j.h.).!.H.tXaX9X",
"j.G.` J F : c * z c - < j C ..#.X.W ! l M U +.c.z.H.u.W T @.k.H.H.g.W V #.).`.@.O.m j @.n.P.b.Q.).}.rXwX&X~.n.m.c.m.[.!.!.rXzXkX",
"z.l.S : # # # # % x * v V O.#.h.u.@.g.K M W ..h.!.~.!.+.W k.#.z.H.a.J n a.P.m.l.%.k J z.!.' ^ ~.~.0XxXlX8X~.j.f.!.[.[.b.D.0X8XuX",
"H.k.S + o + : : , & m #.@...g.E.k.O.u.#.( +.@.c.W.~./.[ z.P.k.z.E.%.z m ~ _.!.u.%.F F k.n.# @ l.}.aXcXrX*X!.z.m.).|.[.E.m.).6XyX",
"`.k.T g j : O - k c D g.j.@.H.H.j.#...#.j.k.+.h.m.[.~.H.!.z.c.m.H.l.G Z E B.`.+.O.* S z.Q.h + x ^.kXxXqXD.m.m.~.{.).!.!.H.^.6XwX",
"#X@.#.J D @ X : G B C k.H.h.!.!.H.h.@.k.c.g.#.O.i.[.[.~.H.c.h.m.G.a.F m W h.n.! O.c j B.!.L > : ;.yXkX7Xb.h.G.{.[.!.!.!.H.~.6XyX",
"T.Q @.* 2 * o : S Z T #.E.v.!.|.).c.n.k.#.g.k.O.s.!.).!.m.H.h.Q.~.z.X.D ! z.B.* z Q T #X_.C.^ D < oXuX6X!.m.`.|.).H.!.H.H.H.6X9X",
"Q.@.V 2 k z o O : c T #.m.H.!.|.~.j.#.E / E.m.h.H.n..X@Xt..Xn.m.~.!.*.Z #.n.U.* : : X.~.!._.7X` < :.9X|.~.m.!.!.E.E.~.H.n.E.}.|.",
"!.h.T % : : S # O S m #.k.k.n.).).y.W T #.!.).!.P.e.:XgXgX:X9.h.H.}.L.@.k.!.P.! D ; Q ).^.^.'.Q V #.}.8X&XH.H.E.E.~.).H.H.!.6X6X",
"!.H.#.z : O D S O S D $.#.k.j.!.!.d.R ..k.!. X XK.=X:X<X1Xr.3.,.H.'.$X+.k.).~.#.~ ; Z H.!.n.!.*.%.@.!.&X}.!.~.!.Q.).!.H.H.!.*XwX",
"n.k.h.X.c # < z X j G Z W #.m.!.H.!.n.z.P.!.!.^.9.=X>X5.K.H.k.,.`.`.tXP.H.).|.!.@.* * T Q @.H.n.h.! %.b.~.H.Q.~.H.~.Q.H.H.!.(.aX",
"H.z.H.z.#.B $ T = < : k m ..z.n.s.`.~.E.H.!.E.L.r w 0 f 5.H.!.q.'.{.8X6X!.~.|.}.!.Z O B m @.h.h.%.< Z H.[.H.H.!.E.H.H.~.!.n.`.zX",
"G.G.g.H.z...m ` F : O < < x Q m.) i.[.{.H.!.~.B.p 6 s 2X=X,.~.U.5XwXrX9X'.!. X~.G.7.5  .-.*.~ m.E x B h.H.G.z.h.m.l.k.H.!.c.n.tX",
"H.m.#.*.l...x Z k 1 : : : > n z.l.s.{.`.Q.!.b.a.u a q 7 . 8 P.|.8XwX*XyX8X!.~.E.n.7.w p 1.*.k.n.! T D ..n.W.h.#.h.g.#.u.v.H.z.6X",
"[.n.z.! ! B X.m : # Z : - g m x l.!.c.z.m.Q.(.b.o.2.8 3   7 | 6X6X[.{.wXyX~.!.m.H.+Xt t e -.n.O.E W Z k.!.!.z.@.W *.k.) / g.P.wX",
"{.!.!.#.......V , ; J D > V m z *.m.@.z.y.i.).!.H.-.X.@.}   | |.P.!.`.6X8X6X~.!.!._.6.w 0  .g.@.W B X.z.H.l.@.W N N l.k.@.n.0XkX",
"[.}.}.~.l.W V x F g F m D :.*.*.#.E ..h.l.Q.).~.n.o.4 ..4 I H.{.H.~.E.~.{.*X^.E.$Xz.Y.4.w  .h.O.O.Z x Z h.z.W n ! h u.g.+.[.9XwX",
").}.6X).k.W ! < ~ Z D S F ] ;.B.@.V ..u.h.'.6X^.H.*.4 E A k.N.!.H.~.E.!.!.!.m.H.&Xn.^.e.3. .h.O.E V 1 m G.H.+.^ $.U m.d.( 8X6X8X",
"6X|.6Xv...! a.K m W W L ! U ( P.#.E @.#.u.5X*X'.$XQ._ g.h.n.G.h.H.).H.n.H.n.+.'.Z.$X4XXXJ.K.h.W m m D l.[.H.s.H.z.H.).l.^ oX&X}.",
"rX*X`.v.g.~ @.l.! Z m W @.( @.g.@.T W W g.{.!.%.Q P.P.I.^.F.!.k.m.Q.G.u.O.h.n.s.d.&X+Xe.q.'.H.Z c T $.~. X~.!.c.h.H.G.m.^ M %.h.",
"cX}.[.[.~.z.$.P.k.j - V M S E Q k.W m W n.m.P.@.E n.*X{.}.8X}.Q.n.u.u.Y y.!.H.a.^.OXe.4.y <.H.T J *.y.~.~.~.H.m.h.H.!.h.X.M B #.",
"aX`.).{.).G.g.!.O.< < Z S < T F *.X.x @.z.#.H.+.#.j.8X8X`.H.!.[.n.#.y.p.!.).Q.!._.e.9.i r w.H.E ~ *.s.H.m.~.H.H.n.H.[.G.c.` ` u.",
"6X{.).P.l.m.@.Q.~ - m m - # V Z > S < m X.*.Q.W l.~.6X{.`.g.c.[.!.l.s.).|.m.).I.0.e.N.| 8 L.c.U l.z.E.H.E.~.m.!.H.h.!.[.!.W @.k.",
").6X~.n.z.H.%.l.P.* % c : # V Z : 1 F < k M P.J P.).).z.G.'.`.~.}.v.b.E.!.y.P.0.q.K.#.@.#.h.c.m.[.[.!.m.H.H.H.!.z.h.H.~.}.z.+.m.",
"[. X~.H.O.n.l.Y.~.k.S m c : m V O x b : : D P.U !.!.h._ p.*XrX~.H.^.C.i.m.N.Y.w.,.>.#.@.#.k.~. Xm.~.n.n.c.h.H.H.#.h.).~.7X%Xh.~.",
"{.}.H.g.v ! ~.eX^.!.m z m 1 z v # < S 2 : j L.b.(.!.n.f.D.wXrXP.h.`.l.u.l. .w.q.| -.u.W O.k.!.!.#.Q.h.n.c.h.).Q.z.H.|.{.*X5X!.~.",
"!.!.h.h.~ z C.{.n.H.l.O.Z k : & J < k 2 - * k.7X^.H.H.`.`.*X|.!.!.P.#...o.3.N.w.=.g.O.D Z u.h.g.u.!.n.n.c.H.).H.~. X X|.6XwX'.!.",
"c.n.z.h.h.*.W !.z.E.m.n.X.- ; # c j J S < m @.^.`.H.H.[.!.!.~.~.{.l.u.*.L.J.P.P.k.@.Z > c ! @.u.h.j.j.H.H.H.!.H.!.{.|.rXwXwX*X!.",
"..k.h.k.h._.:.=.u.l.n.!.*.: - + z = V X.*.O.u.m.~.~. X6X{.~.`.Q.{.l.) Q.}.n.c.@.W @.T m Z Z O.#.#.z.j.H.E.h.m.H.~.*XwX|. X6XwX!.",
"..u.k.G.H.7XU.O.k.k.k.!.z.D : : m v b ..h.k.z.m.n.~.*XrX8X}.&X~.[.G.h.!.H.u.H.Q W k.W V m Z #.+.z.H.m.!.H.g.n.H.~.6X5X[.!.8XyX{.",
"z *.z.m.'.0X^.R.!.M.! n.H.$.1 2 C ..V @.O.h.h.z.H.!.`.8X9X6XwX*X!.z.h.m.k.( j.O.W k.Q < z W O.( m.~.H.c.O...h.H.!.*XH.~.Q.{.6X6X",
": z @.u.%XpX~.).).:.S $.H.h.L k Z ..O.O.V h.n.!.!.m.~.8X8X}.9X*Xl.+.#.!.G.@.h.u.g.#.L J ~ O.( #.!.~.H.z.O.E u.m.H.~.Q.~.[.!.~.{.",
"- % * ~ n.@.z.).0X!.l.u.#.n.z.F *.l.z.g.u.!.`.0X^.G.[.8X6X/./.`.h.h.E z.G.l.n.U O.$.Z k.c.j.g.n.}.6X&X{.[ ( k.G.H.c.m.~.~.H.H.H.",
"* J % v O.m k.{.rX*XI.m.n.c.n.W k.m.z.z.m.!.`.rX`.~.!.|.|.~.~.~.i.l.%.O.h.H.z.$.%.#.@.n.l.h.j.G.)._.^._.A.*.z.c.H.k.m.).~.m.c.H.",
"..%.S v v * x.~._.*XT.k.^.P.G.z.k.k.#.m.[.E.Q.|.).).j.).6X8X*XH.H.z.h.c.j.h.k.c.c.@.W h.W h.H.n.H.O.P ,XhXhXr.^.`.j.m.H.m.j._ l.",
"c.n.Z j m B m ^.#XOX7XG.`.).m.!.E.l.O.H. XE.!.).).m.j.5XrX_.!.E.!.c.h.k.@...O.h.j.~ Z h.W v.m.m.!.>.q ;XgXbXjX%X_.~.m.#.#.) f.!.",
").G.Q.z.#.#.L L.XXu _.[.).n.n.H.G.H.H.H.).c.f.m.H.H.E.^.P.H.!.5Xz.h.H.H.c.k.@.g.g.a.J h.h.z.k.O.h.>.0 d -X3XXX8 k.[.).m.m.v.}.!.",
"[.h.!.).n.h.! O.6.t K.6X6Xz.n.j.m.E.).G.!.v.y.h.h.E.~.~.H.h.n.$Xz.k.m.).!.j.h.m.c.#.m H.z.h...b @.| 6 s -Xr.2.w x.~.|.H.s.H.$XG.",
"7Xn.G.!.H.l.O.l.:.9..X&X7X^.l.~ k.m.G.E.H.n.g.#...n.[.).&X_.~.!.!.m.z.E.E.z.H.H.~.k.E z.z.~ < c E c p ;Xe.XXq q %X~.}.H.c.H.n.k.",
"wXP.H.n.m.H.c.E.~.t.7.N..XL.X.Z @.u.#.H.H...*.h...#.~.5XyX*XI.<.U.d.u.H.H.H.!.E.~.n.#.@.Z k : S O.A T.+Xe.=X=X:XiX).n.~.[.k.h.h.",
"{.H.c.k.j.H.`.~.~.w.2.q.0.8 E @.W E W j.n.V E h.O.O.H.).|.}.7.t .XH.z.!.H.!. X[.H.Q.m.' 2 k : < $.4X'.m.z.XXw OX8X!.G.^.P.( #._ ",
"{.H.h.h.H.!.`.6X Xw.8.4.4.r ..h.@.V ..W.H.T ..u.( R v.).|.|.6.p 0.`.~.[.!.~. X|.~.!.H.M.J k - < O.$X#Xo.l.P.5 I.|.~.^.z.l.) #.i.",
"5X!.h.H.&X*X!.0X0Xq.p e t 1.g.@.#.W @.E.H.l.E O.#.y.m.[. XiXe.,X5.P.!.[.[.).[.|.{.[.H.%.L K D m @.n._.{ { !.!.P.~.!.}.z.u.#.I.`.",
"{.!.!.wXuX8XE.5XaX7Xe.i y ,.G.z.+.T ..u.j.m.W ..n.~.[.~.!.t.<X,X2.@.z.H.H.E.~.6X&X!.E.%.Z A &.%.k.n.H.!.!.&X6X).'.!.[.H.u.h.^.z.",
"H.~.~.wXuX7X~.sXcX0X4XOX!.E.z.#.k.V T O.#.g...n.H.!.).H.>.8.8.4.-.#.n.G.z.h.Z.vXsXH.m.n.#.E o.N.j.j.m.H.!.6XyX6X9X8X[.!.z.c.l.R ",
"m.!.!.0XkX5X*XdXdX&X*X9X).m.z.h.h.O.O.W W Z ..l.G.H.).E.N.w.0.>.P.k.k.k.u.u.Z.fXqX!.m.#.+.O.X.w.k.c.!.!.!.).eX9XyXwX~.n.k.h.i.U ",
"..l.H.$XyX}.wXrXaXuXwX9X}.!.c.h.H.!.c.z.#.Z O...H.!.[.~.E.}.'.y.l.k.@.+.@.V z.!.H.!.H.g...O.V y 3.T.^.c.m.}.wX}.&X6XB.+.@.k.Q.+.",
"T O.H.{.9X9X7X}.tXaXzXwX&XH.h.i.G.H.m.j.j.h.O.O.n.}.Q.H.H.H.H.z.c.z.O.y.H.*.k.g.H. X!.l.h.h.k.} 0 4.5.7.J.{.6X!.W.[.l.z.k.O.l.G.",
"@.n.[.[.{.yX`.Q.).yXuX|.!.n.!.~.!.n.H.H.m.u.V Z k.~.z.g.g.z.y.m.H.n.y.Y T.l.m.c.H.}.z.h.n.u.H.L.9 p e 3.^.H.|.}.8X!.G.z.n.z.l.H.",
"c.H.).[.{.yX{.H.!.wX7X~.~.^.6X}.H.j.m.!.H.+.( U H.[.E.n.u.u.R / ( k.u.N M.h.L.!.m.E.z.g.u.#.).W.-.r } K.W.z.|.wX7XH.!.n.#.z.h.k.",
"E.H.!.!.{.6X Xc.~.).s.h.G.^.wX*XH.m._.].I./.(.D.!.!.).6XH.y.W J T O.E ..n.`.!.).c.H.!.n.#.#.[.!.G.9 0 >.h.H.eX_.!.!.H.m.h.z.#.@.",
"h.z.n.n.H.~.c.n.~.[.~.H.m.P.wX8XH.H._.vXiXf.~.I.#.H.~.*X}.H.@.B E @.E #.H. X}.n.m.H.H.m.!.n.!.m.i.l.} } =.~.P.n.b.'.n.g.m.H.H.z.",
"O.#.#.g.h.!.H.E.).!.Q.~.!.n.).Q.z.) a.4XqXG.!.G.g.H.n.{. XQ.z.@.V ..#.$X8X*XwXP.m.#.z.H.~.!.H.n.*.#.@.z.~.).H.H.~.!.H.n.H.m.!.z.",
"#...W ..h.!.n.n.}.&Xm.~.[.H.E.n.u.R u.&XuX].~.H.k.H.c.[.[.!.m.h.T T n.*X}.}.eX&Xc.! #.c.m.H.H.z.h.u...l.!.~.&X}.[.).~.H.l.m.H.c.",
"..#.V E g.h.#.#.!.0X).~.[.E.`.H.u.g.#.Q.8X}.).H.z.!.H.[.{.H.m.z.O...P.}.!.m.`.P.O.B O.#.g.g.m...$.j.@.%.H.~.wX|.).H.~.z.R h.H.H.",
"! #.T B E ..W E c.~.).}.).G.b.H.h.k._ p.}.|.n.k.H.~.!.!.}.~.m.h.G._.~.5X'.H.G.#...@.O.W T #.m.E T h.@...%.!.}.{.`.s.H.~.H.!.!.Q.",
"Q #.Z x E W j S W h.c.^.`.{.l.m.g.c.!.H.{.|.z.#._.}.H.m.`. Xc.h.k.0X6X).{.9XG.k.#.#.#.V B l.!.%.W #.( W W Q. XtX$Xk.n.~.~. X{. X",
"Z V x m E T < S X.z.u.k.H.*X!.E.z.n.).!.~.).m.E.5XI.!.~.}.).n.g...4XtX[.|.wXn.h.n.@.#...E k.H.m.E ..g.#.k.~.).qXT.u.H.H.n.!.).|.",
"S < k F V M < D ! c.~ $.H.6X{.Q.n.~.H.h.#.h.!.[.~.~.!.).!.!.H.g.+.'.aX9X6X8XE.m.H.G.u.V B @.g.m.....z.!.[.).W.).m.c.#.#.#.H.H.H."
};
