/* XPM */
static char *a5d2b022c24940e0d170960a7bb94e41uTTs8qOj93PJgchg[] = {
/* columns rows colors chars-per-pixel */
"64 64 235 2 ",
"   c #341A06",
".  c #3E250F",
"X  c #3E342B",
"o  c #590909",
"O  c #640D0C",
"+  c #660E0B",
"@  c #6D120E",
"#  c #6B170E",
"$  c #73160E",
"%  c #76190C",
"&  c #7B1B0D",
"*  c #721907",
"=  c #6D1112",
"-  c #691412",
";  c #731413",
":  c #781613",
">  c #751913",
",  c #7C1B13",
"<  c #7D1A19",
"1  c #791718",
"2  c #4A3119",
"3  c #59391C",
"4  c #722218",
"5  c #6E2F17",
"6  c #533E2B",
"7  c #513C24",
"8  c #4E3A28",
"9  c #793C26",
"0  c #643E22",
"q  c #7A481D",
"w  c #59452D",
"e  c #5A4127",
"r  c #5D4630",
"t  c #69482A",
"y  c #744D2A",
"u  c #7A4F2D",
"i  c #684B33",
"p  c #755333",
"a  c #755031",
"s  c #6D5740",
"d  c #7B6248",
"f  c #7C6752",
"g  c #801E0E",
"h  c #8B1C0E",
"j  c #821F13",
"k  c #821E1A",
"l  c #8D1C15",
"z  c #85220D",
"x  c #8A260C",
"c  c #8D290B",
"v  c #8A2806",
"b  c #952E04",
"n  c #942D0C",
"m  c #9A2D0B",
"M  c #962607",
"N  c #843E0C",
"B  c #963005",
"V  c #9C3404",
"C  c #96310B",
"Z  c #9C330B",
"A  c #852112",
"S  c #8B2513",
"D  c #8F2814",
"F  c #89231B",
"G  c #86281B",
"H  c #922B13",
"J  c #9A2D14",
"K  c #8A391A",
"L  c #9B3110",
"P  c #983C16",
"I  c #A52A06",
"U  c #B52A02",
"Y  c #A13604",
"T  c #AC3200",
"R  c #A43A03",
"E  c #AA3D03",
"W  c #A3350C",
"Q  c #A43A0A",
"!  c #AA3D0B",
"~  c #AA370D",
"^  c #B33602",
"/  c #B33B03",
"(  c #BC3D03",
")  c #B93804",
"_  c #A13611",
"`  c #A83C11",
"'  c #851F20",
"]  c #8B3225",
"[  c #C33A05",
"{  c #9C470B",
"}  c #9A4A1A",
"|  c #99511C",
" . c #AD4102",
".. c #AD410B",
"X. c #AD4B0D",
"o. c #A0470E",
"O. c #B34503",
"+. c #BA4503",
"@. c #B74804",
"#. c #BC4B03",
"$. c #B3440A",
"%. c #BB460B",
"&. c #B5490C",
"*. c #BB4B0A",
"=. c #BD530C",
"-. c #B8540C",
";. c #A94D12",
":. c #B64914",
">. c #AE5313",
",. c #A3561E",
"<. c #B65918",
"1. c #AF520E",
"2. c #BE621D",
"3. c #854B25",
"4. c #8C572C",
"5. c #975727",
"6. c #885B36",
"7. c #945C36",
"8. c #AA5D21",
"9. c #A35D2A",
"0. c #A45725",
"q. c #B85F21",
"w. c #AC4D24",
"e. c #88613D",
"r. c #996438",
"t. c #A9632A",
"y. c #B5682A",
"u. c #A66738",
"i. c #B46C34",
"p. c #B67239",
"a. c #C34305",
"s. c #C14E04",
"d. c #CA4A06",
"f. c #C44308",
"g. c #C34E09",
"h. c #CC4C09",
"j. c #CC4509",
"k. c #D24D0B",
"l. c #C45205",
"z. c #CA5506",
"x. c #CE5807",
"c. c #C5520A",
"v. c #CB5609",
"b. c #CE5909",
"n. c #C45A0F",
"m. c #D15B07",
"M. c #D2550B",
"N. c #DB540D",
"B. c #D35D0A",
"V. c #D95D0D",
"C. c #C35211",
"Z. c #CD5A10",
"A. c #C55915",
"S. c #D85C13",
"D. c #D34E19",
"F. c #E75C15",
"G. c #E05F0F",
"H. c #D7600C",
"J. c #DC630D",
"K. c #C4641B",
"L. c #CC6519",
"P. c #D36313",
"I. c #DC6511",
"U. c #DD6914",
"Y. c #D36B1C",
"T. c #DB6A1A",
"R. c #D86619",
"E. c #D8711E",
"W. c #E1660F",
"Q. c #E3680F",
"!. c #E26711",
"~. c #E46A12",
"^. c #EA6D13",
"/. c #E46E1A",
"(. c #EB6916",
"). c #ED7115",
"_. c #E5711B",
"`. c #EC741B",
"'. c #ED791C",
"]. c #E37417",
"[. c #F27316",
"{. c #F37619",
"}. c #F4791D",
"|. c #FA7C1C",
" X c #FB7817",
".X c #F06B1B",
"XX c #CC6C24",
"oX c #DD6D23",
"OX c #D57427",
"+X c #C67737",
"@X c #E27323",
"#X c #ED7A23",
"$X c #E87925",
"%X c #F47C22",
"&X c #F97E21",
"*X c #F17F28",
"=X c #8C6848",
"-X c #976A47",
";X c #93724D",
":X c #8D6E52",
">X c #A5734A",
",X c #AA7A51",
"<X c #917860",
"1X c #CA7D40",
"2X c #F58125",
"3X c #FC8224",
"4X c #F4842A",
"5X c #FB842A",
"6X c #FC8A2C",
"7X c #F8892B",
"8X c #F6952B",
"9X c #FD8C32",
"0X c #F68832",
"qX c #FD9236",
"wX c #FC9B33",
"eX c #FE9339",
"rX c #FE9B3D",
"tX c #ED902C",
"yX c #FEA43D",
"uX c #FDA639",
"iX c #FFB33F",
"pX c #D69036",
"aX c #FCC23E",
"sX c #BD895C",
"dX c #9E8567",
"fX c #A1866C",
"gX c #B29074",
"hX c #CC8041",
"jX c #FF9D42",
"kX c #FF9740",
"lX c #FDA541",
"zX c #FFAD45",
"xX c #FBB543",
"cX c #FBC744",
"vX c #AE9880",
/* pixels */
"5XI.W.[.~.B.!.`.6X[.{.[.[.[.}.U [ :., C  .S.D.I W #.O.F < x Q J.^.B.!.x. .Z.z.#.Z z c , ; : + & < c  .m x  . .E W ! c.V.J...W &.",
"9X}.^.~.B.s.m.J.&X).^.5X&X%X4Xd.G.c.A E B T.'.I.M.l.*., > b m B.}.I.H.@.V C.^.B.l A c , ; 1 & C Z O. .j , x H %.*.@.#.Y b.:.x H ",
"}.}.~.H.x.z.B.z.).^.^.9X9X^.#X!.).@.Z R W v.d.!.J.z..., x O.R +.#X).x.E R b.`.c.M F S A : = A  .! ! R , = ; < Z %.E  .x *.z.C = ",
"~.}.!.J.B.B.x.s.H.J.[.3X&XI.J.I.4Xl.V > D n ! @.@.#.W H ! l.B.x.B.J.@.E R z.H.#.V C R E c > ; Q &.V S 1 & n V V E C  .A ! z.c.v ",
"[.|.{.J.J.~.B.x.B.B.|.}.[.).~.^.4Xz. .C W V @. .@.B.#.R B #.W.J.B.x.z.s.@.l.#.z.l.@.! S , S & W z.V j ; < S S B z 1 b Z n  .E v.",
"6XyXwXJ.~.).z.x.B.B.^.[.%X3X).}.^.J.#.O. .&  .E R /.^.@.B @.x.J.H.J.J.@.O.s.z.z.B.s.I A k Z Z Q @.V x : 1 , z b & A & R n ` O.z.",
"jXlXqX!.!.[.B.m.B.B.^.%X9XqX|.).!.N.I.B.@.j n O.@.).).#.V E l.J.J.l.O.Y E s.J.x.m.+.I m l R E ..@. .C j , = c z & x ; S H _ H.x.",
"rX5X6XF.N.[.[.!.k.x.^.5XkXzX7X^.^.! ` !.x.H k @.x.B.I.g.S H g.J.x.@.c.! #.~.^.~.z. .R m J l.@.s.z.@.O.V v & x $ @ = @ - ; A v.x.",
"eX3X).V.W.[.|.).V.x.~.&XqXxXyX}.v.O @ B.c.S S @.a.!._.! n z &.!.x.l.I.x.[ (.^.!.m.@.#./ #.s.O.l.W.l. .@.@.n % > ; ; - o + A c.J.",
"9X3X^.J.^.~.).[.^.B.V.F.8XzXjX/.x + h !.b.A & O.#.`.Z.R Z F v.J.B.m.x.!.J.^.[.B.z.#.l.x.#. .#.x.J.J.@.x.l.S c k = + ; j g Y l.`.",
"eX3X^.J.~.~.~.[.[.H.z.N.4XjXeX..: : L ~.Z.j c O.R B.z.E n D g.H.B.z.m.J.^.[.[.d.+.@.l.m.l.@.z.J.~.~.c.J.c.C B F ; o O S H @.O.@X",
"6X3XJ.J.J.!.J.).|.).B.~.3XrXoX, S ~ S._.@XY W z & Z.x.R S  .x.^.!.z.J.B.^.).~.h.O.l.l.#.l.B.m.).|.!.M.W.#.Y Z A ; o & 1 & @.W R.",
"|.}.W.B.J.^.W.W.~.~.V.^.|.6X:., _ 4X'.!.^...; ; & Y.B.#.Z %.~.~.B.J.~.m.!.^.H.J.z.B.W.^ E @.x.^.|.~.J.V.@.R c ; O o z k 1 B @.!.",
"3X3X~.J.J.).^.W.W.J.W.%X5X|.#.V W '.^.^.).W - S Q I.!.z.X.i.1X+X=.B.^.B.x.J.J.J.^.).!.+.R R f.).).B.c.l.#.n A + @ A : ; $ Y z.!.",
"9X&X~.J.J.~.).!.~.^.~.%X%X~.@.@.&.~.B.~.J.Z - ! s.^.).<.;XdXfXdX=X<.J.J.W.B.B.J.{.{.~.l. .T f.!.!.x.l.@.$.S A O A S O : z @.J.!.",
"yX.X!.J.J.!.^.J.^.!.J.^.N.%.Q l.B.J.O.W Y & & @./.|.).r.;X,X,XhXp.5.J.^.J.l.m.z.~.W.!.J.x.B.~.J.~.B.#.E Z F j o z , @ x ..z.l.B.",
"lX`.B.!.^.J.J.W.!.J.J.[.J.Z , @.x.c.O.C B O C ~.}.|.XXe.=X=X7.[.[.L.A.^.^.x.x.z.!.J.~.J.W.^.`.h.B.x. .n F > , * Y # B @.x.J.x.J.",
"wXB.m.!.J.l.z.B.z.x.H.J.z.B x R B.! #.E R % w.P.^.|.0.e e s d OX XK.<.^.^.J.J.m.x.^.~.J.}.[.d.( V.I x , , + ; D _ n  .x.J.l.H.H.",
"3Xx.J.M.s.@.s.z.@.z.!.B.O.S Y R B.c.&.b R W A.B.W.^.y.8 i f <Xu.|.2.,.J.H.J.J.x.d.N.!.!./.L.%.x.v.M : : ; > < k Z x  .z.*.@.B.J.",
"9XI.l.^ ( l.#.E @.x.~.~.c.Z E R O.B.*.Q O.c.#XI.B.^.K.r s 6 X 7 y.).I.J.z.x.J.m.N..X!.J.} t u ;.x n g = > C @ ; n  .B W Q x.B.[.",
"jX7XB.@.l.x.M M R @.z.J.x. .V E @.s.).`.J.I.).!.!.).#X8.t 0 . 2 3 I.J.m.#.O.z.J.~.).d.f.<.y y 9 z n V : S H - > B  . . .#.!.~.[.",
"9X6X[.#.l.g.h Q c E x.z.Z x Z O.O.z._.&X|.`.b.%XW.^.&X).} P.Y.2 . n.B.l.@.E l.B.^.).!.x.z.3.t t :.*.:.S n S g D x V E z.^.|.}.[.",
"5X3X5X/ f.V.I $.! +.J.H.n j V R O.z.B.[.|.).B.%XJ.B.~.J.N { P.  N b.B.#. .R c.J.^.3X'.x.s.{ i t <.:.] S A S Z ! , R E c.).3X}.).",
"}.%XoXW x.).J.x.J.h.J.[.C.S n n E z.~.J.^.3X#XS.'.+.B.J.{ N R.X.=.H.B.z.s.^ !.#X'.&X2Xs.#.@.5.q L./ I Q L ! E n J g.Q  .M.3X|.3X",
"z.@.m W B.H.J.x.m.~.^.{.^.$.Y S Z J.}.).^.}.%Xf.h.B.c.+.s.H.~.J.l.~.F./.U.I.U.W @.~.[.s.E X.0.o.#.@./ O.E n C Q v.O.! l.M.`.&XqX",
"#.B m ..z.~.J.z.B.J.^.^.^.a.#.H Y J.&X^.x.!.}.~.g.J.!.f.U s.s.B.!.}.5X}.[.&XB.R %.J.B.B.E w.u.c.W R A m B = j l.I.$.x.^.[.[.}.xX",
"s._ _ m.H.[.J.B.J.J.^.B.J.h.#.! R H.6XB.s.J.}.[.~.!.).~.j.a.#.B.[.~.J.`.5X5Xm.#.+.!.#.x.@.5.r.| S W 1 A Z , , O.~.l.H.).[.).`.yX",
"l.O.E !.[.!.x.J.~.B.^.W.J.W.x.x.I x.!.l.z.B.J.`.).).V.|.).h.M.~.[.m.l.).[.3X).z.E !.*.;.5.7.u 0 C Z @ = n n = ! !.O.B.z.I.).[.3X",
"H.#.b.}.^.J.z.x.~.J.J.J.B.!.[.[.V.m.l.s.#.#.J.^.).~.a.!.W.N.M.}.^.).'.H.x.).).P.H I.P 7.7.P 5 4 Z V @ ; c $ & I.c.@.J.x.B.^.3X).",
"^.z.$X4X^.).z.#.J.J.z.m.B.B.^.B.{.^.l.#.@.l.!.x.W.^.x.B.d.S.^.J.^.qX%Xj.) z.~.!.I K.3.] G b S O V n : c n A c.^.T.b.B.O.J.^.{.[.",
"^.!.2X&X[.|.J.x.!.).z.m.B.x.!.#.~.~.l.O.E s.m.J.^.B.#.z.s.z.`.x.I.qX9XF.k.B.~.^.N.y.9 ; 4 A , @ v z < n z n ~.^.9X^.Q v l.J.}.|.",
"~.'.9X3X|.{.{.^.J.).J.m.B.B.~.s.l.z.s.C S O.l.J.}.B.@.@. .#.I.!.~.|.&X).`.W.J.K.i.y.K 5 4 k , H % : k Z O.z.J.B.[.S.z ! z.x.~.~.",
"~.&X9X9XqX|.[.~.J.~.J.J.J.x.x.z.s.@.R c : Z @.l.J.!.~.P.#.s.x.[.^.^.~.~.[.J.J.8.<.;.K , A H j x @ - = ..B.B.W.x.~.! &.x.z.m.B.m.",
"~.9X3X{.|.9X&X^.J.B.z.W.W.x.x.#.#.O.Z Z n Y @.E @.m.B.}.!.( v.[.!.).^.[.3X{.^.U.n.l.O.&. .V % A = = ; *.~.B.z.s.c.>.'.z.l.x.l. .",
"{.eX5X~.[.2X3X^.J.B.l.J.!.B.J.x.+.@.Z n V E l.! W J.s.J.!.z.H.[.^.%X}.5XqX&X^.B.B.x.l.z. .b v n ; ; S b.!.l.l.c.O.Y.4XJ.H.l.s. .",
"3X3X[.!.^.J.&X~.J.z. .O.m.J.^.B./ +.E z , W l.E O.x./ l.B.z.x.~.&X9X3X6X5X`.!.J.x.z.z.O.@.V  .C 1 < $.J.B.Q C.~.E.^.6X'.B.x.*.z ",
"[.^.~.[.^.!.^.J.B.s.R O.x.J.^.~.#./ +.! H L #.l.s.z.@.H.!.#.+.v.%X0X|.5X5X^.B.~.!.B.z.V O.O. .C k L z.J.$.A *.).).^.tX$Xs.O.z ; ",
"J.J.J.^.^.B.m.J.H.l./ [ `.%X3X}.B.l.x.m.c.Z $.O.I B.z.H.x.E c.c.}.(.(.3X5X[.H.^.7X`.!.s.l.x.z.@.D v.B.#.s.v.~.7X).x.@.B.! & $ = ",
"J.m.B.^.).B.l.J.m.m.a.N.)./._.).H.x.z.x.B.O.#.@.&.x.J.z.O.@.x.d.^.^.^.|.|.~.^.`.qX`.~.B.x.x.B.l.! B.m.B.B.U.&XqX[.c.n O.v $ H & ",
"v.) x.B.J.B.x.).)./.^.[.B.m @.J.B.J.c.E z.E @.m.m.l.z.x.m.x.x.J.I.&X5X3X).x.).).|.!.W.[.B.#.l.l.x.H.I./.l.T.*XoX/.C.& v v A &. .",
"~.k.( @.@.B.^.'.#X#X7X^.z.! x.!.B.B.M.! z.Z ! x.x.O. .@.l.z.m.~.W.~.'.qX2Xx.B.).).!.W.{.J.O.z.W.!.B.^.).B.$XsXgX,XK B n j Z B.m.",
"~.}.M.B.B.).[.c.f.}.9XXX1.l.B.z.O.l.x.c.c.H g.l.l.@.l.m.J.J.x.x.2X!.J.I.^.W.J.J.B.k.m.).J.J.J.H.J.B.B.[.8.p <XvXgX} s.#.b.!.H.).",
"H.#XJ.h.J.|.^.M.M.~.#X4.q #.#.O.b E z.x.J.n #.m.B.z.x.~.[.B.l.x.#XB.z.J.^.^.W.z.z.a.M.~.J.).!.B.x.B.x.3Xt.w f fXu.P X.B.).~.z.[.",
"l.B.J.m.J.}.^.%X'.z.<.6.y >.C R c j ! x.x.E c.^.J.J.m.W.W.m.V.~.^.^._.%X).[.B. .@.l.B.J.W.J.B.l.! z./.9Xy.6 d >X5.t | W.!.H.B.4X",
"z.z.l.{.^.B.).eX5Xv.%.9.r.<... .A ; k Z @.@.B.^.W.~.J.J.J.a.f.[.~.!.%XeX2X^.#. .z.&. .J.J.#.s.@.C  .H.}.P.u ;XOXu.X 9.B.B.J.I.9X",
") @./ I./.H.~.5X5X%X!.B.9.+XOX ., : k 1 ` B.!.J.[.{.~.J.!.x.J./.z.T.y.}.).J.O.O.z.E V B.x.E E E @.E @.J.-.L.+X6.>X:Xi.x.l.m.J.[.",
"d.@.( x.m.^.^.|.).^.^.B.,.p.$X} ; ; ' H C.J.!.^.|.{.^.!.[.^.).U.#.| 9.[.[.M.T / s. .Y J.W. .V @.c.@.@.B.=.'.^.t.>X6.L.J.z.z.J.[.",
").U.#.s.B.}.~.^.W.^.^.J.,.e.r.a 5 A H L %.J.[.[.|.[.).[.[.~.!.!.*.y 4.Y.[.V.a.#.O.E z.J.W.@.E @.O.z.z.z.^.0XK.7Xi.} 3X%XJ.x.~.2X",
"x.^.c.s.J.[.!.'.).3X&X[.q.p t y o.@.V C @.W.~.%X3X^.W.J.J.x.#.s.>.r.r.y.^.[.^.B. .E B.x.s.E R @.b.J.J.J.).0Xt.pX2XJ.5XrX9X!.!.[.",
"T v.m.x.~.{.5X7X3XeX3X~.P.9.p 3.z.@.E #.B.B.J.wXcXV.z.m.J.B.@.;.u.>X6.,.J.[.~.J.B. .l.@. .R Y l.=.x.W.).3X9X7XxXuX^.4XrX9X^.^.J.",
"I d.x.l.B.^.9XeX6X0X).~.~.K.4.>.l.O.O.#.#.B.~.8XaXS.s.s.l.c.#.t.>X-X6.<.W.).J.H.x. .Z E E O.O.z.c.A.B.).6X%X%XiXiX&X2XjX7X~.~.B.",
"+.~.c.@.+.Z.3X%X}.9X}.B.m.^.~.J.z.R O. .l.J.!.J.~.x.V @.#.+.#.| } 8.K.J.^.[.~.J. .O.Z #.x.m.~.J.c.q.XX|.6X9XwXyXqX9X}.eX$XJ.z. .",
"H.v.O.l.x.z.[.W.~.3X[.~.W.'.wX[.!.l.z.z.z.W.{.J.l.l.*.J.a.+.x.m.x.W.J.J.J.!.}.B.O.O.z.x.x.B.J.J.d.,.4.OX0XlXyXwX}.4X6X6X[.J.O.R ",
"J.x.x.B.x.H.!.5X}.|.J.^.|.).3XI.!.J.s.B.z.x.|.J.m.B.v.Y.U a.B.J.V.a.x.l.l.x.^.c.Z V s.B.J.J.B.!.^.P.3 a =X>X+X^.~.).eX{.[.[.B.@.",
"l.z.x.#.B.~.J.4X9X|.x.W.[.^.[.J.!.).@.s.l.x.W.B.!.I.c.C.M s.l./ ^ T s.s.B.W.[.J.I / +.J.~.B.x.J.}.2Xq w d i 4.U.J.{.eX[.[.).J.m.",
"@.#.x.z.B.J.~.~.'.0XI.x.J.).^.J.~.[.@.@.B.~.J.m.)./.).B. .E O.Y H E a.J.3X).~.!.F..X(.U.]._.B.J.%X9XU.q 6 5 K.^.m.{.3X[.~.!.J.W.",
"x.J.J.B.l.B.'.N.B.I.^.J.W.m.B.d.V.~.B.~.B.J.J.B.B.}.{.J.#.R @.E B @.J.}.%X^.J.#.U.^.k.tXcX_.J.J.5X9XI.1.3 e 2.^.B.m.^.J.B.B.x.z.",
"x.!.B.J.B.J.~.^.J.J.).^.B.@.#.#.B.J.~.^.J.x.#.B.I.9X&X5X$X@. .V O.m.!.{.[.B.J.l.H.!.H.tX4Xg.( x.!.).B.Q.R.| 5.).W.J.~.x.l.#.@.@.",
"m.J.B.x.J.^.).[.}.%X^.~.z.E s.z.x.J.J.B.m.#.R m.%X9X}.}.&XB.Y R c.B.~.[.[.m.J.l.J.^.].rX%Xs.T s.B.W.J.[.^.x.OX}.B.B.~.z. .E  .@.",
"J.J.v.E z.^.J.).&X9X^.J.&.O.x.$. .B.l.l.s.O.B O.I.).B.~.}.I. .O.x.B.J.[.[.J.!.x.J.).|.5X!.#.l.s.J.`.W.[.^.).7X/.@.#.l.l.R V #. .",
"!.!.~.J.^.J.h.`.[.|.~.@. .@.z.R R B.@.R E O.@. .#.H.J.'.2X^._.H.z.B.^.}.~.!.^.J.l.B.|.}.j.^ l.z.J.N.H.).}.).^.m.R E  .E B Y #.Q ",
"{.[.{.^.^.B.l.#XwX{.!.E E / @.E @.~.z.B Y #.@.#.l.H.7X[.).3X7Xc.z.m.{.`.B.J.}.'.@.x.|.[.J.!.m.l.B.x.[.`./.m.z.E A j E R x Z #.W ",
"|.).~.B.J.J.s.R.8X).^.l.@.l. .R B.J.l.R O.@.@.B.x.B.9X|.[.wX4X .l.B.).}.^.!.U.2XW.B.).^.!.).B.x.W.~.|.J.l.s.x. .A , R E n x V Z ",
"J.J.J.#.@.#.m.V.).!.).[.^.x. . .B.l.@.B Y s.H.J.B.W.5X3X6XyX'.#.l.J.~.~.).~.^.^.[.~.z.#.z.J.^.B.!.[.3XJ.$.` m.R S , m V S k , A "
};
