/* XPM */
static char *_5643029a3a440c5eefdcf85c4c73b9eErk65UREPTxiYPUD[] = {
/* columns rows colors chars-per-pixel */
"64 64 239 2 ",
"   c #362210",
".  c #5B0909",
"X  c #570809",
"o  c #640D0C",
"O  c #6A0F0E",
"+  c #610E07",
"@  c #6D120E",
"#  c #6B170E",
"$  c #73160E",
"%  c #76190C",
"&  c #7B1B0D",
"*  c #721907",
"=  c #6D1112",
"-  c #691412",
";  c #731413",
":  c #781613",
">  c #771912",
",  c #7C1A14",
"<  c #7D1A19",
"1  c #791718",
"2  c #6D0F10",
"3  c #45331D",
"4  c #402915",
"5  c #79370A",
"6  c #6B2B1C",
"7  c #7C2818",
"8  c #773716",
"9  c #712D11",
"0  c #483829",
"q  c #593D27",
"w  c #673823",
"e  c #783D29",
"r  c #6A2E21",
"t  c #6E401B",
"y  c #5A4329",
"u  c #5E4A37",
"i  c #6D4C2C",
"p  c #66482B",
"a  c #734C2B",
"s  c #794D2A",
"d  c #7B4726",
"f  c #795128",
"g  c #714D33",
"h  c #775333",
"j  c #614D39",
"k  c #6A5742",
"l  c #795C43",
"z  c #7D6143",
"x  c #7C6753",
"c  c #871F0F",
"v  c #821F13",
"b  c #821E1A",
"n  c #8D1C15",
"m  c #84220D",
"M  c #8A250D",
"N  c #8D290B",
"B  c #892807",
"V  c #942E05",
"C  c #942D0C",
"Z  c #9A2D0B",
"A  c #962706",
"S  c #963005",
"D  c #9C3404",
"F  c #97300C",
"G  c #9B330B",
"H  c #983A0A",
"J  c #852112",
"K  c #8B2513",
"L  c #8E2813",
"P  c #89231B",
"I  c #822C10",
"U  c #922B13",
"Y  c #9A2D14",
"T  c #873517",
"R  c #9C3210",
"E  c #973718",
"W  c #89320D",
"Q  c #A62A06",
"!  c #B52A02",
"~  c #A13604",
"^  c #AB3202",
"/  c #A43A03",
"(  c #AA3D03",
")  c #A3350C",
"_  c #A43A0A",
"`  c #AA3D0B",
"'  c #AA370D",
"]  c #B33602",
"[  c #B33B03",
"{  c #BB3D03",
"}  c #B73A05",
"|  c #A13611",
" . c #A63B11",
".. c #963226",
"X. c #C33A05",
"o. c #99460F",
"O. c #89431A",
"+. c #9C4314",
"@. c #964A17",
"#. c #9E521B",
"$. c #96541E",
"%. c #8F450E",
"&. c #AD4102",
"*. c #AD420A",
"=. c #A5470A",
"-. c #B34503",
";. c #BB4503",
":. c #B64804",
">. c #BC4B03",
",. c #B4450A",
"<. c #B9460A",
"1. c #B54A0C",
"2. c #BB4B0A",
"3. c #BE540C",
"4. c #B1520E",
"5. c #A44B13",
"6. c #B44913",
"7. c #A3551D",
"8. c #A8551A",
"9. c #B45213",
"0. c #BC5A13",
"q. c #B75818",
"w. c #AB500D",
"e. c #894A26",
"r. c #8A552B",
"t. c #9B5726",
"y. c #875D39",
"u. c #975D35",
"i. c #884A3B",
"p. c #A95D25",
"a. c #B45B22",
"s. c #B74E24",
"d. c #87613F",
"f. c #99643A",
"g. c #AA642A",
"h. c #BB6522",
"j. c #B2662B",
"k. c #A86736",
"l. c #BF763C",
"z. c #C34405",
"x. c #C14E04",
"c. c #CA4907",
"v. c #CC4409",
"b. c #C24E09",
"n. c #CB4C09",
"m. c #C34409",
"M. c #D34D0B",
"N. c #C45205",
"B. c #CA5506",
"V. c #CE5807",
"C. c #C5530A",
"Z. c #CB5509",
"A. c #CE5909",
"S. c #C3590E",
"D. c #D05A07",
"F. c #D3550B",
"G. c #DB540D",
"H. c #D35D0A",
"J. c #DA5E0D",
"K. c #CC5B11",
"L. c #C35614",
"P. c #D55D10",
"I. c #DE5C13",
"U. c #D55A17",
"Y. c #D34E19",
"T. c #E05F0F",
"R. c #E65D16",
"E. c #D7600C",
"W. c #DC630D",
"Q. c #C96318",
"!. c #D56215",
"~. c #DC6511",
"^. c #DE6914",
"/. c #D36719",
"(. c #DC6A1B",
"). c #D76A1C",
"_. c #D8711E",
"`. c #E1660F",
"'. c #E3680F",
"]. c #E26611",
"[. c #E46A12",
"{. c #EA6E13",
"}. c #E46E1A",
"|. c #EB6916",
" X c #F06D19",
".X c #ED7115",
"XX c #E5711B",
"oX c #EC731B",
"OX c #ED791D",
"+X c #E37417",
"@X c #F27316",
"#X c #F37619",
"$X c #F4791D",
"%X c #FA7C1C",
"&X c #CB702B",
"*X c #DA7123",
"=X c #C97433",
"-X c #D66E24",
";X c #EC7721",
":X c #ED7B23",
">X c #E47723",
",X c #F47C22",
"<X c #F97E21",
"1X c #896647",
"2X c #996841",
"3X c #856B54",
"4X c #957553",
"5X c #BB7742",
"6X c #A47148",
"7X c #C88A39",
"8X c #F48125",
"9X c #FB8224",
"0X c #F4842B",
"qX c #FA842A",
"wX c #FC8A2C",
"eX c #F9892B",
"rX c #F7952A",
"tX c #FD8C33",
"yX c #FB8A34",
"uX c #FD9236",
"iX c #FC9B33",
"pX c #FF9339",
"aX c #FE9A3C",
"sX c #F6923E",
"dX c #EB8F30",
"fX c #FEA43D",
"gX c #FFAA3E",
"hX c #FBA133",
"jX c #FFB33F",
"kX c #FCC23E",
"lX c #9F876C",
"zX c #A8896B",
"xX c #B58660",
"cX c #FF9D41",
"vX c #FFA641",
"bX c #FBAE43",
"nX c #FEB843",
"mX c #FBC744",
"MX c #B39A81",
/* pixels */
"J , b L D Z , K _ H.` ,.W.9X#X].H.{.W.B.>.B.[.@X{.{.[..X{.[.W.N.>.OXgXwX9XqX`.H.E.E.x.D S :.N.H.&.&.A.{.@X.X]..XJ.H.>.:.>.E.E.W.",
"G D M C ( / , J &.A.b.N.E.%X[.`.A.J..X].{..XH.`.8X^.].{.$X.XH.N.&.8XiX@X%XtXH.V.H.:.:.&./ N.`.H./ &.N.:.N.{..XrX(.x.E.E.H.[..X%X",
") >.G M / ( v J ( B.H.}.oX@XA.H.N.H.].W.@X%XV.:.OX$XW.H.oX#XH.B.C.eX9X.X#XeXE.N.>.:.>.D S Z.[.>.( :.[ ( ( ].#XiX:XN.J.{.{.#X@X#X",
"_ >.~ S ( &.( / H.{..X$X.XE.G.W.B.N.] v.$X$XH.N.E.{.].[.$X{.H.B.E.XX{.8XOXE.E.>.&.:.-.( / :.H./ / B.:.&.>.[.#X#XoXn.W.{.W.[.].].",
"&.>.D / N.N.>.>.[.eX.X{.@X`.oXE.x.N.>.].qX#X.XE.A.].E.@X#XE.H.A.-.&.~.$X{.H.oX~.-.S -.x.N.N.H.&.,.V.:.<.E.{.tX<X.XE.{.Z.^ Z.W.W.",
":.&.( &.B.[.J.H.$X,XH.{.@XW.`.H.b.^ x.,XaX+X{.E.N.W.H.@X@X[.H.C./ ~ H.<X$X$XtX,XH._ >.H.H.E.E.A.B.x.( Z.[.{.,X$X@X.X{.W.A.H.E.H.",
"-.:.>.N.V.[.W.`..X].].{.].J..X].A.{ b.0XrXE.].E.N.W.H.#X#X].H.:.D &.:.;XqX<XtX~.H.>.A.E.{.[.E.J.2.>.:.H.{..XW.W. X{.W.J.E.H.].A.",
"N.A.H.H.E.{.H.H.{.@X{.W.H.~.tXqXW.W.XXmXhXM.{.^.>.W.{.,X$XE.>.S ( :./ 2.W.#X$XH.H.W.E.H.[.H.[.J.c.H.H.`.E.{.~.J.G.OXH.N.H.E.E.A.",
"`.W.].[.#X9X#XH.{..Xn.B.E.[.tX,XE.H.XX+X^.|. XR.].[..X9XW.z.( U ~ -.( &.H.oX[..XH.W.[.J.:.:.@X[.W.{..XW.V.~.eXOX[.{.W.H.B.A.>.:.",
"H.E..X@X#XpX$XW.].tX8X{.{.[.9X$XW.V.H.[.E.;.[ Q E.@X`.H.b.b.^ ] } N.x.A L.C.!.].H.`.A.N.x.:..X].E.@X{.@X`.A.%XtX8XE.[.H.>.A.B.N.",
":.H.@X@X$XpXoX]..XpXaX%X{.H.].{.].H.E.E.H.x.D G N.{.A.N.N.A.m.J.W.H.z.! /.A.H.H.W.$XA.B.H.x.W.].~.9X.X%X{.W.%X$XqX].E.A.H.A.A.W.",
"/ -.W.#XwXwX0X$XiXfXvXtX,XE.V.c.E.E.H.V.A.B.-.-.J.$X].W.W.E.`.V.H.A.-.m.W.2.N.N.W.#X].Z.B.B.N.].#XiXOX'.[.#X9X{.'.#XZ.A.N.-.Z.E.",
"&.Z.W.;XpX$XtXuXfXiXtXwX#X[.H.B.W.[.H.A.>.G -.&.E.{.@X[./.=Xl.5.N.N.:.>.:.D A.[.E.].E.N.&.-./ Z.W.[.{.H.H.$XtX$X,X9XK.;.:.C.].;.",
"H.[.[.eXcX8X<XgXjX,X,XwX.XH.H.B.B.-.:.( ( G &.A.E.W.oXk.4XlXzX4Xk.N.N.N.b.x.I.kXrX[.H.>.>.-.-.N.N.A.[.[.[..XyXwXpXtX{.J.N.V.c.Q ",
"W.{.{.tXaX0X{.hXnXeXyX9X.X`.A.>.N.D / -.:.N.&.H.W.{.&X1X4X6X5Xk.r.w.H.E.H.B.I.mXhXW.H.H.>.( :.V.A.V.H.W.[.9XpX9XwXqX@X[.A.H.Z.^ ",
"#X].].tXaXqX`.8XgXwXtXoXW.E.E.A.>./ ( x.V.H.( &.H.[.f.z 1X2X6.B.3.8.V.W.W.`.{.9X,X[.`.>.F D :.>.N.H.E.[..X<X9X.XOX].@XE.b.C.[.A.",
"8X[.V.W.,X<X[.eXeX#XwX[.B.B.B.:.:.( :.`.W.Z.( -.x.[ q p q k r.>.~.8.^.@X@X.X@X%X#X@XW.<.G U J C :.J.$XW.W.{.{.`.{.[.$XA.b.>.^.oX",
"#XW.B.B.E.].oX9X#X.X$XW.H.:.:.N.:.D &.'.E.~ &.b.[ ` g q l x 1X5.^.Q.[.@X].{.#X%X{.].W.4.8 d 7 > -.;X;XE.H.{.{..X%X{.[.A.A.{ :.c.",
"#XE.H.N.A.W.oX{.{.<XW.H.E.:.( :.( ( ( V.J.D ( B.-.&.d l l 0 0 t /.W.A.].E.[.#X@XW.].H.@.q i e > <.0XOXH.H.{.,XqXqX[.E.}.~.[ :.} ",
"tX~.E.H.H.W.H.`..XoXH.[.$XE.&.F :.x.>.E.E.&.2.B.&.b.0.r.y.d   3 @.v.x.E.W.W.{.`.{.H.:.1.e.i i 7 -.*.~.@XE.B.Z.qXpX.XJ.{.@XN.B.B.",
"0XJ.E.].W.Z.-.H.[.<X#X9XtX}.Z.` N.H.E.`.W.H.N.:.&.J.@Xq.h.OX@.  %.W.H.`.`.H.E.E.{.N.( V.0.a y 8 / F J.[.[.J.B.OX,X{.$XE.H.W.J.N.",
"@XB.[..XH.N._ -.[.9X#X9X9XA.H.V.H.`..XE.[.F.m.N.B.`.{.0.5 H 5 #.C.N.H.@X].V.B.H.H.>.C E.V.7.p 8 :.>.N.oXwX,X[.F.F.{.%XW.n.W.:XE.",
".XE.].A.>.>.R !.9X$X#X@X.XH.H.W.E.E.E.W..XH.M.H.E.W.W.{.5.=.0.>X3.V.E.W.H.N.:.N.N.b.U N.B.a.r.O.V.J.N.E.,XtX$Xz.B.@X.XH.J.F.$X{.",
"H.H.G v V S C }.<XwX0XE.oX{.H.].`.Z.-.E.#X`.]..X.XH.V.8XuXOX{.].].H.B.N.:.&.-.V.V.` G N.( a.0.0.[.A.` Z.[.wX;X;XOX{.H.:.:.{ M.].",
"&.<.J B B % C.{.OX,X(.N.}.~.E.A.N.N.>.H.@X`.].%X.X.XV..X9XqX<X~.`.A.V.H.V.B.N.H.H.:./ B.=.k.8.A.W.:.Z H.@X{.{.oXoXV.H.E.H.A.} F.",
"& Y $ B -.V N.#XuX<X^.H.H.H.J.( N.H.A.A.H.[.oXuXoX{.[.%X%X{.{.{.c.A.>.-.B.W.A.<.>.>.:.0.t.f.s 8..XXX}.oXG.x.H.H.W.N.H..X{.H.H.E.",
"= $ & ` J.:.A..XeX[.Z.b.>.H.Z.L >.Z.A.N.b.].oXeX[.E.@XwX9X|.|.oXB.B.( A.J.Z.H.Q :.,.R t.u.r.p 7.$X9X,XoXX.[ N.E.W.H.H.{.{.W.W.W.",
"; m :.b.>XdX{..X.X2.J ,.W.B.R b F &.-.-.D Z.H.].[.H.{.qXwX#XwX<XZ.;.>.].J.:.B.b.N.<.e.f.7.=.8 1.[.{.E.A.-./ x.H.E.{.].{.@X[.{.#X",
"m 2.A.H.OXeX}._.[.L._ H.W.,.< 1 F &.D :.-.B.B.A.E.].oXqXwX9XtX<X[.A.B.H.N.[ V.-.( t.O.T I ( :.[ H.{.E.H.-.&.B.E.[.<XW.{.].#X9X9X",
"&.b.N.E.W.0X_.-.N.N.N.].A.K ; ; C B V &.B.N.A.H.J.{.<XuXqX$X,X{.@XE.B.].E.>.E.+.+.p.o.5 W ) :.;.A.W.H.].E.N.J.E.{.9X8X@X[.qXpX#X",
"&.N.V.N.B.OX9.3.b.Z.J.[.2.; = O J * D &.2.-.b.H.{.{.#X9X@X{.oX].#XZ.{ ].$XH.A.$.t.8.O.T ) G -.>.>.A.V.`.`.B.H.W.{.<XtX%X#X9XtX[.",
"H.H.H.B.V.2.( [.A.`.H.H.*.= = @ M v U J > C :.}.oXE.W.@X[.{.{.{.#XA.x.2.!.[.Q.p.0.#.H 1 N _ :.x.B.V.V.E.E.W.[.W.[.#X%XuXtXtX<X[.",
"[.{.V.B.` m P.#XH.W.Z.-.G b : % U > b 1 = & C.0X[.E.].oXoX<X%X[.].~.>.&.:.>.A.*XH.N.-.K F x.B.N.b.[.H.H.H.W..XE.{.#X#X%X9XtXOX[.",
"#X$XW.N.B _ [.yX[.[.C m C < m B @ , J 1 : v !.G. X[.H.M.R.tXuX~.V.oXZ.b.Z.>.J.{.E.H.b.( -.N.[.{.>.`.V.H.H.B..X].A.E.%X@X<X8X].{.",
"@X#X{.E.-.H.V.(.{.C.J C N : C D o M V > ; K ~.Q ].[.Z.} v.,XuX{.W.[.P.c.H.A.{.`.A.].N.:.>.N.{.#XH.{.H.H.H.B.W.W.>.B..X{.0X:XB.{.",
".X9X{.H.A.E.>.Z.~.% $ N ; @ D G 1 < L , b Z ~.Y ~..X.XA.E.OXoX{.$XF.G.W.].z.[..X[.W.>.>.x.N.H.J.@X@X].H.W.E.W.[.H.B.W.{.$XA.>.E.",
"9X#X.X~.Z.H.:.].` = C C = @ D F : J , C &.2.].( A..X9X#XoXN.H.@X{.A.n..X%XJ..X.XoXW.H.B.N.].H.Q A.H.`.E.].{.H.{.E.V.].@X].( :.N.",
"fXoX.X@X.XE.N.[.-., , G J > ~ L 2.*.M :.A.>.W.;.>.D.qXqXoXW.[.@XH.>.m.v.{..X].[.#X$XW.x.H.wXE./ ` 2.n.W.H.{.W.`.H.W.@XE.D.| | x.",
"nX$X@X@X{.A.,.~.N.v = D Z J / ) N.( C ( H.H.W.:./ J.<X#X$XqX$X].H.b.x.! z.].E.b.[.$X].A.[.<XE./ Y 2.z.{.{.{.!.H.C.W.[.B.*.Z S >.",
"uX<XoXF.N.` :.Z._ F C ( :.[ :.N.>.~ ( ( N.#X[.>.) ~.~.^.}.R.].N.E.].E.x.-.B.J.n.m.,X$X{..X$XE.G K / ,.[.XX=XzXxXk.E.E.H.' Z >.N.",
"9X%X9XF.&._ b.Y C ( *.T _ Q } ~.:./ :.>.b.8X%XOX;X].] N.B.H.E.B.E..XW.H.E.H.;.OXI.:X9X{.~.[.B.( C C L O.i z lXMX5XJ..XA.) *X,X$X",
".X$X9X.XC.( / , ` G O.p 6 ..6.K.:.D &.b.V.OX9X[.W.N./ &.>.H.E.[.W.{.`.[.[.[.H.W.,XH.oX%X@XH.B.-./ D v 6 y j 3Xk.5.9 K.m.} qX9XqX",
"@X$X#X{.Z.( D M L m e.a w q.2.2.>.( &.B.A.`..X{.H.N.( :.N.H.`.@XW.{.`.{.#X<X[.`.,XA.oX%X<XXXB.-.-.G M 8 y u 3Xu.a y 3.N.>.@XwXtX",
"@X{.].>.&.&.&.D > 2 E u.e.D N m 2.H.:.A.z.c..X[.E.Z.-.>.H.E..X$X~.].oX9XqX9X{.].].oX~.W.oXoXx.:.( S &.A.7.3Xu.7.u y K.N.:.H.eXcX",
"@XH.A._ _ S &.V ; @ D e.y.7 I K Z.].H.A.J.]. XG.H.W.A.B.W.W.@X9X8Xh._.tXuX{.{.H.~.:XC.:._ 2.H.-.( ( G =.q.*Xu.1X1X1XC.{ ] N.~.tX",
"E.H.:.2.Z.&.M G b < > r g e.e.e.b.n.#XoX].].G.c.V.E.W.E.E.W.{.%Xj.s &XuXqX].{.`.H.L.~ / V 2.C.H._ / K ( S.'.N.#.q =.:.x.F.E.A.9X",
"E.E.N.E.A.&.C | L ; o r h f.y.w ' c.@X$XW.[.{.A.H.E.E.{.[.W.{.%Xg.h k.wXOX{.#X{.E.s.* / ( 2.` H.( M S B.W.0.3.>.9 1.B.W.].H.H.iX",
"W.A.W.A.:.S % ~ * > > 8 h i a O.c.#X{.`.W.[.W.].B.V.A.{.{.W.{.oXg.2Xf.:X[.{.%X$X[.G o S F :.B.V.>., G E.@X9.o.~.~.E.W.{.].H.oXvX",
"H.N.B.*.M @ , M . v P F +.r.s 0.W.[.H.A.W.].].[.B.H.N.E.{.W.C.j.6X6Xr.K.E..X%X[.:.& % / ) -.E.Q.C._ <.G.{.W.W.{.`.{.].`.`.]. XfX",
"].W.:.m : o K J o J K ,.:.w.3.].].z.^ &.N.[.#X#XW.H.H.W.W.`.8.d.d.y.h.:.N..X{.x.` - G W.[.J.[.2.9.9.[.<X,X[.{.[.]..X{.E.E.[.<XtX",
"].B./ $ ; : J @ o K C >.N.B.H..X.Xz./ / ;.]..X{.W.E.E.A.H.{.L.#.8.h.!.:.N.].~._ K = _ .X[.[.OX_ H p.$XwX,XW.W.`.`.{..XE.E.[.9X9X",
"].:.D 1 b m X o ; N / :.H.W.[.%X{.V.:.( ] `.H.B.W.E.{.].H.{.E.H.{.{.2.G >.H.).% ; ; ` {.].OX0X ., s j.XX(.E.[.{.`.`.{.E.H.`.$X%X",
"(._ :.% 1 % X = J G / >.`.F.].%X.XD.H.N.>.N.N.-.n.[..X{.H.W.V.].{.A.&.K _ A.K.% m ) ~ >XXXP.' K v O.y 1X1Xt.-X%X.XE.].W.E.W.9XwX",
">X:.:.U K + . ; P S F N.W.B.{.[.W.B.:.N.H.N.:.-.c.@X@X{.W.H.B.H.E.b.L C ( B.H._ -.N v K.[.R : : *.dXf k i.w S.@X@X[.[.[.E..X9XpX",
"oXN.~ v v ; o = b M K N.V.:.E.W.A.>.&.>.V.N.>.B.H.@X{.W.[.A.H.H.E.Z.P G / K.oX>.-.& J A.].n O M }.cX7Xu e @.A.{.@X.X[.{.E.[.9XtX",
"E.N.J O X O ; ; > % C :.:.&.N.`.N.-.x.>.} >.:.H.].{.|.X.A.~.N.A.`.2.m C ` XX].x.>.L L C.H.@ + Z.#XgXbXf 3 e.C.J..X%X@X`.J..X9XpX",
"A.Z.J ; @ @ @ @ $ M % B D -.:.B.b.:.N.Y Z / &.B.[.{.[.>.( C.:.A.W.b.U L b.~.H.V.>.b U A.]. .` {.{.eXbXsX&Xr.w.M.].@X@XG.R.eXqXaX",
"V.E.| U L ; M & m N = , v F &.:.*.( _ n Z Q ;.H.A.W.b.( ~ :.N.E.E.N.( D >..XoX:.-.C v :.J.~.G.]..X#XuXtX<X].H.H.H.H.@X].].uXvXcX",
"Z.<. .C _ % J & V m , 1 : M D >._ G G b J Q x.H.N.B.x.-.:.E.E.E.E.A.:.S >.[.}.( ( &.& &.-.>.E.[.$X.X9X,X@X{.H.H.V.B..X[.W.iXgXwX",
"Z.( &.C G V 1 m S K K < ; v D Z.) & K , K ` :.N.Z.>.N.:.b.B.A.H.E.`.>.S _ >.H.>.*.:.D _ F &.Z.8X[.[..X@X$X#XH.H.V.H.[.W.W.$X#X@X",
"B C.N._ J &.F ( D D C & 1 K D <._ ; > N ( / F D >.E.B./ ( :.W.H.A.J.N.` U _ >.:.>.` C L > D N.8X~.W.~.<X9X#XE.E.b.A.H.H.E.].$X{.",
"= F Z.2.M &.( <.) < ; = , _ ` ` &.J = : J K P A B.oXA./ ( A..X;X;./ -.M , *.N.E.].c.Z._ / G >.oX].,X{.tXtX[.{.oXB.H.B.A.E.[.$X$X",
"U M 6.V.~ 2.>.2.<.U M , v &.-.G F & 1 ; , N K n H.{.L.D :.E.~.$XH.A V > > 2.N.F.W.OX(.S ( J L.T.c.8X,X<XqX{..X<XE.H.x.H.[.{.$XtX",
"2.) *.W.J.N.` ) ( &.&.M Z &.N < % O : ; > N m G >.B.K.&.V.].H.{.`._ M < P &.>.) Q Y.U.&.F , 6.X.! $X#X@X@X#X#XwXoX].H.[.@X`.~.qX"
};
