/* XPM */
static char *a4a1714c0324412fb29d7f550bce006dHmvg1cZBUEFY0aJR[] = {
/* columns rows colors chars-per-pixel */
"60 60 127 2 ",
"   c #21190E",
".  c #261E13",
"X  c #272111",
"o  c #2A2315",
"O  c #2E261B",
"+  c #2E2818",
"@  c #322A1D",
"#  c #342C22",
"$  c #3A3325",
"%  c #3D352A",
"&  c #3F3829",
"*  c #433C2D",
"=  c #453D33",
"-  c #474031",
";  c #4B4335",
":  c #4D453A",
">  c #4F4839",
",  c #524B3D",
"<  c #554D42",
"1  c #584F46",
"2  c #584F48",
"3  c #575042",
"4  c #5A5345",
"5  c #5D554A",
"6  c #5F584A",
"7  c #605946",
"8  c #625B4D",
"9  c #605750",
"0  c #655D52",
"q  c #67604D",
"w  c #68614E",
"e  c #676152",
"r  c #6C6555",
"t  c #6E6754",
"y  c #6C6457",
"u  c #6C6656",
"i  c #6D6656",
"p  c #6D6757",
"a  c #6E6757",
"s  c #6A6354",
"d  c #6F6855",
"f  c #6F6856",
"g  c #6A6158",
"h  c #6B6358",
"j  c #6A6458",
"k  c #6B6559",
"l  c #6D6558",
"z  c #6C6459",
"x  c #6E6659",
"c  c #6D655A",
"v  c #6F675A",
"b  c #6E665B",
"n  c #6E655C",
"m  c #6F675C",
"M  c #6D655A",
"N  c #6E6858",
"B  c #6F6858",
"V  c #6F6959",
"C  c #6E685C",
"Z  c #6F685A",
"A  c #70675E",
"S  c #706959",
"D  c #70685B",
"F  c #706A5A",
"G  c #716A5A",
"H  c #726B5B",
"J  c #736C59",
"K  c #746D5B",
"L  c #70685D",
"P  c #726A5D",
"I  c #71695E",
"U  c #71685F",
"Y  c #706A5E",
"T  c #736B5E",
"R  c #726A5F",
"E  c #736C5C",
"W  c #736D5D",
"Q  c #746D5D",
"!  c #766F5D",
"~  c #746C5F",
"^  c #756E5E",
"/  c #756F5F",
"(  c #766F5F",
")  c #726B5D",
"_  c #77705D",
"`  c #77705E",
"'  c #78715E",
"]  c #6F6860",
"[  c #726960",
"{  c #736B60",
"}  c #746B62",
"|  c #726C60",
" . c #746C61",
".. c #766E61",
"X. c #756D62",
"o. c #776F62",
"O. c #766E63",
"+. c #766D64",
"@. c #776F64",
"#. c #746D61",
"$. c #767060",
"%. c #777060",
"&. c #777062",
"*. c #787161",
"=. c #797260",
"-. c #797262",
";. c #7A7363",
":. c #7D7663",
">. c #787065",
",. c #797166",
"<. c #797067",
"1. c #7B7366",
"2. c #7A7267",
"3. c #7B7464",
"4. c #7C7565",
"5. c #7E7767",
"6. c #797265",
"7. c #7B7368",
"8. c #7D7568",
"9. c #7C7469",
"0. c #7D756A",
"q. c #7E766B",
"w. c #7F776C",
"e. c #7B7469",
"r. c #7F7969",
"t. c #81796E",
"y. c #817A6C",
/* pixels */
"* 5 4 5 8 5 5 $ 5 5 8 , 8 8 * , 8 5 8 6 8 4 * 6 6 8 8 8 8 - * 8 8 8 8 8 8 & 5 8 0 5 0 8 : < 0 0 s 8 8 6 * r 6 8 8 8 8 < ",
"5 >.{ O.@.O.{ , H H *.r ( ( 4 8 *.H *.E %.r 4 ( E ( ( ` E 4 4 *.( ( *.E %.> H ( @.L >.O.0 0 @.>.3.( *.E , 4.E *.( *.( g ",
"< L h z z g 0 = s s H 8 r r , 5 H s H s r 8 , r s r s r s , , H s s r e r * 8 s z 0 z g 4 5 z m B r r s - ( s r s r g 5 ",
"< L g h z g g = r r ( s H H , 8 ( r ( r H s , H r B r r s , , E r r H r H - r r L g L z 5 6 L L H r B s > %.r H r H g 6 ",
"< m g z z z z : H B ( r E ( 4 8 *.B ( r H s , E H H r B r , , ( H H ( H ( > H ( L z L z 5 8 L O.H r H r > *.r H B H z 8 ",
"< z g g z z m : r s H 8 r B , 5 ( s B e r 8 , r r r s s 8 > , H r r H r H > r H z 0 z g 4 5 z m s 8 s 8 - E s r r B g 5 ",
"1 L g g z h z : r s H 8 f B , 5 E s r 8 s 8 , r r r s s 8 > , E s r B r H ; r H z 0 z g 4 5 z m s 8 s 8 - E s B r H r 8 ",
"$ < ; ; ; ; ; o > ; , * > , @ & , - > * - * @ > , , - ; - @ @ , ; > > > , + > , : ; , : $ % : , ; - ; - o , > , , , , = ",
"8 ( s r H H r - ( E *.r %.%., 6 *.r E r H s > e 8 L t.0 z < 0 L O.{ L z L : { >.H *.( *.8 4 %.H H H *.B - H s ( ( ( r 5 ",
"5 H 8 s r r s * r s H 8 H f > , E s r s r 8 - 8 0 g O.g @.: 4 L g g h 0 z ; z L s r e s , > H r e s B 8 * s 8 s s H r 6 ",
"8 4.H H ` ( ( > E H *.B *.( , , 3.H %.H ( r , r L 0 m m w.: 1 @.L L O.{ >., { O.( %.r r 4 , ( E H H ( r - H s H 8 r r 5 ",
"4 H 8 e r r s * s s H s H r * - H s r s r 8 > 8 >.h L g 7.< 6 >.g g m z L = 0 0 r H s r , ; s 8 r s r e * r 8 r r f r 0 ",
"8 ( s r H H r - 8 8 r s ( ( , 4 %.r ( r ( r , r L L L < g < 0 O.z m { m L = 8 6 s H B ( 8 3 E s H B E r > %.r E H s 8 8 ",
"8 %.r r H H f - , 3 8 8 ( *.4 8 *.r ( B ( r , r 0 h h = 4 ; 6 g z z L h z * 5 5 5 s r ( 8 5 *.H H r H r > *.r E 8 , ; : ",
"- 5 , , 4 4 , @ * * > - 4 5 * - 4 , 4 , 4 , $ , 5 5 0 : 4 % : g < < 1 , < o = ; - , , 4 - * 6 4 4 , , , @ 6 , 4 4 > * = ",
", 8 4 5 8 8 5 $ 4 4 6 , 8 8 * - 6 , 5 4 5 , & 3 5 < 6 4 8 # = h 6 9 8 5 8 $ 4 5 8 e 8 8 > * 8 5 8 5 5 4 & s 5 8 s 5 < < ",
"8 q.O.O.>.O.@.< 8 6 L z L <.5 < ` f ` H O.z 4 @.h z h L L 5 5 >.{ { O.L O.; 0 8 g @.@.>.5 < >.>.( H ( r , *.r H r H z 0 ",
"4 { g g g g h ; 8 8 L h h { < ; ' f K s g 6 = 0 0 0 0 g h < < L L L L z { ; g g 0 L z L < ; m m r s r 8 - H 8 s s r s 5 ",
"8 >.z z z z L , E r q.{ m { < ; ` r ( f L g < L h z g L L 5 4 O.O.L L z O., L O.z @.L L 1 : { { E B H r > *.r H B E z 8 ",
"< L h z z z m : r s O.g 0 h : = r q f s H g < L 0 g 0 z z < < L z g h g L ; h z z L g g , ; z z B r r s ; ( s f r r g 5 ",
", L m O.>.@.O.< E r >.m m { 1 : :.E *.B H 0 : g z m z L L 5 4 O.O.O.>.O.q.< { L O.>.m m 1 , { L H r H r > *.B ( H ( H 0 ",
"* 8 6 0 g g g = r 8 L 0 0 m < : w 7 8 6 8 4 * 5 0 0 0 g 0 , : h 0 0 0 0 z = 0 0 g z 0 0 , ; h 0 8 5 8 5 * s 8 8 8 s 0 5 ",
"# : ; ; : : , @ , > 5 , , 1 % # - * ; - > = @ : : : : , , $ # < : = = % = . : , , < : < % $ 1 , ; - ; - o , ; , , , , = ",
"5 O.g 0 0 g m , H s O.h g L 1 : ' r K r r 8 : 0 z z g m z 1 < L z 0 6 1 8 = L q.z L z L 6 4 O.z r s r s > *.B ( H ( z 8 ",
"0 @.z L L 0 0 = g g m 0 z L < 8 E r E r H s , H r r r H B 4 , H g L m 5 8 ; L z r s f s 4 4 s r z g L z : >.h z B H r 8 ",
"8 O.g m L 0 0 = O.L >.z O.O.4 0 H s H s B s , B H H r E H 4 4 ( 0 m m 5 0 ; L z E r ( H 6 8 H E h g z g : O.g z H ( z 0 ",
"6 { g m L g 0 = L m O.g L L < 8 H s H s r 8 , r r r s r r , , H 0 m L 0 g : L z r s H r 5 8 H H g 0 z g ; O.g z r f g 6 ",
"0 >.m O.>.L m , h g { g L { < 8 ` r ( H ( r , H r B r H H 4 3 ( m O.>.m { , L z r s H f 5 8 H ( L z L z : >.z L B E z 0 ",
"5 L g L { z h : 0 0 m 0 L { < 8 E s H r r 8 , r B f r H H 4 3 ( z L { h z = 0 0 r s H B 5 8 E ( z g z 0 ; { g z H E z 0 ",
"; 5 < 5 5 1 < # : : 4 , 5 5 * : 6 , 5 3 4 , $ , 4 4 , 4 4 * * 5 4 4 5 < 1 O : : 4 , 5 4 - > 5 6 4 < 1 , # 6 < 5 4 5 4 : ",
"; 5 < 5 5 1 < # , , 5 < 5 5 % = 8 4 8 4 5 , & 4 3 3 , 4 4 * & 5 4 4 4 < 4 @ , < 4 , 5 4 * - 4 4 5 1 4 , # 8 4 5 4 4 < ; ",
"0 >.L O.>.L z : O.O.q.{ 7.>.4 8 4.( 4.( %.r 4 ( %.*.( *.*.8 6 4.O.L { L O.: L >.%.H *.( 8 8 ( ( >.{ O.z , q.{ >.*.4.O.g ",
"3 E B H B r s * k k | e L | 3 0 ( r H r %.H 3 r g z m | z , , L s r r s r - s r H s H r 4 6 H H H H %.r ; H s H r H z 8 ",
", B s r r e 8 * g g L 0 C L < 8 B 8 r e r e , r g z z m g : : L e e r e r * e s r s r s 4 5 r H r s r e - B 8 r r H g 6 ",
"4 %.H E ( H H > L L >.z >.>.5 e %.B %.B H s 3 %.{ @.O.O.z < < >.E E ( H %.> H ( ( B ( H 8 8 ( %.( r H r , 3.B H s r 0 4 ",
", H r r B r r ; g e C 0 k z , 5 B s H e 8 5 > E h z g g 8 ; : m r r B r H - r B r 8 r e , 4 r r r 8 8 8 - ( s s ( ( z 5 ",
"4 %.B H E H E , z z | e C L < 6 ( B ( r s 8 , ( z L z z 0 : , O.B B E B E > r H B s H r 4 5 B H H s s 8 > ;.r r 8 8 4 = ",
"$ , > > > > > + > : < ; , , # & , ; > - - * + > ; : : : ; @ # < ; ; > ; > X - > , - , > $ & , , > - - * X , - - 4 4 : % ",
"8 4.E E E H E , >.O.e.C >.>.5 0 3.B ( B E r , r z { O.>.L 4 5 q.E E ( H %.> H ( ` H ` E 8 8 %.*.E H ( r > ( r H E ( z 8 ",
"5 %.r r r r r ; C z | e C C , 5 ( s r s H s > 8 8 g h L h < < O.B B H r E ; r H r s r s 4 5 r H r r H s * r 8 r s r g 6 ",
"e C | z L | e < H B %.r ( H > , ` r H r E s > 8 O.0 m g >.: 4 O.L z m z O., L O.z O.m L 4 < @.O.g L g g ; 0 e 0 8 H H 4 ",
"8 k z g k C 8 : r s H 8 B r ; , ` r E r E r , s m g { g >., 5 L z z z g L ; 0 0 g L h z < ; g 0 C >.C L > k L z B ( z 5 ",
"e L | C L O.e < ( H *.r *.*.4 8 E s H r E r , r L L { 5 z < 8 { O.O.O.L O.; 0 8 L >.@.7.8 4 @.L z | k z : k C z r e 8 6 ",
"8 g z e k C 8 : H r E s ( ( 4 8 ` r ( B ( B 3 E z h 0 * < = 5 z z z m h z * 4 < 8 z m O.8 4 >.{ C O.k C , L | C 6 , : < ",
"> 3 4 < 3 5 > $ 5 4 5 , 6 8 * > 4 , 4 , 4 , & 4 5 5 5 % : % : 5 < 1 4 1 5 @ ; = = < < 5 = % 5 4 5 6 < 4 % 5 6 4 8 , - ; ",
"3 8 0 6 8 0 3 = 5 4 8 , 8 8 * > 4 , 5 , 3 > $ 4 5 8 z 5 z : , 5 5 5 8 5 0 $ 1 < 4 8 8 0 ; * 8 5 4 5 , < $ 4 5 < 8 6 , ; ",
"h | O.L E %.g < s s H s ( ( , 4 r.*.y.%.%.B 5 4.h g >.L t.1 5 z L L L z O.: h z { >.O.@.5 < O.L >.e.z L < >.O.z 8 r s 4 ",
"0 C L z B E 0 , s s H s ( E , , B s H 8 8 4 ; r O.g z 0 O.: 4 >.L z z g L ; g g 0 m g z < : L m z C 6 0 ; g e 5 s *.O.8 ",
"8 0 0 0 g L 0 , ( s O.L { { : = E r H s r 8 , r L L z L m 4 < O.m L m 0 z : z z m O.m z < ; L L m z O.z : L 0 h 8 e 0 5 ",
"0 m O.L O.@.g < H 8 L z z z ; = ( r L r r e , B z z h m z < , m L { O.z O.< { m g L g g : ; z h z h L g ; L 0 h H ( L 0 ",
": 8 z z z z 8 : ( s O.m L A < ; ( r E r B e , H m L m O.L 4 , z 0 g h 0 m : h 0 z O.z z < : L z z z L g ; L h L 8 s 0 4 ",
": 8 m z z L g 4 ( s O.m m L < < z 8 r 8 e 8 ; s z z z L L < : 0 z m L g { < O.L m O.z m 4 , L m g 0 g 0 = m g { s r g 8 ",
"@ * ; = * = % @ , * , ; ; : # # - * - & * $ X * ; ; ; : : @ o * ; ; = $ = o , , ; : ; : # @ , ; = * = %   : = , ; , : = ",
"0 L L 0 8 8 1 = *.B 4.{ L @.9 0 3.H %.H ( r 4 ( O.>.O.7.>.6 4 { z h 0 < 5 = z L O.>.L O.0 5 7.{ { L O.m , 7.O.q.H ( z 8 ",
"z O.O.z g g 4 * B 8 L g 0 h 2 5 H s B e r 8 > r z z h L z 1 , m L z 0 5 0 = z L g z 0 z 5 < L g g g z g ; L g L H E z 8 ",
"8 h z h z z 4 % %.r >.L z { 9 0 E s H s r 8 , r O.{ m { L 5 4 @.z z g 5 0 = h h L O.z O.0 5 >.L z z O.L , >.z L r H z 0 ",
"5 O.z z C z z : O.g m g O.m < 0 H s B g z 0 < m z z k C C 3 < L z z z h O., m z k k | z 5 8 L z r E s r > B H r k L z 8 ",
"6 >.C C L C C : L g L z O.L < 0 ( r E k C 0 < ] C C z | | 5 3 O.z z m z O.: z z z z O.z 5 0 | C B ( r B , H E r z L m 0 ",
"5 O.k k C z k ; 0 8 z g { m , 6 E r B e g 0 : g m m k L C 4 < | h h h g z = 0 0 g g L g 3 6 C k r L e g : z B g g z h 8 ",
"< k 6 8 0 0 8 % < 1 0 8 h g ; < r 8 e 6 6 1 = 6 0 0 0 e e , : k 0 8 8 8 0 $ 1 5 0 0 g 8 > 3 g 0 0 e 5 6 * 8 0 8 8 0 8 1 "
};
