/* XPM */
static char *_3ce86c019fd4cc4a9166050caf16cb3F05d3DikjPSLUXHa[] = {
/* columns rows colors chars-per-pixel */
"60 60 122 2 ",
"   c #2B313F",
".  c #2E3442",
"X  c #313643",
"o  c #343A46",
"O  c #363C49",
"+  c #393E4B",
"@  c #3C424E",
"#  c #3E4451",
"$  c #40424F",
"%  c #414653",
"&  c #444956",
"*  c #464C59",
"=  c #494E5B",
"-  c #4C515E",
";  c #4E5461",
":  c #555764",
">  c #545766",
",  c #515663",
"<  c #525864",
"1  c #535965",
"2  c #525866",
"3  c #535967",
"4  c #545864",
"5  c #555965",
"6  c #565865",
"7  c #555867",
"8  c #575966",
"9  c #545A66",
"0  c #555B67",
"q  c #565A66",
"w  c #575B67",
"e  c #535866",
"r  c #565968",
"t  c #545A68",
"y  c #555B69",
"u  c #575A69",
"i  c #565C68",
"p  c #575D69",
"a  c #565C6A",
"s  c #575D6B",
"d  c #565A69",
"f  c #595B68",
"g  c #585B6A",
"h  c #585C68",
"j  c #595D69",
"k  c #5A5C69",
"l  c #595C6B",
"z  c #585E6A",
"x  c #595F6B",
"c  c #5A5E6A",
"v  c #5B5F6B",
"b  c #5C5E6B",
"n  c #5A5D6C",
"m  c #585E6C",
"M  c #595F6D",
"N  c #5B5E6D",
"B  c #5C5F6E",
"V  c #5A5D6B",
"C  c #5A606C",
"Z  c #5B616D",
"A  c #5A606E",
"S  c #5B616F",
"D  c #5C606C",
"F  c #5D616D",
"G  c #5D606F",
"H  c #5F616E",
"J  c #5C626E",
"K  c #5D636F",
"L  c #5E626E",
"P  c #5F636F",
"I  c #5C616F",
"U  c #5D6371",
"Y  c #5F6271",
"T  c #5E6470",
"R  c #5F6571",
"E  c #5F6573",
"W  c #5E6371",
"Q  c #606372",
"!  c #606470",
"~  c #616571",
"^  c #616473",
"/  c #636572",
"(  c #606672",
")  c #626672",
"_  c #606674",
"`  c #616775",
"'  c #636675",
"]  c #656774",
"[  c #616473",
"{  c #636975",
"}  c #626876",
"|  c #636977",
" . c #646874",
".. c #646A76",
"X. c #676B77",
"o. c #646877",
"O. c #646A78",
"+. c #656B79",
"@. c #676A79",
"#. c #666C78",
"$. c #676D79",
"%. c #656A78",
"&. c #686E7A",
"*. c #696F7D",
"=. c #6A707C",
"-. c #6B717D",
";. c #6B717F",
":. c #6C727E",
">. c #6B717F",
",. c #6E7482",
"<. c #6F7583",
"1. c #6F7583",
"2. c #717581",
"3. c #727481",
"4. c #737783",
"5. c #707684",
"6. c #727886",
"7. c #737987",
"8. c #747A86",
"9. c #747A88",
"0. c #767C8A",
"q. c #777D8B",
/* pixels */
"+ @ % @ @ , 1 X @ @ # * - * + @ @ * 2., % % @ = % + % # 9 + + % + + @ p - X % @ # = = % @ % % # 8.- % & @ # @ @ + % 9 + ",
"z 9 1 ; 1 ( T * * * * - 9 , - - o = z - + % + X & @ = - -.z 9 - T - = $.| * * & ; ; > g , % % * m = @ O @ & @ & - , ..P ",
"# * - * * * = = 9 - # @ # % * , P z % = @ * , P * * ; & ; % * % - - * # & 1 9 % * % + # = y y ; # = * # - 1 * - * % = * ",
"@ * - & @ + + # % % # # & # + @ - - = ( P ; * - @ % = @ @ o % = = # # + O @ % = + & * @ + * , y - 9 9 - ; , # @ - & % @ ",
"= = # + % * & @ @ % % * - - * - , z z @ % * % $ @ @ % % * $ = , @ + % & % @ @ = % % = , , * ; U p * * % @ % % # @ % # % ",
"- * @ o O % & # * & @ O @ * - z z P P @ % % @ % % @ % # + + * , o # @ O # * & # % + + & > B U Q , O @ # O # & & # * @ # ",
"Z 1 9 ; # + # % + @ @ + @ @ @ # 9 z = % * + @ * @ @ # @ o % 4 z 9 - O % * o + % + & * + + & > B ; % * & % @ o O @ % . @ ",
"= @ * 1 * @ % # @ & # @ # # @ # * ( @ % % % % o # @ @ @ @ , , @ % p % # & @ * @ % # % & % + * m # % @ O % % O * @ $ + z ",
"@ # % * = + * # @ & # % + = % X % 3 O # & + # % @ @ @ + - = * @ % = * + # & @ = # @ @ @ * O * , o @ & + & + @ @ # # ; ; ",
"% % # & = @ & @ & % * p % O @ , p 5.* & # # = X * & - , z & @ % @ % - * @ # % * - 1 ; # & & _ ,., X + # % # = @ & = 1 # ",
"# @ @ & , = , = 1 - * 1 p ..T z , _ | p + + # y 1 - - * - O + & * @ - ; - 9 9 - + ; m U _ 1 p y T p & X & ; 1 ; - ; 1 + ",
"@ + @ @ = * - * # ; - % O ; - + * , # p ; * y - % % & # ; * # O O @ ; - # & - 1 p - @ & ; & - 1 % z 1 & , - @ # # @ = % ",
"- - ; * * @ # @ # - , , + @ # * = + % # = ,.- + @ @ @ # 9 9 , * & * = @ @ + O * 1 * o # = % # # # + ; ..; @ + @ % & p 3 ",
"; ; p * * # # # @ + @ - % % % * # * @ & & ; * # * @ # % ; * - p Z - @ X = - + # * , # # # * & # * @ * 9 * @ # * # & ; # ",
"@ @ - @ @ @ @ # @ & * - @ @ # * - O # # & y X * # @ * = ; @ + % - & # @ @ # @ * @ ; & % # - = # o % * - % * @ + * * ; O ",
"% % ; # # # @ @ % @ # - @ @ # = * - = # * Z @ % % & & @ & @ % % ; @ % % + # % @ * ; + # @ = - - - @ = Z o @ - # * @ & @ ",
"@ % - * % * @ + # # # * ; & @ & & * % * & P , o + % @ % @ % @ % - & % % @ @ % % @ * - @ @ * # % = % = P 9 @ + @ % % % % ",
"@ * ; * @ @ @ * + O O * p ; # @ @ @ & & . Z ..+ = = % * * * @ + , % + @ $ % $ o X - T - # @ + @ % $ o P z + - = + + @ % ",
"% % - , , - $ @ @ - y 1 = # # ; # * o O = - # = = , z - & @ * - = ; 9 , @ o % - z 9 * o # - & @ % o * - * * & z P 9 = * ",
"9 * % * - ; * = 1 1 ; - ; = & & 1 # + = - # O # , - - % * & - = * * = - = - 9 9 - - - * * - & * + = * * + @ , - * % @ @ ",
"- $ % $ @ @ @ = = & # % 1 y * + & 1 1 & % * & @ ; * * + @ % = @ * @ + @ * - = % O % , 1 - & % p = - % @ + * ; % @ @ @ $ ",
"% + $ % * % + @ O # # % % # & ; O $...@ % & # = @ + * % @ & - @ @ % = % o o @ @ * @ @ @ * * = T ..$ * + % , + @ % @ @ % ",
"9 * @ + @ * * = * & + + # # % ; * - T , @ O = % % O O * = P z @ $ + @ $ * - - * @ @ % # % & & 1 ( - + * = @ % + + % ; P ",
", - ; * # % = 9 - & # # * # # = # & - * , & @ # % $ & ; * z z = , % + $ = 9 , @ @ # % @ % = # # - $ , * @ * @ = * = - , ",
"= # * , O * ; * % = - + @ + @ @ O p & @ ; y 1 ; *   ; , O - ; + - - @ - 1 # # = = + X O % @ + , % # = y y - % O - - X - ",
"- @ & z 1 ; * @ # % = - 9 * * - 1 ; & * ; & # ; , * _ * @ * - @ * Z 9 = & % & & - ; 9 - * = - P @ - ; % # , p = Z - @ # ",
"* @ @ - 1 @ O # & % = - Z - = = * ; O.1 & # + = , p -.# & * - % @ - ; + + * % O * = z , & & = 1 | , & @ # = , ; -.- = @ ",
"= % @ @ ; O o = @ # # O * * % + X - 0.; O & % & # = U # # # * % @ # = @ @ * @ @ % o & = @ + @ * 0.- O & = # # * C % @ O ",
"- * % @ z - & # % # @ o * * * # * # | * + & # * # % , - # % * * * & 9 ; & # @ = & O & = % % % * E = # # % # & & 1 - O % ",
"@ % # + * - * O * @ @ % , & % * = # O.- % % # & * % * ; # # % & # @ = - % @ @ # @ % - & + % & & O., % # # & & # - , @ * ",
"@ % * # O - , + # + # * , @ + @ O * 7.; % # # # @ @ @ % ; # @ # & + @ - - # # + @ = , % @ # @ # 9., # # % # # # + % * @ ",
"1 - , p - -.$.# & = , - z ; - - O & | % # O # @ # = = * 7.m ; 1 z - , :.T % = - - , 1 - - * @ * U = # + O + % * = , 2.z ",
"* @ 9 * # & = * ; - % @ @ @ - , .., & = % = * P = - = * & % % % p * @ % * - ; - # @ # % = z b , * - % * * p ; * ; * & * ",
"# * * # & @ # @ & & @ % * # # + * = , z z 9 = = # @ # % % @ # % * # # # @ @ % * + % * % + @ = > * 1 , 9 - - % @ # % # # ",
"% 1 @ # * # % & * & @ * = * - - z P 9 % % & * % @ # & * % @ * 1 @ # & & # @ & - @ % * - - - 9 P , ; * & + @ @ & % * * # ",
"* ; + @ O + + % # % + @ # % , p z ( 9 + @ + % @ + % & @ X O = z # @ + @ % % # % # + + * 9 z b ( - % + @ @ @ @ @ # # @ O ",
"P , , , @ * # * @ # + @ @ @ % % - D , % = @ % @ + % % O o % - ; ; - @ + & & @ + @ @ @ @ % % - ' - % @ # % # @ @ @ O o + ",
"- + - ; @ % + @ * % + # & # # O = z % + * + % $ # # @ @ * 1 ; % - , * # & & # * O % % % % + % b & # % @ @ o # * @ @ % , ",
"% + & = - % % & % % @ # % @ % @ @ 9 + @ * & % @ @ + O % - - % O + = & + @ @ @ = + % @ @ & % & g X O & % * + @ + @ % = , ",
"# & O @ , O @ # # - ; 1 = @ & * P 2.* @ % % @ + * % * ; - & @ & @ - * @ & # # - - 9 * + % * 9 2.= % % O % @ * % * ; ; * ",
"# % * @ ; 1 ; 1 P = * ; z P ( P ; U Z _ + X , > , - - = ; # @ # % @ - p , ; 9 ; # ; Z m _ 1 Z m Q z & X * g , ; - - , @ ",
"# + @ o = = % * % , , % + - - @ ; = * B , = , - % @ # @ - # @ @ O % * * * * * - ; * # * ; & * ; ; > , ; = = + # @ # - @ ",
"; * - % - # + % @ - , , + % % % % % # & ; O., # # @ % & p ; ; ; % , * + # # @ * y - O # * & % * + % = Q ; * + % # * z 1 ",
", ; z - * @ + & % @ @ h % @ + ; # % % + % _ * + # # & * 1 - - - 1 , % + % & @ @ & ; @ # # * % @ % % % B % % # % # # - % ",
"@ % , # @ @ # @ @ & % - + % $ = - # & % % , + % # % * # * @ @ # 1 @ O @ # % & # # ; # # # - * % * & + y + # & # - * - @ ",
"@ @ = @ @ % & O @ * = ; @ * * = - & = * * m % # # % * # * @ # % ; + @ * @ + % % * - # # & * = ; % & % m % + * % % @ * @ ",
"* % ; & % % * + @ o + - = & % * # * = # @ ' 9 + @ @ % + % @ # % , * # % @ + @ @ @ * & # % + % & * * * Q ; + % @ % @ * @ ",
"@ + , * @ o # % * o + - z 4 * + # # # # + B z % * * * + & @ @ + - - + o & & + @ . 1 | ; * + & @ & + O m B % ; ; % + & @ ",
"* - ; * ; y % X . = E ; @ # & ; * O % + = ; * & & g g y = % = * = , z , % O + * T ; % @ * - # @ # X = = * = % > h ; = * ",
", % % * - = * m T ; - ; y ; # # - % + * = % + # , , & + % % , & % * = * & , m y = ; 1 * * ; * = + * , % o % ; , * % $ % ",
"; % % % % % @ * - # # % ; p ; & & P = = # % * # = * % + % % = # = % % & % * = & # % - ; - % & Z ; = % % % & = % % $ @ @ ",
"# O # @ # * # O + @ & @ + & * ; @ O.( = + % * * + + # % % * * O @ + # % + % & O & + # * - & & U ..* O # = = & + + + @ % ",
"y # # % # # & ; ; # # & % # # ; % , Q * * + + * * + O * & ( > % + # % # % , , + # & & @ % ; = ; _ = * + + = % # % * , ( ",
"m - ; & O # = , - # # @ # * % * + & > # , ; # * & + % ; % Q y = > & + & , ; * * @ # % @ # & # * , % > * % = + % % % * , ",
"% # ; - % - ; * # * ; # O & # + # ; * + , y = = + + , = + * = # ; * + * , * # , * @ # & & @ + 1 * + = , , , % # 9 = % % ",
"1 O & Z p - # @ # % ; ; = * * ; , m + * = % % y B * U * % % , # # ' Q & & & + # y = * & = - - T + = = % % > m % z - % @ ",
"* # # & ; O @ # # # * - ( , * * % ; ,.; # # # * ; y *.- # & - # # & , O # # # % * = T 9 * * * 1 5.1 # # % * - ; ,.= % # ",
"* # # % , # # # # # # @ - = % # # = *.- # # # & % * U * @ # = # # % , # % # # % + O - & + @ @ * *.; # # # % * * T & # @ ",
"= % # # ; = % # # % % o = * % @ @ & O.= # % # & # # 1 * # # * * # % ; * * # # % # + - * # * % * O.- # # % # % % 1 * # @ ",
"* & % # = ; & # # & % @ , = % @ # & O.= # & # & % # , ; # # * = % # = - * # # % & @ - * # * # & O.- # % % % # # ; - % # "
};
