/* XPM */
static char *b0ac6d6b04c24593a2614f601935400fGfiHdpJuNET1kJfL[] = {
/* columns rows colors chars-per-pixel */
"60 60 154 2 ",
"   c #281F16",
".  c #2E251C",
"X  c #2F281E",
"o  c #30271E",
"O  c #31281F",
"+  c #352C23",
"@  c #382F26",
"#  c #382F28",
"$  c #353126",
"%  c #393027",
"&  c #373329",
"*  c #3D342B",
"=  c #3F382E",
"-  c #40372E",
";  c #41382F",
":  c #443C33",
">  c #483F36",
",  c #464036",
"<  c #494037",
"1  c #4D443B",
"2  c #4F483E",
"3  c #50463D",
"4  c #51483F",
"5  c #554C43",
"6  c #584F46",
"7  c #584F48",
"8  c #575046",
"9  c #595047",
"0  c #5D544B",
"q  c #5F584E",
"w  c #60574E",
"e  c #61584F",
"r  c #605750",
"t  c #645B52",
"y  c #685F56",
"u  c #685F58",
"i  c #6A6057",
"p  c #6D645A",
"a  c #6E685E",
"s  c #70675E",
"d  c #71685F",
"f  c #756B62",
"g  c #786E66",
"h  c #777166",
"j  c #7A7067",
"k  c #7D736A",
"l  c #80766D",
"z  c #81786F",
"x  c #857B72",
"c  c #897F76",
"v  c #878076",
"b  c #898077",
"n  c #8D837A",
"m  c #91877E",
"M  c #92887F",
"N  c #958C82",
"B  c #998E85",
"V  c #998E88",
"C  c #9A9087",
"Z  c #9D938A",
"A  c #A1968D",
"S  c #A2988F",
"D  c #A39790",
"F  c #A39A91",
"G  c #A39990",
"H  c #A59890",
"J  c #A49A91",
"K  c #A59B91",
"L  c #A49A90",
"P  c #A79A91",
"I  c #A49B92",
"U  c #A59B92",
"Y  c #A59D92",
"T  c #A59C93",
"R  c #A69C92",
"E  c #A69C93",
"W  c #A79D93",
"Q  c #A79D94",
"!  c #A69D94",
"~  c #A59B92",
"^  c #A89B92",
"/  c #A99C93",
"(  c #AA9D94",
")  c #AA9D95",
"_  c #A89E95",
"`  c #A99F95",
"'  c #A89E94",
"]  c #AB9E95",
"[  c #A99F96",
"{  c #AB9E96",
"}  c #AC9F96",
"|  c #A99E94",
" . c #A8A095",
".. c #A9A097",
"X. c #AAA097",
"o. c #ABA197",
"O. c #ADA097",
"+. c #ABA097",
"@. c #ADA098",
"#. c #ACA299",
"$. c #ACA298",
"%. c #AFA299",
"&. c #ADA39A",
"*. c #ADA49B",
"=. c #AEA49A",
"-. c #AEA49B",
";. c #AEA59C",
":. c #AFA59C",
">. c #ADA399",
",. c #B0A297",
"<. c #B0A39A",
"1. c #B1A39A",
"2. c #B0A39B",
"3. c #B1A49B",
"4. c #B1A49C",
"5. c #B2A59C",
"6. c #B0A69C",
"7. c #B3A69D",
"8. c #B3A69E",
"9. c #B4A79E",
"0. c #B2A59C",
"q. c #B8A79F",
"w. c #B2A89F",
"e. c #B3A99F",
"r. c #B5A89F",
"t. c #B4A89F",
"y. c #B6A7A0",
"u. c #B3A9A0",
"i. c #B6A9A1",
"p. c #B4AAA1",
"a. c #B7AAA1",
"s. c #B5ABA2",
"d. c #B7AAA2",
"f. c #B6ABA1",
"g. c #B8ABA2",
"h. c #B8ABA3",
"j. c #B9ACA4",
"k. c #BAADA5",
"l. c #B8AEA5",
"z. c #B9ADA4",
"x. c #BBB0A7",
"c. c #BEB1A8",
"v. c #BFB2A9",
"b. c #BDB2A9",
"n. c #C2B5AC",
"m. c #C3B8AF",
"M. c #C7B9B0",
"N. c #C8BAB1",
"B. c #CBBDB4",
"V. c #CBBEB5",
"C. c #CABDB4",
"Z. c #CDC0B7",
"A. c #CEC1B8",
"S. c #D4C7BE",
/* pixels */
"N Z Z n 0 b S Z A B A Z B C C B B B A C Z Z j s v./ / A _ ^ } O...J Q J C J k 5 h.v.S S T G _ S S T _ T J J J T _ A Z Z ",
"B Z Z b s C Z Z A A C C Z B M C N Z C N B Z x 6 w.=.Z A A S Z Z G Z J ..C S g p V._ J ..T C B S N B T C Z B T A Z Z Z Z ",
"N A G f d A B N B B N B C Z Z S S Z N C N b t X 6 c N Z N C Z G Z Z T S C Q r k N.J _ T Z N A B C Z J A _ $.=.G Z Z Z Z ",
"Z N b e j T Z Z A Z C Z C M b f a y t 0 6 0 5 5 = < 3 6 r e i j w s l k z c : j V.A T J Z Z G Z Z A Z Z S A M N A Z Z Z ",
"b x a * < i f g g a 6 2 < = % + > k G $._ .._ 4.A J :.A Z m b x g g p y 9 : % f 2._ $.:.Z N Z B Z Z Z Z Z N N Z B m M C ",
"e 5 < : 4 5 w y p s i f g f r @ f w.j.2.2.4.a.3.a.$.a.a.4.h.h.j.a.j.a.G J a + q k m T b f c k x z l k k g j j f s y y p ",
"x n C ..=...=.$.$.J C A A J N 2 a $.4._ 3.9.4.J 2.4.r.4./ $.O.S $.$._ u._ p 0 2 4 9 5 < : 7 5 5 3 4 2 4 < = % < y g c m ",
"Q T Z G Z C C N Z Z B A B N Z k * b _ A A S J T T S Z A A Z A C J A A A N 0 0 g k x x n n n c c N n N N n : 2 C _ $.$._ ",
"B Z Z T Z Z C C A Z Z Z B B B c y 6 N :.Z Z Z Z Z B J G A _ A Z N c f g q * j J G A J G S S Z Z A Z C Z Z 2 c ..Z C B B ",
"N Z Z G C S Z Z B S A C C N B Z C r p N Z N c x k f j k j f t r w 0 0 0 5 + i G Z B N Z B B G B B Z N C k = c S C Z C C ",
"Z S C Z M Z C B J T N n C Z C N c 2 % - : y j f l c M Z J T A Z Z _ T Q o.y i G B A N Z A A B B Z N B N b 6 k N C Z Z Z ",
"B Z Z Z M N B Z C C N N m x f t t a i ; p x.v.j.v.n.j.$._ ^ _ _ O.T T Z o.k 0 C Z N C Z n B Z Z N C N M Z t j $.C Z Z C ",
"N N N B C Z Z C N c g a i i g c Z ..T 0 z z.J C S ^ A ^ _ J O.9...T _ ..J l - = 4 2 0 0 < t b N C Z Z N n r 0 C B C C B ",
"C Z J S A N l y e f k x N B C G C N A f n T ..J _ _ S J T T ..O...Z S A Z A 0 r z x j t * @ 2 6 e f s r < @ f J n N Z Z ",
"C m x a t t a f b Z S C C C Z C Z Z Z g S T J T T ...._ T / J Z Z G C Z B Z a c m.v.v.x.Z N _ Z n l s 2 = @ x z._ $.$...",
"0 0 r f x N C Z Z N B Z N N Z Z C B N i C ....S J Z A A Z C A J Z D Z _ J :.s f k.2.$.2.a.h.9.r.a.w.=.u.Z 0 f 4.J Z b j ",
"g x N Z C N N Z Z Z Z Z N B A B C N t @ A j.A A Z B A A _ $.o.J _ N n c g r : r h.4.9.9.O.} a.O.O.3.O.3.h.x 2 i 9 5 0 e ",
"N B Z N A Z Z C N C Z C Z C N S A N 4 = t 4.v.m...Z M j f p 1 : t p e : 9 9 > < _ $.J $.J O.3.3.w.4.c B J c = 2 g c N C ",
"G _ G Q G Z Z G S C N B Z Z m b v q < w + : r 4 0 0 e i f 9 + h l.S ..A S A N 9 k Z B C B Z C G Z Z N S B i 5 n C C C Z ",
"s j x b 0 r l f i p w e 0 6 0 3 1 2 6 s l c m y b w.z.z.l.:.a r 4.S C C Z C Z k 6 c G Q ..Q Z n n N Z x y - = 2 5 0 i p ",
"0 0 0 w 6 - + * k M m N C B S T } 9.a.h.k.j.v.9.r.9.2.4._ a.A 5 C Z C Z B Z Z f + 3 g k j g s 1 r 6 i f f k c b 6 w g y ",
"C S C Z J f % N v.a.z.z.z.j.z.x.h.4.9.3.} 3.2.9./ 3.4.^ y.4.$.9 f N N j g f p 0 0 i j g g a y 0 # 1 n Z Z Q T S N N J C ",
"Z Z A J C n w j.A B 2.a.2.r.$._ j.M _ a.J $.h.} S a.} m a.a.T t : 0 6 < r j m J Z Z T G Q A N T i 0 J S C C C C Z C Z Z ",
"n N C Z Z b i a.4.$.r.4.O.4.9.4.=.B A J Z A Z Z T A J Z A G A j % 3 k C A G Z C Z b C C C Z Z G k : m Z C Z Z C N A N A ",
"N N C N N i f x.2.h.4.a.4._ ..S Z S C Z C C G B C C C Z C Z Z n 3 m $.C Z N n Z Z Z Z A B C Z A k 5 C Z Z B B N C B N B ",
"N C N Z G t 0 n J 4.A Z A _ G C B Z C B A C N Z Z A J Z Z B n y * z S C Z Z Z C Z N A B C A B B k 2 Q Z A Z N S C Z Z B ",
"C C N c f > : ; x ..a.w...J N N Z A Z Z C J T ..J S C B m s < 0 e 3 Z T T A N S J Z B C Z C C B x * 0 h b Z Z N Z N N C ",
"r 0 0 5 k k t 4 2 3 5 y f i r k c N C C N c g r 5 6 6 5 ; + . 5 0 O y c l j n x k k j j i e 0 5 : O X X + : : 0 j k k j ",
"q % B J v.N.M.z.G b p < = % % = : < 4 3 % * : > 1 6 4 < w y a 0 i p f f g f 1 5 2 : @ . 2 i 3 x c n l f c c k p 5 0 e e ",
"b < 4.A Z J =.=.....j.$.A b x k k x d + 5 Z G C J T A M J _ J $...o.J Q S T N C Z b b 5 s v.Z O.k.j.j.c.j.a.v.r.A Z G 4.",
"e > =.c.J / T ..T J _ S _ o.=.Q ..w.C % Z x.C Z Z N Z G Z S N B Z Z C C Z B S Z Z A J i t j.2.O.} / 4._ 4.4.B 4.O.4.r.$.",
"m 1 l m.S a.3.S T T T T _ T T T S J l @ l =.N B Z A n Z ..Z Z Z A Z Z B Z Z C Z C Z Z d 6 u.h.q.4.a.4.B 3.4.4.w.2.2.O.^ ",
"C < n j.C 4.T Z ..J S S G V E A C C f + f x.C A T A B Z Z N B C C B n b J N C B B B C d g n.} } 9.O..._ _ _ } S C C Z Z ",
"N 1 N m.A B Z A B Z Z C B Z Z V Z Z C * f ..C A J B Z C C C N B B Z m Z C N N N N N C y i v.r.2.w.Z Z C C Z M C Z Z Z B ",
"f ; t A T A Z ..Z Z T G Z C G G C N f % 0 x.J Z m C m N N N B A J A Z C G G S C C N n < < N S Z C A Z Z Z Z Z A C c c n ",
"o t 6 2 k Z b S j.$...G x 0 e r w w 9 1 - k N J } Z G =.T G n k n m n k x N N m k j 0 O % = : : 0 f k l j j k f t < = = ",
"t a r : = 1 > * 1 > : > 5 4 0 a J =.w.w.n 5 6 x j.$.A x k i 9 2 w r ; + % = : 2 5 0 k m B n j < < : = * , 0 5 5 0 1 5 w ",
"A S C Z d x x k s t 6 = Z n.j.v.a.4.2.4.3.S b 0 f w 0 t s r b N Z Q 6 < k m m N C =.w.4.4.v.A n $.Z 4 . y J J A A N C _ ",
"N Z Z C C M Z Z N Z C 3 A a.O.$.$._ 4._ 4.u.j.N : k A Z Q A Z A Z x 0 M l.v.N A 4.4.2.2.S 2.S 4.a.b - 6 M G C Z C Z S Z ",
"B A B S C n A Z N C x : x 4.O.} A C B ^ O.} $.c p $.Z C N Z Z Z M 9 b v.O.9.2.$.9.r.7.7.,.r.a.4.G 4 : n S Z C Z Z Z Z C ",
"B B B A Z A Z Z Z C Z e n n.4.A Z ..Q 4.Q Z n y 0 z f 0 y p r r : g v.$.9.9.A C Z S J G $.A A A f + i N N C C B B B B N ",
"N C M N N A C N Z J J w y B n j 4 s f 0 w 5 5 3 5 e a j x c d : O n r.4.h./ N A Z N B A B m T n 1 5 N Z x m A N B N N N ",
"N N N C Z Z N N C N Z a + ; 1 w i g f d l N C Z _ Z A J A A A j @ 6 Z a._ Z Z Z Z A A C C A C 0 % z o.Z Z C N C B B B B ",
"C S A Z N C B C B B Z p 5 N Z C S J J Q N Z Z A C Z M N C N m x : 4 a.A A J 4.=.o.Q C b n x 0 + @ q l b c k c N C C C C ",
"0 s j n N N l C C C B i a =.Z B Z Z N N Z C C N N Z M N Z C N B u 5 $.A m x Z b f e 5 < : : : > : @ = * + + - < 2 5 6 0 ",
"j f r @ = < : 0 i g b 0 0 A G N n Z N B B B Z Z Z Z Z Z N m N n j > 5 5 : % @ - 1 0 i k b N Z B n z t % 0 x c m n c l k ",
"G Q c = d j p N l 5 2 1 < 0 6 4 < 5 6 t 5 r r r r 0 0 5 6 9 6 < : + : 0 a c x N 4.4._ _ ..T S Z Z J M 4 f T T Z A A A G ",
"B C C i k $.G A _ G C N B N x k k 0 5 w f N N n b c x i c x j f 0 % e 4.j.G A T Z B Z C N Z C Z M A m < p C Z N B C C C ",
"N N A b t D C N B C Z A B Z S A T C : p _ C S J T Z A T A C Z J C < > N _ B Z C Z C Z Z C Z S Z A A m 3 l A J B Z N M B ",
"C N Z C 0 Z G Z Z N C M N Z Z B N N 2 b ..B N C B Z B N Z C M B m 0 + N _ C Z A B A C A T S B C N N k X 4 i f v x N Z J ",
"d d 6 d 5 0 k a Z A A A T C C S T m 5 y m Z Z A Z A C B Z Z C Z M f + j o.N A Z B C B B C B B C n h , a g p 0 9 1 4 r j ",
"0 d p t 4 r 5 = * : 6 t t i p d f p ; 9 Z Z C C C N B Z C B C N B N 5 > Q A Z Z B B J J J Z Z C n 9 f a.k.h.9.H Z N f @ ",
"} n.j.4.$.r.h.A 0 c b n n b x g a : + j Z C M B B N N N N N B B C Z f % x $.N N C Z Z N Z o.Z c y : Z 2.} ^ 2.2.$.4.T 5 ",
"n B S S 3.B S B p Z o.J Q Z G G I f   i Z Z A C G S J A Z A A C N N c : < f s Z Q Z b a 2 6 2 : $ $ 0 t y y a j k c x 5 ",
"2 6 0 0 y j g y = : f f i y r y 0 3 = 2 r y a s s s f a p f z x k z i & , < * 2 2 5 f c g s t 0 0 q 0 < 5 0 6 8 0 0 r 0 ",
"N g b j = + 6 i g k r g b c n b l k n x i 5 % @ 0 a f a i 6 < 5 2 2 : & 5 a x 5 + l V.m.n.m.M.n.a.} J Z Z ^ J J G Z Z Z ",
"B Z =.G p s $.A S J C Z T S S A S G A J A Z e r M._ n.z.4...n S A Z N m k 9 : : 1 l 4.S S J $.j.k.j.x.j.$.=.4.O.=._ T ..",
"S G J Q g n G M A C A Z Z B n Z Z Z Z Z Z _ p 6 h.J T A T _ J $._ Z _ $.4.T i % A S.A.v.$._ A S ^ A T J T $.^ J J .._ _ ",
"A .._ Z s B A Z Z N S Z Z N b Z Z B B Z N T f r j.2._ J _ _ _ T $._ J J Q o.n 2 B S._ / Z T T ..J N $.J 4.h.S _ N $.T S ",
"N Z Z k 9 N Z C Z Z Z Z A Z C Z A N B S B A g f a.^ _ J _ ....z.$.J ..A Z Q l : b Z.A ^ A S / T T $.9.a.n.} _ T c $.S Z "
};
