/* XPM */
static char *d134d8f5c404442b80fef9d88686c5fazVGYu2EsZXqTTFKC[] = {
/* columns rows colors chars-per-pixel */
"60 60 146 2 ",
"   c #230F0A",
".  c #26130D",
"X  c #2A160E",
"o  c #241610",
"O  c #291710",
"+  c #271915",
"@  c #2D1A13",
"#  c #2C1D19",
"$  c #321D15",
"%  c #391F16",
"&  c #341F18",
"*  c #362116",
"=  c #3A2216",
"-  c #35221A",
";  c #3B251C",
":  c #3D281E",
">  c #372721",
",  c #3C2720",
"<  c #3E2A22",
"1  c #3E2E29",
"2  c #40271B",
"3  c #432B1E",
"4  c #4A2F1E",
"5  c #52331E",
"6  c #432D23",
"7  c #482F24",
"8  c #432F28",
"9  c #463025",
"0  c #4B3225",
"q  c #45322A",
"w  c #4B352B",
"e  c #4E382E",
"r  c #523523",
"t  c #583722",
"y  c #51362A",
"u  c #533A2D",
"i  c #5A3E2E",
"p  c #453530",
"a  c #4B3630",
"s  c #4E3A32",
"d  c #543C32",
"f  c #593E32",
"g  c #523F38",
"h  c #613E2A",
"j  c #57402F",
"k  c #5C402E",
"l  c #574035",
"z  c #5B4234",
"x  c #56413A",
"c  c #5C443A",
"v  c #5F483A",
"b  c #61412D",
"n  c #624535",
"m  c #6E4731",
"M  c #664937",
"N  c #694A36",
"B  c #614639",
"V  c #634A3D",
"C  c #6A4D3C",
"Z  c #724B35",
"A  c #6D503E",
"S  c #72543F",
"D  c #7A523B",
"F  c #644C42",
"G  c #6A4F42",
"H  c #6C5243",
"J  c #675048",
"K  c #6D554A",
"L  c #735644",
"P  c #7A5743",
"I  c #745947",
"U  c #7B5A46",
"Y  c #725649",
"T  c #755A4B",
"R  c #7B5D4C",
"E  c #6F5A50",
"W  c #745C52",
"Q  c #7A5E51",
"!  c #7D604D",
"~  c #7D6252",
"^  c #7D6861",
"/  c #825F4A",
"(  c #84634D",
")  c #85634E",
"_  c #8A644E",
"`  c #816453",
"'  c #876450",
"]  c #836554",
"[  c #806757",
"{  c #836756",
"}  c #866756",
"|  c #886651",
" . c #866856",
".. c #896B56",
"X. c #8C6A56",
"o. c #806659",
"O. c #856A5A",
"+. c #876A5A",
"@. c #876D5D",
"#. c #8A6C59",
"$. c #8C6D58",
"%. c #896D5E",
"&. c #8F6F5C",
"*. c #916B56",
"=. c #906F5A",
"-. c #8D705E",
";. c #8C725F",
":. c #92705D",
">. c #92735D",
",. c #93745F",
"<. c #95785E",
"1. c #896F61",
"2. c #8D7262",
"3. c #8E7263",
"4. c #8A7166",
"5. c #8F7569",
"6. c #937563",
"7. c #977562",
"8. c #957767",
"9. c #987762",
"0. c #967862",
"q. c #957967",
"w. c #9A7A64",
"e. c #9A7866",
"r. c #9E7C67",
"t. c #92776A",
"y. c #967B6A",
"u. c #9B7D6A",
"i. c #9D7D69",
"p. c #A07C67",
"a. c #A17F69",
"s. c #9D806B",
"d. c #9C816D",
"f. c #998075",
"g. c #9C8379",
"h. c #9F867A",
"j. c #A2816B",
"k. c #A0816F",
"l. c #A8856F",
"z. c #A48571",
"x. c #A88773",
"c. c #A58874",
"v. c #AB8A74",
"b. c #A68B7E",
"n. c #B2927D",
"m. c #B99680",
/* pixels */
"} M f d s 8 @ @ < n Z Z / ' 9.0.d.[ l u e w 6 6 Y c.7...S w r 6 ; e < w d q < $ = 6 6 w 0 u B I 3.V I R T O.O.$.k.i.( P ",
"R z f e d q @ . : N U _ *.7.r.e.;.~ l d d s w 7 F 1.[ T B 6 2 w w d < < w 8 7 , % 6 e c d y f f B y f z n T Q ' &.~ [ R ",
"c B i u v e @ X < [ ,.X.:.e.$.7.R z i l c x w ; w I H V l ; 2 w w e 8 < e s a 7 = d F F V l V z u y u u f H ~ I R C z f ",
"e e l v d 8 @ $ d [ o.%.8.8.&.#.R z u u d d w ; 6 V F c c a d d e w 9 7 8 q q 9 7 f T W J F V V c v c l l z V k t y w d ",
"q q d c d < @ @ d G H 4.h.5.#.@.T V w 0 q w 6 $ - u d q < < 6 < 6 9 6 < * & > 6 0 g x x v F c c d d e e w y d y r i d s ",
"q p q q 9 - @ $ < e l c E E H H c B 0 w 7 8 6 = % w e < 8 a 8 , < ; - * @ @ - * 6 6 8 q d x e q 8 < - ; ; * ; < 2 e q 8 ",
"+ # # @ @ @ @ @ $ - - > q e e d l V y w 8 ; < ; - : q e g x g e q < < ; - & $ * - ; < < q q 6 ; * @ $ @ @ O @ @ @ O @ @ ",
"o o + O O @ @ @ X X X + - , q l V F y 7 6 < : ; ; 6 w s s e e q 8 q q < - - & - - - 8 8 < 6 < ; ; $ - $ @ @ $ @ @ X . @ ",
"1 > < - $ & $ $ $ X X @ - > < e l l 0 7 6 6 < - 6 w w g e < 8 < < 9 8 < - * * * ; * : < < < 6 - - * ; ; ; ; > x g < ; > ",
"V u y d ; $ $ $ $ $ @ $ ; - - 6 u z u w 7 7 , $ ; 6 9 w ; & - * * - : 6 ; ; : ; ; * * ; ; ; ; ; 6 : 6 w s c F o.~ H Q K ",
"C y w c w ; @ $ * * = - < < ; 6 w z y 7 w 8 - $ - 6 7 ; % - = $ = ; 9 w 0 e d 9 = = $ 2 e w 0 l J H G T W o.o.~ ~ t.b.t.",
"R B u l s < & - $ ; 7 d c d e f w 0 2 ; 2 6 ; $ - u f f u d 0 2 6 w f d i i B i 3 = = w V L A T ~ ~ Y ~ ;.y.O.A R y.b.O.",
"Y f l c d 9 - $ @ $ 0 i F V B B u 0 2 = ; 6 , * ; w Y Q  .` T H B c V B B B V z w 3 2 d H R U ( ` T H H ` #.~ [ 8.u.~ [ ",
"B f V v l w - $ $ * 0 i H L L H V d u u d q q 8 7 d o.#.} I O.3.[ T I V V V V i 0 z V H L ! | ( R U L n C I ~ %.~ H z z ",
"u y d F F x 8 : ; ; w V L R R R O.~ T J g q w q 9 c ~ [ ..' :.e.6.%.1.K l d e 6 3 z B F R ! ..L R #.~ M k i H C u y 0 0 ",
"0 d V J v g q < < ; e H L I R R 3. .~ ~ J e w 0 6 B T U U | :...[ #.3.E s 9 < ; ; w y z R ~ O.L R O.~ z 3 u B w 0 0 3 2 ",
"w c F K g q < 8 < ; 3 z V I I H ~ ! H H F u e 9 3 H R } ' R R ' &.$.#.T e , > - > d l V O.O.T H H T F u 3 w i 6 ; ; 0 w ",
"6 w F W x 8 < 8 : * = 0 j L L C I H H V V d e 6 3 [ 8.( U L U ` ' ;.u.W q @ # > < d l H R R V z V T B e 3 6 3 ; ; 2 u d ",
"7 7 c B d < ; ; * * = 0 u T ~ H ! R H v V d u 0 7 3.z...v.:.Z U U R R F < @ - * ; u i B T W H i l F d 2 $ $ $ = ; 2 w u ",
"w 7 d l w 8 ; ; ; ; = 0 y T [ [ %.$.[ K K l d w 0 t.n.7.n.e.Z P $.~ I c ; @ @ @ = 0 u V T K F w d g w ; $ $ $ * ; 7 u u ",
"w 7 e y w 6 ; ; - ; 6 u z H R O.t.q.q.%.L v d 0 0 #.c.:.n.j.D Z O.[ G d - X X @ = 0 i F V g d w e w 6 $ $ & - ; 0 w e e ",
"6 7 6 6 7 - - ; - ; 6 9 w i z ~ 3.%.y.:.M z y 0 0 I ( R z.a.( C ! T B d &   X $ = y d u e q q 8 q 8 < $ * ; < q w w w w ",
"; 6 6 7 6 ; ; < - * - - 2 2 3 B [  .6.O.M j y 3 4 i C ..r.:. .P A z w 6 @ . X $ = w e w w w q , ; - ; * - 6 6 7 0 0 0 7 ",
"0 7 d 0 2 * , < ; ; ; ; 6 y u i ! q.t.o.B f 0 = 0 k R n.n.u.[ U I C 4 = @ . O $ 2 9 6 9 0 q 8 * $ $ $ $ $ ; - ; 7 7 w 6 ",
"f d c d 8 * , 8 6 : ; 2 7 i B H ! } [ ~ H z w = u U | p.m.n.[ L U I i 0 O . @ $ 6 0 3 3 6 9 7 ; - ; ; $ - ; ; 6 d B K H ",
"F l g d q ; < q 6 ; ; ; ; 6 w C ` [ H ~ T B y 4 i N N P 9.j.e.R / R L w @ X @ - f R R H B c d w 0 6 6 6 w d z I ~ ! #.3.",
"H f d d w ; < q 6 * * ; ; ; 0 u T ;.L ~ ! A z N b 5 t / :.r.z.;.L o.J q @ O - c 1.&.$.T L R [ R B z y 7 u z T y.q.! ;.q.",
"~ F d l e 6 8 6 : * * ; 3 ; 0 y C } T &.R C C L L b h ( v.a.' H z v g p # + < ^ f.q.6.} U :.y.@.B B d 6 0 G ;.s.i...;.R ",
"3.H d l 8 > e 9 < * $ 2 w 0 3 0 z L ` #.L L R R L U U X.,.( N n B e q p # o > ^ g.y.;.X.( $.e.#.L B d w 6 V #.<.,.:.| R ",
"G 6 2 d 6 8 g e 6 - % 7 d w 2 0 z R 7.;.R O.R U ! e.i.9.$.P ( U z e q q + o < [ e.} :./ | ..y.%.G f u 7 ; w @.v.,.,.( M ",
"r 6 ; e < q d q < & = 6 7 w 0 u n I 3.C Y R T O.O.&.k.i.( P } N f d s 8 @ @ < M Z Z / ( 7.7.d.o.z u e w 8 6 T c.7...S w ",
"2 w w d < < w 8 7 , % 6 e c d y f f B y f z z T Q ' &.~ [ R R z f e d q @ . : N U _ *.7.r.e.;.~ l d d s w 7 F 1.[ T B 6 ",
"2 w w e 8 < e s a 7 ; d F F V l V z u y u u f H ~ I R C z f z B i u v e @ X < [ ,.X.:.e.$.7.R z i g c x w ; w I H V l ; ",
"d d e w 9 7 8 q q 9 7 f T W J F V V c v c l l z V k t y w d e e c v d 8 @ $ d [ o.%.8.8.&.#.R z u u d d w ; 6 V F c c e ",
"6 < 6 9 6 < * & > 6 0 l x x v F c c d d e e w y d y r i d s q q d c d < @ @ d G H 4.h.5.#.@.T V w 0 q w 6 $ - u d q < < ",
"8 , < ; ; * @ @ - - 6 8 8 q d x e q 8 < - ; ; * ; < 2 e q 8 q p q q 9 - @ $ < e l c E E H H c B 0 w 7 8 6 = = w e 8 8 a ",
"g e q < > ; - $ $ * ; ; < < q q 6 ; * @ $ @ @ O @ @ @ O @ @ + # # @ @ @ @ @ $ - - < q e e d l V y w 8 ; 6 ; - : q e g g ",
"e q 8 q q < - - & - ; ; 8 8 < 6 < ; ; $ - $ @ @ $ @ @ X . O o o + O O @ @ @ X X X + - > q l V F y 7 6 < : ; ; 6 w s s e ",
"8 < < 8 8 < - * * * ; * : < < < 6 - - * ; ; ; ; > x g < ; > 1 > < - $ & $ $ $ X X @ - > < e l l 0 7 6 6 < - 6 w w g a < ",
"; * * * : 6 ; ; : ; ; * * ; ; ; ; ; 6 : 8 w s c F o.~ H Q K V u y d ; $ $ $ $ $ @ $ : - - 6 u z u w 7 7 ; $ ; 6 9 w , $ ",
"* $ = ; 9 w 0 e d 9 = = $ 3 e w 0 l J H G T W o.o.~ ~ t.b.t.G y w c w ; @ $ * * = - < < ; 6 w z y 7 w 8 - $ - 6 7 ; % - ",
"0 2 6 0 f d i d B i 3 = = w V L A T ~ ~ Y ~ 3.y.O.A R y.b.O.R B u l s < & - $ ; 7 d c d e f w 0 2 ; 2 6 ; $ - u f f u d ",
"T H B c V B B c V z w 3 2 d H R U ( ` T H H ` #.~ [ 8.u.~ [ I f l c d 9 - $ @ $ 0 i F V B B u 0 2 = ; 6 , * ; w Y Q  .` ",
"O.3.[ T I V V V V d 0 z V H L ! | ( R U L n C I ~ %.~ H f z B f V v l w - $ $ * 0 i H L L H V d u u d q q 8 7 d o.#.} I ",
",.e.6.%.1.K l d e 6 6 z B F R ! ..L R #.` M k i H C u y 0 0 u w d F F x 8 : ; ; w V L R R R O.~ T J g q w q 9 c ~ ' ..' ",
";...[ #.3.E s 9 < - ; w y z R ~ O.L R O.~ z 3 u B w 0 0 3 2 7 d V J v g 9 < < ; e H L I R R 3. .~ ~ J e w 0 6 B T U U ' ",
"R ' &.$.#.T e , - - < d c V O.O.T H H T F u 3 w i 6 ; ; 0 w w c F K g q < 8 < ; 6 z V I I H ~ ! H H F u e 9 3 H R } ' U ",
"U ` ' ;.u.W q @ # ; < d l H R R V z V T B e 3 3 3 ; ; 2 u d 7 w F W x 8 < 8 : * ; 0 j L L C I H H V V d e 6 3 [ 8.( U L ",
"Z U U R R F < @ - * ; u i B T W H i l F d 2 $ $ $ = ; 2 w u 0 7 c B d < ; ; * * = 0 u I ~ H ! R H v V d u 0 7 3.z...v.:.",
"m P $.~ I c ; @ @ @ = 0 u V T K F w u g w ; $ $ $ * ; 7 u u w 7 f l w 8 ; ; ; ; = 0 y T [ [ %.;.[ K K l d w 0 t.n.7.n.p.",
"D Z O.[ G d - X X @ = 0 i F V g d w e w 6 $ $ & - ; 0 w u y w 7 e y w 6 ; ; - ; 6 u z H R O.t.q.q.%.L v d 0 0 #.c.:.n.l.",
"/ C ! T B d &   X $ = y d u e q q 8 q 8 < $ * ; < q w w w w 7 7 6 6 7 - - ; - ; 6 0 e i z ~ 3.%.y.:.M z y 0 0 I ( R z.j.",
" .P A z w 6 @ . X $ = w e w w w 8 , ; - ; * - 6 6 7 w 0 9 6 ; 6 6 7 6 ; ; < - * - - 2 3 3 B [  .6.O.M j y 3 4 i C ..r.:.",
"` U I C 4 = @ . O $ 2 9 6 9 0 q 8 * $ $ $ $ $ ; - ; 7 7 w 6 0 0 d 0 2 * , < ; ; ; ; 6 y u i ! q.t.o.B i 0 = 0 k R n.n.i.",
"! L U I i 0 O . @ $ 6 0 3 3 6 9 7 ; - ; ; $ - ; ; 6 d B K H l d c d 8 * , 8 6 : ; 2 6 i B H ! } [ ~ H z 0 = u U | a.m.m.",
"e.R / R L w @ X @ - f R R H B c d w 0 7 6 6 e d z I ~ R %.;.G l g d q ; < q 8 ; ; ; ; 6 w V ` [ H ~ R B y 4 i N N U <.j.",
"x.;.L o.J q @ O - c 1.&.$.T L R [ R B z y 7 u f Y y.q.! ;.t.Y l d d w ; < q 6 * * ; ; ; 0 u T ;.L ~ ! A z N b 5 t R :.r.",
"' H z v g p # + < ^ f.q.6.} U :.u.#.B B d 6 0 G %.i.i...;.R Q F d l e < q 6 : * * ; 2 ; 0 y C } T &.R C C L L b h ( v.j.",
"N z B e q p # o > ^ g.y.;.X.( $.e.#.L B d w 6 V #.<.,.:.| R ;.H d l 8 > e 9 < * $ 2 w 0 3 0 z L ` #.L L R R L U U X.,.( ",
"( R c e q 8 + o 1 O.r.O.:./ | ..y.%.G f u 7 ; w #.v.,.,.( N H 6 2 d 6 8 g e 8 ; * 0 d w 2 0 z R 8.6.! O.R U ! e.i.7.=.P "
};
