/* XPM */
static char *f5b63d80542d41efc8246bbd5496c157ROOhftxMUC6Yczii[] = {
/* columns rows colors chars-per-pixel */
"64 64 45 1 ",
"  c #383D3A",
". c #3D413D",
"X c #40443C",
"o c #4A4638",
"O c #504C3C",
"+ c #55513F",
"@ c #5B513F",
"# c #444541",
"$ c #5A4C44",
"% c #585240",
"& c #5B5442",
"* c #5F5643",
"= c #5C5544",
"- c #5F5B47",
"; c #605845",
": c #625249",
"> c #605A49",
", c #635D49",
"< c #6B5F49",
"1 c #69624E",
"2 c #70634E",
"3 c #6E6450",
"4 c #706651",
"5 c #766952",
"6 c #736954",
"7 c #766E57",
"8 c #786C55",
"9 c #786F5A",
"0 c #7C725A",
"q c #84755A",
"w c #83775E",
"e c #827860",
"r c #847960",
"t c #837C64",
"y c #887A60",
"u c #887E65",
"i c #8D8166",
"p c #8D8368",
"a c #8D856C",
"s c #93937D",
"d c #94947D",
"f c #979882",
"g c #9F9F8B",
"h c #9E9F8C",
"j c #9FA08D",
/* pixels */
"aqiyeyayiiiyeyiyeyiyieiy9uiyiye2 ...X. ......tiyeyiii0ii9uiyiyey",
"9qi0iyi9iei0iye0i69yiieyiyiyiy94 ..#... .#.#wfffw69yiyeiiyiyiy9u",
"i8i0ayiyeieuiyiyi0iuiei0a0iyi0e2.X.# ...#.#tffffdfiui0i0a0iyi0ey",
"iqe6iyeuieiyiyiyiyiyeie6e0i6ayi2..# ..# .#.thfggfdffeye6e0i6ayiy",
"iqiyiyeyiyayi0iyi0i6iiiyiuiyeya2......#...tfhggggfjsfyiyiuiyeyay",
"iqiue0iyi0iyiyiueyiyieayeyiyi0i2... X#...#ffggggfjffffayeyiyi0iy",
"iq96eyiyeyeyiyeyi0iyiie6iyiyeye=..  #...#tffggggggfsfff6iyiyeye6",
"aqi0i0a0i0iya0i0iyi6ieiyiyi0iyi2 ..#.X #.fdggggjgfjdfffsiyi0iyiy",
"iqeyeyiy9yi0ey9yiyiyeeeyiue6eyi2..X.#...tfjgggfsgfffffeyiue6eyiy",
"iyi0iyi0iyi0e0iu9yi0aeiyiyi0iyi=...X...Xffggghfjfsff-O5yiyi0iyi6",
"9yeueyiy9yiyeyiyiyeyeeiy9ye0iue2 .# X..:ffggfffffff@+O*2>ye0iuey",
"i0a0iyiyayi0a09yi6i0iiiyi0i0iy9<.# #...afgggjjffff*O*@*25,50iy9y",
"eyiyiyiqiye0e0iyiyi0iyeui0iyiyi<#......ffggfjfsff@*O*<145,iyiyiy",
"iyayiy9qi090eya0iyiyiyiyiyiyiyi;.. ...:fgggjffdf*@*@5<52iyiyiii0",
"i09yiyaqeyayiqi0i0iyi6iyi6iyi0e2.# ...tfggjdsjfO*O*25%5yi6iyieey",
"iyiye0i8iyiyiqiyeyiuiyeyi0a0iya2....#Xffggffff*@+@545qeyi0a0iiay",
"ayiuiyiqiy9yiqi6i0i6i0a0iyeyeye2 .. .:fgggffj-*o*,5=i8a0iyeyeiey",
"iyei9yiqiyayiqeyiuiyeyiyi0eyiyi2..#. wfggjfjw@+@54iyeqiyi0eyiyiy",
"i6ia9yiq90iyi8iui0a0iyeyiye0eyi2. .  ffggdhf*O*450a0iqeyiye0eyiy",
"eyeia0ireyiyeqiyiye0eyiy9yi0iui2#.#. fgggjf@+@5yiye0eqiy9yi0iuiy",
"9yeiiyi8eyi0iqeye0i0i0iyi6eyi6i, .X.:fsgjfpO*2eye0i0i8iyi6eyi6i0",
"iyiaiyeqeyeyiqiyeyeuiyiyi09ueyi2... wfggff+@5yiyeyeuiyiyi09ueyiy",
"9yey90i8e0iyaqiui6iyi0iuiyiye0i2 .#.ffgffw*27yiui6iyi0iuiyiye0iy",
"iyiyeye8ayi0i3e0iyiyiyiyeyi0iyi,....sggff@*,i6e0iyiyiyiieyi0iyi0",
"iyi0eui8eyiyiqiyeyiuiiiieyeyeue2...:fgfhw@5yiyiyeyiuiyiieyeyeuey",
"i0iyeyiqi0iyi8iyiieyieie90i0e092.#.0fghf*Oiyi0iyiyeyi0ie90i0e09y",
"iui0iyi8iyi0iyiyiya0iieie0eueyi2. .dfffp*2i0iyiyiya0iyeie0eueyiy",
"iy9ueyiqayi6iyeuiyiyiu9ei0i0iyi,.. fsff*7yi6iyeuiyiyiu9ei0i0iyi0",
"iyiyi0i8iya0i0iyiyiyiyaiiy9yiui2.. fff*1iya0i0iyiyiyiyaiiy9yiuiy",
"iyayeyeqi0eyeii0ayiye0i0i0iyeyey..:fdf+ii0eyeyi0ayiye0iei0iyeyey",
"i0iqiuiqiyi0iiiyiyeui0iy90iyiyi2.X0ff&5iiyi0iyiyiyeui0iy90iyiyiy",
"iyeqeyiqiy9yiai3ieiyiyeyayiyiyey..fff@iiiy9yiui6i0iyiyeyayiyiyei",
"ayiqeyaqiyiyeiiqeiiyi0iy9uiyiye2 .ff+qaiiyiqeyiyeyiii0iy9uiyiyei",
"9yi8iyi3iei0iie8i99yiyeyiyiyiy9u .ff5qi6i0i8iye0i69iiyeyiyiyiy9a",
"i0i8ayiqeieuiiiqi0iui0i0a0iyi0ey.$f8aqiyeyeriyiyi0iai0i0a0iyi0ey",
"iye3iyerieiyiiiqiyiyeye6e0i6ayiy.0f3iqeui0iqiyiyiyiyeye6e0i6ayiy",
"iyiqiyeqiiayieiqi0i6iyiyiuiyeyay#siqiyeyiyaqi0iyi0i6iyiyiuiyeyay",
"iyire0iqieiyiiireyiyi0ayeyiyi0iy#sire0iyi0iqiyiueyiyi0ayeyiyi0iy",
"iy93eyiqeieyiyeqi0iyiye6iyiyeye6#s96eyiyeyeyiyeyi0iyiye6iyiyeye6",
"ayi8i0a8ieiya0i8iyi6i0iyiyi0iyiq#yi0i0a0i0iya0i0iyi6i0iyiyi0iyiy",
"iyeqeyiq9ii0ey9qiyiie0eyiue6eyiq:yeyeyiy9yi0ey9yiyiye0eyiue6eyiy",
"iqi8iyi8iii0e0ir9yiea0iyiyi0iyi3:yi0iyi0iii0e0iu9yi0a0iyiyi0iyi6",
"9qereyiy9iiyeyiqiyeie0iy9ye0iueq:yeueyiy9iiyeyiyiyeye0iy9ye0iuey",
"i8a0iyiyaii0a09qi6ieiyiyi0i0iy9q:0a0iyiyaii0a09yi6i0iyiyi0i0iy9y",
"eqiyiyiyiie0e0iqiyieiyeui0iyiyiq6yiyiyiyiie0e0iyiyi0iyeui0iyiqiy",
"iqayiy9yie90eya8iyiiiyiqiyiyiyi8:yayiy9yie90eya0iyiyiyiyiyiyiqi0",
"i89yiyayeiayiyi8i0iii6iqi6iyi0ey609yiyayeyayiyi0i0iyi6iyi6iyi8ey",
"iqiye0i0iiiyiyiyeyiaiyeqi0a0iyay6iiye0i0iyiyiyiyeyiuiyeyi0a0iqay",
"aqiuiyiyii9yiyi6i0i9i8a8iyeyeyey0iiuiyiyiy9yiyi6i0i6i0a0iyeyeqey",
"iqey9yiyiiayiyeyiuiieqiyi0eyiyiy6iey9yiyiyayiyeyiuiyeyiyi0eyiqiy",
"i3iu9yiy9eiyi0iui0aeiqeyiye0eyiy09iu9yiy90iyi0iui0a0iyeyiye0eqiy",
"eqeya0iueiiyeyiyiyeeeyiy9yi0iuiy6ieya0iueyiyeyiyiye0eyiy9yi0iriy",
"9qeyiyi0eii0iyeye0i0i0iyi6eyi6i00ieyiyi0eyi0iyeye0i0i0iyi6eyi3i0",
"iqiuiyeyeieyiyiyeyeuiyiii09ueyiy0iiuiyeyeyeyiyiyeyeuiyiyi09ueqiy",
"9qey90i0eeiyayiui6iyi0iaiyiye0iy0iey90i0e0iyayiui6iyi0iuiyiye8iy",
"iqiyeye0aii0i6e0iyiyiyiieyi0iyi00yiyeye0ayi0i6e0iyiyiyiyeyi0iqi0",
"iqi0eui0eiiyiyiyeyiuiyiieyeyeuey6yi0eui0eyiyiyiyeyiuiiiyeyeyerey",
"i8iyeyiyieiyi0iyiyeyi0ie90i0e09y00iyeyiyi0iyi0iyiyeyiei090i0e09y",
"iri0iyi0iii0iyiyiya0iyeie0eueyiy6ui0iyi0iyi0iyiyiya0iieye0eueyiy",
"iq9ueyiiaii6iyeuiyiyiu9ei0i0iyi0iy9ueyiyayi6iyeuiyiyia90i0i0iyi0",
"iqiyi0ieiia0i0iyiyiyiiaiiy9yiuiyiyiyi0ieiya0i0iyiiiyiiayiy9yiuiy",
"iqayeyeiieeyeyi0ayiyeeiei0iyeyeyiyayeyeii0eyeyi0aiiyeei0i0iyeyey",
"i8iyiuiiiii0iyiyiyeuieii90iyiyiyi0iyiuiiiyi0iyiyiieuieiy90iyiyiy",
"iqeyeyiiii9yiui6i0iiiieiayiyiyeyiyeyeyiiiy9yiui6ieiyiieyayiyiyey"
};
