/* XPM */
static char *ca21c42529d7476c9164628d812f47035iNpEFWv2SgEJZq0[] = {
/* columns rows colors chars-per-pixel */
"64 64 11 1 ",
"  c #22724A",
". c #2A834F",
"X c #3E9649",
"o c #2E8D52",
"O c #339757",
"+ c #439F4D",
"@ c #58AB4C",
"# c #47A450",
"$ c #6FB549",
"% c #84BB46",
"& c #B7D17B",
/* pixels */
"@@@@#OOO      X@$%$@@@@@OOOOOOOOOOO#@$@     OOOOOOO     @%$@@@@@",
"@@$@@#OO     X@$@@@@@@@@@@#O....O#@@$@OOOOOOOOOOOOO     @$%%%$$@",
"@@@@%@@#   X@@@@X......#@@@@@@@@@@@$@@OOOOOOOOOOOOO     @%&%$@@@",
"   @$%%@@@@@$@X ......OOOO#@@$%%%%%@@.OOOOOOOOOOOO..    @&%@@X  ",
"... @@@@$%%%@@ ......OOOO...+@@@$%&@X  OOOOOOOO......   @%$@    ",
"....OO#@@@$%@X .....OOOO.....+@@@%%@   .OOOOOO.......   @%@X    ",
"...OOOOO#@@%@OOOOOOOOOOO.......+@$%@    OOOOO........  X@%@     ",
"..OOOOOOO#@$@OOOOOOOOOOO........@@%@    OOOO.........  @@%@     ",
"OOOOO.    @@ OOOOOOOOOOO.......  @%@    OOOO........   @@%@   OO",
"OOOO...   @@ ...OOOOOOOO........ @$@X  .OOOO.......    @@%@X OOO",
"OOO....   @@ .......OOOO........  @$@ .OOOOO ....      @$%$@+OOO",
"OO.....  X@@ ........OOOO.......  .@@@#OOO#@@@        X@%@@@@@#O",
"O......  @$@  ...... .OOO.......  O@$@@@@@@%%$@X      @$@@@@@$@@",
"@@+....X@@%@X  ....   OOOO.....  OO@%&%%$@@@@@@$@X  X@@@X OO#@@@",
"@@@@@@@@@$%@@         OOOOO... .OOO@&&$@@#OO  X@$@@@@$@  OOOOOO ",
".+@@$%%%%%%@@X       .OOOOOOOOOOOO.@%%@@@OOOO..X@@$%%@X  OOOOO. ",
"..+@@@@$%%%$@@X      OOOOOOOOOOOO. @%$@X  OOOO.. X@@@@  OOOOOO  ",
".....+@@$%&%$@@@X  .OOOOOOOOOOOOO  @%@@  ...OOO.....+@ OOOOOO   ",
"......+@@%&&%$$@@@@#OOO   .OOOOOO  @%@X  ....OOO.....+#OOOOO.   ",
".......@@%&%%%%%%$$@@#      OOOOO  @$@   .....OOOOOOOO@OOOOO    ",
".......+@%%$@@@@@@@@@@      .OOOO. @$@   ........OOOOO@#OOOO    ",
"........@%@@@#O.    @@@....  OOOOO#@@X   .........OOOO@@OOOO    ",
"........@$@#OO       @@+.....OOOOO@$@     .........OO#@@OOOO    ",
".......O@@@OO.       +@@.....OOOOO@$@      ........OO@@@OOOO.   ",
" ......O@@#OO        .@@.....OOOO#@%@        ......O#@@@  .OO   ",
"  .....O@@OOO        .@@+...OOOO#@%%@X         ..+@@@@@@X   OO  ",
"   ....@$@OOO.    ...o@$@@+OOO#@@$%%@@.        +@@@@@@@@@   .O  ",
"      X@%@OOOO ......o@@%@@@@@@@@@@@$@@.    X@@@@#OO.+@@@@   O. ",
"      @@%@OOOOO.......+@%&%%$@#OOOO#@@@@@@@@@$@@OOOO...@@@X  OO ",
"     X@$%@OOOOOOO......@$%$@#OOOOOOOO#@@$%&%$@@OOOOO....+@@X OOO",
"   X@@$%%@#OOOOOOO.....@@%@#OOOOOOOOO...@@%&@@#OOOOOO..  X@@@OOO",
"@@@@@@@@@$@OOOOOOOOOOOOO@%@OOOOOOOOO.....@$%@..OOOOOOO    @$@@@@",
"$@@X   .O#@@ ...OOOOOOOO@$@...OOOOO...... @$@...OOOOOOOOOO#@$@@@",
"@@    .OOO@@X.....OOOOOO@$@....OOOO.....  @@@...OOOOOOOOOOO@@%&%",
"@OOOOOOOO.X@@......OOOO..@@ ....OOO....   @@+...OOOO.     O@@$%$",
"OOOOOOOO   X@X......OOO...@@ ...OOO...   X@@ ...OOO.       X@@%@",
"OOOOOOO     @@......OO..  @$@ ..OOO..    @$@  ..OO.         X@%@",
"OOOOOO.     @@X.....OO.   @$@@  OOOO   X@@%@    OO           @$@",
"OOOOOO      @@@     OO   X@%%$@@@#O. X@@@$%@    OO           @$@",
"OOOOOO      X@@X    OO   @%%@@@@@@@@@@@%%%&@   OOO           +@@",
"#OOOOO.      @$@@X  OO X@$$@@X OOO#@@@@@$%%@   OOO.          .@$",
"@ .OOOO      @@%@@@@@@@@@@@X   .OOO    X@%$@  OOOOO         ..+@",
"@   OOOO.    @@&&%%%$@@X        OOO.    @%@@ OOOOOOO.       ...@",
"$@   .OOOOO. @$&%$@@@#O         .OOO    @$@ OOOOOOOOO      ....@",
"@@     OOOOOX@%$@@@#OOO...       OOOO.  @$@OOOOOOOOOO     .....+",
"@@X   ..OOO#@$@@@#OOOOO....      OOOOOOO@@OOOOOOOOOOO     ......",
"@$@  ....O#@@@#OOOOOOOO.....     OOOOOOO@@OO.   .OOOO.    ......",
"@$@@+....@@$@OOOOOOOOOO.....     OOOOOOO@@O       OOOO    ......",
"@%%$@@@@@$%@OOOOOOOOOOO.....     OOOOOO @@         OOOO.  ......",
"@$@@@@@$%%@#OOO.  ..OOO.....     OOOOO..@@+.       .OOOOO ......",
"$@X ..+@@$@OOO.   ...OO.....     OOOO...@$@...      OOOOO .....+",
"@   ....@@@OOO    ....OO....     OOOO...@$@....     OOOOOO ...+@",
"X   ....O#@#OO.   ....OOO...    OOO....+@%@+....    OOOOOOO.+@@@",
"   ....OOO@@OO.    ...O#@@@@X  OOO ....@%&%@@+..   .OOOOOOO@@%$@",
"O.....OOOO#@@X.   X@@@@@$%%$@#OOO  ..+@%&&%%$@@+   OOOOOOO@%%@@#",
"OOOOOOOOOOO@$@@@@@@$@@@@@@@@$@@@@@@@@@@%@@@@@@@@+ OOOOO@@@$@@@#O",
"OOOOOOOOOOOO@$%%&%$@X  OOOO#@@@@@@@$%%%@+......@@@@@@@@@$$@#OOOO",
"OOOOOOOOOO...@@$%$@    OOOOOOOOOOX@@%$@....... O@$$%%%&$@@#OOOOO",
"OOOOOOOOO.....X@%@X    .OOOOOOOOO .@$@+.......OO#@@@$%%$@@OOOOOO",
"OOOOOOOO.....  @%@      OOOOOOOOO  X$@........OOOO#@@@@$@@  ....",
".OOOOOOO....   @%@      OOOOOOOOO   @@....... OOOOOOO@@@$@  ....",
"..OOOOOO       @%@      OOOOOOOOO.  @@......  OOOOOOO X@$@   ...",
"..OOOOOO       @%@X     OOOOOOOOOO  @@X      .OOOOOO   X@@X   ..",
" ..OOOOO       @%@@X    OOOOOOOOOOO @$@      OOOOOO     @$@X    "
};
