/* XPM */
static char *_cd08aef91264ba79103019586855b15kt8rkIVfM3AnGoFt[] = {
/* columns rows colors chars-per-pixel */
"64 64 11 1 ",
"  c #1A7447",
". c #6FB93C",
"X c #23854B",
"o c #27904E",
"O c #3A9942",
"+ c #2D9A53",
"@ c #3FA246",
"# c #44A749",
"$ c #57AF42",
"% c #85BF37",
"& c #B9D475",
/* pixels */
"$$$     ++++$$               ++$$%.$$$$$.$$$@XXXXX@$$$#++++XXXX ",
"$.$     +++#$$+X           X+++$$&%%%..$$@XXXXXXXXX@$.$#+++XXXX ",
"$.$O     ++$.$+++        ++++++$$%.$$$$@XXXXXXXXXXXX$%$$+++XXX  ",
"$%.$      @$$#++++X    X++X   $$.$$$O    XXXXXXXXXXX@$%$+++XX   ",
"$%%$$O   O$$$++++++++++++    O$.$$$O       XXXXXXXXXX$%$#++    O",
".%&%.$$$$$.$$+++++++++++X   O$$$#++         XXXXXXX ++$.$#+   O$",
"%.%&%%%%%%%$$ ++++++++++   $$$O ++                 ++++$.$$$$$$.",
"$$$$$$$$$$.%$O  ++++++++ O$$$@  ++               ++++++$.$$$..$$",
"      O$$$$$.$   +++#$$$$$$$$X  ++              X++++++$$...$$O ",
"           O$$$O  #$$$$$$$$$XXX ++              ++++++++$&%$$O  ",
"             $.$$$@+++#$$$$@XXX+++            X+++++++++$%%$$   ",
"    XXXX     O$%$@X+++++#$$XXX++++X       X+++++++++++++$%.$++  ",
"   XXXXXX     $%$XX++++++$$++++++++X      +++++++X   X++$%$$+++ ",
"+++XXXXXXX    $.$XX+++XXX$$+++++++++X   X+++++++       +$.$#++++",
"++++XXXXXX   O$$OXX++XXXX@$#+++++++++++++++++++         $.$+++++",
"++++XXXXXXX  $.$ XX+XXXXXX$$++++++++++++++++++X        @$$#+++++",
"++++XXXXXXX O.$OXX++XXXXXX@$$+++XXXXX  +++++++      XX@$$+++++++",
"+++++XXXXXX $$OXX+++XXXXX  $$$#XXXXXX    +++++     XXX$$X ++++++",
"++++++XXXXX$.$ X+++XXXXXX  $.$$XXXXX      ++++    XXX@$$XXXX  X+",
"+++++++XXX $%$ +++XXXXXX   O$.$$$$@        +++X   XXX$.$XXXXX   ",
" ++++++++++$%$+++XXXXXXX    $%&%.$$$$$$$$$$ +++  XXX@$%$XXXXXX  ",
" ++++++++++#$$+++XXXXXX     $&%.$$$$.%%&%.$$$+++ @$$$%%$XXXXXX  ",
" +++++++++++$$#+ XXXXX      $%$$   O$$.%%%%..$$$$$..%&&$XXXXXX  ",
" +++++++++++$.$$            $.$XX    $$%.$$$$$$$$$$$$%&$@XXXXX  ",
" ++++X   X++$%$$O          X$$XXXX   O$%$O   +++ XXX@$%%$XXXXX  ",
"$+++      X#$%.$$$O       X$$$XXXXX   $$$    ++++XXXXX$$%$@XXXO$",
".$$X       $$&&%.$$$$O   O$$$#XXXXXX  O$$   X+++++XXXX@$%.$$$$$.",
"$.$$O    O$$.%&%%%%..$$$$$$.$++XXXXXX  $$   ++++++++XXX$%%..$$$$",
"#$.$$$$$$$.$$$$$$$$$$$..%%%$#+++XXXXX+X$$ X+++++++++XXX$.$$O    ",
"+$$%&%%%%.$X+++X     #$$$%%$+++++++++++$#++++++++++++  $$$X    +",
"+#$%%%.$$$   +++X   X+++#$.$++++++++++#$++++++++++++++ $$O   X++",
"++$%.$$$      +++++++++++#$$++++++++++$$+++X        +++$$+++++++",
"+X$%$$@X XXXX X+++++++++++$$++++++XXX $$+X           ++$$+++++++",
"+X$%$$XXXXXXXX +++++++++++#$#++++XXXX $$              +$$+++++++",
"+X$.$@XXXXXXXXX++++++++++++$$+++XXXX $.$O             #$$+++++++",
"+X$$@XXXXXXXXXX+++++X XXX++$.#++XXX $$%$$            O$.$+++++++",
"++$$XXXXXXXXXXX++++   XXXX+$%$#+XX $..%%$O    XXXXXXX$.$#+++++++",
"+#$#XXXXXXXXXX++++X  XXXXX@$%.$$$$$$$$$%.$   XXXXXXXX$%$++++++++",
"+$$+XXXXXXXXX+++++   XXXXX$$&%%%..$X  O$.$  XXXXXXXXX$%$++++++++",
"+$$++XXXXXX+++++++   XXXX@$%%.$$$$XX    $$  XXXXXXXX+$.$++++++++",
"$$#+++++++++++++++   X@$$$.$$$$+++XXX   O$O XXXXXXX++#$$++X     ",
"$$X++++++++++++++++  $$$$$$$@XX+++++XX   $$+++++++++++$$        ",
"$$XX++++++++X  X+++#$$$@XXooXXX++++++++++$$#+++++++XXX$$        ",
"$$XXX++++++X     ++$$$    XXXXX++++++++++$.$++++++XXXX$$O       ",
"$$XXXX++++XXX    X#$$     XXXXX++++XXX   $%$#++++XXXXX$.$      O",
".$XXXX++++XXXX    $.$     XXXXX+++XXXX   $%$$++++XXXX O$.$O   O$",
"%$XXXX++++XXXX    $.$      XXX+++XXXXX  O$%.$#+++      $%.$$$$$$",
".$OXXX++++XXXX   O$%$      XX++++XXXXX  $$&%$$+++      $&%%%%%%%",
"$.$ XX+++XXXXX   $$%$X     XX+++XXXXXX O$%&&.$+++X     $%.$$$$$$",
"O$$O  +++XXXX   O$.%$+      ++++XXXXXO$$.$$.%$#+++X XXX$%$O     ",
" O$$$O+++XXX   O$$.%$#+X  X+++++XXXO$$$$$$$$$.$+++++++O$.$X     ",
"  $.$$$$     O$$$.%%$$++++++++++ O$$$$$O    O$$$++++++$.$XXX    ",
"  O$%%%.$$$$$$$$.%&%.$#+++++++++$$$O       X+#$.$#++#$$$+XXXX   ",
"   $%.$$$$$$.%%%%&&&%$$$#+++++#$$$O        +++#$%$$$$$#++XXXX   ",
"   $%$$#   O$$.%%%%%%%.$$$$$$$$.#+X        ++++$.%.$#+++++XXX   ",
"   $.$#+     $$%%.$$$$$$$$.%%%%$+++       X+++XX$%$$+++++++XX   ",
"++#$$$++     O$%.$$$@XX+++$$$.%$X+++      +++XXX$.$XX+++++++++++",
"++$%$#++ XXXXX$%$$@XXXXXXXXO$$.$ X+++X  X+++ XXX$$@XXX++++++++++",
"+#$%$+++XXXXXX$%$@XXXXXXXXX  O$$  +++++++++X  XX$$XXXXX+++++++++",
"#$%.$++++XXXXX$.$XXXXXXXXXX   $$  +++++++++    @$$XXXXX+++++++++",
"$$$$ X++++XXXX$$$XXXXXXXXXX   O$O ++++++++     $.$   XX+++++++++",
"$.$ XXX++++XX@$$@XXXXXXXXX     $$ +++++++X   O$$%$O   X++++++++X",
"$$$ XXXX++++X$$@XXXXXXXXX      $$$+++++++  $$$..%.$   X++++++XXX",
"$$$ XXXX+++++$$XXXXXXXXX       $.$$+++++#$$.$$$$$$.$O ++++++XXX "
};
