/* XPM */
static char *_ddba3775d6846d58995fc3a8f071d6fS8Ar7yy1ZtPLXuAx[] = {
/* columns rows colors chars-per-pixel */
"64 64 11 1 ",
"  c #1A7447",
". c #6FB93C",
"X c #23854B",
"o c #27904E",
"O c #3A9942",
"+ c #2D9A53",
"@ c #3FA246",
"# c #44A749",
"$ c #57AF42",
"% c #85BF37",
"& c #B9D475",
/* pixels */
"    O$.$     ++++++      $.$ +++++++++++    O$$%$       +++++XX ",
"XX   O$$O   ++++++X      O$$  ++++++++++     O$%$       ++++++XX",
"XXX   $.$O +++++++  XXXXXX$$  X+++++++++      $%$       ++++++XX",
"XXXX  $.$$$+++++++ XXXXXXX$$   +++++++++      $%$   XXXX+++++++X",
"XXXX  $$.$$$$#++++XXXXXXXX$.O  +++++++++      $%$  XXXXX++++++++",
"++++++$$.%%.$$$#++XXXXXXX@$.$X +++++++++X    O$%$OXXXXX+++++++++",
"+++++#$$.&%%%..$+ XXXXXXX$.%$$O++++++++++    $.%.$$XXX++++++++++",
"++++#$..$$$$$$$$$XXXXXX@$%%%.$$$$$$$#++++  O$.%&%%.$++++++++++++",
"+#$$$.$$$+++++ @$$$$$$$$%$$$$$$$$$$.$$$$$$$$.$$$$$$.$+++++++++++",
"#$$%%$+++++++   @$$.%%&&%$@XX  +++#$.%%.$$$$$O   XO$$#++++XXXXX+",
"$.%$$+++++++X   XX@$$%&%$XXXX +++  O$$$$#+XXX    X++$$+++XXXX   ",
"$$$@X+++++++    XXXX@$%$@XXXX+++    XXX+++XXXX   X++#$#+XXXX   O",
"$@XXX ++++++     XXXX$.$XXX++++     XXXX++XXXX    +++$$$XXXX   $",
"@XXXXX +++++      XXX$.$XXX++++     XXXXX++XXX   X+++$.$$@XX O$.",
"XXXXXX +++++X       X@$$XX+++++     XXXXX+++XX  X+++#$%%.$$$$$.$",
"XXXXXX  X++++         $$ ++++++     XXXXX+++++++++++$%.$$$$$.%%$",
"XXXXXX    ++++       +$$+++++++     XXXXX++++++++++$.$$XXXX@$$.$",
"XXXXXX    X++++X   X++$$+++++++     XXXXX++++++++#$$$#+XXXX  $.$",
"XXXXXX     +++++++++++$$+++++++      XXXX+++++#$$$.$#+++XX   O$$",
"@XXXXX     ++++++++++$.$  X++++       XXX+++#$$$.%$O+++++     $$",
"$XXXX      +++++++++ $.$    +++X         +#$$$.%&.$ X+++++X   $.",
"$XXX       X+++++++ $$%$    X+++        O$$.%%%&&$$    X++++   $",
"$@XX         +++++  $.%$O    +++X   O$$$$$$$$$$$%$$      ++++X $",
".$X          X+++   $%%.$$$$$#+++ O$$..$O ++  O$$.$      X+++++#",
"$$@           +++   $&%%%$$$$$$$$$$$%%$   ++    O$$O      ++++++",
"$.$           ++    $%.$$$O X+#$$$.%%$O   ++     $$$      ++++++",
"$.$           ++    $%$$O   ++++  $$.$   X++XXXXXO$$     X++++++",
"$%$O         X++XX  $.$    XX+++XX $.$  XX++XXXXXX$$     +++++++",
"$%$$O       X+++XXX $$O   XXX+++XXX $$XXX+++XXXXXXO$O   ++++++++",
".%.$$+     X++++XXX@$$   XXXX+++XXXX $$XX++++XXXXXX$$OX++++++++$",
"%&%$$+++++++++++XXX$$$  XXXXX++++XXXX$.$++++++XXXXXO$$+++X    $$",
"$$$.$#++++++++++XXX$.$ XXXXXX+++++XXX$.$++++++++XXX $$#+X   O$$.",
"$$$$.$    +++++++XX$%.$XXXXX+++++++++$%$+++++++++++++$.$$$$$$$$$",
"+++$$$O  XX++++++#$$&%$$XXX+++++++++#$%$$XXXXX+++++++#$%%.$$O   ",
"+++ O$$@XXXX+++++$$.%&%.$$#++++++++#$.%.$XXXXXX+++++++$%.$O     ",
" ++  O$$$XXX++++$$.$$$$$$$$$#++++#$.%%&%$@XXXXXXX+++++$%$$      ",
" X+   $$$$@X++#$$$$O    X$$.$$$$$$$$$$$%$$oXXXXXX ++++$%$O      ",
"  +X   $$$$$$$$$@        X$$%%.$$#+++@$$.$oXXX    X+++$.$XXXX   ",
"  ++   O$$$$$$@XX         O$%%$#++++XXX@$$X        +++$$+XXXXX  ",
"   ++X  $$$#+XXXXXX        $%$#++++XXXXX$$X        ++#$$+XXXXXX ",
"   X++++$$$++XXXXXXXX      $.$+++++XXXXX$$@       X++$$$+XXXXXXX",
"    ++++$$#++XXXXXXXXX     $.$+++++XXXXX@$$       ++#$.$XXXXXXXX",
"    ++++$$++++XXXXXXXXX   O$$#+++++  XXXX$$$    X+#$$$%$XXXXXXXX",
"    ++++#$+++++XXXXXXXX   $.$ X++++X      $$$$$$$$$$.%%$@XXXXXXX",
"    +++++$++++++++XXXXX   $.$  +++++      #$$..%%%%%%&%$$XXXXXXX",
"   X+++++#@XXXXX+++XXXX  O$%$  ++++++X   +++#$$$$..%&&%$$@XXXXXX",
"   ++++++ $@XXXXX+++XXX  $$%$  +++++++++++++X  O$$$.%&%.$$@XXXXX",
"  ++++++  $$$$O XX++++  O$.%$ X++++++++++++      O$$.%%%.$$$$@XX",
" X+++++  O$%%.$$OXX++++$$$%%$X++++++++++++X       O$$%%%%%%.$$@X",
" ++++++  $.$$$$.$O  ++#$$.&&$+++X XXX+++++         $$%.$$$$$$$$$",
"$$$#++ O$$$O  O$.$$$$$$.%%&%$++  XXXXX++++   XXXX  O$%$$OXXXX@$$",
"$$.$$$$$.$      O$.%%$$$$$$.$+  XXXXXXX+++X XXXXXX  $.$  XXXXXX+",
"+#$$$$$%$O        $$$#+++#$$$X  XXXXXXX++++XXXXXXXX $$O  XXXXX++",
"+++@$.%.$      XXXX +++++X $.$  XXXXXXXX++++XXXXXXX $$   XXXX+++",
"+++ O$%$$    XXXXXXX++++X  O$.$ XXXXXXXX++++++++XXX $$   XXX++++",
"++   $%$$   XXXXXXXX++++    $%$  XXXXXXX+++++++++++ $$    X+++++",
"     $%$$  XXXXXXXXX++++    $%$$XXXXXXXX+++++++++++$.$#+++++++XX",
"     $%$O  XXXXXXXX+++++    $%.$@XXXXXXX+++++++++++$%$$#+++++XXX",
"    O$%$   XXXXXXX++++++X   $%%$$$@XXXXX++++XXXXX O$%.$$$#++XXXX",
"    $.%$   XXXXXX++++++++  O$&%.$$$@XXX++++XXXXXX $$%%%.$$$$ XXX",
"  O$$%&$    XX++++++++++++X$$%%%%%.$$#++++XXXXXX O$.$$$$$%%.$   ",
"$$$.%&%$     +++++++++++++$$.$$$$$$$$$$$#XXXXXXO$$$$O   #$$%$$$$",
"$..%%%.$     +++++++++++++$.$$#+XXXX+#$$$$$$$$$$.$O     ++#$$.$$",
"$$$$$.%$     +++++++     $.$#+++++++++++$$$$$.%.$O      +++#$$$$"
};
